<?xml version="1.0" encoding="utf-8"?>
<!-- Generator: Adobe Illustrator 28.0.0, SVG Export Plug-In . SVG Version: 6.00 Build 0)  -->
<svg version="1.1" id="Layer_1" xmlns="http://www.w3.org/2000/svg" xmlns:xlink="http://www.w3.org/1999/xlink" x="0px" y="0px"
	 viewBox="0 0 1519 9500" style="enable-background:new 0 0 1519 9500;" xml:space="preserve">
<style type="text/css">
	.st0{fill:#AD354C;}
	.st1{fill:none;stroke:#AD354C;stroke-linecap:round;stroke-linejoin:round;}
</style>
<g>
	<g>
		<path class="st0" d="M4164.14,3546.88c3.22,0,3.22-5,0-5C4160.92,3541.88,4160.91,3546.88,4164.14,3546.88L4164.14,3546.88z"/>
	</g>
</g>
<g>
	<g>
		<path class="st0" d="M6350.74,2710.39c3.22,0,3.22-5,0-5C6347.52,2705.39,6347.51,2710.39,6350.74,2710.39L6350.74,2710.39z"/>
	</g>
</g>
<g id="XMLID_00000064332914111526217010000011267977066549121428_">
	<g>
		<path class="st0" d="M1267.27,1289.17c47.69,16.51,62.89,58.22,49.19,92.66c-14.02,35.3-50.61,63.51-96.87,84.98
			c39.76-20.54,70.66-46.57,83.28-78.32c13.68-34.46-1.5-76.17-49.19-92.67c-23.03-7.96-50.29-9.15-76.63-8.97
			c-89.43,0.59-179,15.15-259.08,42.11c-21.24,7.16-42.46,15.25-63.77,23.38l-0.76-1.18c26.16-9.92,52.13-20.09,78.14-28.85
			c80.06-26.96,169.63-41.53,259.08-42.12C1216.97,1280.01,1244.23,1281.2,1267.27,1289.17z"/>
		<path class="st0" d="M1052.27,698.17c86.43,13.85,158.76,79.65,112,129.83c-9.63,10.35-22.56,18.46-37.6,24.93
			c9.29-5.17,17.4-11.2,24.01-18.28c46.74-50.18-25.57-115.98-112.02-129.84c-86.43-13.85-177.04,5.36-265.11,16.69
			c-88.09,11.33-190.68,11.98-252.38-29.29c-71.81-48.03-52.47-129.15-4.53-189.83c47.94-60.68,119.75-114.81,145.23-180.73
			c18.07-46.76,8.93-96.85-22.02-139.95c1.38-0.7,2.74-1.41,4.11-2.14c0.03,0,0.04-0.01,0.06-0.03c3.22-1.42,6.36-2.92,9.43-4.48
			c30.96,43.1,40.09,93.18,22.02,139.96c-25.48,65.92-97.28,120.04-145.22,180.73c-47.95,60.67-67.29,141.78,4.52,189.83
			c61.72,41.27,164.29,40.62,252.38,29.28C875.23,703.52,965.82,684.31,1052.27,698.17z"/>
		<path class="st0" d="M1131.9,1908.22c18.37,42.33-25.96,87.4-81.88,113.38c-0.71,0.33-1.42,0.66-2.13,0.98
			c50.31-26.54,87.52-68.31,70.4-107.71c-24.6-56.66-135.21-76.76-226.32-74.75c-98.83,2.17-125.26,14.32-222.64,24.9
			c-19.8,2.15-99.05,6.8-112.92-45.36c-1.31-4.93-4.83-17.58-4.31-22.59c8.7-80.98,77.85-158.6,179.67-206.4
			c-94.33,48.17-157.77,122.42-166.06,199.74c-0.54,5.01,2.98,17.68,4.3,22.62c13.89,52.14,93.14,47.49,112.92,45.34
			c97.39-10.58,123.81-22.72,222.65-24.9C996.67,1831.44,1107.28,1851.55,1131.9,1908.22z"/>
		<path class="st0" d="M1000.62,879.67c43.14-5.23,90.44-11.4,126.02-26.72c-36.46,20.32-90.71,27.45-139.62,33.37
			c-131.62,15.97-261.46,38.81-387.84,68.23c-64.07,14.9-129.18,32.4-184.05,58.11c57.54-29.4,128.18-48.61,197.64-64.77
			C739.18,918.47,869.02,895.63,1000.62,879.67z"/>
		<path class="st0" d="M1098.17,1505.33c42.27-8.76,84.86-21.54,121.41-38.52c-39.35,20.35-87.38,35.31-135.01,45.17
			c-95.78,19.84-198.18,26-289.14,54.1c-22.35,6.89-43.65,15.15-63.68,24.58c23.89-12.21,49.79-22.75,77.27-31.23
			C899.99,1531.34,1002.39,1525.16,1098.17,1505.33z"/>
		<path class="st0" d="M1047.89,2022.57c-3.75,1.97-7.58,3.86-11.46,5.67c-55.9,25.97-123.02,39.25-182.52,61.5
			c-12.96,4.85-25.52,10.13-37.62,15.83c16.23-8.26,33.34-15.79,51.22-22.47C926.26,2061.11,992.42,2047.89,1047.89,2022.57z"/>
		<path class="st0" d="M853.44,1351.16l0.76,1.18c-73.74,28.14-148.6,56.65-229.2,47.53c-90.61-10.25-146.67-68.12-154.53-128.95
			c4.95,0.43,9.92,0.79,14.87,1.09c11.42,57.93,66.5,111.39,153.26,121.21C713.96,1401.73,784.31,1377.36,853.44,1351.16z"/>
		<path class="st0" d="M759.24-0.88c2.01,60.58-29.19,137.02-105.8,175.93c-0.15-0.2-0.28-0.4-0.43-0.59
			C722.02,133.35,759.12,59.09,759.24-0.88z"/>
		<path class="st0" d="M816.28,2105.56c-78.87,40.16-137.01,97.73-160.56,160.72c-18.67,49.91-15.38,102.75,7.79,151.25
			c-29.79-45.3-40.72-92.9-21.39-144.59C667,2206.38,730.5,2145.88,816.28,2105.56z"/>
		<path class="st0" d="M708.86,1135.63c39.27,28.57,20.71,78-25.74,102.84c-3.99,2.14-8.12,4.13-12.36,5.97
			c45.54-25.04,63.44-73.84,24.51-102.16c-32.57-23.68-93.3-24.42-135.77-7.51c-1.47,0.58-2.91,1.18-4.33,1.79
			c5.61-3.09,11.58-5.92,17.92-8.44C615.57,1111.21,676.3,1111.95,708.86,1135.63z"/>
		<path class="st0" d="M653.01,174.46c0.15,0.19,0.28,0.39,0.43,0.59c-3.07,1.56-6.21,3.06-9.43,4.48
			C647.08,177.91,650.08,176.22,653.01,174.46z"/>
		<path class="st0" d="M670.76,1244.45c-0.4,0.23-0.81,0.46-1.22,0.67c-46.45,24.85-110.58,29.95-169.96,27.6
			c-4.73-0.19-9.49-0.43-14.24-0.72c-0.52-2.56-0.93-5.15-1.27-7.73c9.7,0.83,19.44,1.41,29.12,1.79
			C567.45,1268.21,625.69,1264.14,670.76,1244.45z"/>
		<path class="st0" d="M653.01,174.46c-2.94,1.76-5.93,3.45-9,5.08c-0.01,0.02-0.03,0.03-0.06,0.03c-0.8,0.36-1.59,0.71-2.41,1.06
			c-0.63,0.28-1.27,0.54-1.91,0.8c-20.77-28.83-51.33-54.51-90.03-73.99c-17.97-9.05-38.58-17.06-61.49-17.79
			c-12.15-0.39-23.12,1.49-32.68,5c12.19-7.65,27.89-12.25,46.28-11.65c22.91,0.74,43.51,8.75,61.5,17.8
			C601.78,120.19,632.23,145.76,653.01,174.46z"/>
		<path class="st0" d="M641.55,180.63c0.81-0.35,1.61-0.7,2.41-1.06c-1.36,0.73-2.73,1.44-4.11,2.14c-0.06-0.09-0.13-0.18-0.21-0.28
			C640.28,181.18,640.92,180.91,641.55,180.63z"/>
		<path class="st0" d="M639.64,181.43c0.07,0.1,0.15,0.19,0.21,0.28c-3.88,1.96-7.85,3.82-11.91,5.57
			c-57.82,24.93-141.94,31.79-190.71,0.96C397.06,162.86,411,111,455.42,94.66c-33.25,20.85-40.33,64.35-4.62,86.92
			C499.07,212.07,581.88,205.71,639.64,181.43z"/>
		<path class="st0" d="M555.16,1136.57c-32.02,17.59-52.49,43.65-63.51,70.13c-7.72,18.53-10.1,38.21-7.59,57.58
			c-4.79-0.41-9.58-0.88-14.34-1.43c-0.99-16.73,1.7-33.53,8.34-49.5C490.54,1183.31,515.23,1153.79,555.16,1136.57z"/>
		<path class="st0" d="M484.06,1264.28c0.34,2.58,0.76,5.17,1.27,7.73c-4.95-0.3-9.92-0.66-14.87-1.09
			c-0.35-2.69-0.6-5.38-0.75-8.07C474.48,1263.39,479.26,1263.87,484.06,1264.28z"/>
		<path class="st0" d="M469.72,1262.85c0.14,2.69,0.4,5.38,0.75,8.07c-51.57-4.41-102.24-15.67-137.09-39.88
			c-66.95-46.5-49.73-126.28,13.14-176.77c19.92-16,43.17-29.69,68.62-41.61c-20.15,10.3-38.72,21.84-55.03,34.95
			c-62.87,50.5-80.09,130.27-13.12,176.78C378.58,1246.35,423.22,1257.66,469.72,1262.85z"/>
	</g>
	<g>
		<path class="st1" d="M1126.65,852.95c-36.46,20.32-90.71,27.45-139.62,33.37c-131.62,15.97-261.46,38.81-387.84,68.23
			c-64.07,14.9-129.18,32.4-184.05,58.11c-25.45,11.92-48.71,25.61-68.62,41.61c-62.87,50.49-80.09,130.27-13.14,176.77
			c34.85,24.21,85.52,35.48,137.09,39.88c4.95,0.43,9.92,0.79,14.87,1.09c4.75,0.29,9.51,0.52,14.24,0.72
			c59.39,2.35,123.51-2.75,169.96-27.6c0.41-0.22,0.82-0.45,1.22-0.67c45.54-25.04,63.44-73.84,24.51-102.16
			c-32.57-23.68-93.3-24.42-135.77-7.51c-1.47,0.58-2.91,1.18-4.33,1.79c-39.94,17.21-64.62,46.74-77.1,76.78
			c-6.64,15.96-9.34,32.77-8.34,49.5c0.14,2.69,0.4,5.38,0.75,8.07c7.87,60.83,63.92,118.7,154.53,128.95
			c80.6,9.12,155.45-19.39,229.2-47.53c21.31-8.13,42.53-16.23,63.77-23.38c80.08-26.96,169.65-41.52,259.08-42.11
			c26.34-0.18,53.59,1.01,76.63,8.97c47.69,16.51,62.88,58.22,49.19,92.67c-12.62,31.76-43.52,57.78-83.28,78.32
			c-39.35,20.35-87.38,35.31-135.01,45.17c-95.78,19.84-198.18,26-289.14,54.1c-22.35,6.89-43.65,15.15-63.68,24.58
			c-101.81,47.8-170.97,125.42-179.67,206.4c-0.52,5.01,3,17.67,4.31,22.59c13.87,52.16,93.12,47.51,112.92,45.36
			c97.39-10.58,123.81-22.73,222.64-24.9c91.11-2.01,201.72,18.09,226.32,74.75c17.12,39.4-20.09,81.17-70.4,107.71
			c-3.75,1.97-7.58,3.86-11.46,5.67c-55.9,25.97-123.02,39.25-182.52,61.5c-12.96,4.85-25.52,10.13-37.62,15.83
			c-85.78,40.31-149.28,100.81-174.16,167.38c-19.33,51.69-8.4,99.29,21.39,144.59c14,21.27,32.15,42.05,53.28,62.51"/>
		<path class="st1" d="M455.44,94.65c9.57-3.51,20.53-5.39,32.68-5c22.91,0.73,43.51,8.74,61.49,17.79
			c38.7,19.48,69.26,45.16,90.03,73.99c0.07,0.1,0.15,0.19,0.21,0.28c30.95,43.1,40.09,93.19,22.02,139.95
			c-25.48,65.92-97.29,120.04-145.23,180.73c-47.94,60.67-67.28,141.79,4.53,189.83c61.71,41.27,164.29,40.62,252.38,29.29
			c88.07-11.34,178.68-30.55,265.11-16.69c86.45,13.86,158.76,79.66,112.02,129.84c-6.6,7.07-14.72,13.11-24.01,18.28"/>
		<path class="st1" d="M643.96,179.57c-1.36,0.73-2.73,1.44-4.11,2.14c-3.88,1.96-7.85,3.82-11.91,5.57
			c-57.82,24.93-141.94,31.79-190.71,0.96C397.06,162.86,411,111,455.42,94.66"/>
		<path class="st1" d="M759.24-0.88c-0.13,59.97-37.22,134.22-106.23,175.34c-2.94,1.76-5.93,3.45-9,5.08"/>
		<path class="st1" d="M759.24-0.88c2.01,60.58-29.19,137.02-105.8,175.93c-3.07,1.56-6.21,3.06-9.43,4.48
			c-0.01,0.02-0.03,0.03-0.06,0.03c-0.8,0.36-1.59,0.71-2.41,1.06c-0.63,0.28-1.27,0.54-1.91,0.8
			c-57.76,24.28-140.57,30.64-188.83,0.15c-35.71-22.57-28.63-66.07,4.62-86.92c0.01,0,0.01-0.01,0.01-0.01
			c12.19-7.65,27.89-12.25,46.28-11.65c22.91,0.74,43.51,8.75,61.5,17.8c38.56,19.39,69.01,44.97,89.79,73.67
			c0.15,0.19,0.28,0.39,0.43,0.59c30.96,43.1,40.09,93.18,22.02,139.96c-25.48,65.92-97.28,120.04-145.22,180.73
			c-47.95,60.67-67.29,141.78,4.52,189.83c61.72,41.27,164.29,40.62,252.38,29.28c88.09-11.34,178.68-30.55,265.13-16.68
			c86.43,13.85,158.76,79.65,112,129.83c-9.63,10.35-22.56,18.46-37.6,24.93c-0.01,0.01-0.01,0.01-0.03,0.01
			c-35.58,15.32-82.88,21.49-126.02,26.72c-131.6,15.96-261.45,38.8-387.84,68.22c-69.46,16.16-140.11,35.37-197.64,64.77
			c-20.15,10.3-38.72,21.84-55.03,34.95c-62.87,50.5-80.09,130.27-13.12,176.78c31.6,21.96,76.23,33.27,122.73,38.46
			c4.77,0.54,9.55,1.02,14.34,1.43c9.7,0.83,19.44,1.41,29.12,1.79c54.26,2.14,112.51-1.93,157.58-21.62
			c4.24-1.85,8.37-3.83,12.36-5.97c46.45-24.84,65.02-74.27,25.74-102.84c-32.56-23.68-93.29-24.42-135.77-7.5
			c-6.34,2.52-12.31,5.35-17.92,8.44c-32.02,17.59-52.49,43.65-63.51,70.13c-7.72,18.53-10.1,38.21-7.59,57.58
			c0.34,2.58,0.76,5.17,1.27,7.73c11.42,57.93,66.5,111.39,153.26,121.21c75.37,8.52,145.72-15.86,214.85-42.05
			c26.16-9.92,52.13-20.09,78.14-28.85c80.06-26.96,169.63-41.53,259.08-42.12c26.32-0.18,53.58,1.01,76.61,8.98
			c47.69,16.51,62.89,58.22,49.19,92.66c-14.02,35.3-50.61,63.51-96.87,84.98c-36.55,16.99-79.14,29.76-121.41,38.52
			c-95.78,19.83-198.18,26-289.14,54.09c-27.48,8.49-53.38,19.02-77.27,31.23c-94.33,48.17-157.77,122.42-166.06,199.74
			c-0.54,5.01,2.98,17.68,4.3,22.62c13.89,52.14,93.14,47.49,112.92,45.34c97.39-10.58,123.81-22.72,222.65-24.9
			c91.11-2.01,201.72,18.09,226.33,74.76c18.37,42.33-25.96,87.4-81.88,113.38c-0.71,0.33-1.42,0.66-2.13,0.98
			c-55.47,25.32-121.63,38.54-180.39,60.52c-17.88,6.69-34.99,14.21-51.22,22.47c-78.87,40.16-137.01,97.73-160.56,160.72
			c-18.67,49.91-15.38,102.75,7.79,151.25c7.42,15.52,16.87,30.6,28.3,45"/>
	</g>
</g>
<g id="XMLID_00000060708948118504223850000017962093420134705329_">
	<g>
		<path class="st0" d="M185.76,3640.29c-46.89,18.66-60.18,61.02-44.93,94.8c15.62,34.62,53.44,61.14,100.64,80.48
			c-40.66-18.71-72.7-43.3-86.76-74.45c-15.24-33.8-1.97-76.16,44.93-94.81c22.65-9,49.82-11.43,76.14-12.45
			c89.36-3.48,179.5,6.99,260.72,30.28c21.55,6.18,43.11,13.3,64.77,20.46l0.7-1.21c-26.58-8.72-52.99-17.7-79.37-25.27
			c-81.21-23.28-171.35-33.77-260.72-30.29C235.58,3628.85,208.41,3631.28,185.76,3640.29z"/>
		<path class="st0" d="M373.64,3040.12c-85.71,17.77-154.97,86.79-105.98,134.8c10.1,9.9,23.38,17.42,38.7,23.2
			c-9.51-4.74-17.9-10.4-24.81-17.16c-48.97-48,20.27-117.02,105.99-134.81c85.71-17.77,177.1-2.7,265.6,4.61
			c88.51,7.31,191.02,3.29,250.79-40.75c69.55-51.25,46.54-131.41-4.11-189.84c-50.65-58.44-124.85-109.24-153.3-173.93
			c-20.18-45.89-13.33-96.34,15.63-140.81c-1.41-0.64-2.8-1.28-4.2-1.95c-0.03,0-0.04-0.01-0.07-0.03c-3.28-1.27-6.5-2.61-9.64-4.02
			c-28.94,44.46-35.78,94.9-15.6,140.79c28.45,64.69,102.64,115.49,153.29,173.93c50.66,58.43,73.68,138.57,4.13,189.84
			c-59.78,44.04-162.28,48.05-250.79,40.73S459.37,3022.34,373.64,3040.12z"/>
		<path class="st0" d="M349.15,4252.54c-16.43,43.12,29.91,86.13,86.95,109.53c0.73,0.3,1.45,0.59,2.18,0.88
			c-51.47-24.22-90.54-64.26-75.23-104.39c22-57.72,131.58-82.84,222.68-84.97c98.83-2.33,125.78,8.6,223.55,14.74
			c19.88,1.24,99.26,2.29,110.74-50.45c1.09-4.98,4.03-17.79,3.28-22.77c-12.37-80.5-84.99-154.89-188.87-198.01
			c96.43,43.83,163.18,115.11,174.98,191.98c0.77,4.98-2.18,17.8-3.26,22.79c-11.5,52.72-90.88,51.67-110.74,50.43
			c-97.77-6.14-124.72-17.06-223.55-14.74C480.74,4169.69,371.16,4194.81,349.15,4252.54z"/>
		<path class="st0" d="M433.49,3219.08c-43.33-3.26-90.87-7.27-127.11-20.96c37.35,18.64,91.87,23.3,140.99,26.98
			c132.21,9.97,262.96,26.87,390.55,50.52c64.68,11.97,130.52,26.49,186.5,49.68c-58.81-26.75-130.26-42.73-200.38-55.71
			C696.43,3245.94,565.69,3229.04,433.49,3219.08z"/>
		<path class="st0" d="M364.52,3848.54c-42.63-6.83-85.76-17.65-123.04-32.96c40.24,18.53,88.9,31.29,136.92,38.98
			c96.58,15.46,199.16,16.96,291.3,40.89c22.65,5.87,44.29,13.15,64.73,21.65c-24.42-11.11-50.77-20.46-78.61-27.69
			C563.67,3865.5,461.1,3863.99,364.52,3848.54z"/>
		<path class="st0" d="M438.27,4362.95c3.84,1.8,7.74,3.51,11.71,5.14c57.02,23.4,124.68,33.61,185.13,53.13
			c13.16,4.25,25.95,8.96,38.31,14.1c-16.59-7.51-34.03-14.25-52.19-20.12C561.53,4395.92,494.84,4385.72,438.27,4362.95z"/>
		<path class="st0" d="M601.98,3683.39l-0.7,1.21c74.95,24.76,151.02,49.83,231.12,37.06c90.05-14.37,143.42-74.72,148.51-135.85
			c-4.93,0.65-9.87,1.24-14.8,1.76c-8.78,58.39-61.36,114.3-147.59,128.05C743.61,3727.56,672.23,3706.42,601.98,3683.39z"/>
		<path class="st0" d="M634.36,2337.41c0.54,43.77,18.84,90.77,58.46,126.55c15.25,13.76,33.66,25.87,55.42,35.48
			c0.15-0.22,0.29-0.43,0.43-0.65c-67.34-36.07-107.22-103.4-113.4-161.44L634.36,2337.41z"/>
		<path class="st0" d="M673.42,4435.32c80.62,36.53,141.31,91.39,167.71,153.25c20.84,48.85,20.11,101.58-0.63,150.96
			c27.47-46.46,36.1-94.34,14.51-144.93C827.13,4529.24,760.95,4471.69,673.42,4435.32z"/>
		<path class="st0" d="M736.6,3461.51c-37.93,30.33-17.14,78.86,30.4,101.57c4.08,1.95,8.3,3.75,12.62,5.4
			c-46.64-22.94-66.74-70.88-29.13-100.94c31.46-25.14,92.09-28.64,135.29-13.68c1.49,0.51,2.96,1.05,4.41,1.6
			c-5.74-2.84-11.84-5.39-18.29-7.62C828.68,3432.87,768.05,3436.37,736.6,3461.51z"/>
		<path class="st0" d="M748.66,2498.79c-0.14,0.21-0.28,0.42-0.43,0.65c3.14,1.41,6.36,2.74,9.64,4.02
			C754.74,2501.97,751.67,2500.42,748.66,2498.79z"/>
		<path class="st0" d="M779.61,3568.48c0.41,0.21,0.83,0.42,1.25,0.62c47.54,22.71,111.83,24.89,171.04,19.84
			c4.72-0.41,9.46-0.86,14.19-1.36c0.4-2.59,0.69-5.19,0.92-7.78c-9.66,1.27-19.36,2.3-29.01,3.11
			C883.9,3587.51,825.53,3586.1,779.61,3568.48z"/>
		<path class="st0" d="M748.66,2498.79c3.01,1.63,6.08,3.18,9.21,4.66c0.03,0.02,0.04,0.03,0.07,0.03c0.81,0.32,1.62,0.64,2.45,0.95
			c0.64,0.25,1.29,0.48,1.94,0.71c19.44-29.74,48.8-56.79,86.57-78.01c17.54-9.86,37.76-18.8,60.61-20.57
			c12.12-0.94,23.16,0.43,32.88,3.5c-12.53-7.08-28.41-10.96-46.76-9.54c-22.85,1.79-43.07,10.72-60.63,20.58
			C797.37,2442.24,768.11,2469.18,748.66,2498.79z"/>
		<path class="st0" d="M760.39,2504.43c-0.83-0.31-1.64-0.63-2.45-0.95c1.4,0.67,2.79,1.32,4.2,1.95c0.06-0.09,0.12-0.19,0.19-0.29
			C761.68,2504.92,761.03,2504.68,760.39,2504.43z"/>
		<path class="st0" d="M762.33,2505.14c-0.07,0.1-0.14,0.2-0.19,0.29c3.97,1.78,8.02,3.46,12.15,5.02
			c58.89,22.27,143.24,25.29,190.56-7.72c38.97-27.18,22.69-78.34-22.44-92.65c34.16,19.31,43.21,62.45,8.57,86.62
			C904.15,2529.35,821.14,2526.77,762.33,2505.14z"/>
		<path class="st0" d="M890.18,3455.45c32.79,16.11,54.42,41.22,66.64,67.16c8.55,18.16,11.82,37.71,10.21,57.17
			c4.77-0.63,9.53-1.32,14.26-2.08c0.23-16.75-3.23-33.42-10.59-49.07C956.86,3499.2,930.86,3470.83,890.18,3455.45z"/>
		<path class="st0" d="M967.02,3579.79c-0.23,2.59-0.52,5.2-0.92,7.78c4.93-0.52,9.88-1.11,14.8-1.76c0.22-2.7,0.36-5.4,0.38-8.1
			C976.55,3578.47,971.79,3579.16,967.02,3579.79z"/>
		<path class="st0" d="M981.29,3577.71c-0.02,2.7-0.16,5.4-0.38,8.1c51.32-6.75,101.42-20.31,135.13-46.08
			c64.76-49.49,43.93-128.41-21.17-175.99c-20.62-15.08-44.48-27.7-70.45-38.44c20.6,9.37,39.67,20.06,56.56,32.41
			c65.1,47.59,85.93,126.49,21.15,176C1071.57,3557.08,1027.5,3570.41,981.29,3577.71z"/>
	</g>
	<g>
		<path class="st1" d="M840.5,4739.54c-7.43,12.55-16.24,25-26.19,37.38"/>
		<path class="st1" d="M306.39,3198.12c37.35,18.64,91.87,23.3,140.99,26.98c132.21,9.97,262.96,26.87,390.55,50.52
			c64.68,11.97,130.52,26.49,186.5,49.68c25.97,10.75,49.82,23.36,70.45,38.44c65.1,47.58,85.93,126.49,21.17,175.99
			c-33.72,25.77-83.82,39.33-135.13,46.08c-4.93,0.65-9.87,1.24-14.8,1.76c-4.73,0.51-9.48,0.96-14.19,1.36
			c-59.22,5.05-123.51,2.87-171.04-19.84c-0.42-0.2-0.84-0.41-1.25-0.62c-46.64-22.94-66.74-70.88-29.13-100.94
			c31.46-25.14,92.09-28.64,135.29-13.68c1.49,0.51,2.96,1.05,4.41,1.6c40.68,15.38,66.68,43.75,80.52,73.2
			c7.36,15.64,10.82,32.31,10.59,49.07c-0.02,2.7-0.16,5.4-0.38,8.1c-5.09,61.13-58.46,121.48-148.51,135.85
			c-80.1,12.77-156.18-12.3-231.12-37.06c-21.66-7.15-43.22-14.28-64.77-20.46c-81.22-23.28-171.36-33.75-260.72-30.28
			c-26.32,1.02-53.49,3.45-76.14,12.45c-46.89,18.66-60.16,61.02-44.93,94.81c14.05,31.15,46.1,55.74,86.76,74.45
			c40.24,18.53,88.9,31.29,136.92,38.98c96.58,15.46,199.16,16.96,291.3,40.89c22.65,5.87,44.29,13.15,64.73,21.65
			c103.88,43.12,176.5,117.51,188.87,198.01c0.75,4.98-2.19,17.79-3.28,22.77c-11.48,52.74-90.87,51.7-110.74,50.45
			c-97.77-6.14-124.72-17.07-223.55-14.74c-91.1,2.14-200.68,27.25-222.68,84.97c-15.31,40.14,23.76,80.17,75.23,104.39
			c3.84,1.8,7.74,3.51,11.71,5.14c57.02,23.4,124.68,33.61,185.13,53.13c13.16,4.25,25.95,8.96,38.31,14.1
			c87.53,36.37,153.72,93.92,181.59,159.28c21.59,50.58,12.96,98.47-14.51,144.93"/>
		<path class="st1" d="M942.4,2410.07c-9.72-3.07-20.76-4.45-32.88-3.5c-22.85,1.77-43.07,10.71-60.61,20.57
			c-37.78,21.22-67.14,48.27-86.57,78.01c-0.07,0.1-0.14,0.2-0.19,0.29c-28.96,44.47-35.81,94.92-15.63,140.81
			c28.45,64.69,102.66,115.49,153.3,173.93c50.65,58.43,73.66,138.59,4.11,189.84c-59.76,44.04-162.28,48.05-250.79,40.75
			c-88.5-7.32-179.88-22.39-265.6-4.61c-85.73,17.78-154.97,86.8-105.99,134.81c6.92,6.77,15.3,12.42,24.81,17.16"/>
		<path class="st1" d="M757.94,2503.48c1.4,0.67,2.79,1.32,4.2,1.95c3.97,1.78,8.02,3.46,12.15,5.02
			c58.89,22.27,143.24,25.29,190.56-7.72c38.97-27.18,22.69-78.34-22.44-92.65"/>
		<path class="st1" d="M634.56,2328.46c0.14,2.93,0.37,5.89,0.7,8.88c6.17,58.04,46.06,125.37,113.4,161.44
			c3.01,1.63,6.08,3.18,9.21,4.66"/>
		<path class="st1" d="M634.36,2337.41c0.54,43.77,18.84,90.77,58.46,126.55c15.25,13.76,33.66,25.87,55.42,35.48
			c3.14,1.41,6.36,2.74,9.64,4.02c0.03,0.02,0.04,0.03,0.07,0.03c0.81,0.32,1.62,0.64,2.45,0.95c0.64,0.25,1.29,0.48,1.94,0.71
			c58.81,21.63,141.82,24.21,188.65-8.44c34.64-24.17,25.59-67.31-8.57-86.62c-0.01-0.01-0.01-0.01-0.01-0.01
			c-12.53-7.08-28.41-10.96-46.76-9.54c-22.85,1.79-43.07,10.72-60.63,20.58c-37.63,21.13-66.9,48.06-86.35,77.68
			c-0.14,0.21-0.28,0.42-0.43,0.65c-28.94,44.46-35.78,94.9-15.6,140.79c28.45,64.69,102.64,115.49,153.29,173.93
			c50.66,58.43,73.68,138.57,4.13,189.84c-59.78,44.04-162.28,48.05-250.79,40.73s-179.88-22.39-265.61-4.6
			c-85.71,17.77-154.97,86.79-105.98,134.8c10.1,9.9,23.38,17.42,38.7,23.2c0,0,0.01,0.01,0.03,0.01
			c36.24,13.68,83.77,17.7,127.11,20.96c132.19,9.96,262.94,26.86,390.55,50.51c70.12,12.98,141.57,28.96,200.38,55.71
			c20.6,9.37,39.67,20.06,56.56,32.41c65.1,47.59,85.93,126.49,21.15,176c-30.57,23.37-74.64,36.7-120.86,44
			c-4.74,0.76-9.49,1.45-14.26,2.08c-9.66,1.27-19.36,2.3-29.01,3.11c-54.11,4.61-112.48,3.2-158.4-14.43
			c-4.32-1.65-8.53-3.45-12.62-5.4c-47.54-22.7-68.33-71.23-30.4-101.57c31.45-25.14,92.08-28.64,135.29-13.67
			c6.45,2.23,12.55,4.78,18.29,7.62c32.79,16.11,54.42,41.22,66.64,67.16c8.55,18.16,11.82,37.71,10.21,57.17
			c-0.23,2.59-0.52,5.2-0.92,7.78c-8.78,58.39-61.36,114.3-147.59,128.05c-74.9,11.94-146.29-9.21-216.54-32.24
			c-26.58-8.72-52.99-17.7-79.37-25.27c-81.21-23.28-171.35-33.77-260.72-30.29c-26.3,1.02-53.48,3.45-76.13,12.46
			c-46.89,18.66-60.18,61.02-44.93,94.8c15.62,34.62,53.44,61.14,100.64,80.48c37.29,15.3,80.41,26.13,123.04,32.96
			c96.58,15.45,199.16,16.96,291.3,40.87c27.84,7.23,54.19,16.57,78.61,27.69c96.43,43.83,163.18,115.11,174.98,191.98
			c0.77,4.98-2.18,17.8-3.26,22.79c-11.5,52.72-90.88,51.67-110.74,50.43c-97.77-6.14-124.72-17.06-223.55-14.74
			c-91.1,2.14-200.68,27.25-222.7,84.98c-16.43,43.12,29.91,86.13,86.95,109.53c0.73,0.3,1.45,0.59,2.18,0.88
			c56.56,22.77,123.26,32.96,182.96,52.25c18.16,5.87,35.6,12.6,52.19,20.12c80.62,36.53,141.31,91.39,167.71,153.25
			c20.84,48.85,20.11,101.58-0.63,150.96c0,0.01,0,0.01,0,0.01c-5.22,12.45-11.72,24.7-19.47,36.61"/>
	</g>
</g>
<g id="XMLID_00000047767654216084375890000014279016017608175286_">
	<g>
		<path class="st0" d="M1366.37,5945.55c47.71,16.51,62.89,58.22,49.21,92.67c-14.02,35.31-50.65,63.53-96.94,85
			c39.81-20.54,70.73-46.58,83.35-78.35c13.67-34.46-1.5-76.17-49.21-92.67c-23.04-7.98-50.29-9.15-76.63-8.98
			c-89.43,0.59-179,15.15-259.06,42.11c-18.63,6.28-37.26,13.29-55.93,20.39l-0.76-1.18c23.5-8.96,46.89-17.98,70.3-25.86
			c80.05-26.96,169.62-41.52,259.06-42.11C1316.07,5936.4,1343.33,5937.58,1366.37,5945.55z"/>
		<path class="st0" d="M1151.39,5354.56c86.42,13.85,158.74,79.65,112,129.83c-9.68,10.39-22.65,18.5-37.71,24.98
			c9.33-5.18,17.5-11.23,24.12-18.33c46.73-50.17-25.58-115.97-112.02-129.83c-86.43-13.86-177.04,5.36-265.13,16.68
			c-88.09,11.34-190.68,11.99-252.37-29.29c-71.81-48.02-52.47-129.14-4.53-189.83c47.94-60.67,119.74-114.79,145.22-180.73
			c18.07-46.77,8.94-96.85-22-139.94c1.38-0.7,2.76-1.41,4.12-2.14c3.25-1.44,6.42-2.93,9.5-4.46
			c30.92,43.08,40.05,93.15,21.98,139.9c-25.48,65.92-97.28,120.04-145.2,180.73c-47.95,60.67-67.29,141.79,4.52,189.84
			c61.71,41.27,164.28,40.62,252.37,29.27C974.35,5359.91,1064.94,5340.7,1151.39,5354.56z"/>
		<path class="st0" d="M1231,6564.6c18.39,42.34-25.96,87.42-81.86,113.38c-0.65,0.3-1.31,0.61-1.96,0.89
			c50.21-26.53,87.32-68.25,70.22-107.61c-24.6-56.67-135.2-76.78-226.31-74.76c-98.83,2.17-125.27,14.33-222.66,24.91
			c-19.8,2.15-99.05,6.79-112.91-45.36c-1.31-4.93-4.85-17.58-4.32-22.6c8.71-80.98,77.88-158.6,179.7-206.41
			c-94.35,48.17-157.78,122.43-166.09,199.75c-0.54,5.02,3,17.68,4.31,22.62c13.87,52.14,93.12,47.5,112.91,45.35
			c97.39-10.58,123.83-22.73,222.66-24.91C1095.79,6487.82,1206.38,6507.93,1231,6564.6z"/>
		<path class="st0" d="M1099.74,5536.05c43.1-5.23,90.36-11.39,125.94-26.68c-36.48,20.28-90.67,27.41-139.53,33.33
			c-131.62,15.97-261.46,38.8-387.86,68.22c-64.13,14.92-129.28,32.45-184.18,58.19c57.55-29.43,128.27-48.67,197.77-64.85
			C838.29,5574.86,968.13,5552.02,1099.74,5536.05z"/>
		<path class="st0" d="M1197.27,6161.72c42.25-8.76,84.82-21.53,121.36-38.49c-39.34,20.32-87.36,35.28-134.95,45.14
			c-95.77,19.84-198.16,26-289.12,54.1c-22.34,6.89-43.63,15.16-63.66,24.57c23.89-12.2,49.78-22.72,77.24-31.21
			C999.11,6187.73,1101.5,6181.55,1197.27,6161.72z"/>
		<path class="st0" d="M1147.18,6678.86c-3.81,2.01-7.69,3.94-11.63,5.77c-55.9,25.96-123.04,39.24-182.52,61.5
			c-12.96,4.85-25.5,10.13-37.61,15.82c16.23-8.26,33.34-15.79,51.2-22.47C1025.42,6717.47,1091.68,6704.25,1147.18,6678.86z"/>
		<path class="st0" d="M960.39,6004.55l0.76,1.18c-76.3,29.06-153.59,59.97-237.04,50.52c-90.62-10.24-146.68-68.1-154.53-128.94
			c4.95,0.42,9.92,0.78,14.87,1.07c11.41,57.93,66.48,111.41,153.26,121.21C815.93,6058.45,888.74,6031.85,960.39,6004.55z"/>
		<path class="st0" d="M858.97,4664.44c2.01,60.56-29.72,128.91-106.38,167.06c-0.15-0.22-0.31-0.43-0.46-0.64
			c65.63-39.11,102.39-108.17,105.94-166.43L858.97,4664.44z"/>
		<path class="st0" d="M915.41,6761.96c-78.89,40.15-137.02,97.72-160.58,160.72c-18.61,49.78-15.43,102.45,7.54,150.86
			c-29.6-45.18-40.41-92.66-21.13-144.2C766.11,6862.75,829.62,6802.26,915.41,6761.96z"/>
		<path class="st0" d="M807.97,5792.03c39.27,28.57,20.7,77.99-25.74,102.83c-3.98,2.13-8.1,4.11-12.33,5.96
			c45.52-25.06,63.39-73.83,24.48-102.14c-32.57-23.69-93.3-24.42-135.77-7.52c-1.47,0.58-2.91,1.18-4.33,1.79
			c5.61-3.09,11.58-5.91,17.92-8.44C714.69,5767.6,775.42,5768.33,807.97,5792.03z"/>
		<path class="st0" d="M752.13,4830.86c0.15,0.21,0.31,0.42,0.46,0.64c-3.09,1.54-6.26,3.02-9.5,4.46
			C746.17,4834.33,749.18,4832.63,752.13,4830.86z"/>
		<path class="st0" d="M769.9,5900.82c-0.41,0.24-0.84,0.47-1.26,0.7c-46.44,24.84-110.56,29.94-169.95,27.59
			c-4.73-0.19-9.49-0.43-14.24-0.72c-0.52-2.56-0.94-5.15-1.27-7.73c9.72,0.83,19.46,1.41,29.12,1.8
			C666.58,5924.6,724.83,5920.53,769.9,5900.82z"/>
		<path class="st0" d="M752.13,4830.86c-2.95,1.76-5.96,3.46-9.04,5.1c-0.8,0.36-1.61,0.71-2.42,1.06c-0.63,0.28-1.27,0.54-1.91,0.8
			c-20.78-28.83-51.33-54.53-90.05-73.99c-17.97-9.05-38.56-17.07-61.47-17.8c-12.14-0.39-23.09,1.47-32.64,4.98
			c12.18-7.63,27.86-12.22,46.22-11.63c22.91,0.73,43.51,8.75,61.5,17.79C700.89,4776.58,731.36,4802.16,752.13,4830.86z"/>
		<path class="st0" d="M740.66,4837.03c0.81-0.35,1.62-0.7,2.42-1.06c-1.36,0.73-2.74,1.44-4.12,2.14c-0.07-0.1-0.13-0.19-0.21-0.28
			C739.4,4837.57,740.04,4837.3,740.66,4837.03z"/>
		<path class="st0" d="M738.76,4837.82c0.07,0.09,0.13,0.18,0.21,0.28c-3.88,1.96-7.85,3.82-11.91,5.57
			c-57.82,24.93-141.94,31.77-190.73,0.95c-40.17-25.37-26.2-77.28,18.27-93.6c-33.29,20.83-40.4,64.38-4.67,86.96
			C598.19,4868.46,680.99,4862.09,738.76,4837.82z"/>
		<path class="st0" d="M654.28,5792.95c-32.02,17.59-52.49,43.65-63.51,70.14c-7.7,18.53-10.1,38.2-7.59,57.57
			c-4.79-0.41-9.58-0.88-14.34-1.43c-0.98-16.73,1.7-33.53,8.34-49.49C589.66,5839.69,614.33,5810.18,654.28,5792.95z"/>
		<path class="st0" d="M583.17,5920.66c0.33,2.58,0.76,5.17,1.27,7.73c-4.95-0.3-9.92-0.66-14.87-1.07
			c-0.35-2.69-0.6-5.39-0.75-8.08C573.6,5919.77,578.38,5920.25,583.17,5920.66z"/>
		<path class="st0" d="M568.83,5919.23c0.14,2.69,0.4,5.4,0.75,8.08c-51.57-4.41-102.25-15.67-137.1-39.88
			c-66.93-46.5-49.73-126.28,13.15-176.78c19.89-15.97,43.09-29.64,68.48-41.53c-20.11,10.28-38.6,21.8-54.89,34.87
			c-62.89,50.51-80.09,130.28-13.14,176.79C477.7,5902.73,522.32,5914.05,568.83,5919.23z"/>
	</g>
	<g>
		<path class="st1" d="M762.4,7073.59c9.9,15.08,21.87,29.91,35.52,44.55"/>
		<path class="st1" d="M858.34,4655.51c-0.01,2.94-0.1,5.91-0.28,8.92c-3.54,58.26-40.3,127.32-105.94,166.43
			c-2.95,1.76-5.96,3.46-9.04,5.1c-1.36,0.73-2.74,1.44-4.12,2.14c-3.88,1.96-7.85,3.82-11.91,5.57
			c-57.82,24.93-141.94,31.77-190.73,0.95c-40.17-25.37-26.2-77.28,18.27-93.6c9.55-3.51,20.51-5.37,32.64-4.98
			c22.91,0.73,43.5,8.75,61.47,17.8c38.72,19.47,69.26,45.16,90.05,73.99c0.07,0.09,0.13,0.18,0.21,0.28
			c30.95,43.09,40.08,93.17,22,139.94c-25.48,65.93-97.28,120.05-145.22,180.73c-47.94,60.68-67.28,141.8,4.53,189.83
			c61.69,41.29,164.28,40.63,252.37,29.29c88.09-11.33,178.69-30.55,265.13-16.68c86.43,13.86,158.74,79.66,112.02,129.83
			c-6.61,7.11-14.79,13.15-24.12,18.33c-36.48,20.28-90.67,27.41-139.53,33.33c-131.62,15.97-261.46,38.8-387.86,68.22
			c-64.13,14.92-129.28,32.45-184.18,58.19c-25.39,11.89-48.59,25.56-68.48,41.53c-62.89,50.5-80.09,130.28-13.15,176.78
			c34.85,24.21,85.54,35.48,137.1,39.88c4.95,0.42,9.92,0.78,14.87,1.07c4.75,0.29,9.51,0.52,14.24,0.72
			c59.39,2.35,123.51-2.75,169.95-27.59c0.43-0.23,0.85-0.46,1.26-0.7c45.52-25.06,63.39-73.83,24.48-102.14
			c-32.57-23.69-93.3-24.42-135.77-7.52c-1.47,0.58-2.91,1.18-4.33,1.79c-39.95,17.22-64.62,46.74-77.1,76.79
			c-6.64,15.95-9.32,32.76-8.34,49.49c0.14,2.69,0.4,5.4,0.75,8.08c7.85,60.83,63.91,118.7,154.53,128.94
			c83.45,9.45,160.74-21.46,237.04-50.52c18.67-7.11,37.3-14.12,55.93-20.39c80.06-26.96,169.63-41.52,259.06-42.11
			c26.34-0.17,53.59,1.01,76.63,8.98c47.71,16.51,62.88,58.22,49.21,92.67c-12.62,31.77-43.54,57.8-83.35,78.35
			c-39.34,20.32-87.36,35.28-134.95,45.14c-95.77,19.84-198.16,26-289.12,54.1c-22.34,6.89-43.63,15.16-63.66,24.57
			c-101.81,47.81-170.98,125.43-179.7,206.41c-0.52,5.02,3.01,17.68,4.32,22.6c13.86,52.15,93.11,47.51,112.91,45.36
			c97.39-10.58,123.83-22.74,222.66-24.91c91.11-2.01,201.7,18.09,226.31,74.76c17.1,39.35-20.01,81.08-70.22,107.61
			c-3.81,2.01-7.69,3.94-11.63,5.77c-55.9,25.96-123.04,39.24-182.52,61.5c-12.96,4.85-25.5,10.13-37.61,15.82
			c-85.8,40.3-149.3,100.79-174.17,167.38c-19.28,51.55-8.47,99.02,21.13,144.2"/>
		<path class="st1" d="M858.97,4664.44c2.01,60.56-29.72,128.91-106.38,167.06c-3.09,1.54-6.26,3.02-9.5,4.46
			c-0.8,0.36-1.61,0.71-2.42,1.06c-0.63,0.28-1.27,0.54-1.91,0.8c-57.76,24.27-140.57,30.64-188.83,0.15
			c-35.72-22.58-28.62-66.13,4.67-86.96c12.18-7.63,27.86-12.22,46.22-11.63c22.91,0.73,43.51,8.75,61.5,17.79
			c38.57,19.4,69.04,44.98,89.81,73.69c0.15,0.21,0.31,0.42,0.46,0.64c30.92,43.08,40.05,93.15,21.98,139.9
			c-25.48,65.92-97.28,120.04-145.2,180.73c-47.95,60.67-67.29,141.79,4.52,189.84c61.71,41.27,164.28,40.62,252.37,29.27
			c88.1-11.33,178.69-30.54,265.14-16.67c86.42,13.85,158.74,79.65,112,129.83c-9.68,10.39-22.65,18.5-37.71,24.98
			c-35.58,15.29-82.84,21.45-125.94,26.68c-131.6,15.97-261.45,38.81-387.86,68.22c-69.5,16.18-140.22,35.42-197.77,64.85
			c-20.11,10.28-38.6,21.8-54.89,34.87c-62.89,50.51-80.09,130.28-13.14,176.79c31.61,21.95,76.23,33.26,122.75,38.45
			c4.77,0.54,9.55,1.02,14.34,1.43c9.72,0.83,19.46,1.41,29.12,1.8c54.28,2.14,112.53-1.93,157.6-21.64
			c4.23-1.85,8.35-3.83,12.33-5.96c46.44-24.84,65.02-74.26,25.74-102.83c-32.56-23.69-93.29-24.42-135.77-7.51
			c-6.34,2.53-12.31,5.35-17.92,8.44c-32.02,17.59-52.49,43.65-63.51,70.14c-7.7,18.53-10.1,38.2-7.59,57.57
			c0.33,2.58,0.76,5.17,1.27,7.73c11.41,57.93,66.48,111.41,153.26,121.21c78.22,8.85,151.03-17.75,222.68-45.04
			c23.5-8.96,46.89-17.98,70.3-25.86c80.05-26.96,169.62-41.52,259.06-42.11c26.32-0.18,53.58,1,76.61,8.97
			c47.71,16.51,62.89,58.22,49.21,92.67c-14.02,35.31-50.65,63.53-96.94,85c-36.54,16.96-79.11,29.73-121.36,38.49
			c-95.77,19.84-198.16,26.01-289.14,54.1c-27.46,8.49-53.35,19.01-77.24,31.21c-94.35,48.17-157.78,122.43-166.09,199.75
			c-0.54,5.02,3,17.68,4.31,22.62c13.87,52.14,93.12,47.5,112.91,45.35c97.39-10.58,123.83-22.73,222.66-24.91
			c91.11-2.01,201.7,18.09,226.32,74.76c18.39,42.34-25.96,87.42-81.86,113.38c-0.65,0.3-1.31,0.61-1.96,0.89
			c-55.5,25.38-121.76,38.61-180.56,60.62c-17.86,6.69-34.97,14.21-51.2,22.47c-78.89,40.15-137.02,97.72-160.58,160.72
			c-18.61,49.78-15.43,102.45,7.54,150.86c0.01,0.02,0.03,0.03,0.03,0.05c3.34,7.04,7.1,13.98,11.27,20.82"/>
	</g>
</g>
<g id="XMLID_00000109022921978664917650000005950021372917504916_">
	<g>
		<path class="st0" d="M283.87,8289.1c-46.91,18.66-60.18,61.02-44.94,94.81c15.62,34.63,53.49,61.16,100.71,80.5
			c-40.7-18.71-72.78-43.31-86.83-74.47c-15.22-33.8-1.97-76.16,44.94-94.81c22.65-9.02,49.82-11.44,76.14-12.46
			c89.36-3.48,179.5,6.99,260.71,30.28c21.55,6.18,43.11,13.3,64.77,20.45l0.7-1.21c-26.58-8.72-52.99-17.7-79.37-25.26
			c-81.19-23.29-171.33-33.77-260.71-30.29C333.7,8277.67,306.52,8280.08,283.87,8289.1z"/>
		<path class="st0" d="M471.74,7688.93c-85.7,17.78-154.95,86.8-105.98,134.79c10.12,9.91,23.42,17.43,38.74,23.21
			c-9.53-4.74-17.94-10.4-24.86-17.17c-48.97-47.99,20.28-117.01,105.99-134.81c85.71-17.77,177.1-2.7,265.6,4.61
			c88.53,7.31,191.04,3.29,250.79-40.75c69.55-51.25,46.54-131.4-4.11-189.84c-50.65-58.43-124.84-109.23-153.29-173.93
			c-20.18-45.9-13.34-96.34,15.63-140.81c-1.42-0.62-2.83-1.28-4.23-1.95c-3.31-1.29-6.54-2.63-9.7-4.03
			c-28.94,44.46-35.77,94.87-15.59,140.77c28.45,64.69,102.63,115.49,153.27,173.93c50.66,58.43,73.68,138.59,4.13,189.84
			c-59.76,44.04-162.26,48.06-250.79,40.73C648.84,7686.22,557.47,7671.15,471.74,7688.93z"/>
		<path class="st0" d="M447.26,8901.35c-16.44,43.13,29.91,86.14,86.94,109.53c0.73,0.3,1.45,0.59,2.18,0.88
			c-51.45-24.22-90.54-64.26-75.23-104.38c22.01-57.73,131.58-82.85,222.68-84.98c98.83-2.33,125.78,8.6,223.56,14.74
			c19.88,1.24,99.26,2.29,110.73-50.44c1.09-4.98,4.04-17.8,3.29-22.78c-12.39-80.5-85-154.88-188.89-198.01
			c96.43,43.83,163.18,115.11,174.99,191.98c0.77,4.99-2.19,17.8-3.28,22.79c-11.49,52.72-90.87,51.69-110.73,50.44
			c-97.77-6.14-124.73-17.07-223.56-14.75C578.84,8818.5,469.28,8843.61,447.26,8901.35z"/>
		<path class="st0" d="M531.59,7867.89c-43.31-3.26-90.81-7.26-127.05-20.94c37.35,18.61,91.84,23.28,140.93,26.97
			c132.21,9.96,262.95,26.86,390.56,50.51c64.74,11.99,130.62,26.53,186.63,49.75c-58.83-26.78-130.35-42.78-200.52-55.78
			C794.53,7894.75,663.79,7877.86,531.59,7867.89z"/>
		<path class="st0" d="M462.63,8497.34c-42.6-6.83-85.71-17.64-122.98-32.93c40.22,18.51,88.87,31.27,136.87,38.95
			c96.57,15.46,199.14,16.96,291.28,40.89c22.65,5.88,44.29,13.16,64.73,21.65c-24.42-11.11-50.77-20.46-78.61-27.69
			C661.77,8514.3,559.2,8512.79,462.63,8497.34z"/>
		<path class="st0" d="M536.37,9011.76c3.84,1.81,7.74,3.52,11.71,5.15c57.02,23.39,124.7,33.6,185.13,53.12
			c13.16,4.25,25.95,8.96,38.31,14.1c-16.59-7.51-34.03-14.25-52.19-20.12C659.65,9044.72,592.94,9034.53,536.37,9011.76z"/>
		<path class="st0" d="M700.08,8332.19l-0.7,1.21c74.95,24.77,151.02,49.84,231.12,37.07c90.06-14.37,143.42-74.72,148.51-135.83
			c-4.93,0.64-9.87,1.23-14.8,1.75c-8.76,58.39-61.34,114.3-147.59,128.05C841.71,8376.38,770.33,8355.22,700.08,8332.19z"/>
		<path class="st0" d="M732.46,6986.23c0.75,60.59,35.56,127.41,113.87,162.03c0.14-0.22,0.28-0.43,0.43-0.66
			c-67.34-36.07-107.21-103.41-113.38-161.44L732.46,6986.23z"/>
		<path class="st0" d="M771.52,9084.13c80.62,36.53,141.31,91.39,167.71,153.26c31.82,74.6,13.64,144.41-51.29,216.3
			c63.15-66.95,97-135.68,65.17-210.27C925.23,9178.04,859.04,9120.49,771.52,9084.13z"/>
		<path class="st0" d="M834.7,8110.31c-37.93,30.34-17.13,78.86,30.4,101.56c4.07,1.94,8.28,3.74,12.59,5.39
			c-46.62-22.97-66.68-70.88-29.1-100.93c31.46-25.14,92.09-28.63,135.29-13.68c1.49,0.51,2.96,1.05,4.41,1.6
			c-5.74-2.84-11.84-5.38-18.29-7.62C926.78,8081.68,866.15,8085.18,834.7,8110.31z"/>
		<path class="st0" d="M846.76,7147.61c-0.15,0.22-0.29,0.43-0.43,0.66c3.15,1.39,6.39,2.73,9.7,4.03
			C852.87,7150.79,849.79,7149.23,846.76,7147.61z"/>
		<path class="st0" d="M877.68,8217.27c0.42,0.22,0.86,0.43,1.29,0.64c47.52,22.71,111.81,24.88,171.03,19.83
			c4.72-0.41,9.46-0.86,14.19-1.36c0.4-2.59,0.71-5.19,0.92-7.78c-9.66,1.27-19.36,2.29-29.01,3.11
			C981.98,8236.32,923.62,8234.91,877.68,8217.27z"/>
		<path class="st0" d="M846.76,7147.61c3.03,1.63,6.11,3.19,9.27,4.68c0.81,0.32,1.64,0.64,2.47,0.95c0.64,0.25,1.29,0.48,1.94,0.72
			c19.45-29.74,48.8-56.8,86.59-78.01c17.54-9.87,37.75-18.81,60.6-20.58c12.12-0.94,23.16,0.43,32.88,3.5
			c-12.53-7.08-28.41-10.96-46.76-9.54c-22.85,1.79-43.06,10.72-60.61,20.58C895.47,7091.06,866.2,7117.99,846.76,7147.61z"/>
		<path class="st0" d="M858.49,7153.24c-0.83-0.31-1.65-0.63-2.47-0.95c1.4,0.67,2.81,1.33,4.23,1.95c0.06-0.1,0.12-0.19,0.18-0.28
			C859.78,7153.72,859.13,7153.49,858.49,7153.24z"/>
		<path class="st0" d="M860.43,7153.96c-0.06,0.09-0.13,0.18-0.18,0.28c3.97,1.79,8,3.46,12.13,5.02
			c58.89,22.28,143.24,25.29,190.57-7.72c38.96-27.18,22.67-78.34-22.45-92.65c34.16,19.32,43.21,62.46,8.57,86.62
			C1002.25,7178.16,919.24,7175.58,860.43,7153.96z"/>
		<path class="st0" d="M988.28,8104.26c32.79,16.11,54.42,41.22,66.64,67.17c8.54,18.16,11.82,37.7,10.21,57.16
			c4.77-0.63,9.53-1.32,14.26-2.08c0.23-16.76-3.23-33.42-10.59-49.07C1054.96,8148.01,1028.96,8119.64,988.28,8104.26z"/>
		<path class="st0" d="M1065.12,8228.6c-0.21,2.59-0.52,5.2-0.92,7.78c4.93-0.52,9.88-1.11,14.8-1.75c0.22-2.7,0.36-5.41,0.38-8.11
			C1074.65,8227.28,1069.89,8227.97,1065.12,8228.6z"/>
		<path class="st0" d="M1079.39,8226.52c-0.02,2.7-0.16,5.41-0.38,8.11c51.32-6.75,101.43-20.31,135.15-46.09
			c64.75-49.49,43.93-128.41-21.18-175.99c-20.58-15.05-44.39-27.64-70.3-38.37c20.56,9.35,39.55,20.02,56.42,32.34
			c65.12,47.59,85.93,126.5,21.17,176C1169.67,8205.89,1125.61,8219.22,1079.39,8226.52z"/>
	</g>
	<g>
		<path class="st1" d="M404.54,7846.95c37.35,18.61,91.84,23.28,140.93,26.97c132.21,9.96,262.95,26.86,390.56,50.51
			c64.74,11.99,130.62,26.53,186.63,49.75c25.91,10.73,49.72,23.32,70.3,38.37c65.12,47.58,85.93,126.49,21.18,175.99
			c-33.72,25.78-83.83,39.34-135.15,46.09c-4.93,0.64-9.87,1.23-14.8,1.75c-4.73,0.5-9.48,0.96-14.19,1.36
			c-59.22,5.05-123.51,2.87-171.03-19.83c-0.44-0.21-0.87-0.42-1.29-0.64c-46.62-22.97-66.68-70.88-29.1-100.93
			c31.46-25.14,92.09-28.63,135.29-13.68c1.49,0.51,2.96,1.05,4.41,1.6c40.68,15.38,66.68,43.75,80.52,73.2
			c7.36,15.64,10.82,32.3,10.59,49.07c-0.02,2.7-0.16,5.41-0.38,8.11c-5.09,61.12-58.44,121.47-148.51,135.83
			c-80.1,12.77-156.18-12.3-231.12-37.07c-21.66-7.14-43.22-14.27-64.77-20.45c-81.21-23.29-171.35-33.75-260.71-30.28
			c-26.32,1.02-53.49,3.45-76.14,12.46c-46.91,18.66-60.16,61.02-44.94,94.81c14.05,31.16,46.13,55.76,86.83,74.47
			c40.22,18.51,88.87,31.27,136.87,38.95c96.57,15.46,199.14,16.96,291.28,40.89c22.65,5.88,44.29,13.16,64.73,21.65
			c103.88,43.13,176.5,117.51,188.89,198.01c0.75,4.98-2.2,17.8-3.29,22.78c-11.47,52.73-90.85,51.68-110.73,50.44
			c-97.78-6.14-124.73-17.07-223.56-14.74c-91.1,2.13-200.67,27.25-222.68,84.98c-15.31,40.12,23.78,80.16,75.23,104.38
			c3.84,1.81,7.74,3.52,11.71,5.15c57.02,23.39,124.7,33.6,185.13,53.12c13.16,4.25,25.95,8.96,38.31,14.1
			c87.53,36.37,153.72,93.92,181.59,159.29c31.83,74.59-2.02,143.32-65.17,210.27"/>
		<path class="st1" d="M1040.5,7058.87c-9.72-3.07-20.76-4.45-32.88-3.5c-22.85,1.77-43.06,10.71-60.6,20.58
			c-37.79,21.21-67.14,48.27-86.59,78.01c-0.06,0.09-0.13,0.18-0.18,0.28c-28.97,44.47-35.81,94.91-15.63,140.81
			c28.45,64.71,102.64,115.5,153.29,173.93c50.65,58.44,73.66,138.59,4.11,189.84c-59.75,44.04-162.26,48.05-250.79,40.75
			c-88.5-7.32-179.88-22.39-265.6-4.61c-85.71,17.79-154.97,86.82-105.99,134.81c6.92,6.78,15.33,12.43,24.86,17.17"/>
		<path class="st1" d="M732.67,6977.28c0.14,2.93,0.37,5.9,0.7,8.88c6.17,58.03,46.04,125.37,113.38,161.44
			c3.03,1.63,6.11,3.19,9.27,4.68c1.4,0.67,2.81,1.33,4.23,1.95c3.97,1.79,8,3.46,12.13,5.02c58.89,22.28,143.24,25.29,190.57-7.72
			c38.96-27.18,22.67-78.34-22.45-92.65"/>
		<path class="st1" d="M732.46,6986.23c0.75,60.59,35.56,127.41,113.87,162.03c3.15,1.39,6.39,2.73,9.7,4.03
			c0.81,0.32,1.64,0.64,2.47,0.95c0.64,0.25,1.29,0.48,1.94,0.72c58.81,21.62,141.82,24.2,188.65-8.46
			c34.65-24.16,25.59-67.3-8.57-86.62c-0.01,0-0.01,0-0.01-0.01c-12.53-7.08-28.41-10.96-46.76-9.54
			c-22.85,1.79-43.06,10.72-60.61,20.58c-37.65,21.14-66.92,48.08-86.36,77.69c-0.15,0.22-0.29,0.43-0.43,0.66
			c-28.94,44.46-35.77,94.87-15.59,140.77c28.45,64.69,102.63,115.49,153.27,173.93c50.66,58.43,73.68,138.59,4.13,189.84
			c-59.76,44.04-162.26,48.06-250.79,40.73c-88.51-7.31-179.88-22.39-265.61-4.6c-85.7,17.78-154.95,86.8-105.98,134.79
			c10.12,9.91,23.42,17.43,38.74,23.21c0.01,0.01,0.03,0.02,0.04,0.02c36.24,13.67,83.75,17.68,127.05,20.94
			c132.19,9.97,262.94,26.86,390.56,50.51c70.17,13,141.69,29,200.52,55.78c20.56,9.35,39.55,20.02,56.42,32.34
			c65.12,47.59,85.93,126.5,21.17,176c-30.58,23.37-74.64,36.7-120.87,44c-4.74,0.76-9.49,1.45-14.26,2.08
			c-9.66,1.27-19.36,2.29-29.01,3.11c-54.13,4.61-112.49,3.2-158.43-14.44c-4.31-1.65-8.52-3.45-12.59-5.39
			c-47.52-22.7-68.33-71.22-30.4-101.56c31.45-25.14,92.08-28.63,135.29-13.67c6.45,2.24,12.55,4.78,18.29,7.62
			c32.79,16.11,54.42,41.22,66.64,67.17c8.54,18.16,11.82,37.7,10.21,57.16c-0.21,2.59-0.52,5.2-0.92,7.78
			c-8.76,58.39-61.34,114.3-147.59,128.05c-74.9,11.95-146.29-9.21-216.54-32.25c-26.58-8.72-52.99-17.7-79.37-25.26
			c-81.19-23.29-171.33-33.77-260.71-30.29c-26.3,1.03-53.48,3.45-76.13,12.46c-46.91,18.66-60.18,61.02-44.94,94.81
			c15.62,34.63,53.49,61.16,100.71,80.5c37.27,15.28,80.38,26.1,122.98,32.93c96.57,15.45,199.14,16.96,291.28,40.87
			c27.84,7.23,54.19,16.58,78.61,27.69c96.43,43.83,163.18,115.11,174.99,191.98c0.77,4.99-2.19,17.8-3.28,22.79
			c-11.49,52.72-90.87,51.69-110.73,50.44c-97.77-6.14-124.73-17.07-223.56-14.75c-91.1,2.14-200.67,27.25-222.68,84.98
			c-16.44,43.13,29.91,86.14,86.94,109.53c0.73,0.3,1.45,0.59,2.18,0.88c56.56,22.77,123.27,32.96,182.96,52.25
			c18.16,5.87,35.6,12.6,52.19,20.12c80.62,36.53,141.31,91.39,167.71,153.26c31.82,74.6,13.64,144.41-51.29,216.3"/>
	</g>
</g>
</svg>
