<?xml version="1.0" encoding="utf-8"?>
<!-- Generator: Adobe Illustrator 28.0.0, SVG Export Plug-In . SVG Version: 6.00 Build 0)  -->
<svg version="1.1" id="Layer_1" xmlns="http://www.w3.org/2000/svg" xmlns:xlink="http://www.w3.org/1999/xlink" x="0px" y="0px"
	 viewBox="0 0 1519 9500" style="enable-background:new 0 0 1519 9500;" xml:space="preserve">
<style type="text/css">
	.st0{fill:#AD354C;}
	.st1{fill:none;stroke:#AD354C;stroke-linecap:round;stroke-linejoin:round;}
</style>
<g>
	<g>
		<path class="st0" d="M4164.14,3546.88c3.22,0,3.22-5,0-5C4160.92,3541.88,4160.91,3546.88,4164.14,3546.88L4164.14,3546.88z"/>
	</g>
</g>
<g>
	<g>
		<path class="st0" d="M6350.74,2710.39c3.22,0,3.22-5,0-5C6347.52,2705.39,6347.51,2710.39,6350.74,2710.39L6350.74,2710.39z"/>
	</g>
</g>
<g id="XMLID_00000064332914111526217010000011267977066549121428_">
	<g>
		<path class="st0" d="M1157.55,1276.75c48.14,15.15,64.51,56.42,51.79,91.24c-13.02,35.68-48.79,64.91-94.44,87.68
			c39.17-21.66,69.32-48.54,81.04-80.64c12.71-34.83-3.65-76.09-51.79-91.25c-23.25-7.31-50.53-7.73-76.85-6.81
			c-89.37,3.12-178.5,20.2-257.78,49.4c-21.03,7.75-42.02,16.44-63.09,25.17l-0.79-1.16c25.86-10.65,51.54-21.55,77.29-31.05
			c79.27-29.2,168.39-46.3,257.78-49.41C1107.02,1269.01,1134.3,1269.43,1157.55,1276.75z"/>
		<path class="st0" d="M925.97,692.05c86.79,11.41,160.94,75.14,115.62,126.62c-9.34,10.62-22.03,19.09-36.88,25.98
			c9.14-5.43,17.08-11.69,23.48-18.95c45.31-51.48-28.83-115.21-115.64-126.63c-86.79-11.41-176.82,10.35-264.54,24.17
			c-87.73,13.81-190.26,17.36-253.11-22.16c-73.14-45.99-56.09-127.62-9.88-189.62c46.2-62.01,116.47-118.14,140.07-184.75
			c16.75-47.25,6.19-97.06-25.96-139.28c1.36-0.74,2.7-1.49,4.04-2.26c0.03,0,0.04-0.01,0.06-0.04c3.18-1.51,6.28-3.1,9.3-4.75
			c32.17,42.21,42.71,92.01,25.96,139.29c-23.61,66.61-93.85,122.74-140.06,184.75c-46.22,62-63.27,143.63,9.87,189.62
			c62.86,39.52,165.38,35.97,253.11,22.15C749.15,702.39,839.16,680.63,925.97,692.05z"/>
		<path class="st0" d="M1039.7,1899.37c19.56,41.79-23.49,88.1-78.64,115.64c-0.7,0.35-1.4,0.7-2.11,1.04
			c49.54-27.95,85.56-70.75,67.33-109.65c-26.19-55.94-137.33-72.92-228.34-68.34c-98.73,4.96-124.8,17.85-221.85,31.17
			c-19.73,2.7-98.82,9.59-114.16-42.16c-1.45-4.89-5.33-17.44-4.95-22.46c6.41-81.2,73.35-160.73,173.77-211.39
			c-92.94,50.82-154.25,126.82-160.36,204.35c-0.4,5.02,3.48,17.59,4.93,22.49c15.35,51.73,94.44,44.84,114.16,42.14
			c97.05-13.32,123.12-26.2,221.85-31.17C902.36,1826.44,1013.5,1843.42,1039.7,1899.37z"/>
		<path class="st0" d="M879.46,874.93c42.98-6.44,90.09-13.95,125.22-30.27c-35.88,21.34-89.9,30-138.62,37.29
			c-131.11,19.68-260.26,46.17-385.76,79.15c-63.63,16.7-128.21,36.03-182.34,63.28c56.68-31.01,126.76-52.21,195.74-70.32
			C619.21,921.09,748.36,894.6,879.46,874.93z"/>
		<path class="st0" d="M994.62,1497.6c42.01-9.95,84.22-23.92,120.28-41.93c-38.76,21.45-86.35,37.76-133.68,48.96
			c-95.18,22.53-197.37,31.58-287.5,62.23c-22.15,7.52-43.2,16.37-62.96,26.36c23.54-12.88,49.13-24.14,76.36-33.4
			C797.25,1529.18,899.44,1520.12,994.62,1497.6z"/>
		<path class="st0" d="M958.95,2016.05c-3.69,2.07-7.46,4.07-11.3,5.99c-55.14,27.54-121.87,42.7-180.72,66.62
			c-12.82,5.21-25.22,10.85-37.16,16.88c15.99-8.72,32.88-16.72,50.56-23.91C838.46,2058,904.22,2042.92,958.95,2016.05z"/>
		<path class="st0" d="M745.63,1350.39l0.79,1.16c-72.92,30.21-146.94,60.82-227.77,53.98c-90.86-7.69-148.53-63.95-158.11-124.54
			c4.96,0.29,9.94,0.51,14.89,0.67c13.05,57.58,69.61,109.47,156.62,116.83C607.64,1404.88,677.27,1378.53,745.63,1350.39z"/>
		<path class="st0" d="M613.33,1.55c3.72,60.5-25.31,137.79-100.8,178.85c-0.15-0.2-0.29-0.39-0.45-0.58
			C579.91,136.77,614.9,61.5,613.33,1.55z"/>
		<path class="st0" d="M729.78,2105.54c-77.71,42.37-134.2,101.55-155.97,165.19c-17.25,50.42-12.48,103.14,12.06,150.97
			c-31.06-44.44-43.32-91.72-25.46-143.93C583.4,2210.53,645.17,2148.26,729.78,2105.54z"/>
		<path class="st0" d="M595.03,1139.03c40.06,27.45,22.9,77.38-22.83,103.53c-3.93,2.25-8,4.35-12.19,6.32
			c44.82-26.32,61.34-75.6,21.62-102.81c-33.23-22.75-93.95-21.78-135.93-3.68c-1.45,0.62-2.87,1.26-4.28,1.92
			c5.52-3.25,11.41-6.25,17.68-8.94C501.09,1117.25,561.82,1116.28,595.03,1139.03z"/>
		<path class="st0" d="M512.09,179.81c0.15,0.19,0.29,0.38,0.45,0.58c-3.03,1.64-6.12,3.24-9.3,4.75
			C506.26,183.43,509.2,181.66,512.09,179.81z"/>
		<path class="st0" d="M560.02,1248.87c-0.39,0.24-0.8,0.48-1.2,0.71c-45.73,26.16-109.69,33.06-169.12,32.39
			c-4.74-0.06-9.5-0.16-14.26-0.31c-0.59-2.55-1.08-5.12-1.49-7.69c9.72,0.55,19.48,0.86,29.16,0.97
			C457.42,1275.54,515.52,1269.83,560.02,1248.87z"/>
		<path class="st0" d="M512.09,179.81c-2.89,1.85-5.83,3.62-8.85,5.33c-0.01,0.02-0.03,0.03-0.06,0.04
			c-0.79,0.38-1.57,0.76-2.37,1.13c-0.62,0.29-1.25,0.58-1.89,0.85c-21.57-28.23-52.85-53.04-92.08-71.42
			c-18.22-8.54-39.04-15.96-61.96-16.05c-12.16-0.05-23.07,2.14-32.53,5.92c11.97-7.99,27.53-13.03,45.93-12.95
			c22.92,0.1,43.74,7.52,61.98,16.06C459.34,127.01,490.51,151.71,512.09,179.81z"/>
		<path class="st0" d="M500.81,186.31c0.8-0.37,1.59-0.75,2.37-1.13c-1.34,0.77-2.69,1.52-4.04,2.26c-0.06-0.08-0.14-0.18-0.22-0.27
			C499.55,186.88,500.19,186.6,500.81,186.31z"/>
		<path class="st0" d="M498.92,187.16c0.08,0.09,0.15,0.19,0.22,0.27c-3.82,2.07-7.74,4.04-11.75,5.9
			c-57.09,26.55-140.98,35.78-190.61,6.34c-40.87-24.23-28.39-76.46,15.55-94.06c-32.65,21.78-38.5,65.47-2.16,87.02
			C359.27,221.75,441.87,213.06,498.92,187.16z"/>
		<path class="st0" d="M441.42,1144.3c-31.52,18.48-51.23,45.12-61.51,71.89c-7.19,18.74-9.01,38.48-5.97,57.77
			c-4.8-0.27-9.6-0.61-14.38-1.02c-1.46-16.69,0.76-33.57,6.94-49.71C378.15,1192.84,401.99,1162.64,441.42,1144.3z"/>
		<path class="st0" d="M373.95,1273.96c0.42,2.57,0.9,5.14,1.49,7.69c-4.96-0.16-9.93-0.38-14.89-0.67
			c-0.42-2.68-0.76-5.36-0.98-8.05C364.35,1273.35,369.15,1273.69,373.95,1273.96z"/>
		<path class="st0" d="M359.57,1272.94c0.22,2.69,0.56,5.37,0.98,8.05c-51.67-2.95-102.64-12.78-138.16-36
			c-68.23-44.59-53.27-124.82,8.15-177.07c19.46-16.56,42.32-30.9,67.42-43.53c-19.86,10.86-38.08,22.93-54.02,36.49
			c-61.42,52.26-76.38,132.48-8.13,177.08C268.01,1259.02,312.95,1269.07,359.57,1272.94z"/>
	</g>
	<g>
		<path class="st1" d="M1004.68,844.67c-35.88,21.34-89.9,30-138.62,37.29c-131.11,19.68-260.26,46.17-385.76,79.15
			c-63.63,16.7-128.21,36.03-182.34,63.28c-25.1,12.63-47.97,26.97-67.42,43.53c-61.42,52.25-76.38,132.48-8.15,177.07
			c35.52,23.22,86.49,33.05,138.16,36c4.96,0.29,9.94,0.51,14.89,0.67c4.75,0.16,9.52,0.26,14.26,0.31
			c59.43,0.67,123.38-6.23,169.12-32.39c0.41-0.23,0.81-0.47,1.2-0.71c44.82-26.32,61.34-75.6,21.62-102.81
			c-33.23-22.75-93.95-21.78-135.93-3.68c-1.45,0.62-2.87,1.26-4.28,1.92c-39.43,18.33-63.27,48.54-74.91,78.93
			c-6.19,16.14-8.41,33.02-6.94,49.71c0.22,2.69,0.56,5.37,0.98,8.05c9.58,60.59,67.25,116.85,158.11,124.54
			c80.82,6.84,154.85-23.77,227.77-53.98c21.07-8.73,42.06-17.42,63.09-25.17c79.29-29.2,168.41-46.29,257.78-49.4
			c26.32-0.92,53.6-0.5,76.85,6.81c48.14,15.15,64.49,56.42,51.79,91.25c-11.72,32.1-41.87,58.99-81.04,80.64
			c-38.76,21.45-86.35,37.76-133.68,48.96c-95.18,22.53-197.37,31.58-287.5,62.23c-22.15,7.52-43.2,16.37-62.96,26.36
			c-100.43,50.65-167.36,130.19-173.77,211.39c-0.38,5.02,3.49,17.58,4.95,22.46c15.34,51.75,94.43,44.86,114.16,42.16
			c97.05-13.32,123.12-26.21,221.85-31.17c91.01-4.58,202.15,12.39,228.34,68.34c18.22,38.9-17.79,81.7-67.33,109.65
			c-3.69,2.07-7.46,4.07-11.3,5.99c-55.14,27.54-121.87,42.7-180.72,66.62c-12.82,5.21-25.22,10.85-37.16,16.88
			c-84.61,42.72-146.38,104.99-169.37,172.23c-17.87,52.21-5.6,99.49,25.46,143.93c14.59,20.87,33.32,41.12,55.03,60.98"/>
		<path class="st1" d="M312.34,105.6c9.46-3.78,20.37-5.96,32.53-5.92c22.92,0.09,43.74,7.51,61.96,16.05
			c39.24,18.38,70.51,43.19,92.08,71.42c0.08,0.09,0.15,0.19,0.22,0.27c32.15,42.21,42.71,92.02,25.96,139.28
			c-23.61,66.61-93.87,122.74-140.07,184.75c-46.21,62-63.25,143.64,9.88,189.62c62.85,39.52,165.38,35.97,253.11,22.16
			c87.72-13.82,177.75-35.58,264.54-24.17c86.81,11.42,160.94,75.15,115.64,126.63c-6.4,7.26-14.34,13.52-23.48,18.95"/>
		<path class="st1" d="M503.18,185.18c-1.34,0.77-2.69,1.52-4.04,2.26c-3.82,2.07-7.74,4.04-11.75,5.9
			c-57.09,26.55-140.98,35.78-190.61,6.34c-40.87-24.23-28.39-76.46,15.55-94.06"/>
		<path class="st1" d="M613.33,1.55c1.56,59.95-33.42,135.22-101.24,178.27c-2.89,1.85-5.83,3.62-8.85,5.33"/>
		<path class="st1" d="M613.33,1.55c3.72,60.5-25.31,137.79-100.8,178.85c-3.03,1.64-6.12,3.24-9.3,4.75
			c-0.01,0.02-0.03,0.03-0.06,0.04c-0.79,0.38-1.57,0.76-2.37,1.13c-0.62,0.29-1.25,0.58-1.89,0.85
			c-57.05,25.9-139.65,34.59-188.76,5.47c-36.33-21.55-30.48-65.24,2.16-87.02c0.01,0,0.01-0.01,0.01-0.01
			c11.97-7.99,27.53-13.03,45.93-12.95c22.92,0.1,43.74,7.52,61.98,16.06c39.09,18.3,70.26,43.01,91.84,71.11
			c0.15,0.19,0.29,0.38,0.45,0.58c32.17,42.21,42.71,92.01,25.96,139.29c-23.61,66.61-93.85,122.74-140.06,184.75
			c-46.22,62-63.27,143.63,9.87,189.62c62.86,39.52,165.38,35.97,253.11,22.15c87.73-13.82,177.75-35.58,264.55-24.16
			c86.79,11.41,160.94,75.14,115.62,126.62c-9.34,10.62-22.03,19.09-36.88,25.98c-0.01,0.01-0.01,0.01-0.03,0.01
			c-35.13,16.32-82.24,23.82-125.22,30.27c-131.1,19.67-260.25,46.16-385.76,79.14c-68.98,18.11-139.05,39.31-195.74,70.32
			c-19.86,10.86-38.08,22.93-54.02,36.49c-61.42,52.26-76.38,132.48-8.13,177.08c32.21,21.06,77.14,31.11,123.77,34.98
			c4.78,0.41,9.57,0.75,14.38,1.02c9.72,0.55,19.48,0.86,29.16,0.97c54.3,0.61,112.41-5.1,156.9-26.06
			c4.19-1.97,8.26-4.07,12.19-6.32c45.73-26.14,62.89-76.07,22.83-103.53c-33.21-22.75-93.94-21.78-135.93-3.67
			c-6.27,2.7-12.16,5.69-17.68,8.94c-31.52,18.48-51.23,45.12-61.51,71.89c-7.19,18.74-9.01,38.48-5.97,57.77
			c0.42,2.57,0.9,5.14,1.49,7.69c13.05,57.58,69.61,109.47,156.62,116.83c75.58,6.39,145.21-19.96,213.57-48.1
			c25.86-10.65,51.54-21.55,77.29-31.05c79.27-29.2,168.39-46.3,257.78-49.41c26.31-0.92,53.59-0.5,76.84,6.82
			c48.14,15.15,64.51,56.42,51.79,91.24c-13.02,35.68-48.79,64.91-94.44,87.68c-36.06,18.01-78.27,31.98-120.28,41.93
			c-95.18,22.52-197.37,31.58-287.5,62.22c-27.23,9.26-52.82,20.52-76.36,33.4c-92.94,50.82-154.25,126.82-160.36,204.35
			c-0.4,5.02,3.48,17.59,4.93,22.49c15.35,51.73,94.44,44.84,114.16,42.14c97.05-13.32,123.12-26.2,221.85-31.17
			c91.01-4.58,202.15,12.39,228.35,68.35c19.56,41.79-23.49,88.1-78.64,115.64c-0.7,0.35-1.4,0.7-2.11,1.04
			c-54.73,26.87-120.49,41.95-178.61,65.58c-17.68,7.19-34.57,15.19-50.56,23.91c-77.71,42.37-134.2,101.55-155.97,165.19
			c-17.25,50.42-12.48,103.14,12.06,150.97c7.85,15.31,17.73,30.11,29.56,44.19"/>
	</g>
</g>
<g id="XMLID_00000060708948118504223850000017962093420134705329_">
	<g>
		<path class="st0" d="M142.8,3657.45c-46.35,19.97-58.43,62.69-42.23,96.03c16.59,34.17,55.15,59.61,102.87,77.61
			c-41.17-17.56-73.9-41.23-88.82-71.98c-16.18-33.35-4.11-76.07,42.23-96.04c22.39-9.64,49.48-12.83,75.76-14.59
			c89.23-6,179.63,1.93,261.47,22.91c21.71,5.57,43.47,12.08,65.32,18.62l0.67-1.23c-26.81-7.96-53.47-16.2-80.05-23.02
			c-81.83-20.98-172.23-28.92-261.47-22.92C192.28,3644.61,165.19,3647.8,142.8,3657.45z"/>
		<path class="st0" d="M313.68,3052.22c-85.18,20.18-152.46,91.13-102.13,137.73c10.37,9.61,23.86,16.75,39.33,22.1
			c-9.64-4.47-18.18-9.89-25.29-16.46c-50.31-46.6,16.96-117.55,102.15-137.74c85.18-20.18,176.95-7.7,265.62-2.88
			c88.68,4.81,191.04-2.1,249.54-47.8c68.08-53.19,42.81-132.67-9.47-189.65c-52.28-56.99-127.89-105.67-158.15-169.54
			c-21.47-45.3-16.04-95.93,11.65-141.2c-1.43-0.6-2.84-1.2-4.25-1.83c-0.03,0-0.04-0.01-0.07-0.03c-3.31-1.18-6.57-2.43-9.75-3.74
			c-27.68,45.26-33.09,95.87-11.62,141.17c30.26,63.87,105.86,112.55,158.13,169.54c52.29,56.98,77.56,136.44,9.48,189.64
			c-58.51,45.71-160.86,52.61-249.54,47.79C490.63,3044.5,398.87,3032.02,313.68,3052.22z"/>
		<path class="st0" d="M323.4,4264.84c-15.21,43.57,32.33,85.25,90.01,107.04c0.73,0.28,1.47,0.55,2.2,0.82
			c-52.13-22.76-92.31-61.68-78.14-102.23c20.36-58.32,129.19-86.52,220.2-91.22c98.73-5.12,125.97,5.05,223.87,8.43
			c19.9,0.68,99.28-0.51,109.27-53.56c0.95-5.01,3.53-17.89,2.63-22.85c-14.64-80.12-89.32-152.43-194.38-192.6
			c97.63,41.09,166.36,110.46,180.32,186.97c0.91,4.96-1.67,17.85-2.62,22.87c-10.01,53.02-89.39,54.22-109.28,53.53
			c-97.9-3.38-125.15-13.53-223.87-8.43C452.61,4178.31,343.78,4206.51,323.4,4264.84z"/>
		<path class="st0" d="M378.56,3229.42c-43.41-2.03-91.04-4.71-127.65-17.36c37.86,17.57,92.49,20.7,141.7,22.99
			c132.44,6.23,263.61,19.44,391.82,39.48c64.99,10.14,131.21,22.8,187.83,44.4c-59.54-25.08-131.41-39.04-201.88-50.03
			C642.15,3248.85,510.98,3235.64,378.56,3229.42z"/>
		<path class="st0" d="M327.36,3860.57c-42.81-5.62-86.22-15.23-123.92-29.47c40.74,17.39,89.75,28.77,137.97,35.1
			c96.98,12.73,199.55,11.33,292.34,32.65c22.8,5.23,44.64,11.89,65.31,19.82c-24.73-10.42-51.33-19.02-79.36-25.46
			C526.92,3871.9,424.34,3873.29,327.36,3860.57z"/>
		<path class="st0" d="M415.61,4372.7c3.89,1.69,7.84,3.29,11.85,4.81c57.66,21.78,125.58,30.08,186.56,47.88
			c13.28,3.88,26.2,8.23,38.69,13.01c-16.8-7.04-34.41-13.29-52.73-18.64C539.75,4402.17,472.79,4393.86,415.61,4372.7z"/>
		<path class="st0" d="M560.08,3688.79l-0.67,1.23c75.62,22.63,152.37,45.55,232.08,30.52c89.61-16.9,141.25-78.73,144.61-139.98
			c-4.91,0.79-9.83,1.52-14.75,2.18c-7.13,58.61-58.11,115.99-143.91,132.17C702.9,3728.95,630.95,3709.82,560.08,3688.79z"/>
		<path class="st0" d="M554.46,2342.43c1.78,43.73,21.4,90.2,62,124.85c15.63,13.32,34.37,24.91,56.39,33.9
			c0.15-0.23,0.28-0.44,0.41-0.66c-68.33-34.16-110.1-100.34-117.91-158.18L554.46,2342.43z"/>
		<path class="st0" d="M652.7,4438.4c81.62,34.24,143.83,87.37,171.97,148.46c22.21,48.24,22.96,100.97,3.63,150.92
			c26.15-47.22,33.42-95.32,10.42-145.28C809,4527.94,741.22,4472.28,652.7,4438.4z"/>
		<path class="st0" d="M688.38,3463.19c-37.06,31.39-14.91,79.31,33.25,100.67c4.14,1.84,8.4,3.52,12.77,5.05
			c-47.27-21.62-68.71-68.97-31.97-100.07c30.74-26.01,91.25-31.23,134.85-17.49c1.51,0.47,2.99,0.97,4.45,1.47
			c-5.82-2.67-11.99-5.05-18.5-7.1C779.62,3431.97,719.11,3437.18,688.38,3463.19z"/>
		<path class="st0" d="M673.27,2500.52c-0.13,0.22-0.27,0.43-0.41,0.66c3.18,1.32,6.44,2.56,9.75,3.74
			C679.44,2503.52,676.33,2502.06,673.27,2500.52z"/>
		<path class="st0" d="M734.4,3568.91c0.41,0.2,0.84,0.4,1.27,0.58c48.16,21.36,112.48,21.73,171.53,15.01
			c4.7-0.54,9.44-1.12,14.15-1.76c0.32-2.6,0.55-5.21,0.7-7.8c-9.62,1.54-19.29,2.84-28.91,3.93
			C839.18,3584.99,780.8,3585.23,734.4,3568.91z"/>
		<path class="st0" d="M673.27,2500.52c3.06,1.54,6.17,3.01,9.34,4.4c0.03,0.02,0.04,0.03,0.07,0.03c0.82,0.3,1.64,0.6,2.48,0.88
			c0.65,0.23,1.3,0.45,1.96,0.66c18.59-30.28,47.17-58.15,84.34-80.42c17.26-10.35,37.22-19.85,60.01-22.27
			c12.09-1.28,23.16-0.22,32.96,2.58c-12.72-6.73-28.71-10.16-47.01-8.21c-22.79,2.43-42.75,11.93-60.02,22.28
			C720.37,2442.62,691.88,2470.37,673.27,2500.52z"/>
		<path class="st0" d="M685.16,2505.83c-0.83-0.29-1.66-0.58-2.48-0.88c1.41,0.63,2.83,1.24,4.25,1.83
			c0.05-0.09,0.12-0.19,0.19-0.29C686.46,2506.28,685.81,2506.06,685.16,2505.83z"/>
		<path class="st0" d="M687.12,2506.48c-0.07,0.1-0.13,0.2-0.19,0.29c4.01,1.67,8.11,3.23,12.29,4.68
			c59.5,20.6,143.89,21.24,190.27-13.1c38.19-28.26,20.47-78.95-25.04-91.98c34.69,18.34,44.96,61.21,11.01,86.35
			C829.57,2526.68,746.51,2526.44,687.12,2506.48z"/>
		<path class="st0" d="M841.73,3452.81c33.23,15.18,55.56,39.67,68.5,65.26c9.06,17.91,12.88,37.37,11.82,56.86
			c4.75-0.76,9.48-1.59,14.2-2.48c-0.24-16.75-4.17-33.32-11.97-48.75C909.62,3494.66,882.83,3467.03,841.73,3452.81z"/>
		<path class="st0" d="M922.05,3574.93c-0.15,2.6-0.38,5.21-0.7,7.8c4.91-0.66,9.84-1.39,14.75-2.18c0.15-2.71,0.21-5.41,0.15-8.11
			C931.53,3573.34,926.8,3574.17,922.05,3574.93z"/>
		<path class="st0" d="M936.25,3572.45c0.05,2.7-0.01,5.4-0.15,8.11c51.1-8.19,100.8-23.16,133.78-49.87
			c63.34-51.3,40.29-129.6-26.13-175.32c-21.04-14.49-45.24-26.43-71.5-36.44c20.86,8.79,40.22,18.93,57.46,30.8
			c66.42,45.73,89.47,124.02,26.11,175.33C1025.92,3549.28,982.24,3563.85,936.25,3572.45z"/>
	</g>
	<g>
		<path class="st1" d="M828.3,4737.79c-7.07,12.75-15.53,25.45-25.13,38.1"/>
		<path class="st1" d="M250.91,3212.05c37.86,17.57,92.49,20.7,141.7,22.99c132.44,6.23,263.61,19.44,391.82,39.48
			c64.99,10.14,131.21,22.8,187.83,44.4c26.26,10.01,50.46,21.95,71.5,36.44c66.42,45.72,89.47,124.02,26.13,175.32
			c-32.97,26.71-82.68,41.68-133.78,49.87c-4.91,0.79-9.83,1.52-14.75,2.18c-4.71,0.64-9.45,1.22-14.15,1.76
			c-59.05,6.72-123.38,6.36-171.53-15.01c-0.43-0.19-0.85-0.38-1.27-0.58c-47.27-21.62-68.71-68.97-31.97-100.07
			c30.74-26.01,91.25-31.23,134.85-17.49c1.51,0.47,2.99,0.97,4.45,1.47c41.1,14.22,67.89,41.85,82.55,70.9
			c7.8,15.43,11.73,31.99,11.97,48.75c0.05,2.7-0.01,5.4-0.15,8.11c-3.36,61.25-55.01,123.08-144.61,139.98
			c-79.71,15.03-156.46-7.89-232.08-30.52c-21.85-6.54-43.61-13.05-65.32-18.62c-81.85-20.98-172.25-28.91-261.47-22.91
			c-26.28,1.76-53.37,4.95-75.76,14.59c-46.35,19.97-58.42,62.69-42.23,96.04c14.93,30.74,47.65,54.42,88.82,71.98
			c40.74,17.39,89.75,28.77,137.97,35.1c96.98,12.73,199.55,11.33,292.34,32.65c22.8,5.23,44.64,11.89,65.31,19.82
			c105.06,40.17,179.74,112.48,194.38,192.6c0.89,4.96-1.69,17.84-2.63,22.85c-9.99,53.04-89.37,54.24-109.27,53.56
			c-97.9-3.38-125.15-13.54-223.87-8.43c-91.01,4.71-199.84,32.9-220.2,91.22c-14.17,40.55,26.01,79.47,78.14,102.23
			c3.89,1.69,7.84,3.29,11.85,4.81c57.66,21.78,125.58,30.08,186.56,47.88c13.28,3.88,26.2,8.23,38.69,13.01
			c88.52,33.88,156.31,89.54,186.02,154.1c23.01,49.95,15.73,98.06-10.42,145.28"/>
		<path class="st1" d="M864.43,2406.36c-9.8-2.8-20.87-3.86-32.96-2.58c-22.79,2.42-42.75,11.92-60.01,22.27
			c-37.16,22.28-65.75,50.14-84.34,80.42c-0.07,0.1-0.13,0.2-0.19,0.29c-27.69,45.27-33.12,95.89-11.65,141.2
			c30.26,63.87,105.87,112.55,158.15,169.54c52.28,56.98,77.54,136.45,9.47,189.65c-58.5,45.71-160.86,52.61-249.54,47.8
			c-88.67-4.82-180.44-17.3-265.62,2.88c-85.19,20.19-152.46,91.14-102.15,137.74c7.1,6.57,15.64,11.99,25.29,16.46"/>
		<path class="st1" d="M682.68,2504.95c1.41,0.63,2.83,1.24,4.25,1.83c4.01,1.67,8.11,3.23,12.29,4.68
			c59.5,20.6,143.89,21.24,190.27-13.1c38.19-28.26,20.47-78.95-25.04-91.98"/>
		<path class="st1" d="M554.41,2333.48c0.22,2.93,0.54,5.88,0.95,8.86c7.81,57.84,49.57,124.02,117.91,158.18
			c3.06,1.54,6.17,3.01,9.34,4.4"/>
		<path class="st1" d="M554.46,2342.43c1.78,43.73,21.4,90.2,62,124.85c15.63,13.32,34.37,24.91,56.39,33.9
			c3.18,1.32,6.44,2.56,9.75,3.74c0.03,0.02,0.04,0.03,0.07,0.03c0.82,0.3,1.64,0.6,2.48,0.88c0.65,0.23,1.3,0.45,1.96,0.66
			c59.39,19.96,142.44,20.2,188.33-13.76c33.95-25.14,23.68-68-11.01-86.35c-0.01-0.01-0.01-0.01-0.01-0.01
			c-12.72-6.73-28.71-10.16-47.01-8.21c-22.79,2.43-42.75,11.93-60.02,22.28c-37.02,22.18-65.51,49.93-84.12,80.08
			c-0.13,0.22-0.27,0.43-0.41,0.66c-27.68,45.26-33.09,95.87-11.62,141.17c30.26,63.87,105.86,112.55,158.13,169.54
			c52.29,56.98,77.56,136.44,9.48,189.64c-58.51,45.71-160.86,52.61-249.54,47.79c-88.68-4.82-180.44-17.3-265.64,2.89
			c-85.18,20.18-152.46,91.13-102.13,137.73c10.37,9.61,23.86,16.75,39.33,22.1c0,0,0.01,0.01,0.03,0.01
			c36.61,12.66,84.24,15.33,127.65,17.36c132.42,6.22,263.59,19.43,391.81,39.47c70.46,10.99,142.33,24.96,201.88,50.03
			c20.86,8.79,40.22,18.93,57.46,30.8c66.42,45.73,89.47,124.02,26.11,175.33c-29.9,24.23-73.58,38.8-119.57,47.39
			c-4.72,0.89-9.45,1.72-14.2,2.48c-9.62,1.54-19.29,2.84-28.91,3.93c-53.96,6.14-112.34,6.37-158.74-9.95
			c-4.37-1.53-8.63-3.21-12.77-5.05c-48.16-21.35-70.31-69.28-33.25-100.67c30.72-26.01,91.23-31.23,134.85-17.48
			c6.51,2.04,12.68,4.43,18.5,7.1c33.23,15.18,55.56,39.67,68.5,65.26c9.06,17.91,12.88,37.37,11.82,56.86
			c-0.15,2.6-0.38,5.21-0.7,7.8c-7.13,58.61-58.11,115.99-143.91,132.17c-74.54,14.05-146.49-5.08-217.36-26.11
			c-26.81-7.96-53.47-16.2-80.05-23.02c-81.83-20.98-172.23-28.92-261.47-22.92c-26.26,1.76-53.36,4.95-75.74,14.6
			c-46.35,19.97-58.43,62.69-42.23,96.03c16.59,34.17,55.15,59.61,102.87,77.61c37.7,14.25,81.12,23.85,123.92,29.47
			c96.98,12.72,199.55,11.33,292.34,32.64c28.03,6.44,54.63,15.04,79.36,25.46c97.63,41.09,166.36,110.46,180.32,186.97
			c0.91,4.96-1.67,17.85-2.62,22.87c-10.01,53.02-89.39,54.22-109.28,53.53c-97.9-3.38-125.15-13.53-223.87-8.43
			c-91.01,4.71-199.84,32.9-220.21,91.23c-15.21,43.57,32.33,85.25,90.01,107.04c0.73,0.28,1.47,0.55,2.2,0.82
			c57.18,21.16,124.14,29.47,184.36,47.07c18.32,5.35,35.94,11.59,52.73,18.64c81.62,34.24,143.83,87.37,171.97,148.46
			c22.21,48.24,22.96,100.97,3.63,150.92c0,0.01,0,0.01,0,0.01c-4.87,12.6-11.02,25.02-18.43,37.14"/>
	</g>
</g>
<g id="XMLID_00000047767654216084375890000014279016017608175286_">
	<g>
		<path class="st0" d="M1387.98,5928.48c48.15,15.15,64.51,56.42,51.8,91.25c-13.02,35.69-48.84,64.93-94.51,87.7
			c39.21-21.66,69.39-48.55,81.11-80.67c12.69-34.83-3.65-76.09-51.8-91.25c-23.25-7.32-50.53-7.73-76.85-6.82
			c-89.37,3.12-178.5,20.2-257.77,49.4c-18.45,6.8-36.87,14.33-55.34,21.96l-0.79-1.16c23.24-9.62,46.36-19.3,69.54-27.84
			c79.26-29.2,168.38-46.29,257.77-49.4C1337.45,5920.76,1364.73,5921.16,1387.98,5928.48z"/>
		<path class="st0" d="M1156.41,5343.79c86.78,11.41,160.93,75.14,115.62,126.62c-9.38,10.65-22.12,19.13-36.99,26.03
			c9.18-5.44,17.18-11.72,23.59-19.01c45.29-51.47-28.84-115.2-115.64-126.62c-86.79-11.42-176.82,10.35-264.55,24.16
			c-87.73,13.82-190.26,17.37-253.09-22.16c-73.14-45.98-56.09-127.61-9.88-189.62c46.21-62,116.45-118.13,140.06-184.75
			c16.75-47.27,6.21-97.06-25.94-139.27c1.36-0.74,2.72-1.49,4.06-2.26c3.2-1.53,6.33-3.11,9.37-4.73
			c32.12,42.19,42.66,91.98,25.91,139.22c-23.61,66.61-93.85,122.74-140.05,184.75c-46.22,62-63.27,143.64,9.87,189.64
			c62.85,39.52,165.36,35.97,253.09,22.14C979.59,5354.13,1069.61,5332.37,1156.41,5343.79z"/>
		<path class="st0" d="M1270.13,6551.1c19.58,41.8-23.49,88.11-78.63,115.64c-0.65,0.32-1.29,0.65-1.94,0.94
			c49.44-27.93,85.36-70.69,67.15-109.54c-26.19-55.95-137.31-72.93-228.33-68.35c-98.73,4.96-124.82,17.86-221.87,31.18
			c-19.73,2.71-98.82,9.58-114.14-42.16c-1.45-4.89-5.34-17.44-4.96-22.47c6.42-81.2,73.38-160.73,173.8-211.4
			c-92.95,50.82-154.27,126.83-160.39,204.36c-0.4,5.03,3.49,17.59,4.95,22.48c15.34,51.73,94.43,44.85,114.14,42.15
			c97.05-13.32,123.13-26.21,221.87-31.18C1132.81,6478.17,1243.93,6495.15,1270.13,6551.1z"/>
		<path class="st0" d="M1109.9,5526.67c42.93-6.44,90-13.93,125.14-30.22c-35.89,21.3-89.86,29.96-138.54,37.26
			c-131.11,19.68-260.26,46.16-385.78,79.14c-63.68,16.72-128.31,36.08-182.46,63.36c56.7-31.04,126.84-52.27,195.86-70.4
			C849.66,5572.84,978.8,5546.34,1109.9,5526.67z"/>
		<path class="st0" d="M1225.05,6149.33c41.98-9.95,84.18-23.91,120.22-41.9c-38.75,21.43-86.33,37.73-133.63,48.92
			c-95.17,22.53-197.35,31.58-287.48,62.23c-22.14,7.52-43.19,16.38-62.94,26.35c23.54-12.87,49.12-24.12,76.33-33.38
			C1027.7,6180.92,1129.88,6171.86,1225.05,6149.33z"/>
		<path class="st0" d="M1189.57,6667.69c-3.75,2.12-7.57,4.16-11.46,6.1c-55.15,27.53-121.88,42.69-180.72,66.62
			c-12.82,5.21-25.21,10.85-37.15,16.88c15.99-8.72,32.88-16.72,50.55-23.91C1068.95,6709.71,1134.81,6694.62,1189.57,6667.69z"/>
		<path class="st0" d="M983.83,5998.91l0.79,1.16c-75.45,31.21-151.83,64.28-235.52,57.19c-90.88-7.68-148.54-63.94-158.11-124.53
			c4.96,0.28,9.94,0.5,14.89,0.65c13.04,57.58,69.6,109.49,156.62,116.83C840.94,6056.86,912.98,6028.22,983.83,5998.91z"/>
		<path class="st0" d="M844.64,4662.2c3.72,60.48-26.07,129.69-101.63,169.99c-0.15-0.21-0.32-0.42-0.48-0.62
			c64.5-40.95,99.3-111.02,101.2-169.35L844.64,4662.2z"/>
		<path class="st0" d="M960.24,6757.28c-77.72,42.36-134.21,101.54-155.98,165.19c-17.2,50.28-12.54,102.85,11.79,150.59
			c-30.86-44.33-43.01-91.48-25.19-143.55C813.84,6862.25,875.61,6799.99,960.24,6757.28z"/>
		<path class="st0" d="M825.48,5790.77c40.06,27.45,22.89,77.37-22.83,103.52c-3.92,2.24-7.98,4.34-12.16,6.31
			c44.79-26.34,61.28-75.59,21.59-102.79c-33.23-22.76-93.95-21.78-135.93-3.69c-1.45,0.62-2.87,1.26-4.28,1.92
			c5.52-3.25,11.41-6.24,17.68-8.94C731.54,5768.99,792.27,5768.01,825.48,5790.77z"/>
		<path class="st0" d="M742.54,4831.57c0.15,0.2,0.32,0.41,0.48,0.62c-3.04,1.62-6.17,3.2-9.37,4.73
			C736.68,4835.2,739.64,4833.41,742.54,4831.57z"/>
		<path class="st0" d="M790.49,5900.59c-0.4,0.25-0.82,0.49-1.24,0.73c-45.72,26.14-109.68,33.05-169.1,32.38
			c-4.74-0.06-9.5-0.16-14.26-0.31c-0.59-2.55-1.09-5.12-1.49-7.69c9.74,0.55,19.49,0.86,29.16,0.98
			C687.88,5927.29,745.99,5921.57,790.49,5900.59z"/>
		<path class="st0" d="M742.54,4831.57c-2.9,1.85-5.86,3.63-8.9,5.35c-0.79,0.38-1.59,0.76-2.39,1.13
			c-0.62,0.29-1.25,0.58-1.89,0.85c-21.59-28.23-52.85-53.06-92.1-71.42c-18.22-8.54-39.03-15.97-61.95-16.06
			c-12.14-0.05-23.04,2.13-32.49,5.9c11.96-7.98,27.5-13,45.88-12.93c22.92,0.09,43.74,7.52,61.98,16.05
			C689.79,4778.75,720.97,4803.46,742.54,4831.57z"/>
		<path class="st0" d="M731.25,4838.05c0.8-0.37,1.6-0.75,2.39-1.13c-1.34,0.77-2.7,1.52-4.06,2.26c-0.08-0.09-0.14-0.19-0.22-0.27
			C730,4838.63,730.63,4838.34,731.25,4838.05z"/>
		<path class="st0" d="M729.37,4838.9c0.08,0.08,0.14,0.18,0.22,0.27c-3.82,2.07-7.74,4.04-11.75,5.9
			c-57.09,26.55-140.98,35.77-190.63,6.33c-40.87-24.23-28.37-76.51,15.62-94.08c-32.69,21.76-38.57,65.49-2.22,87.05
			C589.72,4873.49,672.31,4864.79,729.37,4838.9z"/>
		<path class="st0" d="M671.87,5796.03c-31.52,18.48-51.23,45.12-61.51,71.9c-7.18,18.74-9.01,38.47-5.97,57.76
			c-4.8-0.27-9.6-0.61-14.38-1.02c-1.45-16.69,0.76-33.57,6.94-49.7C608.59,5844.58,632.42,5814.38,671.87,5796.03z"/>
		<path class="st0" d="M604.4,5925.7c0.4,2.57,0.9,5.14,1.49,7.69c-4.96-0.16-9.93-0.38-14.89-0.65c-0.42-2.68-0.76-5.37-0.98-8.06
			C594.8,5925.08,599.59,5925.42,604.4,5925.7z"/>
		<path class="st0" d="M590.02,5924.67c0.22,2.69,0.56,5.38,0.98,8.06c-51.67-2.95-102.65-12.78-138.18-36
			c-68.22-44.59-53.27-124.82,8.16-177.08c19.43-16.53,42.24-30.84,67.28-43.45c-19.81,10.84-37.97,22.88-53.88,36.41
			c-61.43,52.27-76.38,132.49-8.15,177.09C498.46,5910.75,543.38,5920.8,590.02,5924.67z"/>
	</g>
	<g>
		<path class="st1" d="M816.08,7073.11c10.32,14.8,22.71,29.28,36.76,43.53"/>
		<path class="st1" d="M843.76,4653.29c0.07,2.94,0.06,5.91-0.03,8.92c-1.9,58.33-36.7,128.41-101.2,169.35
			c-2.9,1.85-5.86,3.63-8.9,5.35c-1.34,0.77-2.7,1.52-4.06,2.26c-3.82,2.07-7.74,4.04-11.75,5.9
			c-57.09,26.55-140.98,35.77-190.63,6.33c-40.87-24.23-28.37-76.51,15.62-94.08c9.45-3.78,20.35-5.95,32.49-5.9
			c22.92,0.09,43.73,7.52,61.95,16.06c39.25,18.37,70.51,43.19,92.1,71.42c0.08,0.08,0.14,0.18,0.22,0.27
			c32.15,42.2,42.69,92,25.94,139.27c-23.61,66.62-93.85,122.75-140.06,184.75c-46.2,62.01-63.25,143.65,9.88,189.62
			c62.83,39.53,165.36,35.98,253.09,22.16c87.73-13.81,177.76-35.58,264.55-24.16c86.79,11.42,160.93,75.15,115.64,126.62
			c-6.41,7.29-14.41,13.56-23.59,19.01c-35.89,21.3-89.86,29.96-138.54,37.26c-131.11,19.68-260.26,46.16-385.78,79.14
			c-63.68,16.72-128.31,36.08-182.46,63.36c-25.05,12.61-47.85,26.92-67.28,43.45c-61.44,52.26-76.38,132.49-8.16,177.08
			c35.52,23.22,86.5,33.05,138.18,36c4.96,0.28,9.94,0.5,14.89,0.65c4.75,0.16,9.52,0.26,14.26,0.31
			c59.43,0.67,123.38-6.23,169.1-32.38c0.42-0.24,0.84-0.48,1.24-0.73c44.79-26.34,61.28-75.59,21.59-102.79
			c-33.23-22.76-93.95-21.78-135.93-3.69c-1.45,0.62-2.87,1.26-4.28,1.92c-39.45,18.35-63.27,48.54-74.91,78.94
			c-6.19,16.13-8.4,33.01-6.94,49.7c0.22,2.69,0.56,5.38,0.98,8.06c9.57,60.59,67.23,116.85,158.11,124.53
			c83.68,7.09,160.07-25.99,235.52-57.19c18.46-7.63,36.89-15.17,55.34-21.96c79.27-29.2,168.4-46.29,257.77-49.4
			c26.32-0.91,53.6-0.5,76.85,6.82c48.15,15.15,64.49,56.42,51.8,91.25c-11.72,32.11-41.9,59.01-81.11,80.67
			c-38.75,21.43-86.33,37.73-133.63,48.92c-95.17,22.53-197.35,31.58-287.48,62.23c-22.14,7.52-43.19,16.38-62.94,26.35
			c-100.43,50.67-167.38,130.2-173.8,211.4c-0.38,5.03,3.51,17.59,4.96,22.47c15.32,51.74,94.41,44.86,114.14,42.16
			c97.05-13.32,123.13-26.22,221.87-31.18c91.01-4.58,202.13,12.39,228.33,68.35c18.21,38.86-17.71,81.61-67.15,109.54
			c-3.75,2.12-7.57,4.16-11.46,6.1c-55.15,27.53-121.88,42.69-180.72,66.62c-12.82,5.21-25.21,10.85-37.15,16.88
			c-84.62,42.71-146.4,104.96-169.38,172.23c-17.82,52.07-5.67,99.22,25.19,143.55"/>
		<path class="st1" d="M844.64,4662.2c3.72,60.48-26.07,129.69-101.63,169.99c-3.04,1.62-6.17,3.2-9.37,4.73
			c-0.79,0.38-1.59,0.76-2.39,1.13c-0.62,0.29-1.25,0.58-1.89,0.85c-57.05,25.89-139.65,34.59-188.76,5.47
			c-36.35-21.56-30.47-65.3,2.22-87.05c11.96-7.98,27.5-13,45.88-12.93c22.92,0.09,43.74,7.52,61.98,16.05
			c39.1,18.31,70.28,43.02,91.85,71.13c0.15,0.2,0.32,0.41,0.48,0.62c32.12,42.19,42.66,91.98,25.91,139.22
			c-23.61,66.61-93.85,122.74-140.05,184.75c-46.22,62-63.27,143.64,9.87,189.64c62.85,39.52,165.36,35.97,253.09,22.14
			c87.75-13.81,177.76-35.57,264.57-24.15c86.78,11.41,160.93,75.14,115.62,126.62c-9.38,10.65-22.12,19.13-36.99,26.03
			c-35.14,16.28-82.2,23.78-125.14,30.22c-131.1,19.68-260.25,46.17-385.78,79.14c-69.02,18.13-139.17,39.36-195.86,70.4
			c-19.81,10.84-37.97,22.88-53.88,36.41c-61.43,52.27-76.38,132.49-8.15,177.09c32.22,21.05,77.14,31.1,123.78,34.97
			c4.78,0.41,9.57,0.75,14.38,1.02c9.74,0.55,19.49,0.86,29.16,0.98c54.32,0.61,112.43-5.1,156.93-26.08
			c4.17-1.97,8.24-4.07,12.16-6.31c45.72-26.14,62.9-76.06,22.83-103.52c-33.21-22.76-93.94-21.78-135.93-3.68
			c-6.27,2.71-12.16,5.69-17.68,8.94c-31.52,18.48-51.23,45.12-61.51,71.9c-7.18,18.74-9.01,38.47-5.97,57.76
			c0.4,2.57,0.9,5.14,1.49,7.69c13.04,57.58,69.6,109.49,156.62,116.83c78.44,6.64,150.47-22,221.32-51.31
			c23.24-9.62,46.36-19.3,69.54-27.84c79.26-29.2,168.38-46.29,257.77-49.4c26.31-0.92,53.59-0.51,76.84,6.81
			c48.15,15.15,64.51,56.42,51.8,91.25c-13.02,35.69-48.84,64.93-94.51,87.7c-36.04,17.99-78.24,31.95-120.22,41.9
			c-95.17,22.53-197.35,31.59-287.5,62.23c-27.21,9.26-52.79,20.51-76.33,33.38c-92.95,50.82-154.27,126.83-160.39,204.36
			c-0.4,5.03,3.49,17.59,4.95,22.48c15.34,51.73,94.43,44.85,114.14,42.15c97.05-13.32,123.13-26.21,221.87-31.18
			c91.01-4.58,202.13,12.39,228.34,68.35c19.58,41.8-23.49,88.11-78.63,115.64c-0.65,0.32-1.29,0.65-1.94,0.94
			c-54.76,26.94-120.62,42.03-178.78,65.69c-17.67,7.19-34.56,15.19-50.55,23.91c-77.72,42.36-134.21,101.54-155.98,165.19
			c-17.2,50.28-12.54,102.85,11.79,150.59c0.02,0.02,0.03,0.03,0.03,0.05c3.54,6.94,7.49,13.78,11.85,20.49"/>
	</g>
</g>
<g id="XMLID_00000109022921978664917650000005950021372917504916_">
	<g>
		<path class="st0" d="M372.04,8301.64c-46.36,19.97-58.43,62.69-42.25,96.04c16.59,34.18,55.19,59.62,102.94,77.63
			c-41.21-17.55-73.97-41.24-88.9-71.99c-16.17-33.35-4.11-76.07,42.25-96.04c22.39-9.65,49.48-12.84,75.76-14.6
			c89.23-6,179.63,1.93,261.46,22.91c21.71,5.57,43.47,12.08,65.32,18.61l0.67-1.23c-26.81-7.96-53.47-16.2-80.05-23.01
			c-81.82-20.99-172.22-28.92-261.46-22.92C421.52,8288.81,394.42,8291.99,372.04,8301.64z"/>
		<path class="st0" d="M542.89,7696.4c-85.16,20.19-152.44,91.14-102.13,137.73c10.4,9.62,23.91,16.76,39.38,22.1
			c-9.66-4.47-18.23-9.89-25.33-16.47c-50.31-46.59,16.97-117.54,102.15-137.74c85.18-20.18,176.95-7.7,265.62-2.88
			c88.7,4.81,191.06-2.1,249.54-47.8c68.08-53.19,42.81-132.66-9.47-189.65c-52.28-56.98-127.87-105.66-158.13-169.54
			c-21.47-45.32-16.05-95.93,11.65-141.2c-1.44-0.58-2.87-1.2-4.28-1.83c-3.34-1.2-6.62-2.44-9.81-3.75
			c-27.68,45.26-33.08,95.84-11.61,141.15c30.26,63.87,105.84,112.55,158.12,169.54c52.29,56.98,77.56,136.45,9.48,189.64
			c-58.5,45.71-160.84,52.62-249.54,47.79C719.85,7688.7,628.09,7676.21,542.89,7696.4z"/>
		<path class="st0" d="M552.63,8909.03c-15.22,43.58,32.33,85.26,89.99,107.04c0.73,0.28,1.47,0.55,2.2,0.82
			c-52.12-22.76-92.31-61.68-78.14-102.22c20.38-58.33,129.19-86.53,220.2-91.23c98.73-5.11,125.97,5.05,223.89,8.43
			c19.9,0.68,99.28-0.51,109.26-53.54c0.95-5.01,3.54-17.9,2.65-22.86c-14.65-80.12-89.34-152.42-194.4-192.6
			c97.63,41.09,166.36,110.46,180.34,186.97c0.91,4.97-1.69,17.85-2.63,22.87c-9.99,53.02-89.37,54.23-109.26,53.54
			c-97.9-3.38-125.16-13.54-223.89-8.44C681.82,8822.5,573.01,8850.7,552.63,8909.03z"/>
		<path class="st0" d="M607.77,7873.61c-43.38-2.04-90.98-4.7-127.59-17.35c37.86,17.55,92.46,20.68,141.64,22.98
			c132.43,6.22,263.61,19.43,391.83,39.47c65.05,10.16,131.32,22.84,187.96,44.47c-59.56-25.11-131.5-39.09-202.01-50.1
			C871.37,7893.04,740.19,7879.84,607.77,7873.61z"/>
		<path class="st0" d="M556.6,8504.76c-42.78-5.62-86.18-15.22-123.86-29.44c40.73,17.37,89.72,28.75,137.91,35.07
			c96.97,12.73,199.54,11.33,292.32,32.65c22.8,5.24,44.64,11.9,65.31,19.82c-24.73-10.42-51.33-19.02-79.36-25.46
			C756.14,8516.09,653.56,8517.47,556.6,8504.76z"/>
		<path class="st0" d="M644.82,9016.89c3.89,1.7,7.84,3.3,11.85,4.82c57.66,21.77,125.59,30.07,186.56,47.87
			c13.28,3.88,26.2,8.23,38.69,13.01c-16.8-7.04-34.41-13.29-52.73-18.64C768.98,9046.36,702.01,9038.05,644.82,9016.89z"/>
		<path class="st0" d="M789.29,8332.96l-0.67,1.23c75.62,22.64,152.37,45.56,232.08,30.53c89.62-16.9,141.25-78.73,144.61-139.97
			c-4.91,0.78-9.83,1.51-14.75,2.17c-7.11,58.61-58.1,115.99-143.91,132.17C932.12,8373.15,860.16,8354.01,789.29,8332.96z"/>
		<path class="st0" d="M783.68,6986.63c2.45,60.54,39.14,126.36,118.4,158.75c0.13-0.23,0.26-0.44,0.41-0.67
			c-68.33-34.16-110.08-100.35-117.89-158.18L783.68,6986.63z"/>
		<path class="st0" d="M881.92,9082.59c81.62,34.24,143.83,87.37,171.97,148.47c33.91,73.67,17.71,143.97-45.16,217.66
			c61.24-68.71,93.14-138.36,59.21-212.03C1038.22,9172.13,970.43,9116.47,881.92,9082.59z"/>
		<path class="st0" d="M917.6,8107.38c-37.06,31.4-14.89,79.31,33.25,100.67c4.12,1.83,8.38,3.51,12.74,5.04
			c-47.25-21.64-68.65-68.97-31.94-100.06c30.74-26.01,91.25-31.22,134.85-17.49c1.51,0.47,2.99,0.96,4.45,1.47
			c-5.82-2.67-11.99-5.04-18.5-7.1C1008.83,8076.17,948.32,8081.37,917.6,8107.38z"/>
		<path class="st0" d="M902.49,7144.72c-0.15,0.23-0.28,0.44-0.41,0.67c3.19,1.31,6.46,2.55,9.81,3.75
			C908.69,7147.73,905.56,7146.26,902.49,7144.72z"/>
		<path class="st0" d="M963.58,8213.08c0.43,0.21,0.87,0.41,1.31,0.6c48.14,21.36,112.47,21.72,171.52,15
			c4.7-0.54,9.44-1.12,14.15-1.76c0.32-2.59,0.56-5.21,0.7-7.8c-9.62,1.54-19.29,2.84-28.91,3.93
			C1068.38,8229.18,1010,8229.42,963.58,8213.08z"/>
		<path class="st0" d="M902.49,7144.72c3.07,1.54,6.2,3.02,9.39,4.42c0.82,0.3,1.66,0.59,2.49,0.88c0.64,0.23,1.3,0.45,1.96,0.67
			c18.6-30.28,47.17-58.16,84.35-80.42c17.26-10.36,37.2-19.86,59.99-22.28c12.09-1.28,23.16-0.22,32.96,2.58
			c-12.72-6.73-28.71-10.16-47.01-8.21c-22.79,2.43-42.74,11.93-60.01,22.28C949.59,7086.81,921.09,7114.57,902.49,7144.72z"/>
		<path class="st0" d="M914.38,7150.02c-0.83-0.29-1.67-0.58-2.49-0.88c1.41,0.63,2.84,1.25,4.28,1.83c0.05-0.1,0.12-0.19,0.17-0.28
			C915.68,7150.46,915.02,7150.25,914.38,7150.02z"/>
		<path class="st0" d="M916.34,7150.68c-0.05,0.09-0.12,0.18-0.17,0.28c4.02,1.68,8.1,3.24,12.27,4.68
			c59.5,20.61,143.89,21.24,190.28-13.1c38.17-28.26,20.45-78.95-25.06-91.98c34.69,18.35,44.96,61.22,11.01,86.35
			C1058.78,7170.87,975.73,7170.63,916.34,7150.68z"/>
		<path class="st0" d="M1070.95,8097c33.23,15.18,55.56,39.67,68.5,65.27c9.05,17.91,12.88,37.35,11.81,56.85
			c4.75-0.76,9.48-1.59,14.2-2.48c-0.24-16.76-4.17-33.32-11.97-48.75C1138.83,8138.85,1112.04,8111.22,1070.95,8097z"/>
		<path class="st0" d="M1151.27,8219.12c-0.14,2.6-0.38,5.21-0.7,7.8c4.91-0.66,9.84-1.39,14.75-2.17c0.15-2.71,0.21-5.42,0.15-8.12
			C1160.75,8217.53,1156.02,8218.35,1151.27,8219.12z"/>
		<path class="st0" d="M1165.47,8216.64c0.05,2.7-0.01,5.41-0.15,8.12c51.1-8.19,100.82-23.16,133.79-49.89
			c63.33-51.3,40.29-129.6-26.14-175.32c-21-14.46-45.15-26.38-71.36-36.37c20.81,8.77,40.1,18.9,57.31,30.73
			c66.43,45.73,89.47,124.03,26.13,175.33C1255.14,8193.47,1211.47,8208.04,1165.47,8216.64z"/>
	</g>
	<g>
		<path class="st1" d="M480.18,7856.26c37.86,17.55,92.46,20.68,141.64,22.98c132.43,6.22,263.61,19.43,391.83,39.47
			c65.05,10.16,131.32,22.84,187.96,44.47c26.2,9.99,50.36,21.91,71.36,36.37c66.43,45.72,89.47,124.02,26.14,175.32
			c-32.97,26.72-82.69,41.69-133.79,49.89c-4.91,0.78-9.83,1.51-14.75,2.17c-4.71,0.64-9.45,1.22-14.15,1.76
			c-59.05,6.72-123.38,6.36-171.52-15c-0.44-0.2-0.88-0.39-1.31-0.6c-47.25-21.64-68.65-68.97-31.94-100.06
			c30.74-26.01,91.25-31.22,134.85-17.49c1.51,0.47,2.99,0.96,4.45,1.47c41.1,14.22,67.89,41.85,82.55,70.9
			c7.8,15.43,11.73,31.98,11.97,48.75c0.05,2.7-0.01,5.41-0.15,8.12c-3.36,61.24-54.99,123.07-144.61,139.97
			c-79.71,15.03-156.46-7.89-232.08-30.53c-21.85-6.53-43.61-13.04-65.32-18.61c-81.83-20.98-172.23-28.91-261.46-22.91
			c-26.28,1.76-53.37,4.95-75.76,14.6c-46.36,19.97-58.42,62.69-42.25,96.04c14.93,30.75,47.68,54.44,88.9,71.99
			c40.73,17.37,89.72,28.75,137.91,35.07c96.97,12.73,199.54,11.33,292.32,32.65c22.8,5.24,44.64,11.9,65.31,19.82
			c105.06,40.18,179.74,112.48,194.4,192.6c0.89,4.96-1.7,17.85-2.65,22.86c-9.98,53.03-89.36,54.23-109.26,53.54
			c-97.92-3.38-125.16-13.54-223.89-8.43c-91.01,4.71-199.82,32.9-220.2,91.23c-14.17,40.54,26.03,79.46,78.14,102.22
			c3.89,1.7,7.84,3.3,11.85,4.82c57.66,21.77,125.59,30.07,186.56,47.87c13.28,3.88,26.2,8.23,38.69,13.01
			c88.52,33.88,156.31,89.54,186.02,154.11c33.93,73.66,2.03,143.32-59.21,212.03"/>
		<path class="st1" d="M1093.65,7050.55c-9.8-2.8-20.87-3.86-32.96-2.58c-22.79,2.42-42.74,11.92-59.99,22.28
			c-37.18,22.27-65.75,50.14-84.35,80.42c-0.05,0.09-0.12,0.18-0.17,0.28c-27.7,45.27-33.12,95.88-11.65,141.2
			c30.26,63.88,105.86,112.56,158.13,169.54c52.28,56.99,77.54,136.45,9.47,189.65c-58.48,45.71-160.84,52.61-249.54,47.8
			c-88.67-4.82-180.44-17.3-265.62,2.88c-85.18,20.2-152.46,91.15-102.15,137.74c7.1,6.58,15.67,12,25.33,16.47"/>
		<path class="st1" d="M783.65,6977.68c0.22,2.93,0.54,5.89,0.95,8.86c7.81,57.83,49.56,124.02,117.89,158.18
			c3.07,1.54,6.2,3.02,9.39,4.42c1.41,0.63,2.84,1.25,4.28,1.83c4.02,1.68,8.1,3.24,12.27,4.68c59.5,20.61,143.89,21.24,190.28-13.1
			c38.17-28.26,20.45-78.95-25.06-91.98"/>
		<path class="st1" d="M783.68,6986.63c2.45,60.54,39.14,126.36,118.4,158.75c3.19,1.31,6.46,2.55,9.81,3.75
			c0.82,0.3,1.66,0.59,2.49,0.88c0.64,0.23,1.3,0.45,1.96,0.67c59.39,19.95,142.44,20.19,188.33-13.77
			c33.95-25.13,23.68-67.99-11.01-86.35c-0.01,0-0.01,0-0.01-0.01c-12.72-6.73-28.71-10.16-47.01-8.21
			c-22.79,2.43-42.74,11.93-60.01,22.28c-37.04,22.19-65.54,49.95-84.14,80.09c-0.15,0.23-0.28,0.44-0.41,0.67
			c-27.68,45.26-33.08,95.84-11.61,141.15c30.26,63.87,105.84,112.55,158.12,169.54c52.29,56.98,77.56,136.45,9.48,189.64
			c-58.5,45.71-160.84,52.62-249.54,47.79c-88.68-4.81-180.44-17.3-265.64,2.89c-85.16,20.19-152.44,91.14-102.13,137.73
			c10.4,9.62,23.91,16.76,39.38,22.1c0.01,0.01,0.03,0.02,0.04,0.02c36.61,12.65,84.21,15.31,127.59,17.35
			c132.42,6.23,263.59,19.43,391.83,39.47c70.51,11.01,142.45,24.99,202.01,50.1c20.81,8.77,40.1,18.9,57.31,30.73
			c66.43,45.73,89.47,124.03,26.13,175.33c-29.91,24.23-73.58,38.8-119.58,47.4c-4.72,0.89-9.45,1.72-14.2,2.48
			c-9.62,1.54-19.29,2.84-28.91,3.93c-53.97,6.14-112.36,6.37-158.77-9.96c-4.35-1.53-8.61-3.21-12.74-5.04
			c-48.14-21.35-70.31-69.27-33.25-100.67c30.72-26.01,91.23-31.22,134.85-17.48c6.51,2.06,12.68,4.42,18.5,7.1
			c33.23,15.18,55.56,39.67,68.5,65.27c9.05,17.91,12.88,37.35,11.81,56.85c-0.14,2.6-0.38,5.21-0.7,7.8
			c-7.11,58.61-58.1,115.99-143.91,132.17c-74.54,14.06-146.49-5.08-217.36-26.12c-26.81-7.96-53.47-16.2-80.05-23.01
			c-81.82-20.99-172.22-28.92-261.46-22.92c-26.26,1.77-53.36,4.95-75.74,14.6c-46.36,19.97-58.43,62.69-42.25,96.04
			c16.59,34.18,55.19,59.62,102.94,77.63c37.69,14.23,81.09,23.82,123.86,29.44c96.97,12.72,199.54,11.33,292.32,32.64
			c28.03,6.44,54.63,15.04,79.36,25.46c97.63,41.09,166.36,110.46,180.34,186.97c0.91,4.97-1.69,17.85-2.63,22.87
			c-9.99,53.02-89.37,54.23-109.26,53.54c-97.9-3.38-125.16-13.54-223.89-8.44c-91.01,4.71-199.82,32.9-220.2,91.23
			c-15.22,43.58,32.33,85.26,89.99,107.04c0.73,0.28,1.47,0.55,2.2,0.82c57.18,21.16,124.15,29.47,184.36,47.07
			c18.32,5.35,35.94,11.59,52.73,18.64c81.62,34.24,143.83,87.37,171.97,148.47c33.91,73.67,17.71,143.97-45.16,217.66"/>
	</g>
</g>
</svg>
