<?xml version="1.0" encoding="utf-8"?>
<!-- Generator: Adobe Illustrator 28.0.0, SVG Export Plug-In . SVG Version: 6.00 Build 0)  -->
<svg version="1.1" id="Layer_1" xmlns="http://www.w3.org/2000/svg" xmlns:xlink="http://www.w3.org/1999/xlink" x="0px" y="0px"
	 viewBox="0 0 1519 9500" style="enable-background:new 0 0 1519 9500;" xml:space="preserve">
<style type="text/css">
	.st0{fill:#AD354C;}
	.st1{fill:none;stroke:#AD354C;stroke-linecap:round;stroke-linejoin:round;}
</style>
<g>
	<g>
		<path class="st0" d="M4164.14,3546.88c3.22,0,3.22-5,0-5C4160.92,3541.88,4160.91,3546.88,4164.14,3546.88L4164.14,3546.88z"/>
	</g>
</g>
<g>
	<g>
		<path class="st0" d="M6350.74,2710.39c3.22,0,3.22-5,0-5C6347.52,2705.39,6347.51,2710.39,6350.74,2710.39L6350.74,2710.39z"/>
	</g>
</g>
<g id="XMLID_00000064332914111526217010000011267977066549121428_">
	<g>
		<path class="st0" d="M612.56,951.55c-47.7,13.43-96.22,29.45-137.29,53.91c43.11-28.08,95.75-45.68,147.47-60.25
			c94.11-26.54,190.65-46.42,288.39-59.38c32.04-4.24,67.18-9.34,93.78-23.85c-27.35,19.48-67.65,25.38-103.96,30.18
			C803.21,905.13,706.66,925,612.56,951.55z"/>
		<path class="st0" d="M753.95,2107.2c-59.09,38.35-103.12,94.58-121.62,157.03c-14.67,49.47-13.13,102.37,3.22,151.39
			c-21.3-45.97-28.59-93.81-13.4-145.04C641.69,2204.59,689.74,2145.55,753.95,2107.2z"/>
		<path class="st0" d="M522.08,1258.57c0.21,2.59,0.47,5.18,0.81,7.76c-3.66-0.41-7.33-0.88-10.99-1.42
			c-0.21-2.7-0.36-5.39-0.42-8.09C515,1257.47,518.54,1258.05,522.08,1258.57z"/>
		<path class="st0" d="M433.93,1039.15c-47.41,49.06-61.51,128.42-12.7,176.43c23.03,22.67,55.9,35,90.25,41.24
			c0.06,2.7,0.21,5.39,0.42,8.09c-38.12-5.58-75.45-18-100.86-42.99c-48.8-48.01-34.7-127.38,12.71-176.42
			c15.02-15.55,32.48-28.7,51.53-40.04C460.18,1015.29,446.24,1026.41,433.93,1039.15z"/>
		<path class="st0" d="M656.99,178.79c0.61-0.33,1.2-0.67,1.8-1.01c-1.02,0.7-2.04,1.38-3.08,2.05c-0.04-0.09-0.1-0.19-0.15-0.29
			C656.04,179.31,656.52,179.05,656.99,178.79z"/>
		<path class="st0" d="M700.03,1590.5c-70.68,46.01-118.91,118.8-126.35,195.91c-0.48,5,1.91,17.74,2.8,22.71
			c9.41,52.44,68.18,49.59,82.87,47.9c72.3-8.36,92.08-19.89,165.31-19.83c67.51,0.06,149.09,22.68,166.36,79.89
			c12.89,42.74-20.7,86.79-62.55,111.48c-0.53,0.32-1.06,0.62-1.6,0.93c37.71-25.39,65.97-66.3,53.96-106.08
			c-17.27-57.21-98.85-79.82-166.35-79.88c-73.23-0.08-93.01,11.46-165.31,19.83c-14.7,1.7-73.47,4.55-82.87-47.92
			c-0.89-4.95-3.28-17.69-2.81-22.69C571.29,1712,623.82,1635.97,700.03,1590.5z"/>
		<path class="st0" d="M792.26,2085.9c43.89-20.64,93.11-32.35,134.62-56.4c-2.81,1.88-5.68,3.69-8.58,5.41
			c-41.84,24.69-91.77,36.44-136.22,57.33c-9.68,4.55-19.07,9.55-28.13,14.96C766.11,2099.31,778.91,2092.18,792.26,2085.9z"/>
		<path class="st0" d="M665.89,173.49c22.21,43.8,28.12,94.07,13.95,140.43c-19.98,65.32-74.07,117.8-110.59,177.38
			c-36.54,59.57-52.23,140.22,0.14,189.88c45.01,42.67,120.99,44.35,186.42,35.02c65.43-9.33,132.85-26.47,196.64-10.65
			c63.78,15.82,116.23,83.25,80.76,132.35c-7.31,10.13-17.02,17.94-28.27,24.07c6.96-4.96,13.08-10.8,18.09-17.72
			c35.46-49.1-16.98-116.53-80.77-132.36c-63.78-15.82-131.21,1.33-196.63,10.66c-65.43,9.32-141.42,7.64-186.42-35.03
			c-52.37-49.66-36.68-130.31-0.16-189.88c36.52-59.58,90.63-112.05,110.61-177.38c14.17-46.34,8.25-96.62-13.95-140.42
			c1.03-0.67,2.06-1.35,3.08-2.05c0.02,0,0.03-0.01,0.04-0.03C661.23,176.41,663.59,174.97,665.89,173.49z"/>
		<path class="st0" d="M842.35,1333.11c-15.85,6.67-31.71,14.28-47.62,21.93l-0.54-1.19c19.54-9.32,38.95-18.91,58.36-27.07
			c59.75-25.13,126.33-37.66,192.58-36.22c19.5,0.42,39.66,2.23,56.59,10.72c35.04,17.59,45.6,59.63,34.87,93.76
			c-10.98,34.97-38.55,62.34-73.18,82.75c29.8-19.63,53.12-44.95,63-76.41c10.71-34.14,0.17-76.18-34.87-93.77
			c-16.93-8.49-37.09-10.29-56.6-10.71C968.69,1295.46,902.11,1307.98,842.35,1333.11z"/>
		<path class="st0" d="M646.79,185.13c-43.24,23.61-105.66,28.55-141.26-3.38c-29.32-26.28-18.12-77.81,15.06-93.14
			c-24.98,20.09-30.95,63.42-4.89,86.79c35.23,31.58,96.67,27.11,139.86,4.15c0.05,0.1,0.11,0.2,0.15,0.29
			C652.8,181.7,649.83,183.48,646.79,185.13z"/>
		<path class="st0" d="M794.18,1353.84l0.54,1.19c-55.09,26.46-111.01,53.25-170.55,42.31c-66.93-12.31-107.47-71.44-112.27-132.43
			c3.66,0.54,7.33,1.01,10.99,1.42c7.48,58.17,47.37,112.88,111.46,124.66C690.03,1401.23,742.54,1378.46,794.18,1353.84z"/>
		<path class="st0" d="M690.74,1135.08c28.6,29.46,14.02,78.45-20.8,102.23c-2.99,2.05-6.08,3.94-9.25,5.69
			c34.15-24,48.23-72.38,19.87-101.57c-23.72-24.41-68.69-26.54-100.43-10.6c-1.1,0.55-2.17,1.12-3.24,1.7
			c4.21-2.97,8.68-5.66,13.42-8.03C622.06,1108.54,667.03,1110.66,690.74,1135.08z"/>
		<path class="st0" d="M522.08,1258.57c-3.54-0.52-7.08-1.1-10.6-1.75c-0.45-16.74,1.83-33.49,7.01-49.29
			c9.75-29.75,28.53-58.71,58.4-75.01c-24.01,16.85-39.61,42.45-48.22,68.66C522.65,1219.53,520.55,1239.15,522.08,1258.57z"/>
		<path class="st0" d="M757.78,1561.03c67.84-26.01,143.78-29.85,215.05-47.49c31.46-7.8,63.21-19.6,90.57-35.75
			c-29.49,19.45-65.31,33.31-100.75,42.09c-71.27,17.65-147.21,21.49-215.05,47.5c-16.67,6.38-32.58,14.15-47.57,23.12
			C717.94,1578.84,737.29,1568.89,757.78,1561.03z"/>
		<path class="st0" d="M665.58,172.88c0.11,0.2,0.2,0.39,0.31,0.6c-2.3,1.49-4.65,2.92-7.06,4.27
			C661.13,176.2,663.38,174.58,665.58,172.88z"/>
		<path class="st0" d="M665.58,172.88c51.8-39.53,80.53-112.93,81.63-172.88c0.47,60.61-23.93,136.32-81.32,173.48
			C665.78,173.28,665.69,173.08,665.58,172.88z"/>
		<path class="st0" d="M522.89,1266.33c-0.34-2.58-0.6-5.17-0.81-7.76c7.17,1.05,14.38,1.85,21.54,2.45
			c40.15,3.38,83.35,0.64,117.07-18.03c-0.3,0.22-0.61,0.44-0.92,0.65c-34.82,23.79-82.4,27.43-126.34,23.73
			C529.93,1267.07,526.4,1266.73,522.89,1266.33z"/>
		<path class="st0" d="M655.56,179.55c-14.9-29.29-37.1-55.67-65.43-76.02c-13.16-9.46-28.28-17.93-45.24-19.19
			c-8.99-0.67-17.15,0.96-24.29,4.25c9.16-7.37,20.86-11.61,34.47-10.6c16.95,1.26,32.08,9.74,45.25,19.2
			c28.23,20.27,50.35,46.53,65.26,75.69c-2.2,1.7-4.45,3.32-6.75,4.87c-0.01,0.02-0.02,0.03-0.04,0.03c-0.6,0.34-1.19,0.68-1.8,1.01
			C656.52,179.05,656.04,179.31,655.56,179.55z"/>
	</g>
	<g>
		<path class="st1" d="M1004.92,861.97c-27.35,19.48-67.65,25.38-103.96,30.18c-97.75,12.97-194.29,32.85-288.39,59.39
			c-47.7,13.43-96.22,29.45-137.29,53.91c-19.05,11.34-36.51,24.49-51.53,40.04c-47.41,49.05-61.51,128.42-12.71,176.42
			c25.4,25,62.74,37.41,100.86,42.99c3.66,0.54,7.33,1.01,10.99,1.42c3.51,0.4,7.03,0.74,10.54,1.04
			c43.94,3.7,91.52,0.06,126.34-23.73c0.31-0.21,0.62-0.43,0.92-0.65c34.15-24,48.23-72.38,19.87-101.57
			c-23.72-24.41-68.69-26.54-100.43-10.6c-1.1,0.55-2.17,1.12-3.24,1.7c-29.87,16.3-48.65,45.26-58.4,75.01
			c-5.19,15.81-7.47,32.55-7.01,49.29c0.06,2.7,0.21,5.39,0.42,8.09c4.8,61,45.34,120.12,112.27,132.43
			c59.54,10.95,115.46-15.85,170.55-42.31c15.92-7.65,31.77-15.26,47.62-21.93c59.76-25.13,126.34-37.65,192.58-36.2
			c19.51,0.42,39.67,2.23,56.6,10.71c35.04,17.59,45.59,59.63,34.87,93.77c-9.88,31.46-33.2,56.78-63,76.41
			c-29.49,19.45-65.31,33.31-100.75,42.09c-71.27,17.65-147.21,21.49-215.05,47.5c-16.67,6.38-32.58,14.15-47.57,23.12
			c-76.21,45.47-128.74,121.49-136.54,202.26c-0.47,5,1.92,17.73,2.81,22.69c9.39,52.46,68.17,49.61,82.87,47.92
			c72.3-8.36,92.08-19.9,165.31-19.83c67.51,0.06,149.09,22.68,166.35,79.88c12.01,39.78-16.25,80.69-53.96,106.08
			c-2.81,1.88-5.68,3.69-8.58,5.41c-41.84,24.69-91.77,36.44-136.22,57.33c-9.68,4.55-19.07,9.55-28.13,14.96
			c-64.21,38.35-112.26,97.39-131.8,163.37c-15.19,51.24-7.9,99.08,13.4,145.04c10.01,21.59,23.1,42.77,38.41,63.7"/>
		<path class="st1" d="M520.6,88.59c7.14-3.29,15.3-4.92,24.29-4.25c16.95,1.25,32.08,9.73,45.24,19.19
			c28.34,20.35,50.53,46.73,65.43,76.02c0.05,0.1,0.11,0.2,0.15,0.29c22.2,43.8,28.12,94.08,13.95,140.42
			c-19.98,65.32-74.08,117.8-110.61,177.38c-36.52,59.57-52.22,140.23,0.16,189.88c45,42.67,120.99,44.35,186.42,35.03
			c65.42-9.33,132.85-26.47,196.63-10.66c63.79,15.83,116.23,83.26,80.77,132.36c-5.01,6.92-11.12,12.77-18.09,17.72"/>
		<path class="st1" d="M658.79,177.79c-1.02,0.7-2.04,1.38-3.08,2.05c-2.91,1.87-5.88,3.64-8.91,5.3
			c-43.24,23.61-105.66,28.55-141.26-3.38c-29.32-26.28-18.12-77.81,15.06-93.14"/>
		<path class="st1" d="M747.21,0.01c-1.11,59.95-29.83,133.34-81.63,172.88c-2.2,1.7-4.45,3.32-6.75,4.87"/>
		<path class="st1" d="M747.21,0.01c0.47,60.61-23.93,136.32-81.32,173.48c-2.3,1.49-4.65,2.92-7.06,4.27
			c-0.01,0.02-0.02,0.03-0.04,0.03c-0.6,0.34-1.19,0.68-1.8,1.01c-0.47,0.26-0.95,0.51-1.43,0.75
			c-43.19,22.96-104.62,27.43-139.86-4.15c-26.07-23.38-20.09-66.71,4.89-86.79c0.01,0,0.01-0.01,0.01-0.01
			c9.16-7.37,20.86-11.61,34.47-10.6c16.95,1.26,32.08,9.74,45.25,19.2c28.23,20.27,50.35,46.53,65.26,75.69
			c0.11,0.2,0.2,0.39,0.31,0.6c22.21,43.8,28.12,94.07,13.95,140.43c-19.98,65.32-74.07,117.8-110.59,177.38
			c-36.54,59.57-52.23,140.22,0.14,189.88c45.01,42.67,120.99,44.35,186.42,35.02c65.43-9.33,132.85-26.47,196.64-10.65
			c63.78,15.82,116.23,83.25,80.76,132.35c-7.31,10.13-17.02,17.94-28.27,24.07c-0.01,0.01-0.01,0.01-0.02,0.01
			c-26.61,14.51-61.75,19.6-93.78,23.85c-97.73,12.96-194.28,32.84-288.39,59.38c-51.72,14.57-104.36,32.18-147.47,60.25
			c-15.1,9.84-29.04,20.96-41.34,33.69c-47.41,49.06-61.51,128.42-12.7,176.43c23.03,22.67,55.9,35,90.25,41.24
			c3.52,0.65,7.06,1.23,10.6,1.75c7.17,1.05,14.38,1.85,21.54,2.45c40.15,3.38,83.35,0.64,117.07-18.03
			c3.17-1.75,6.26-3.64,9.25-5.69c34.82-23.78,49.4-72.77,20.8-102.23c-23.71-24.41-68.68-26.54-100.43-10.59
			c-4.74,2.37-9.21,5.07-13.42,8.03c-24.01,16.85-39.61,42.45-48.22,68.66c-6.03,18.35-8.12,37.97-6.59,57.39
			c0.21,2.59,0.47,5.18,0.81,7.76c7.48,58.17,47.37,112.88,111.46,124.66c55.67,10.23,108.19-12.54,159.82-37.15
			c19.54-9.32,38.95-18.91,58.36-27.07c59.75-25.13,126.33-37.66,192.58-36.22c19.5,0.42,39.66,2.23,56.59,10.72
			c35.04,17.59,45.6,59.63,34.87,93.76c-10.98,34.97-38.55,62.34-73.18,82.75c-27.36,16.15-59.11,27.95-90.57,35.75
			c-71.27,17.64-147.21,21.49-215.05,47.49c-20.49,7.86-39.84,17.8-57.75,29.47c-70.68,46.01-118.91,118.8-126.35,195.91
			c-0.48,5,1.91,17.74,2.8,22.71c9.41,52.44,68.18,49.59,82.87,47.9c72.3-8.36,92.08-19.89,165.31-19.83
			c67.51,0.06,149.09,22.68,166.36,79.89c12.89,42.74-20.7,86.79-62.55,111.48c-0.53,0.32-1.06,0.62-1.6,0.93
			c-41.51,24.05-90.73,35.76-134.62,56.4c-13.35,6.28-26.15,13.41-38.31,21.3c-59.09,38.35-103.12,94.58-121.62,157.03
			c-14.67,49.47-13.13,102.37,3.22,151.39c5.23,15.69,11.98,30.98,20.2,45.64"/>
	</g>
</g>
<g id="XMLID_00000060708948118504223850000017962093420134705329_">
	<g>
		<path class="st0" d="M840.73,3584.48c-0.21,2.59-0.47,5.18-0.81,7.76c3.66-0.41,7.33-0.88,10.99-1.42
			c0.21-2.7,0.36-5.39,0.42-8.09C847.81,3583.37,844.28,3583.96,840.73,3584.48z"/>
		<path class="st0" d="M702.13,3568.9c0.3,0.22,0.61,0.44,0.92,0.65c34.82,23.79,82.4,27.43,126.34,23.73
			c3.5-0.3,7.02-0.64,10.54-1.04c0.34-2.58,0.6-5.17,0.81-7.76c-7.17,1.05-14.38,1.85-21.54,2.45
			C779.04,3590.31,735.84,3587.56,702.13,3568.9z"/>
		<path class="st0" d="M939.06,3371.39c-15.02-15.55-32.48-28.7-51.53-40.04c15.1,9.84,29.04,20.96,41.34,33.69
			c47.41,49.06,61.51,128.42,12.7,176.43c-23.03,22.67-55.9,35-90.25,41.24c-0.06,2.7-0.21,5.39-0.42,8.09
			c38.12-5.58,75.45-18,100.86-42.99C1000.57,3499.81,986.47,3420.44,939.06,3371.39z"/>
		<path class="st0" d="M692.87,3563.21c2.99,2.05,6.08,3.94,9.25,5.69c-34.15-24-48.23-72.38-19.87-101.57
			c23.72-24.41,68.69-26.54,100.43-10.6c1.1,0.55,2.17,1.12,3.24,1.7c-4.21-2.97-8.68-5.66-13.42-8.03
			c-31.75-15.95-76.72-13.82-100.43,10.59C643.47,3490.44,658.05,3539.43,692.87,3563.21z"/>
		<path class="st0" d="M410.37,3031.44c-63.78,15.82-116.23,83.25-80.76,132.35c7.31,10.13,17.02,17.94,28.27,24.07
			c-6.96-4.96-13.08-10.8-18.09-17.72c-35.46-49.1,16.98-116.53,80.77-132.36c63.78-15.82,131.21,1.33,196.63,10.66
			c65.43,9.32,141.42,7.64,186.42-35.03c52.37-49.66,36.68-130.31,0.16-189.88c-36.52-59.58-90.63-112.05-110.61-177.38
			c-14.17-46.34-8.25-96.62,13.95-140.42c-1.03-0.67-2.06-1.35-3.08-2.05c-0.02,0-0.03-0.01-0.05-0.03
			c-2.41-1.35-4.77-2.76-7.07-4.23c-22.18,43.79-28.1,94.06-13.93,140.4c19.98,65.32,74.07,117.8,110.59,177.38
			c36.54,59.57,52.23,140.22-0.14,189.88c-45.01,42.67-120.99,44.35-186.42,35.02S474.16,3015.62,410.37,3031.44z"/>
		<path class="st0" d="M371.79,4242.99c-12.89,42.74,20.7,86.79,62.55,111.48c0.53,0.32,1.06,0.62,1.6,0.93
			c-37.71-25.39-65.97-66.3-53.96-106.08c17.27-57.21,98.85-79.82,166.35-79.88c73.23-0.08,93.01,11.46,165.31,19.82
			c14.7,1.7,73.47,4.55,82.87-47.92c0.89-4.95,3.28-17.69,2.81-22.69c-7.81-80.76-60.33-156.79-136.54-202.26
			c70.68,46.01,118.91,118.8,126.35,195.91c0.48,5-1.91,17.74-2.8,22.71c-9.41,52.44-68.18,49.59-82.87,47.9
			c-72.3-8.36-92.08-19.89-165.31-19.83C470.65,4163.16,389.07,4185.77,371.79,4242.99z"/>
		<path class="st0" d="M656.46,2462.69c11.06,14.1,24.49,26.63,40.44,36.73c0.12-0.22,0.22-0.43,0.33-0.64
			c-49.27-37.6-77.67-105.82-81.26-163.98l-0.67,0.04C614.97,2378.62,627.73,2426.02,656.46,2462.69z"/>
		<path class="st0" d="M847.11,2501.3c-35.23,31.58-96.67,27.11-139.86,4.15c-0.05,0.1-0.11,0.2-0.15,0.28
			c2.91,1.87,5.88,3.64,8.91,5.3c43.24,23.61,105.66,28.55,141.26-3.38c29.32-26.28,18.12-77.81-15.06-93.14
			C867.2,2434.59,873.17,2477.92,847.11,2501.3z"/>
		<path class="st0" d="M785.92,3458.42c24.01,16.85,39.61,42.45,48.22,68.66c6.03,18.35,8.12,37.97,6.6,57.39
			c3.54-0.52,7.08-1.1,10.6-1.75c0.45-16.74-1.83-33.49-7.01-49.29C834.57,3503.68,815.79,3474.72,785.92,3458.42z"/>
		<path class="st0" d="M226.23,3720.94c10.98,34.97,38.55,62.34,73.18,82.75c-29.8-19.63-53.12-44.95-63-76.41
			c-10.71-34.14-0.17-76.18,34.87-93.77c16.93-8.49,37.09-10.29,56.6-10.71c66.24-1.44,132.82,11.08,192.58,36.2
			c15.85,6.67,31.71,14.28,47.62,21.93l0.54-1.19c-19.54-9.32-38.95-18.91-58.36-27.07c-59.75-25.13-126.33-37.66-192.58-36.22
			c-19.5,0.42-39.66,2.23-56.59,10.72C226.06,3644.77,215.51,3686.82,226.23,3720.94z"/>
		<path class="st0" d="M750.25,3277.45c47.7,13.43,96.22,29.45,137.29,53.91c-43.11-28.08-95.75-45.68-147.47-60.25
			c-94.11-26.54-190.65-46.42-288.39-59.38c-32.04-4.24-67.18-9.34-93.78-23.85c27.35,19.48,67.65,25.38,103.96,30.18
			C559.6,3231.03,656.15,3250.91,750.25,3277.45z"/>
		<path class="st0" d="M697.23,2498.78c2.2,1.7,4.45,3.32,6.74,4.87c0.02,0.02,0.03,0.03,0.05,0.03c0.6,0.34,1.19,0.68,1.8,1.01
			c0.47,0.26,0.95,0.51,1.43,0.75c14.9-29.29,37.1-55.67,65.43-76.02c13.16-9.46,28.28-17.93,45.24-19.19
			c8.99-0.67,17.15,0.96,24.29,4.25c-9.16-7.37-20.86-11.61-34.47-10.6c-16.95,1.26-32.08,9.74-45.25,19.2
			C734.27,2443.36,712.14,2469.62,697.23,2498.78z"/>
		<path class="st0" d="M608.87,4433.1c59.09,38.35,103.12,94.58,121.62,157.03c14.61,49.31,13.18,102.01-3.01,150.91
			c21.13-45.82,28.33-93.5,13.19-144.56C721.13,4530.49,673.08,4471.45,608.87,4433.1z"/>
		<path class="st0" d="M580.73,4418.14c9.68,4.55,19.07,9.55,28.13,14.96c-12.16-7.89-24.96-15.02-38.31-21.3
			c-43.89-20.64-93.11-32.35-134.62-56.4c2.81,1.88,5.68,3.69,8.58,5.41C486.36,4385.5,536.29,4397.25,580.73,4418.14z"/>
		<path class="st0" d="M615.21,3893.28c16.67,6.38,32.58,14.15,47.57,23.12c-17.91-11.67-37.26-21.61-57.75-29.47
			c-67.84-26.01-143.78-29.85-215.05-47.49c-31.46-7.8-63.21-19.6-90.57-35.75c29.49,19.45,65.31,33.31,100.75,42.09
			C471.43,3863.43,547.37,3867.26,615.21,3893.28z"/>
		<path class="st0" d="M705.83,2504.69c-0.61-0.33-1.2-0.67-1.8-1.01c1.02,0.7,2.04,1.38,3.08,2.05c0.04-0.09,0.1-0.19,0.15-0.28
			C706.77,2505.21,706.3,2504.96,705.83,2504.69z"/>
		<path class="st0" d="M568.63,3679.74l-0.54,1.19c55.09,26.46,111.01,53.25,170.55,42.31c66.93-12.31,107.47-71.44,112.27-132.43
			c-3.66,0.54-7.33,1.01-10.99,1.42c-7.48,58.17-47.37,112.88-111.46,124.66C672.78,3727.13,620.27,3704.36,568.63,3679.74z"/>
		<path class="st0" d="M697.23,2498.78c-0.11,0.21-0.21,0.42-0.33,0.64c2.3,1.48,4.66,2.89,7.07,4.23
			C701.68,2502.1,699.44,2500.48,697.23,2498.78z"/>
	</g>
	<g>
		<path class="st1" d="M727.48,4741.05c-5.72,12.38-12.45,24.62-20.03,36.77"/>
		<path class="st1" d="M357.89,3187.87c27.35,19.48,67.65,25.38,103.96,30.18c97.75,12.97,194.29,32.85,288.39,59.39
			c47.7,13.43,96.22,29.45,137.29,53.91c19.05,11.33,36.51,24.49,51.53,40.04c47.41,49.05,61.51,128.42,12.71,176.42
			c-25.4,25-62.74,37.41-100.86,42.99c-3.66,0.54-7.33,1.01-10.99,1.42c-3.51,0.4-7.03,0.74-10.54,1.04
			c-43.94,3.7-91.52,0.06-126.34-23.73c-0.31-0.21-0.62-0.43-0.92-0.65c-34.15-24-48.23-72.38-19.87-101.57
			c23.72-24.41,68.69-26.54,100.43-10.6c1.1,0.55,2.17,1.12,3.24,1.7c29.87,16.3,48.65,45.26,58.4,75.01
			c5.19,15.81,7.47,32.55,7.01,49.29c-0.06,2.7-0.21,5.39-0.42,8.09c-4.8,61-45.34,120.12-112.27,132.43
			c-59.54,10.95-115.46-15.85-170.55-42.31c-15.92-7.65-31.77-15.26-47.62-21.93c-59.76-25.13-126.34-37.65-192.58-36.2
			c-19.51,0.42-39.67,2.23-56.6,10.71c-35.04,17.59-45.59,59.63-34.87,93.77c9.88,31.46,33.2,56.78,63,76.41
			c29.49,19.45,65.31,33.31,100.75,42.09c71.27,17.65,147.21,21.49,215.05,47.5c16.67,6.38,32.58,14.15,47.57,23.12
			c76.21,45.47,128.74,121.49,136.54,202.26c0.47,5-1.92,17.73-2.81,22.69c-9.39,52.46-68.17,49.61-82.87,47.92
			c-72.3-8.36-92.08-19.9-165.31-19.82c-67.51,0.06-149.09,22.68-166.35,79.88c-12.01,39.78,16.25,80.69,53.96,106.08
			c2.81,1.88,5.68,3.69,8.58,5.41c41.84,24.69,91.77,36.44,136.22,57.33c9.68,4.55,19.07,9.55,28.13,14.96
			c64.21,38.35,112.26,97.39,131.8,163.37c15.14,51.06,7.94,98.74-13.19,144.56"/>
		<path class="st1" d="M842.21,2414.49c-7.14-3.29-15.3-4.92-24.29-4.25c-16.95,1.25-32.08,9.73-45.24,19.19
			c-28.34,20.35-50.53,46.73-65.43,76.02c-0.05,0.1-0.11,0.2-0.15,0.28c-22.2,43.8-28.12,94.08-13.95,140.42
			c19.98,65.32,74.08,117.8,110.61,177.38c36.52,59.57,52.22,140.23-0.16,189.88c-45,42.67-120.99,44.35-186.42,35.03
			c-65.42-9.33-132.85-26.47-196.63-10.66c-63.79,15.83-116.23,83.26-80.77,132.36c5.01,6.92,11.12,12.77,18.09,17.72"/>
		<path class="st1" d="M704.03,2503.69c1.02,0.7,2.04,1.38,3.08,2.05c2.91,1.87,5.88,3.64,8.91,5.3
			c43.24,23.61,105.66,28.55,141.26-3.38c29.32-26.28,18.12-77.81-15.06-93.14"/>
		<path class="st1" d="M615.6,2325.91c0.06,2.94,0.18,5.9,0.37,8.9c3.59,58.16,32,126.38,81.26,163.98c2.2,1.7,4.45,3.32,6.74,4.87"
			/>
		<path class="st1" d="M615.3,2334.85c-0.33,43.77,12.42,91.17,41.16,127.84c11.06,14.1,24.49,26.63,40.44,36.73
			c2.3,1.48,4.66,2.89,7.07,4.23c0.02,0.02,0.03,0.03,0.05,0.03c0.6,0.34,1.19,0.68,1.8,1.01c0.47,0.26,0.95,0.51,1.43,0.75
			c43.19,22.96,104.62,27.43,139.86-4.15c26.07-23.38,20.09-66.71-4.89-86.79c-0.01-0.01-0.01-0.01-0.01-0.01
			c-9.16-7.37-20.86-11.61-34.47-10.6c-16.95,1.26-32.08,9.74-45.25,19.2c-28.23,20.27-50.35,46.53-65.26,75.69
			c-0.11,0.21-0.21,0.42-0.33,0.64c-22.18,43.79-28.1,94.06-13.93,140.4c19.98,65.32,74.07,117.8,110.59,177.38
			c36.54,59.57,52.23,140.22-0.14,189.88c-45.01,42.67-120.99,44.35-186.42,35.02s-132.85-26.47-196.64-10.65
			c-63.78,15.82-116.23,83.25-80.76,132.35c7.31,10.13,17.02,17.94,28.27,24.07c0,0,0.01,0.01,0.02,0.01
			c26.61,14.51,61.75,19.6,93.78,23.85c97.73,12.96,194.28,32.84,288.39,59.38c51.72,14.57,104.36,32.18,147.47,60.25
			c15.1,9.84,29.04,20.96,41.34,33.69c47.41,49.06,61.51,128.42,12.7,176.43c-23.03,22.67-55.9,35-90.25,41.24
			c-3.52,0.65-7.06,1.23-10.6,1.75c-7.17,1.05-14.38,1.85-21.54,2.45c-40.15,3.38-83.35,0.64-117.07-18.03
			c-3.17-1.75-6.26-3.64-9.25-5.69c-34.82-23.78-49.4-72.77-20.8-102.23c23.71-24.41,68.68-26.54,100.43-10.59
			c4.74,2.37,9.21,5.07,13.42,8.03c24.01,16.85,39.61,42.45,48.22,68.66c6.03,18.35,8.12,37.97,6.6,57.39
			c-0.21,2.59-0.47,5.18-0.81,7.76c-7.48,58.17-47.37,112.88-111.46,124.66c-55.67,10.23-108.19-12.54-159.82-37.15
			c-19.54-9.32-38.95-18.91-58.36-27.07c-59.75-25.13-126.33-37.66-192.58-36.22c-19.5,0.42-39.66,2.23-56.59,10.72
			c-35.04,17.59-45.6,59.63-34.87,93.76c10.98,34.97,38.55,62.34,73.18,82.75c27.36,16.15,59.11,27.95,90.57,35.75
			c71.27,17.64,147.21,21.49,215.05,47.49c20.49,7.86,39.84,17.8,57.75,29.47c70.68,46.01,118.91,118.8,126.35,195.91
			c0.48,5-1.91,17.74-2.8,22.71c-9.41,52.44-68.18,49.59-82.87,47.9c-72.3-8.36-92.08-19.89-165.31-19.83
			c-67.51,0.06-149.09,22.68-166.36,79.89c-12.89,42.74,20.7,86.79,62.55,111.48c0.53,0.32,1.06,0.62,1.6,0.93
			c41.51,24.05,90.73,35.76,134.62,56.4c13.35,6.28,26.15,13.41,38.31,21.3c59.09,38.35,103.12,94.58,121.62,157.03
			c14.61,49.31,13.18,102.01-3.01,150.91c0,0.01,0,0.01,0,0.01c-4.08,12.33-9.1,24.42-15.04,36.15"/>
	</g>
</g>
<g id="XMLID_00000047767654216084375890000014279016017608175286_">
	<g>
		<path class="st0" d="M694.95,6247.92c17.9-11.65,37.25-21.6,57.73-29.45c67.85-26.01,143.79-29.85,215.05-47.5
			c31.44-7.79,63.18-19.59,90.53-35.72c-29.48,19.42-65.29,33.29-100.71,42.05c-71.26,17.65-147.2,21.49-215.04,47.5
			C725.85,6231.2,709.94,6238.97,694.95,6247.92z"/>
		<path class="st0" d="M1058.26,6135.26c29.83-19.63,53.17-44.96,63.05-76.43c10.7-34.14,0.17-76.18-34.88-93.77
			c-16.93-8.5-37.09-10.29-56.6-10.73c-66.24-1.44-132.82,11.08-192.57,36.2c-13.9,5.85-27.82,12.43-41.77,19.12l-0.54-1.2
			c17.56-8.41,35.03-16.91,52.5-24.26c59.74-25.13,126.32-37.65,192.57-36.2c19.5,0.42,39.66,2.22,56.59,10.71
			c35.05,17.59,45.6,59.63,34.88,93.77C1120.51,6087.46,1092.91,6114.84,1058.26,6135.26z"/>
		<path class="st0" d="M999.77,5519.45c7-4.97,13.15-10.83,18.17-17.78c35.45-49.09-16.99-116.52-80.77-132.35
			s-131.21,1.33-196.64,10.65c-65.43,9.33-141.42,7.65-186.41-35.03c-52.37-49.64-36.68-130.3-0.16-189.88
			c36.52-59.57,90.61-112.04,110.59-177.38c14.17-46.35,8.26-96.62-13.94-140.41c1.03-0.67,2.07-1.35,3.09-2.05
			c2.43-1.37,4.8-2.78,7.11-4.25c22.17,43.78,28.09,94.03,13.92,140.36c-19.98,65.32-74.07,117.8-110.58,177.38
			c-36.54,59.57-52.23,140.23,0.14,189.89c45,42.67,120.98,44.35,186.41,35.01c65.44-9.32,132.86-26.46,196.65-10.64
			c63.77,15.82,116.22,83.25,80.76,132.35C1020.78,5505.5,1011.03,5513.31,999.77,5519.45z"/>
		<path class="st0" d="M428.84,5696.58c-47.42,49.07-61.51,128.43-12.71,176.45c23.04,22.66,55.9,34.99,90.26,41.23
			c0.06,2.7,0.21,5.4,0.42,8.1c-38.12-5.58-75.46-18-100.87-42.99c-48.79-48.01-34.7-127.38,12.72-176.44
			c15-15.51,32.41-28.65,51.42-39.96C455.01,5672.78,441.13,5683.88,428.84,5696.58z"/>
		<path class="st0" d="M516.99,5916c0.2,2.59,0.47,5.18,0.81,7.76c-3.66-0.41-7.33-0.88-10.99-1.41c-0.21-2.7-0.36-5.4-0.42-8.1
			C509.91,5914.9,513.45,5915.49,516.99,5916z"/>
		<path class="st0" d="M517.8,5923.76c-0.34-2.58-0.61-5.17-0.81-7.76c7.18,1.05,14.39,1.85,21.54,2.46
			c40.16,3.38,83.38,0.64,117.09-18.05c-0.31,0.23-0.63,0.45-0.95,0.67c-34.81,23.78-82.39,27.42-126.33,23.72
			C524.84,5924.5,521.31,5924.16,517.8,5923.76z"/>
		<path class="st0" d="M571.8,5789.95c-24.01,16.85-39.61,42.45-48.22,68.67c-6.02,18.35-8.12,37.96-6.59,57.38
			c-3.54-0.52-7.08-1.1-10.6-1.75c-0.44-16.74,1.83-33.49,7.01-49.28C523.16,5835.21,541.93,5806.26,571.8,5789.95z"/>
		<path class="st0" d="M627.23,6921.67c-14.62,49.34-13.16,102.07,3.04,150.99c-21.16-45.85-28.37-93.55-13.22-144.65
			c19.54-66,67.59-125.04,131.82-163.37C689.77,6802.99,645.74,6859.22,627.23,6921.67z"/>
		<path class="st0" d="M742.42,4666.39c0.47,60.59-24.19,128.2-81.6,164.59c-0.11-0.22-0.22-0.44-0.33-0.65
			c49.27-37.61,77.66-105.82,81.26-163.98L742.42,4666.39z"/>
		<path class="st0" d="M985.92,6574.52c12.9,42.75-20.7,86.8-62.54,111.48c-0.49,0.28-0.98,0.58-1.47,0.84
			c37.63-25.38,65.82-66.25,53.82-105.98c-17.27-57.22-98.84-79.83-166.34-79.89c-73.23-0.08-93.02,11.48-165.32,19.84
			c-14.7,1.7-73.47,4.53-82.86-47.92c-0.89-4.95-3.29-17.69-2.82-22.7c7.82-80.76,60.35-156.79,136.56-202.27
			c-70.69,46.01-118.92,118.81-126.37,195.92c-0.48,5.01,1.92,17.74,2.81,22.71c9.39,52.44,68.17,49.6,82.86,47.91
			c72.3-8.36,92.09-19.9,165.32-19.84C887.08,6494.69,968.65,6517.3,985.92,6574.52z"/>
		<path class="st0" d="M787.17,6743.34c43.92-20.67,93.22-32.38,134.75-56.5c-2.85,1.93-5.76,3.76-8.71,5.5
			c-41.84,24.68-91.78,36.43-136.22,57.33c-9.68,4.55-19.06,9.55-28.12,14.96C761.03,6756.75,773.83,6749.62,787.17,6743.34z"/>
		<path class="st0" d="M655.62,5900.42c34.13-24.02,48.19-72.37,19.85-101.55c-23.72-24.43-68.69-26.54-100.43-10.61
			c-1.1,0.55-2.17,1.12-3.24,1.7c4.21-2.97,8.68-5.65,13.42-8.03c31.75-15.94,76.72-13.82,100.43,10.6
			c28.6,29.46,14.01,78.44-20.8,102.22C661.87,5896.77,658.78,5898.67,655.62,5900.42z"/>
		<path class="st0" d="M794.95,6008.46l0.54,1.2c-57,27.32-114.76,56.46-176.4,45.12c-66.94-12.3-107.49-71.42-112.27-132.42
			c3.66,0.53,7.33,1,10.99,1.41c7.47,58.17,47.36,112.89,111.46,124.66C687.05,6059.05,741.42,6034.12,794.95,6008.46z"/>
		<path class="st0" d="M651.9,4836.23c0.61-0.33,1.21-0.67,1.81-1.01c-1.02,0.7-2.06,1.38-3.09,2.05c-0.05-0.1-0.1-0.2-0.15-0.29
			C650.95,4836.75,651.43,4836.5,651.9,4836.23z"/>
		<path class="st0" d="M651.9,4836.23c-0.47,0.26-0.95,0.51-1.43,0.75c-14.91-29.29-37.1-55.68-65.44-76.02
			c-13.16-9.46-28.27-17.94-45.23-19.2c-8.98-0.67-17.13,0.95-24.26,4.24c9.15-7.36,20.84-11.59,34.43-10.58
			c16.95,1.25,32.08,9.74,45.25,19.19c28.24,20.28,50.38,46.54,65.27,75.71c-2.22,1.7-4.47,3.33-6.78,4.89
			C653.11,4835.57,652.5,4835.91,651.9,4836.23z"/>
		<path class="st0" d="M906.04,5543.25c32.01-4.24,67.11-9.33,93.72-23.8c-27.36,19.45-67.62,25.34-103.9,30.15
			c-97.75,12.97-194.29,32.84-288.4,59.38c-47.75,13.46-96.29,29.5-137.38,53.99c43.12-28.11,95.82-45.74,147.56-60.33
			C711.76,5576.1,808.31,5556.22,906.04,5543.25z"/>
		<path class="st0" d="M660.82,4830.98c-2.31,1.47-4.69,2.88-7.11,4.25c2.31-1.56,4.57-3.2,6.78-4.89
			C660.6,4830.54,660.71,4830.76,660.82,4830.98z"/>
		<path class="st0" d="M515.54,4746.01c-25.01,20.06-31,63.44-4.93,86.83c35.23,31.58,96.67,27.1,139.86,4.15
			c0.05,0.09,0.1,0.19,0.15,0.29c-2.91,1.87-5.88,3.64-8.91,5.3c-43.24,23.61-105.66,28.54-141.27-3.4
			C471.11,4812.89,482.33,4761.32,515.54,4746.01z"/>
	</g>
	<g>
		<path class="st1" d="M630.3,7072.72c7.07,15.3,15.69,30.4,25.56,45.35"/>
		<path class="st1" d="M742.11,4657.45c-0.06,2.94-0.18,5.91-0.36,8.91c-3.6,58.16-32,126.37-81.26,163.98
			c-2.22,1.7-4.47,3.33-6.78,4.89c-1.02,0.7-2.06,1.38-3.09,2.05c-2.91,1.87-5.88,3.64-8.91,5.3
			c-43.24,23.61-105.66,28.54-141.27-3.4c-29.32-26.28-18.1-77.85,15.11-93.16c7.13-3.29,15.28-4.91,24.26-4.24
			c16.95,1.25,32.07,9.74,45.23,19.2c28.35,20.34,50.53,46.73,65.44,76.02c0.05,0.09,0.1,0.19,0.15,0.29
			c22.2,43.79,28.11,94.06,13.94,140.41c-19.98,65.34-74.07,117.81-110.59,177.38c-36.52,59.58-52.22,140.24,0.16,189.88
			c44.99,42.68,120.98,44.36,186.41,35.03c65.43-9.32,132.86-26.47,196.64-10.65s116.22,83.26,80.77,132.35
			c-5.02,6.95-11.18,12.81-18.17,17.78c-27.36,19.45-67.62,25.34-103.9,30.15c-97.75,12.97-194.29,32.84-288.4,59.38
			c-47.75,13.46-96.29,29.5-137.38,53.99c-19.01,11.31-36.42,24.45-51.42,39.96c-47.42,49.06-61.51,128.43-12.72,176.44
			c25.4,25,62.75,37.41,100.87,42.99c3.66,0.53,7.33,1,10.99,1.41c3.51,0.4,7.03,0.74,10.54,1.04c43.94,3.7,91.52,0.06,126.33-23.72
			c0.32-0.22,0.64-0.44,0.95-0.67c34.13-24.02,48.19-72.37,19.85-101.55c-23.72-24.43-68.69-26.54-100.43-10.61
			c-1.1,0.55-2.17,1.12-3.24,1.7c-29.88,16.31-48.65,45.26-58.4,75.02c-5.19,15.8-7.46,32.54-7.01,49.28c0.06,2.7,0.21,5.4,0.42,8.1
			c4.79,61,45.33,120.12,112.27,132.42c61.64,11.34,119.41-17.8,176.4-45.12c13.95-6.68,27.86-13.27,41.77-19.12
			c59.75-25.13,126.33-37.65,192.57-36.2c19.51,0.43,39.67,2.23,56.6,10.73c35.05,17.59,45.59,59.63,34.88,93.77
			c-9.88,31.47-33.22,56.8-63.05,76.43c-29.48,19.42-65.29,33.29-100.71,42.05c-71.26,17.65-147.2,21.49-215.04,47.5
			c-16.66,6.38-32.57,14.16-47.56,23.11c-76.21,45.48-128.75,121.51-136.56,202.27c-0.47,5.01,1.93,17.74,2.82,22.7
			c9.38,52.45,68.16,49.61,82.86,47.92c72.3-8.36,92.09-19.91,165.32-19.84c67.51,0.06,149.08,22.68,166.34,79.89
			c12,39.73-16.18,80.6-53.82,105.98c-2.85,1.93-5.76,3.76-8.71,5.5c-41.84,24.68-91.78,36.43-136.22,57.33
			c-9.68,4.55-19.06,9.55-28.12,14.96c-64.22,38.34-112.27,97.37-131.82,163.37c-15.15,51.09-7.94,98.8,13.22,144.65"/>
		<path class="st1" d="M742.42,4666.39c0.47,60.59-24.19,128.2-81.6,164.59c-2.31,1.47-4.69,2.88-7.11,4.25
			c-0.6,0.34-1.2,0.68-1.81,1.01c-0.47,0.26-0.95,0.51-1.43,0.75c-43.19,22.95-104.62,27.43-139.86-4.15
			c-26.08-23.39-20.08-66.76,4.93-86.83c9.15-7.36,20.84-11.59,34.43-10.58c16.95,1.25,32.08,9.74,45.25,19.19
			c28.24,20.28,50.38,46.54,65.27,75.71c0.11,0.21,0.22,0.43,0.33,0.65c22.17,43.78,28.09,94.03,13.92,140.36
			c-19.98,65.32-74.07,117.8-110.58,177.38c-36.54,59.57-52.23,140.23,0.14,189.89c45,42.67,120.98,44.35,186.41,35.01
			c65.44-9.32,132.86-26.46,196.65-10.64c63.77,15.82,116.22,83.25,80.76,132.35c-7.34,10.16-17.09,17.98-28.35,24.11
			c-26.61,14.47-61.71,19.56-93.72,23.8c-97.73,12.97-194.28,32.85-288.4,59.38c-51.75,14.59-104.45,32.22-147.56,60.33
			c-15.07,9.82-28.96,20.91-41.24,33.61c-47.42,49.07-61.51,128.43-12.71,176.45c23.04,22.66,55.9,34.99,90.26,41.23
			c3.52,0.65,7.06,1.23,10.6,1.75c7.18,1.05,14.39,1.85,21.54,2.46c40.16,3.38,83.38,0.64,117.09-18.05
			c3.16-1.75,6.25-3.64,9.23-5.68c34.81-23.78,49.4-72.76,20.8-102.22c-23.71-24.43-68.68-26.54-100.43-10.6
			c-4.74,2.38-9.21,5.07-13.42,8.03c-24.01,16.85-39.61,42.45-48.22,68.67c-6.02,18.35-8.12,37.96-6.59,57.38
			c0.2,2.59,0.47,5.18,0.81,7.76c7.47,58.17,47.36,112.89,111.46,124.66c57.78,10.63,112.16-14.31,165.68-39.97
			c17.56-8.41,35.03-16.91,52.5-24.26c59.74-25.13,126.32-37.65,192.57-36.2c19.5,0.42,39.66,2.22,56.59,10.71
			c35.05,17.59,45.6,59.63,34.88,93.77c-10.98,34.98-38.58,62.36-73.23,82.78c-27.34,16.13-59.09,27.92-90.53,35.72
			c-71.26,17.65-147.2,21.5-215.05,47.5c-20.48,7.85-39.83,17.79-57.73,29.45c-70.69,46.01-118.92,118.81-126.37,195.92
			c-0.48,5.01,1.92,17.74,2.81,22.71c9.39,52.44,68.17,49.6,82.86,47.91c72.3-8.36,92.09-19.9,165.32-19.84
			c67.51,0.06,149.08,22.68,166.35,79.89c12.9,42.75-20.7,86.8-62.54,111.48c-0.49,0.28-0.98,0.58-1.47,0.84
			c-41.53,24.11-90.83,35.83-134.75,56.5c-13.34,6.28-26.14,13.41-38.3,21.3c-59.1,38.34-103.13,94.57-121.64,157.03
			c-14.62,49.34-13.16,102.07,3.04,150.99c0.01,0.02,0.02,0.03,0.02,0.05c2.36,7.11,5.02,14.14,8,21.07"/>
	</g>
</g>
<g id="XMLID_00000109022921978664917650000005950021372917504916_">
	<g>
		<path class="st0" d="M834.21,8242.07c0.34-2.58,0.61-5.17,0.81-7.76c-7.17,1.05-14.38,1.85-21.54,2.45
			c-40.16,3.38-83.37,0.63-117.09-18.04c0.31,0.23,0.63,0.45,0.95,0.67c34.81,23.78,82.39,27.42,126.33,23.72
			C827.17,8242.81,830.7,8242.47,834.21,8242.07z"/>
		<path class="st0" d="M836.51,7064.34c24.98,20.1,30.95,63.43,4.89,86.79c-35.23,31.58-96.67,27.11-139.86,4.16
			c-0.04,0.09-0.1,0.18-0.14,0.27c2.91,1.88,5.87,3.64,8.9,5.3c43.24,23.62,105.66,28.55,141.27-3.38
			C880.89,7131.2,869.69,7079.67,836.51,7064.34z"/>
		<path class="st0" d="M835.02,8234.31c-0.2,2.59-0.47,5.18-0.81,7.76c3.66-0.41,7.33-0.88,10.99-1.41c0.21-2.7,0.36-5.4,0.42-8.1
			C842.1,8233.21,838.56,8233.79,835.02,8234.31z"/>
		<path class="st0" d="M562.92,8329.57l-0.54,1.2c55.09,26.47,111.01,53.26,170.55,42.32c66.94-12.31,107.47-71.43,112.27-132.42
			c-3.66,0.53-7.33,1-10.99,1.41c-7.47,58.17-47.36,112.88-111.46,124.66C667.07,8376.97,614.56,8354.2,562.92,8329.57z"/>
		<path class="st0" d="M700.11,7154.53c0.47,0.26,0.95,0.51,1.43,0.77c14.91-29.29,37.1-55.68,65.44-76.02
			c13.16-9.47,28.27-17.94,45.23-19.2c8.99-0.67,17.15,0.96,24.29,4.25c-9.16-7.37-20.86-11.61-34.47-10.6
			c-16.95,1.27-32.07,9.74-45.24,19.2c-28.24,20.28-50.38,46.54-65.27,75.7c2.22,1.7,4.47,3.33,6.78,4.89
			C698.9,7153.86,699.51,7154.2,700.11,7154.53z"/>
		<path class="st0" d="M677.27,7289.65c19.98,65.32,74.06,117.8,110.58,177.38c36.54,59.57,52.23,140.23-0.14,189.88
			c-45,42.67-120.98,44.36-186.42,35.02c-65.43-9.32-132.85-26.47-196.64-10.65c-63.77,15.83-116.22,83.26-80.76,132.35
			c7.33,10.14,17.05,17.96,28.3,24.08c-6.98-4.96-13.11-10.8-18.12-17.74c-35.46-49.09,16.99-116.52,80.77-132.36
			c63.78-15.82,131.21,1.33,196.63,10.66c65.44,9.32,141.43,7.64,186.42-35.03c52.37-49.66,36.68-130.3,0.16-189.88
			c-36.52-59.57-90.61-112.04-110.59-177.38c-14.17-46.35-8.26-96.62,13.95-140.42c-1.04-0.66-2.08-1.35-3.1-2.05
			c-2.43-1.37-4.8-2.78-7.11-4.25C669.01,7193.06,663.1,7243.31,677.27,7289.65z"/>
		<path class="st0" d="M691.19,7149.28c2.31,1.47,4.69,2.88,7.11,4.25c-2.31-1.56-4.57-3.2-6.78-4.89
			C691.4,7148.85,691.3,7149.06,691.19,7149.28z"/>
		<path class="st0" d="M724.78,9239.98c22.31,75.3,7.67,144.68-41.63,215.08c47.9-65.5,74.13-133.44,51.81-208.73
			c-19.54-65.99-67.59-125.04-131.8-163.38C662.24,9121.29,706.27,9177.52,724.78,9239.98z"/>
		<path class="st0" d="M691.52,7148.63c-49.27-37.6-77.66-105.83-81.25-163.98l-0.68,0.04c-0.47,60.59,24.19,128.19,81.6,164.58
			C691.3,7149.06,691.4,7148.85,691.52,7148.63z"/>
		<path class="st0" d="M514.75,8308.84c15.85,6.67,31.71,14.28,47.62,21.92l0.54-1.2c-19.54-9.31-38.95-18.9-58.36-27.06
			c-59.74-25.13-126.32-37.66-192.57-36.21c-19.5,0.43-39.66,2.23-56.59,10.72c-35.05,17.59-45.6,59.63-34.88,93.77
			c10.98,34.98,38.58,62.36,73.23,82.78c-29.83-19.63-53.17-44.96-63.05-76.43c-10.7-34.14-0.17-76.18,34.88-93.77
			c16.93-8.5,37.09-10.3,56.6-10.73C388.42,8271.2,455,8283.72,514.75,8308.84z"/>
		<path class="st0" d="M657.07,8566.24c-17.91-11.67-37.26-21.61-57.75-29.47c-67.84-26.01-143.78-29.85-215.04-47.49
			c-31.44-7.79-63.18-19.59-90.53-35.72c29.48,19.42,65.29,33.29,100.71,42.05c71.26,17.65,147.2,21.49,215.04,47.5
			C626.17,8549.51,642.08,8557.28,657.07,8566.24z"/>
		<path class="st0" d="M933.35,8021.23c-15-15.51-32.41-28.65-51.42-39.96c15.07,9.82,28.96,20.91,41.24,33.61
			c47.42,49.06,61.51,128.43,12.71,176.44c-23.04,22.67-55.9,35-90.26,41.24c-0.06,2.7-0.21,5.4-0.42,8.1
			c38.12-5.58,75.46-18,100.87-43C994.86,8149.65,980.77,8070.28,933.35,8021.23z"/>
		<path class="st0" d="M575.02,9067.97c9.68,4.55,19.07,9.55,28.13,14.96c-12.16-7.89-24.96-15.02-38.31-21.3
			c-43.88-20.64-93.11-32.35-134.62-56.4c2.81,1.89,5.68,3.7,8.58,5.42C480.64,9035.34,530.59,9047.08,575.02,9067.97z"/>
		<path class="st0" d="M696.39,8218.72c-34.14-24.02-48.19-72.38-19.85-101.56c23.72-24.41,68.69-26.53,100.43-10.6
			c1.1,0.55,2.17,1.12,3.24,1.7c-4.21-2.97-8.68-5.65-13.42-8.03c-31.75-15.94-76.72-13.82-100.43,10.59
			c-28.6,29.47-14.01,78.45,20.8,102.23C690.14,8215.08,693.23,8216.97,696.39,8218.72z"/>
		<path class="st0" d="M845.62,8232.56c0.45-16.75-1.83-33.49-7.01-49.29c-9.75-29.75-28.53-58.71-58.4-75.01
			c24.01,16.85,39.61,42.45,48.22,68.67c6.02,18.35,8.12,37.96,6.59,57.38C838.56,8233.79,842.1,8233.21,845.62,8232.56z"/>
		<path class="st0" d="M428.63,9004.31c0.53,0.32,1.06,0.62,1.6,0.93c-37.7-25.39-65.97-66.3-53.96-106.07
			c17.28-57.22,98.85-79.83,166.35-79.89c73.23-0.08,93.01,11.46,165.32,19.83c14.7,1.7,73.47,4.55,82.86-47.91
			c0.89-4.95,3.29-17.7,2.82-22.7c-7.82-80.76-60.34-156.78-136.55-202.26c70.68,46.01,118.91,118.8,126.36,195.91
			c0.48,5.01-1.92,17.74-2.81,22.71c-9.39,52.44-68.17,49.6-82.86,47.91c-72.3-8.36-92.09-19.9-165.32-19.84
			c-67.51,0.06-149.08,22.68-166.35,79.89C353.18,8935.57,386.79,8979.63,428.63,9004.31z"/>
		<path class="st0" d="M700.11,7154.53c-0.61-0.33-1.21-0.67-1.81-1.01c1.02,0.7,2.06,1.39,3.1,2.05c0.04-0.1,0.1-0.19,0.14-0.27
			C701.06,7155.04,700.58,7154.79,700.11,7154.53z"/>
		<path class="st0" d="M352.22,7837.73c27.35,19.46,67.63,25.36,103.92,30.17c97.75,12.96,194.29,32.84,288.4,59.38
			c47.75,13.46,96.29,29.5,137.38,53.98c-43.12-28.11-95.82-45.74-147.56-60.33c-94.12-26.54-190.67-46.41-288.4-59.38
			C413.95,7857.31,378.83,7852.23,352.22,7837.73z"/>
	</g>
	<g>
		<path class="st1" d="M352.22,7837.73c27.35,19.46,67.63,25.36,103.92,30.17c97.75,12.96,194.29,32.84,288.4,59.38
			c47.75,13.46,96.29,29.5,137.38,53.98c19.01,11.31,36.42,24.45,51.42,39.96c47.42,49.05,61.51,128.42,12.72,176.42
			c-25.4,25.01-62.75,37.42-100.87,43c-3.66,0.53-7.33,1-10.99,1.41c-3.51,0.4-7.03,0.74-10.54,1.04
			c-43.94,3.7-91.52,0.06-126.33-23.72c-0.32-0.22-0.64-0.44-0.95-0.67c-34.14-24.02-48.19-72.38-19.85-101.56
			c23.72-24.41,68.69-26.53,100.43-10.6c1.1,0.55,2.17,1.12,3.24,1.7c29.87,16.3,48.65,45.26,58.4,75.01
			c5.19,15.81,7.47,32.54,7.01,49.29c-0.06,2.7-0.21,5.4-0.42,8.1c-4.8,60.99-45.33,120.11-112.27,132.42
			c-59.54,10.95-115.46-15.85-170.55-42.32c-15.92-7.63-31.77-15.25-47.62-21.92c-59.75-25.13-126.33-37.65-192.57-36.2
			c-19.51,0.42-39.67,2.23-56.6,10.73c-35.05,17.59-45.59,59.63-34.88,93.77c9.88,31.47,33.22,56.8,63.05,76.43
			c29.48,19.42,65.29,33.29,100.71,42.05c71.26,17.65,147.2,21.49,215.04,47.5c16.67,6.4,32.58,14.16,47.57,23.12
			c76.21,45.48,128.74,121.49,136.55,202.26c0.47,5-1.93,17.74-2.82,22.7c-9.38,52.45-68.16,49.6-82.86,47.91
			c-72.32-8.36-92.09-19.9-165.32-19.83c-67.51,0.06-149.08,22.68-166.35,79.89c-12.01,39.77,16.26,80.68,53.96,106.07
			c2.81,1.89,5.68,3.7,8.58,5.42c41.84,24.68,91.78,36.43,136.22,57.32c9.68,4.55,19.07,9.55,28.13,14.96
			c64.21,38.35,112.26,97.39,131.8,163.38c22.32,75.29-3.91,143.24-51.81,208.73"/>
		<path class="st1" d="M836.5,7064.33c-7.14-3.29-15.3-4.92-24.29-4.25c-16.95,1.25-32.07,9.73-45.23,19.2
			c-28.35,20.34-50.53,46.73-65.44,76.02c-0.04,0.09-0.1,0.18-0.14,0.27c-22.21,43.8-28.12,94.07-13.95,140.42
			c19.98,65.34,74.07,117.81,110.59,177.38c36.52,59.58,52.22,140.23-0.16,189.88c-44.99,42.67-120.98,44.35-186.42,35.03
			c-65.42-9.33-132.85-26.47-196.63-10.66c-63.78,15.84-116.23,83.27-80.77,132.36c5.01,6.93,11.14,12.78,18.12,17.74"/>
		<path class="st1" d="M609.9,6975.76c0.06,2.94,0.18,5.91,0.37,8.9c3.59,58.15,31.98,126.38,81.25,163.98
			c2.22,1.7,4.47,3.33,6.78,4.89c1.02,0.7,2.06,1.39,3.1,2.05c2.91,1.88,5.87,3.64,8.9,5.3c43.24,23.62,105.66,28.55,141.27-3.38
			c29.31-26.28,18.11-77.81-15.07-93.14"/>
		<path class="st1" d="M609.59,6984.7c-0.47,60.59,24.19,128.19,81.6,164.58c2.31,1.47,4.69,2.88,7.11,4.25
			c0.6,0.34,1.2,0.68,1.81,1.01c0.47,0.26,0.95,0.51,1.43,0.77c43.19,22.95,104.62,27.42,139.86-4.16
			c26.07-23.36,20.09-66.7-4.89-86.79c-0.01,0-0.01,0-0.01-0.01c-9.16-7.37-20.86-11.61-34.47-10.6
			c-16.95,1.27-32.07,9.74-45.24,19.2c-28.24,20.28-50.38,46.54-65.27,75.7c-0.12,0.22-0.22,0.43-0.33,0.65
			c-22.18,43.79-28.09,94.03-13.92,140.37c19.98,65.32,74.06,117.8,110.58,177.38c36.54,59.57,52.23,140.23-0.14,189.88
			c-45,42.67-120.98,44.36-186.42,35.02c-65.43-9.32-132.85-26.47-196.64-10.65c-63.77,15.83-116.22,83.26-80.76,132.35
			c7.33,10.14,17.05,17.96,28.3,24.08c0.01,0.01,0.02,0.02,0.03,0.02c26.61,14.49,61.72,19.58,93.74,23.82
			c97.73,12.97,194.28,32.84,288.4,59.38c51.75,14.59,104.45,32.22,147.56,60.33c15.07,9.82,28.96,20.91,41.24,33.61
			c47.42,49.06,61.51,128.43,12.71,176.44c-23.04,22.67-55.9,35-90.26,41.24c-3.52,0.65-7.06,1.23-10.6,1.75
			c-7.17,1.05-14.38,1.85-21.54,2.45c-40.16,3.38-83.37,0.63-117.09-18.04c-3.16-1.75-6.25-3.64-9.23-5.68
			c-34.81-23.78-49.4-72.76-20.8-102.23c23.71-24.41,68.68-26.53,100.43-10.59c4.74,2.38,9.21,5.06,13.42,8.03
			c24.01,16.85,39.61,42.45,48.22,68.67c6.02,18.35,8.12,37.96,6.59,57.38c-0.2,2.59-0.47,5.18-0.81,7.76
			c-7.47,58.17-47.36,112.88-111.46,124.66c-55.67,10.24-108.19-12.54-159.82-37.17c-19.54-9.31-38.95-18.9-58.36-27.06
			c-59.74-25.13-126.32-37.66-192.57-36.21c-19.5,0.43-39.66,2.23-56.59,10.72c-35.05,17.59-45.6,59.63-34.88,93.77
			c10.98,34.98,38.58,62.36,73.23,82.78c27.34,16.13,59.09,27.92,90.53,35.72c71.26,17.64,147.2,21.49,215.04,47.49
			c20.49,7.86,39.84,17.8,57.75,29.47c70.68,46.01,118.91,118.8,126.36,195.91c0.48,5.01-1.92,17.74-2.81,22.71
			c-9.39,52.44-68.17,49.6-82.86,47.91c-72.3-8.36-92.09-19.9-165.32-19.84c-67.51,0.06-149.08,22.68-166.35,79.89
			c-12.9,42.75,20.7,86.8,62.54,111.48c0.53,0.32,1.06,0.62,1.6,0.93c41.51,24.05,90.74,35.76,134.62,56.4
			c13.35,6.28,26.15,13.41,38.31,21.3c59.09,38.35,103.12,94.58,121.62,157.04c22.31,75.3,7.67,144.68-41.63,215.08"/>
	</g>
</g>
</svg>
