<?xml version="1.0" encoding="utf-8"?>
<!-- Generator: Adobe Illustrator 28.0.0, SVG Export Plug-In . SVG Version: 6.00 Build 0)  -->
<svg version="1.1" id="Layer_1" xmlns="http://www.w3.org/2000/svg" xmlns:xlink="http://www.w3.org/1999/xlink" x="0px" y="0px"
	 viewBox="0 0 1519 9500" style="enable-background:new 0 0 1519 9500;" xml:space="preserve">
<style type="text/css">
	.st0{fill:#AD354C;}
	.st1{fill:none;stroke:#AD354C;stroke-linecap:round;stroke-linejoin:round;}
</style>
<g>
	<g>
		<path class="st0" d="M4164.14,3546.88c3.22,0,3.22-5,0-5C4160.92,3541.88,4160.91,3546.88,4164.14,3546.88L4164.14,3546.88z"/>
	</g>
</g>
<g>
	<g>
		<path class="st0" d="M6350.74,2710.39c3.22,0,3.22-5,0-5C6347.52,2705.39,6347.51,2710.39,6350.74,2710.39L6350.74,2710.39z"/>
	</g>
</g>
<g id="XMLID_00000064332914111526217010000011267977066549121428_">
	<g>
		<path class="st0" d="M1237.51,1283.81c47.88,15.96,63.55,57.5,50.25,92.09c-13.62,35.45-49.88,64.08-95.9,86.08
			c39.53-20.99,70.12-47.37,82.38-79.27c13.29-34.61-2.37-76.14-50.25-92.11c-23.12-7.7-50.39-8.57-76.73-8.1
			c-89.41,1.61-178.81,17.19-258.58,45.06c-21.16,7.4-42.29,15.74-63.5,24.11l-0.77-1.17c26.04-10.21,51.9-20.68,77.81-29.74
			c79.75-27.87,169.15-43.46,258.58-45.07C1187.11,1275.23,1214.38,1276.1,1237.51,1283.81z"/>
		<path class="st0" d="M1015.79,695.3c86.59,12.87,159.65,77.84,113.47,128.55c-9.52,10.46-22.35,18.72-37.31,25.36
			c9.23-5.28,17.28-11.4,23.8-18.55c46.17-50.71-26.89-115.68-113.49-128.56c-86.59-12.87-176.97,7.37-264.91,19.71
			c-87.95,12.33-190.53,14.15-252.7-26.41c-72.35-47.21-53.93-128.55-6.69-189.76c47.24-61.23,118.44-116.16,143.16-182.37
			c17.54-46.97,7.83-96.94-23.61-139.69c1.37-0.71,2.73-1.44,4.08-2.19c0.03,0,0.04-0.01,0.06-0.03c3.2-1.46,6.33-3,9.38-4.59
			c31.45,42.75,41.15,92.72,23.61,139.7c-24.72,66.21-95.91,121.14-143.15,182.37c-47.26,61.22-65.67,142.54,6.68,189.76
			c62.19,40.57,164.75,38.75,252.7,26.4S929.19,682.42,1015.79,695.3z"/>
		<path class="st0" d="M1109.21,1904.36c18.85,42.12-24.96,87.69-80.58,114.3c-0.71,0.34-1.42,0.67-2.12,1
			c50.01-27.11,86.73-69.3,69.17-108.5c-25.25-56.38-136.08-75.22-227.16-72.17c-98.8,3.3-125.09,15.74-222.35,27.43
			c-19.77,2.37-98.97,7.93-113.43-44.07c-1.37-4.91-5.03-17.53-4.57-22.54c7.77-81.08,76.04-159.48,177.3-208.43
			C611.7,1640.63,549.11,1715.59,541.7,1793c-0.48,5.02,3.18,17.64,4.55,22.57c14.48,51.98,93.67,46.42,113.43,44.05
			c97.26-11.69,123.54-24.12,222.35-27.43C973.11,1829.13,1083.95,1847.98,1109.21,1904.36z"/>
		<path class="st0" d="M966.22,877.38c43.08-5.72,90.31-12.43,125.71-28.16c-36.23,20.73-90.4,28.49-139.23,34.96
			c-131.43,17.47-261,41.79-387.04,72.65c-63.9,15.63-128.8,33.87-183.37,60.21c57.2-30.05,127.62-50.07,196.89-67.02
			C705.23,919.15,834.8,894.84,966.22,877.38z"/>
		<path class="st0" d="M1070.89,1501.89c42.17-9.24,84.61-22.5,120.97-39.9c-39.12,20.79-86.98,36.3-134.49,46.7
			c-95.55,20.93-197.87,28.26-288.5,57.39c-22.27,7.15-43.47,15.64-63.39,25.3c23.75-12.48,49.53-23.31,76.91-32.11
			C873.02,1530.15,975.34,1522.81,1070.89,1501.89z"/>
		<path class="st0" d="M1026.51,2019.67c-3.73,2.01-7.53,3.95-11.39,5.8c-55.6,26.61-122.57,40.65-181.81,63.57
			c-12.9,4.99-25.4,10.42-37.44,16.25c16.14-8.45,33.16-16.16,50.96-23.05C905.32,2059.59,971.33,2045.62,1026.51,2019.67z"/>
		<path class="st0" d="M824.41,1350.52l0.77,1.17c-73.42,28.98-147.94,58.34-228.64,50.14c-90.72-9.22-147.43-66.44-155.99-127.18
			c4.96,0.37,9.93,0.68,14.88,0.92c12.08,57.79,67.76,110.63,154.63,119.45C685.52,1402.68,755.59,1377.5,824.41,1350.52z"/>
		<path class="st0" d="M714.82-0.36c2.7,60.55-27.62,137.34-103.79,177.13c-0.15-0.2-0.29-0.4-0.44-0.59
			C679.13,134.28,715.37,59.6,714.82-0.36z"/>
		<path class="st0" d="M795.86,2105.29c-78.41,41.06-135.88,99.28-158.72,162.54c-18.1,50.12-14.21,102.91,9.52,151.15
			c-30.3-44.96-41.78-92.43-23.03-144.34C647.73,2207.8,710.54,2146.58,795.86,2105.29z"/>
		<path class="st0" d="M677.39,1136.65c39.6,28.12,21.6,77.76-24.57,103.13c-3.97,2.18-8.07,4.22-12.29,6.11
			c45.26-25.56,62.6-74.56,23.34-102.43c-32.84-23.31-93.57-23.36-135.85-5.97c-1.46,0.6-2.89,1.22-4.31,1.84
			c5.57-3.16,11.52-6.05,17.83-8.64C583.83,1113.29,644.56,1113.34,677.39,1136.65z"/>
		<path class="st0" d="M610.59,176.18c0.15,0.19,0.29,0.39,0.44,0.59c-3.05,1.59-6.18,3.13-9.38,4.59
			C604.7,179.7,607.68,177.97,610.59,176.18z"/>
		<path class="st0" d="M640.53,1245.89c-0.39,0.23-0.8,0.47-1.21,0.69c-46.17,25.38-110.23,31.21-169.64,29.54
			c-4.73-0.14-9.5-0.32-14.25-0.55c-0.54-2.56-0.99-5.14-1.36-7.72c9.71,0.72,19.46,1.19,29.14,1.46
			C537.5,1270.83,595.69,1266.1,640.53,1245.89z"/>
		<path class="st0" d="M610.59,176.18c-2.92,1.8-5.89,3.52-8.94,5.18c-0.01,0.02-0.03,0.03-0.06,0.03
			c-0.79,0.37-1.59,0.73-2.39,1.09c-0.62,0.28-1.26,0.56-1.9,0.82c-21.1-28.59-51.95-53.93-90.87-72.96
			c-18.07-8.85-38.77-16.62-61.68-17.09c-12.15-0.25-23.1,1.75-32.63,5.37c12.11-7.78,27.75-12.56,46.14-12.18
			c22.91,0.48,43.61,8.25,61.7,17.1C558.74,122.49,589.49,147.72,610.59,176.18z"/>
		<path class="st0" d="M599.2,182.48c0.81-0.36,1.6-0.72,2.39-1.09c-1.36,0.75-2.71,1.47-4.08,2.19c-0.06-0.09-0.14-0.18-0.21-0.28
			C597.94,183.04,598.58,182.76,599.2,182.48z"/>
		<path class="st0" d="M597.3,183.3c0.08,0.1,0.15,0.19,0.21,0.28c-3.86,2-7.81,3.91-11.84,5.7
			c-57.53,25.59-141.57,33.4-190.69,3.13c-40.45-24.92-27.1-76.93,17.13-93.78c-33.01,21.22-39.59,64.81-3.63,86.97
			C457.09,215.54,539.82,208.24,597.3,183.3z"/>
		<path class="st0" d="M523.71,1139.34c-31.82,17.95-51.98,44.25-62.71,70.85c-7.51,18.62-9.66,38.33-6.94,57.66
			c-4.8-0.35-9.58-0.78-14.36-1.26c-1.18-16.71,1.32-33.55,7.78-49.59C459.63,1186.81,483.97,1157.01,523.71,1139.34z"/>
		<path class="st0" d="M454.07,1267.85c0.37,2.58,0.82,5.16,1.36,7.72c-4.95-0.24-9.92-0.54-14.88-0.92
			c-0.38-2.68-0.67-5.37-0.84-8.06C444.48,1267.07,449.27,1267.49,454.07,1267.85z"/>
		<path class="st0" d="M439.71,1266.59c0.18,2.69,0.46,5.38,0.84,8.06c-51.62-3.82-102.41-14.51-137.54-38.32
			c-67.47-45.73-51.17-125.7,11.12-176.91c19.73-16.23,42.83-30.18,68.15-42.39c-20.04,10.53-38.46,22.28-54.63,35.58
			c-62.29,51.22-78.6,131.18-11.11,176.92C348.39,1251.12,393.15,1261.93,439.71,1266.59z"/>
	</g>
	<g>
		<path class="st1" d="M1091.93,849.22c-36.23,20.73-90.4,28.49-139.23,34.96c-131.43,17.47-261,41.79-387.04,72.65
			c-63.9,15.63-128.8,33.87-183.37,60.21c-25.31,12.21-48.41,26.16-68.15,42.39c-62.29,51.21-78.6,131.18-11.12,176.91
			c35.13,23.81,85.92,34.5,137.54,38.32c4.96,0.37,9.93,0.68,14.88,0.92c4.75,0.24,9.52,0.42,14.25,0.55
			c59.41,1.67,123.47-4.16,169.64-29.54c0.41-0.22,0.82-0.46,1.21-0.69c45.26-25.56,62.6-74.56,23.34-102.43
			c-32.84-23.31-93.57-23.36-135.85-5.97c-1.46,0.6-2.89,1.22-4.31,1.84c-39.74,17.67-64.08,47.47-76.22,77.66
			c-6.46,16.04-8.96,32.87-7.78,49.59c0.18,2.69,0.46,5.38,0.84,8.06c8.56,60.74,65.27,117.96,155.99,127.18
			c80.7,8.2,155.22-21.16,228.64-50.14c21.21-8.37,42.34-16.71,63.5-24.11c79.77-27.87,169.16-43.45,258.58-45.06
			c26.33-0.48,53.6,0.4,76.73,8.1c47.88,15.96,63.54,57.5,50.25,92.11c-12.26,31.9-42.85,58.27-82.38,79.27
			c-39.12,20.79-86.98,36.3-134.49,46.7c-95.55,20.93-197.87,28.26-288.5,57.39c-22.27,7.15-43.47,15.64-63.39,25.3
			c-101.26,48.96-169.53,127.36-177.3,208.43c-0.47,5.02,3.2,17.63,4.57,22.54c14.47,52,93.66,46.44,113.43,44.07
			c97.26-11.69,123.54-24.14,222.35-27.43c91.08-3.05,201.91,15.79,227.16,72.17c17.57,39.2-19.16,81.39-69.17,108.5
			c-3.73,2.01-7.53,3.95-11.39,5.8c-55.6,26.61-122.57,40.65-181.81,63.57c-12.9,4.99-25.4,10.42-37.44,16.25
			c-85.32,41.29-148.13,102.51-172.24,169.35c-18.74,51.91-7.27,99.38,23.03,144.34c14.24,21.11,32.63,41.68,53.99,61.89"/>
		<path class="st1" d="M412.12,98.62c9.53-3.62,20.47-5.62,32.63-5.37c22.91,0.47,43.61,8.24,61.68,17.09
			c38.92,19.04,69.77,44.37,90.87,72.96c0.08,0.1,0.15,0.19,0.21,0.28c31.44,42.75,41.15,92.73,23.61,139.69
			c-24.72,66.21-95.92,121.14-143.16,182.37c-47.24,61.22-65.66,142.55,6.69,189.76c62.17,40.57,164.75,38.75,252.7,26.41
			c87.94-12.34,178.32-32.58,264.91-19.71c86.6,12.88,159.65,77.85,113.49,128.56c-6.52,7.15-14.57,13.27-23.8,18.55"/>
		<path class="st1" d="M601.59,181.39c-1.36,0.75-2.71,1.47-4.08,2.19c-3.86,2-7.81,3.91-11.84,5.7
			c-57.53,25.59-141.57,33.4-190.69,3.13c-40.45-24.92-27.1-76.93,17.13-93.78"/>
		<path class="st1" d="M714.82-0.36c0.56,59.97-35.69,134.64-104.23,176.54c-2.92,1.8-5.89,3.52-8.94,5.18"/>
		<path class="st1" d="M714.82-0.36c2.7,60.55-27.62,137.34-103.79,177.13c-3.05,1.59-6.18,3.13-9.38,4.59
			c-0.01,0.02-0.03,0.03-0.06,0.03c-0.79,0.37-1.59,0.73-2.39,1.09c-0.62,0.28-1.26,0.56-1.9,0.82
			c-57.48,24.94-140.21,32.24-188.82,2.3c-35.96-22.16-29.38-65.74,3.63-86.97c0.01,0,0.01-0.01,0.01-0.01
			c12.11-7.78,27.75-12.56,46.14-12.18c22.91,0.48,43.61,8.25,61.7,17.1c38.78,18.95,69.52,44.18,90.63,72.64
			c0.15,0.19,0.29,0.39,0.44,0.59c31.45,42.75,41.15,92.72,23.61,139.7c-24.72,66.21-95.91,121.14-143.15,182.37
			c-47.26,61.22-65.67,142.54,6.68,189.76c62.19,40.57,164.75,38.75,252.7,26.4s178.32-32.58,264.92-19.7
			c86.59,12.87,159.65,77.84,113.47,128.55c-9.52,10.46-22.35,18.72-37.31,25.36c-0.01,0.01-0.01,0.01-0.03,0.01
			c-35.4,15.72-82.63,22.44-125.71,28.16c-131.41,17.46-260.99,41.77-387.04,72.64c-69.27,16.95-139.69,36.97-196.89,67.02
			c-20.04,10.53-38.46,22.28-54.63,35.58c-62.29,51.22-78.6,131.18-11.11,176.92c31.85,21.6,76.61,32.4,123.16,37.06
			c4.77,0.49,9.56,0.91,14.36,1.26c9.71,0.72,19.46,1.19,29.14,1.46c54.29,1.53,112.48-3.21,157.32-23.41
			c4.22-1.9,8.32-3.93,12.29-6.11c46.17-25.37,64.17-75.01,24.57-103.13c-32.82-23.31-93.56-23.36-135.85-5.95
			c-6.31,2.59-12.25,5.49-17.83,8.64c-31.82,17.95-51.98,44.25-62.71,70.85c-7.51,18.62-9.66,38.33-6.94,57.66
			c0.37,2.58,0.82,5.16,1.36,7.72c12.08,57.79,67.76,110.63,154.63,119.45c75.46,7.66,145.53-17.51,214.35-44.5
			c26.04-10.21,51.9-20.68,77.81-29.74c79.75-27.87,169.15-43.46,258.58-45.07c26.32-0.48,53.59,0.4,76.71,8.11
			c47.88,15.96,63.55,57.5,50.25,92.09c-13.62,35.45-49.88,64.08-95.9,86.08c-36.35,17.4-78.8,30.66-120.97,39.9
			c-95.55,20.92-197.87,28.26-288.5,57.38c-27.38,8.8-53.16,19.63-76.91,32.11C611.7,1640.63,549.11,1715.59,541.7,1793
			c-0.48,5.02,3.18,17.64,4.55,22.57c14.48,51.98,93.67,46.42,113.43,44.05c97.26-11.69,123.54-24.12,222.35-27.43
			c91.08-3.05,201.91,15.79,227.17,72.18c18.85,42.12-24.96,87.69-80.58,114.3c-0.71,0.34-1.42,0.67-2.12,1
			c-55.18,25.95-121.18,39.92-179.69,62.57c-17.8,6.89-34.82,14.61-50.96,23.05c-78.41,41.06-135.88,99.28-158.72,162.54
			c-18.1,50.12-14.21,102.91,9.52,151.15c7.6,15.44,17.22,30.41,28.81,44.68"/>
	</g>
</g>
<g id="XMLID_00000060708948118504223850000017962093420134705329_">
	<g>
		<path class="st0" d="M182.86,3647.11c-46.68,19.19-59.48,61.7-43.84,95.31c16.01,34.44,54.14,60.52,101.55,79.33
			c-40.87-18.25-73.19-42.47-87.6-73.46c-15.62-33.62-2.83-76.13,43.84-95.32c22.54-9.26,49.69-11.99,75.99-13.32
			c89.32-4.49,179.57,4.95,261.05,27.31c21.62,5.94,43.26,12.81,65,19.72l0.69-1.22c-26.68-8.41-53.19-17.09-79.65-24.36
			c-81.47-22.36-171.72-31.81-261.05-27.32C232.55,3635.1,205.41,3637.83,182.86,3647.11z"/>
		<path class="st0" d="M363.89,3044.83c-85.51,18.75-153.97,88.55-104.44,135.99c10.21,9.79,23.58,17.15,38.96,22.75
			c-9.57-4.63-18.01-10.19-25.01-16.88c-49.52-47.44,18.93-117.25,104.45-136.01c85.51-18.75,177.06-4.72,265.63,1.59
			c88.59,6.3,191.05,1.12,250.31-43.6c68.96-52.04,45.04-131.93-6.27-189.78c-51.31-57.86-126.09-107.81-155.28-172.17
			c-20.7-45.66-14.42-96.18,14.02-140.98c-1.42-0.62-2.82-1.25-4.22-1.9c-0.03,0-0.04-0.01-0.07-0.03
			c-3.29-1.23-6.53-2.54-9.68-3.91c-28.43,44.78-34.7,95.3-14,140.96c29.19,64.37,103.95,114.31,155.26,172.17
			c51.32,57.85,75.25,137.73,6.29,189.78c-59.27,44.72-161.72,49.9-250.31,43.59C540.95,3040.1,449.41,3026.08,363.89,3044.83z"/>
		<path class="st0" d="M353.22,4257.45c-15.94,43.31,30.89,85.79,88.19,108.54c0.73,0.29,1.46,0.57,2.19,0.86
			c-51.74-23.64-91.26-63.22-76.41-103.53c21.34-57.97,130.63-84.33,221.7-87.5c98.8-3.45,125.87,7.17,223.7,12.19
			c19.89,1.02,99.28,1.16,110.16-51.71c1.03-4.99,3.83-17.83,3.02-22.8c-13.29-80.36-86.75-153.92-191.12-195.85
			c96.92,42.73,164.48,113.25,177.15,189.97c0.82,4.97-1.97,17.82-3,22.82c-10.9,52.85-90.29,52.71-110.16,51.69
			c-97.83-5.02-124.9-15.64-223.7-12.19C483.86,4173.11,374.57,4199.47,353.22,4257.45z"/>
		<path class="st0" d="M425.78,3223.1c-43.37-2.76-90.95-6.24-127.34-19.51c37.56,18.21,92.13,22.25,141.29,25.37
			c132.31,8.46,263.24,23.87,391.1,46.06c64.81,11.23,130.81,25,187.06,47.55c-59.11-26.08-130.74-41.24-201.01-53.42
			C689.01,3246.97,558.08,3231.55,425.78,3223.1z"/>
		<path class="st0" d="M363.98,3853.3c-42.7-6.34-85.95-16.68-123.41-31.55c40.45,18.07,89.25,30.28,137.36,37.42
			c96.75,14.36,199.34,14.69,291.75,37.56c22.71,5.61,44.44,12.64,64.97,20.92c-24.55-10.83-51-19.88-78.92-26.79
			C563.32,3867.99,460.73,3867.65,363.98,3853.3z"/>
		<path class="st0" d="M443.6,4366.84c3.86,1.75,7.78,3.42,11.76,5.01c57.29,22.75,125.06,32.19,185.73,51.02
			c13.21,4.1,26.05,8.66,38.46,13.66c-16.68-7.32-34.19-13.86-52.41-19.52C567.22,4398.4,500.42,4388.96,443.6,4366.84z"/>
		<path class="st0" d="M599.55,3685.46l-0.69,1.22c75.22,23.9,151.58,48.11,231.53,34.42c89.88-15.39,142.55-76.35,146.95-137.53
			c-4.92,0.71-9.86,1.35-14.78,1.93c-8.11,58.48-60.05,115-146.12,129.73C741.68,3728.02,670.06,3707.68,599.55,3685.46z"/>
		<path class="st0" d="M616.58,2339.2c1.04,43.76,19.88,90.54,59.89,125.87c15.4,13.59,33.95,25.48,55.82,34.84
			c0.15-0.22,0.29-0.44,0.42-0.65c-67.75-35.3-108.4-102.17-115.23-160.14L616.58,2339.2z"/>
		<path class="st0" d="M679.55,4436.53c81.03,35.61,142.34,89.77,169.45,151.33c21.4,48.61,21.26,101.34,1.09,150.96
			c26.94-46.77,35.02-94.75,12.86-145.08C834.33,4528.69,767.49,4471.89,679.55,4436.53z"/>
		<path class="st0" d="M731.63,3462.06c-37.58,30.76-16.24,79.05,31.55,101.21c4.11,1.91,8.34,3.66,12.68,5.26
			c-46.89-22.41-67.54-70.11-30.28-100.6c31.17-25.49,91.76-29.69,135.13-15.22c1.5,0.5,2.97,1.01,4.42,1.55
			c-5.78-2.77-11.9-5.25-18.38-7.41C823.38,3432.37,762.79,3436.56,731.63,3462.06z"/>
		<path class="st0" d="M732.72,2499.26c-0.14,0.21-0.27,0.43-0.42,0.65c3.15,1.37,6.39,2.67,9.68,3.91
			C738.84,2502.37,735.75,2500.86,732.72,2499.26z"/>
		<path class="st0" d="M775.86,3568.53c0.41,0.2,0.83,0.41,1.26,0.6c47.79,22.17,112.1,23.61,171.26,17.89
			c4.71-0.46,9.45-0.97,14.18-1.52c0.37-2.59,0.64-5.2,0.83-7.79c-9.64,1.38-19.33,2.52-28.97,3.44
			C880.36,3586.38,821.98,3585.63,775.86,3568.53z"/>
		<path class="st0" d="M732.72,2499.26c3.03,1.59,6.12,3.11,9.26,4.56c0.03,0.02,0.04,0.03,0.07,0.03c0.82,0.31,1.63,0.62,2.46,0.92
			c0.64,0.24,1.3,0.47,1.95,0.69c19.1-29.96,48.15-57.35,85.68-78.99c17.43-10.06,37.55-19.22,60.37-21.26
			c12.11-1.08,23.17,0.17,32.92,3.13c-12.61-6.94-28.54-10.64-46.87-9c-22.83,2.05-42.95,11.21-60.39,21.27
			C780.79,2442.16,751.83,2469.43,732.72,2499.26z"/>
		<path class="st0" d="M744.51,2504.77c-0.83-0.3-1.65-0.61-2.46-0.92c1.4,0.65,2.81,1.28,4.22,1.9c0.05-0.09,0.12-0.19,0.19-0.29
			C745.81,2505.24,745.15,2505.01,744.51,2504.77z"/>
		<path class="st0" d="M746.46,2505.46c-0.07,0.1-0.14,0.2-0.19,0.29c3.99,1.74,8.05,3.37,12.21,4.88
			c59.14,21.6,143.52,23.66,190.46-9.89c38.66-27.62,21.79-78.6-23.49-92.39c34.38,18.92,43.92,61.96,9.55,86.52
			C888.55,2528.05,805.51,2526.42,746.46,2505.46z"/>
		<path class="st0" d="M885.13,3454.25c32.97,15.74,54.88,40.6,67.4,66.4c8.76,18.06,12.25,37.58,10.86,57.05
			c4.76-0.68,9.51-1.43,14.24-2.24c0.04-16.76-3.61-33.38-11.15-48.94C952.31,3497.24,925.98,3469.16,885.13,3454.25z"/>
		<path class="st0" d="M963.39,3577.71c-0.2,2.59-0.46,5.2-0.83,7.79c4.92-0.58,9.86-1.22,14.78-1.93c0.19-2.7,0.3-5.41,0.29-8.1
			C972.9,3576.28,968.15,3577.02,963.39,3577.71z"/>
		<path class="st0" d="M977.63,3575.47c0.01,2.7-0.1,5.4-0.29,8.1c51.23-7.33,101.18-21.46,134.6-47.62
			c64.2-50.23,42.47-128.9-23.17-175.74c-20.79-14.85-44.79-27.19-70.88-37.64c20.71,9.14,39.9,19.61,56.93,31.77
			c65.64,46.85,87.37,125.51,23.16,175.75C1067.67,3553.81,1023.75,3567.64,977.63,3575.47z"/>
	</g>
	<g>
		<path class="st1" d="M850.09,4738.82c-7.29,12.63-15.96,25.18-25.77,37.67"/>
		<path class="st1" d="M298.44,3203.59c37.56,18.21,92.13,22.25,141.29,25.37c132.31,8.46,263.24,23.87,391.1,46.06
			c64.81,11.23,130.81,25,187.06,47.55c26.09,10.45,50.09,22.79,70.88,37.64c65.64,46.83,87.37,125.51,23.17,175.74
			c-33.42,26.15-83.36,40.28-134.6,47.62c-4.92,0.71-9.86,1.35-14.78,1.93c-4.72,0.56-9.46,1.06-14.18,1.52
			c-59.16,5.72-123.47,4.28-171.26-17.89c-0.42-0.19-0.85-0.4-1.26-0.6c-46.89-22.41-67.54-70.11-30.28-100.6
			c31.17-25.49,91.76-29.69,135.13-15.22c1.5,0.5,2.97,1.01,4.42,1.55c40.85,14.91,67.17,42.99,81.35,72.27
			c7.54,15.56,11.19,32.19,11.15,48.94c0.01,2.7-0.1,5.4-0.29,8.1c-4.39,61.18-57.07,122.14-146.95,137.53
			c-79.95,13.68-156.31-10.52-231.53-34.42c-21.74-6.91-43.38-13.78-65-19.72c-81.48-22.36-171.74-31.8-261.05-27.31
			c-26.3,1.32-53.45,4.06-75.99,13.32c-46.68,19.19-59.46,61.7-43.84,95.32c14.41,30.99,46.73,55.21,87.6,73.46
			c40.45,18.07,89.25,30.28,137.36,37.42c96.75,14.36,199.34,14.69,291.75,37.56c22.71,5.61,44.44,12.64,64.97,20.92
			c104.37,41.93,177.83,115.49,191.12,195.85c0.81,4.97-1.99,17.81-3.02,22.8c-10.88,52.87-90.27,52.73-110.16,51.71
			c-97.83-5.02-124.9-15.65-223.7-12.19c-91.07,3.17-200.36,29.54-221.7,87.5c-14.85,40.31,24.67,79.9,76.41,103.53
			c3.86,1.75,7.78,3.42,11.76,5.01c57.29,22.75,125.06,32.19,185.73,51.02c13.21,4.1,26.05,8.66,38.46,13.66
			c87.94,35.37,154.78,92.16,183.4,157.2c22.16,50.33,14.08,98.31-12.86,145.08"/>
		<path class="st1" d="M925.43,2408.34c-9.75-2.96-20.81-4.21-32.92-3.13c-22.83,2.03-42.95,11.2-60.37,21.26
			c-37.53,21.65-66.58,49.03-85.68,78.99c-0.07,0.1-0.14,0.2-0.19,0.29c-28.45,44.8-34.73,95.32-14.02,140.98
			c29.19,64.37,103.97,114.31,155.28,172.17c51.31,57.85,75.24,137.74,6.27,189.78c-59.26,44.72-161.72,49.9-250.31,43.6
			c-88.58-6.31-180.13-20.33-265.63-1.59c-85.52,18.76-153.97,88.57-104.45,136.01c6.99,6.69,15.44,12.25,25.01,16.88"/>
		<path class="st1" d="M742.05,2503.85c1.4,0.65,2.81,1.28,4.22,1.9c3.99,1.74,8.05,3.37,12.21,4.88
			c59.14,21.6,143.52,23.66,190.46-9.89c38.66-27.62,21.79-78.6-23.49-92.39"/>
		<path class="st1" d="M616.68,2330.25c0.18,2.93,0.44,5.88,0.8,8.88c6.84,57.96,47.48,124.83,115.23,160.14
			c3.03,1.59,6.12,3.11,9.26,4.56"/>
		<path class="st1" d="M616.58,2339.2c1.04,43.76,19.88,90.54,59.89,125.87c15.4,13.59,33.95,25.48,55.82,34.84
			c3.15,1.37,6.39,2.67,9.68,3.91c0.03,0.02,0.04,0.03,0.07,0.03c0.82,0.31,1.63,0.62,2.46,0.92c0.64,0.24,1.3,0.47,1.95,0.69
			c59.05,20.96,142.08,22.59,188.54-10.59c34.37-24.56,24.82-67.6-9.55-86.52c-0.01-0.01-0.01-0.01-0.01-0.01
			c-12.61-6.94-28.54-10.64-46.87-9c-22.83,2.05-42.95,11.21-60.39,21.27c-37.39,21.55-66.34,48.82-85.46,78.66
			c-0.14,0.21-0.27,0.43-0.42,0.65c-28.43,44.78-34.7,95.3-14,140.96c29.19,64.37,103.95,114.31,155.26,172.17
			c51.32,57.85,75.25,137.73,6.29,189.78c-59.27,44.72-161.72,49.9-250.31,43.59c-88.59-6.31-180.13-20.33-265.65-1.58
			c-85.51,18.75-153.97,88.55-104.44,135.99c10.21,9.79,23.58,17.15,38.96,22.75c0,0,0.01,0.01,0.03,0.01
			c36.39,13.27,83.97,16.74,127.34,19.51c132.3,8.45,263.23,23.86,391.1,46.05c70.27,12.18,141.89,27.35,201.01,53.42
			c20.71,9.14,39.9,19.61,56.93,31.77c65.64,46.85,87.37,125.51,23.16,175.75c-30.3,23.72-74.22,37.55-120.35,45.38
			c-4.73,0.81-9.48,1.56-14.24,2.24c-9.64,1.38-19.33,2.52-28.97,3.44c-54.05,5.23-112.43,4.48-158.55-12.62
			c-4.34-1.6-8.57-3.35-12.68-5.26c-47.79-22.16-69.14-70.45-31.55-101.21c31.16-25.49,91.75-29.69,135.13-15.21
			c6.47,2.15,12.6,4.64,18.38,7.41c32.97,15.74,54.88,40.6,67.4,66.4c8.76,18.06,12.25,37.58,10.86,57.05
			c-0.2,2.59-0.46,5.2-0.83,7.79c-8.11,58.48-60.05,115-146.12,129.73c-74.76,12.79-146.38-7.54-216.89-29.77
			c-26.68-8.41-53.19-17.09-79.65-24.36c-81.47-22.36-171.72-31.81-261.05-27.32c-26.29,1.32-53.44,4.06-75.98,13.33
			c-46.68,19.19-59.48,61.7-43.84,95.31c16.01,34.44,54.14,60.52,101.55,79.33c37.46,14.88,80.71,25.21,123.41,31.55
			c96.75,14.35,199.34,14.69,291.75,37.55c27.92,6.91,54.37,15.96,78.92,26.79c96.92,42.73,164.48,113.25,177.15,189.97
			c0.82,4.97-1.97,17.82-3,22.82c-10.9,52.85-90.29,52.71-110.16,51.69c-97.83-5.02-124.9-15.64-223.7-12.19
			c-91.07,3.17-200.36,29.54-221.72,87.52c-15.94,43.31,30.89,85.79,88.19,108.54c0.73,0.29,1.46,0.57,2.19,0.86
			c56.82,22.12,123.63,31.56,183.54,50.16c18.23,5.66,35.74,12.2,52.41,19.52c81.03,35.61,142.34,89.77,169.45,151.33
			c21.4,48.61,21.26,101.34,1.09,150.96c0,0.01,0,0.01,0,0.01c-5.08,12.51-11.44,24.83-19.05,36.83"/>
	</g>
</g>
<g id="XMLID_00000047767654216084375890000014279016017608175286_">
	<g>
		<path class="st0" d="M1389.66,5938.76c47.89,15.96,63.55,57.5,50.26,92.1c-13.62,35.46-49.92,64.1-95.97,86.1
			c39.57-20.99,70.19-47.38,82.45-79.29c13.28-34.61-2.37-76.14-50.26-92.1c-23.12-7.71-50.39-8.58-76.73-8.11
			c-89.41,1.61-178.81,17.19-258.56,45.06c-18.56,6.49-37.11,13.71-55.7,21.03l-0.77-1.17c23.4-9.23,46.68-18.51,70-26.66
			c79.74-27.87,169.14-43.45,258.56-45.06C1339.27,5930.19,1366.54,5931.05,1389.66,5938.76z"/>
		<path class="st0" d="M1167.96,5350.26c86.57,12.87,159.64,77.84,113.47,128.55c-9.56,10.49-22.44,18.75-37.43,25.41
			c9.27-5.29,17.38-11.43,23.91-18.61c46.15-50.7-26.9-115.67-113.49-128.55c-86.59-12.88-176.97,7.37-264.92,19.7
			c-87.95,12.34-190.53,14.17-252.69-26.42c-72.35-47.2-53.93-128.54-6.69-189.76c47.24-61.22,118.42-116.15,143.15-182.37
			c17.54-46.98,7.84-96.94-23.6-139.68c1.37-0.71,2.74-1.44,4.1-2.19c3.23-1.48,6.38-3,9.45-4.57
			c31.41,42.73,41.11,92.69,23.57,139.64c-24.72,66.21-95.91,121.14-143.13,182.37c-47.26,61.22-65.67,142.55,6.68,189.77
			c62.17,40.57,164.73,38.75,252.69,26.39C991,5357.62,1081.36,5337.39,1167.96,5350.26z"/>
		<path class="st0" d="M1261.36,6559.31c18.87,42.13-24.96,87.71-80.56,114.3c-0.65,0.31-1.3,0.62-1.95,0.91
			c49.91-27.1,86.54-69.24,68.99-108.4c-25.25-56.39-136.07-75.23-227.14-72.18c-98.8,3.3-125.1,15.76-222.36,27.44
			c-19.77,2.37-98.97,7.92-113.42-44.07c-1.37-4.91-5.05-17.53-4.58-22.55c7.79-81.08,76.07-159.48,177.33-208.45
			c-93.79,49.25-156.38,124.22-163.8,201.63c-0.48,5.03,3.2,17.64,4.57,22.56c14.47,51.98,93.66,46.43,113.42,44.06
			c97.26-11.69,123.56-24.14,222.36-27.44C1125.28,6484.08,1236.1,6502.93,1261.36,6559.31z"/>
		<path class="st0" d="M1118.38,5532.33c43.04-5.72,90.22-12.42,125.63-28.11c-36.25,20.7-90.35,28.44-139.14,34.92
			c-131.43,17.47-261,41.78-387.05,72.64c-63.95,15.65-128.9,33.92-183.5,60.29c57.21-30.08,127.7-50.13,197.02-67.1
			C857.4,5574.11,986.97,5549.8,1118.38,5532.33z"/>
		<path class="st0" d="M1223.04,6156.84c42.14-9.24,84.57-22.49,120.91-39.87c-39.1,20.77-86.95,36.28-134.43,46.67
			c-95.53,20.93-197.85,28.26-288.49,57.39c-22.26,7.15-43.46,15.65-63.38,25.29c23.75-12.47,49.51-23.29,76.88-32.09
			C1025.19,6185.11,1127.51,6177.77,1223.04,6156.84z"/>
		<path class="st0" d="M1178.84,6674.53c-3.78,2.06-7.64,4.03-11.56,5.9c-55.6,26.6-122.58,40.64-181.81,63.57
			c-12.9,4.99-25.39,10.42-37.43,16.25c16.14-8.45,33.16-16.16,50.94-23.05C1057.53,6714.52,1123.64,6700.54,1178.84,6674.53z"/>
		<path class="st0" d="M984.39,6002.39l0.77,1.17c-75.96,29.93-152.89,61.72-236.45,53.22c-90.73-9.21-147.45-66.43-155.99-127.17
			c4.96,0.36,9.93,0.67,14.88,0.91c12.07,57.79,67.75,110.64,154.63,119.45C840.55,6057.92,913.05,6030.5,984.39,6002.39z"/>
		<path class="st0" d="M867.7,4663.52c2.7,60.53-28.25,129.24-104.47,168.26c-0.15-0.21-0.32-0.43-0.47-0.63
			c65.18-39.86,101.15-109.33,104.03-167.63L867.7,4663.52z"/>
		<path class="st0" d="M948.04,6760.25c-78.42,41.04-135.9,99.27-158.74,162.54c-18.04,49.99-14.27,102.62,9.26,150.77
			c-30.11-44.84-41.47-92.19-22.78-143.95C799.9,6862.74,862.71,6801.53,948.04,6760.25z"/>
		<path class="st0" d="M829.56,5791.61c39.6,28.12,21.58,77.75-24.57,103.12c-3.95,2.17-8.05,4.21-12.26,6.1
			c45.23-25.58,62.54-74.55,23.31-102.41c-32.84-23.32-93.57-23.36-135.85-5.98c-1.46,0.6-2.89,1.22-4.31,1.84
			c5.57-3.16,11.52-6.04,17.83-8.64C736,5768.25,796.73,5768.29,829.56,5791.61z"/>
		<path class="st0" d="M762.76,4831.15c0.15,0.2,0.32,0.42,0.47,0.63c-3.07,1.57-6.22,3.09-9.45,4.57
			C756.84,4834.68,759.83,4832.95,762.76,4831.15z"/>
		<path class="st0" d="M792.73,5900.83c-0.41,0.24-0.83,0.48-1.26,0.71c-46.15,25.37-110.22,31.2-169.62,29.53
			c-4.73-0.14-9.5-0.32-14.25-0.55c-0.54-2.56-1-5.14-1.36-7.72c9.73,0.72,19.47,1.19,29.14,1.47
			C689.68,5925.79,747.88,5921.06,792.73,5900.83z"/>
		<path class="st0" d="M762.76,4831.15c-2.93,1.8-5.92,3.53-8.98,5.2c-0.79,0.37-1.6,0.73-2.41,1.09c-0.62,0.28-1.26,0.56-1.9,0.82
			c-21.11-28.59-51.95-53.94-90.88-72.96c-18.07-8.85-38.76-16.63-61.67-17.1c-12.14-0.25-23.07,1.74-32.58,5.36
			c12.09-7.77,27.72-12.54,46.09-12.16c22.91,0.47,43.61,8.25,61.7,17.09C710.91,4777.45,741.67,4802.68,762.76,4831.15z"/>
		<path class="st0" d="M751.37,4837.44c0.81-0.36,1.61-0.72,2.41-1.09c-1.36,0.75-2.73,1.47-4.1,2.19c-0.08-0.1-0.14-0.19-0.21-0.28
			C750.11,4838,750.75,4837.72,751.37,4837.44z"/>
		<path class="st0" d="M749.47,4838.26c0.07,0.09,0.14,0.18,0.21,0.28c-3.86,2-7.81,3.91-11.84,5.7
			c-57.53,25.59-141.57,33.39-190.71,3.12c-40.45-24.92-27.08-76.97,17.2-93.8c-33.05,21.2-39.66,64.83-3.68,87
			C609.26,4870.5,691.99,4863.19,749.47,4838.26z"/>
		<path class="st0" d="M675.88,5794.29c-31.82,17.95-51.98,44.25-62.71,70.86c-7.49,18.62-9.66,38.31-6.94,57.65
			c-4.8-0.35-9.58-0.78-14.36-1.26c-1.17-16.71,1.32-33.55,7.78-49.58C611.8,5841.76,636.13,5811.97,675.88,5794.29z"/>
		<path class="st0" d="M606.24,5922.8c0.36,2.58,0.82,5.16,1.36,7.72c-4.95-0.24-9.92-0.54-14.88-0.91
			c-0.38-2.68-0.67-5.38-0.84-8.07C596.65,5922.02,601.44,5922.44,606.24,5922.8z"/>
		<path class="st0" d="M591.88,5921.54c0.18,2.69,0.47,5.39,0.84,8.07c-51.62-3.82-102.42-14.51-137.55-38.32
			c-67.46-45.73-51.17-125.7,11.14-176.92c19.7-16.2,42.75-30.12,68-42.31c-19.99,10.5-38.35,22.24-54.49,35.5
			c-62.31,51.23-78.6,131.19-11.12,176.93C500.56,5906.07,545.31,5916.88,591.88,5921.54z"/>
	</g>
	<g>
		<path class="st1" d="M798.6,7073.62c10.07,14.97,22.21,29.66,36.03,44.14"/>
		<path class="st1" d="M866.97,4654.6c0.03,2.94-0.03,5.91-0.18,8.92c-2.88,58.29-38.85,127.77-104.03,167.63
			c-2.93,1.8-5.92,3.53-8.98,5.2c-1.36,0.75-2.73,1.47-4.1,2.19c-3.86,2-7.81,3.91-11.84,5.7c-57.53,25.59-141.57,33.39-190.71,3.12
			c-40.45-24.92-27.08-76.97,17.2-93.8c9.51-3.62,20.44-5.61,32.58-5.36c22.91,0.47,43.6,8.25,61.67,17.1
			c38.94,19.02,69.77,44.37,90.88,72.96c0.07,0.09,0.14,0.18,0.21,0.28c31.44,42.74,41.14,92.71,23.6,139.68
			c-24.72,66.22-95.91,121.15-143.15,182.37c-47.24,61.23-65.66,142.56,6.69,189.76c62.16,40.58,164.73,38.76,252.69,26.42
			c87.95-12.33,178.33-32.58,264.92-19.7c86.59,12.88,159.64,77.85,113.49,128.55c-6.53,7.18-14.64,13.32-23.91,18.61
			c-36.25,20.7-90.35,28.44-139.14,34.92c-131.43,17.47-261,41.78-387.05,72.64c-63.95,15.65-128.9,33.92-183.5,60.29
			c-25.26,12.18-48.3,26.11-68,42.31c-62.31,51.22-78.6,131.19-11.14,176.92c35.13,23.81,85.93,34.5,137.55,38.32
			c4.96,0.36,9.93,0.67,14.88,0.91c4.75,0.24,9.52,0.42,14.25,0.55c59.41,1.67,123.47-4.16,169.62-29.53
			c0.42-0.23,0.85-0.47,1.26-0.71c45.23-25.58,62.54-74.55,23.31-102.41c-32.84-23.32-93.57-23.36-135.85-5.98
			c-1.46,0.6-2.89,1.22-4.31,1.84c-39.75,17.68-64.08,47.47-76.22,77.67c-6.46,16.03-8.95,32.86-7.78,49.58
			c0.18,2.69,0.47,5.39,0.84,8.07c8.54,60.74,65.26,117.96,155.99,127.17c83.55,8.5,160.49-23.29,236.45-53.22
			c18.59-7.32,37.14-14.54,55.7-21.03c79.75-27.87,169.15-43.45,258.56-45.06c26.33-0.47,53.6,0.4,76.73,8.11
			c47.89,15.96,63.54,57.5,50.26,92.1c-12.26,31.91-42.88,58.3-82.45,79.29c-39.1,20.77-86.95,36.28-134.43,46.67
			c-95.53,20.93-197.85,28.26-288.49,57.39c-22.26,7.15-43.46,15.65-63.38,25.29c-101.26,48.97-169.54,127.37-177.33,208.45
			c-0.47,5.03,3.21,17.64,4.58,22.55c14.45,51.99,93.65,46.44,113.42,44.07c97.26-11.69,123.56-24.15,222.36-27.44
			c91.08-3.05,201.9,15.79,227.14,72.18c17.55,39.16-19.08,81.3-68.99,108.4c-3.78,2.06-7.64,4.03-11.56,5.9
			c-55.6,26.6-122.58,40.64-181.81,63.57c-12.9,4.99-25.39,10.42-37.43,16.25c-85.33,41.28-148.14,102.49-172.25,169.35
			c-18.69,51.76-7.34,99.11,22.78,143.95"/>
		<path class="st1" d="M867.7,4663.52c2.7,60.53-28.25,129.24-104.47,168.26c-3.07,1.57-6.22,3.09-9.45,4.57
			c-0.79,0.37-1.6,0.73-2.41,1.09c-0.62,0.28-1.26,0.56-1.9,0.82c-57.48,24.93-140.21,32.24-188.82,2.3
			c-35.98-22.17-29.37-65.8,3.68-87c12.09-7.77,27.72-12.54,46.09-12.16c22.91,0.47,43.61,8.25,61.7,17.09
			c38.79,18.96,69.55,44.19,90.64,72.66c0.15,0.2,0.32,0.42,0.47,0.63c31.41,42.73,41.11,92.69,23.57,139.64
			c-24.72,66.21-95.91,121.14-143.13,182.37c-47.26,61.22-65.67,142.55,6.68,189.77c62.17,40.57,164.73,38.75,252.69,26.39
			c87.97-12.33,178.33-32.57,264.94-19.69c86.57,12.87,159.64,77.84,113.47,128.55c-9.56,10.49-22.44,18.75-37.43,25.41
			c-35.4,15.69-82.59,22.39-125.63,28.11c-131.41,17.47-260.99,41.79-387.05,72.64c-69.32,16.97-139.81,37.02-197.02,67.1
			c-19.99,10.5-38.35,22.24-54.49,35.5c-62.31,51.23-78.6,131.19-11.12,176.93c31.86,21.59,76.61,32.39,123.18,37.05
			c4.77,0.49,9.56,0.91,14.36,1.26c9.73,0.72,19.47,1.19,29.14,1.47c54.3,1.53,112.5-3.21,157.35-23.44
			c4.21-1.9,8.31-3.93,12.26-6.1c46.15-25.37,64.17-74.99,24.57-103.12c-32.82-23.32-93.56-23.36-135.85-5.97
			c-6.31,2.6-12.25,5.49-17.83,8.64c-31.82,17.95-51.98,44.25-62.71,70.86c-7.49,18.62-9.66,38.31-6.94,57.65
			c0.36,2.58,0.82,5.16,1.36,7.72c12.07,57.79,67.75,110.64,154.63,119.45c78.32,7.96,150.82-19.47,222.16-47.58
			c23.4-9.23,46.68-18.51,70-26.66c79.74-27.87,169.14-43.45,258.56-45.06c26.32-0.48,53.59,0.39,76.71,8.1
			c47.89,15.96,63.55,57.5,50.26,92.1c-13.62,35.46-49.92,64.1-95.97,86.1c-36.34,17.38-78.77,30.63-120.91,39.87
			c-95.53,20.93-197.85,28.27-288.5,57.39c-27.37,8.8-53.13,19.62-76.88,32.09c-93.79,49.25-156.38,124.22-163.8,201.63
			c-0.48,5.03,3.2,17.64,4.57,22.56c14.47,51.98,93.66,46.43,113.42,44.06c97.26-11.69,123.56-24.14,222.36-27.44
			c91.08-3.05,201.9,15.79,227.16,72.18c18.87,42.13-24.96,87.71-80.56,114.3c-0.65,0.31-1.3,0.62-1.95,0.91
			c-55.2,26.01-121.31,39.99-179.86,62.67c-17.78,6.89-34.81,14.61-50.94,23.05c-78.42,41.04-135.9,99.27-158.74,162.54
			c-18.04,49.99-14.27,102.62,9.26,150.77c0.02,0.02,0.03,0.03,0.03,0.05c3.42,7,7.26,13.9,11.51,20.69"/>
	</g>
</g>
<g id="XMLID_00000109022921978664917650000005950021372917504916_">
	<g>
		<path class="st0" d="M333.95,8294.49c-46.69,19.19-59.48,61.7-43.86,95.32c16.01,34.45,54.18,60.54,101.62,79.35
			c-40.91-18.25-73.26-42.48-87.67-73.48c-15.61-33.62-2.83-76.13,43.86-95.32c22.54-9.27,49.69-12.01,75.99-13.33
			c89.32-4.49,179.57,4.95,261.04,27.31c21.62,5.94,43.26,12.81,65,19.71l0.69-1.22c-26.68-8.41-53.19-17.09-79.65-24.35
			c-81.45-22.36-171.71-31.81-261.04-27.32C383.64,8282.5,356.49,8285.22,333.95,8294.49z"/>
		<path class="st0" d="M514.96,7692.22c-85.49,18.76-153.95,88.56-104.44,135.99c10.24,9.8,23.62,17.16,39,22.76
			c-9.58-4.63-18.06-10.19-25.05-16.89c-49.52-47.43,18.94-117.24,104.45-136.01c85.51-18.75,177.06-4.72,265.63,1.59
			c88.6,6.3,191.06,1.12,250.31-43.6c68.96-52.04,45.04-131.92-6.27-189.78c-51.31-57.85-126.07-107.8-155.26-172.17
			c-20.7-45.67-14.44-96.18,14.02-140.98c-1.43-0.61-2.85-1.25-4.25-1.9c-3.32-1.25-6.57-2.56-9.74-3.91
			c-28.43,44.78-34.69,95.27-13.98,140.93c29.19,64.37,103.94,114.31,155.25,172.17c51.32,57.85,75.25,137.74,6.29,189.78
			c-59.26,44.72-161.7,49.91-250.31,43.59C692.02,7687.5,600.48,7673.46,514.96,7692.22z"/>
		<path class="st0" d="M504.3,8904.84c-15.95,43.32,30.89,85.8,88.18,108.54c0.73,0.29,1.46,0.57,2.19,0.86
			c-51.73-23.64-91.26-63.22-76.41-103.52c21.36-57.98,130.63-84.34,221.7-87.51c98.8-3.45,125.87,7.17,223.72,12.19
			c19.89,1.02,99.28,1.16,110.15-51.7c1.03-4.99,3.84-17.84,3.03-22.81c-13.3-80.36-86.76-153.9-191.13-195.85
			c96.92,42.73,164.48,113.25,177.17,189.97c0.82,4.98-1.99,17.82-3.02,22.82c-10.88,52.85-90.27,52.72-110.15,51.7
			c-97.83-5.02-124.92-15.65-223.72-12.2C634.93,8820.5,525.66,8846.86,504.3,8904.84z"/>
		<path class="st0" d="M576.85,7870.49c-43.34-2.77-90.89-6.23-127.28-19.49c37.56,18.19,92.1,22.23,141.23,25.36
			c132.31,8.45,263.24,23.86,391.11,46.05c64.87,11.25,130.91,25.04,187.19,47.62c-59.13-26.11-130.83-41.3-201.14-53.49
			C840.08,7894.35,709.15,7878.95,576.85,7870.49z"/>
		<path class="st0" d="M515.06,8500.69c-42.68-6.34-85.91-16.67-123.35-31.52c40.43,18.05,89.22,30.26,137.3,37.39
			c96.74,14.36,199.32,14.69,291.73,37.56c22.71,5.62,44.44,12.65,64.97,20.92c-24.55-10.83-51-19.88-78.92-26.79
			C714.39,8515.38,611.8,8515.04,515.06,8500.69z"/>
		<path class="st0" d="M594.67,9014.23c3.86,1.76,7.78,3.44,11.76,5.02c57.29,22.74,125.07,32.18,185.73,51.01
			c13.21,4.1,26.05,8.66,38.46,13.66c-16.68-7.32-34.19-13.86-52.41-19.52C718.31,9045.79,651.48,9036.35,594.67,9014.23z"/>
		<path class="st0" d="M750.62,8332.83l-0.69,1.22c75.23,23.91,151.58,48.12,231.53,34.43c89.89-15.39,142.55-76.35,146.95-137.52
			c-4.92,0.7-9.86,1.34-14.78,1.92c-8.1,58.48-60.04,115-146.12,129.73C892.75,8375.41,821.13,8355.07,750.62,8332.83z"/>
		<path class="st0" d="M767.65,6986.6c1.44,60.57,37.01,127,115.71,160.72c0.14-0.22,0.27-0.44,0.42-0.66
			c-67.75-35.3-108.38-102.19-115.22-160.14L767.65,6986.6z"/>
		<path class="st0" d="M830.62,9083.91c81.03,35.61,142.34,89.77,169.45,151.34c32.67,74.23,15.29,144.25-48.82,216.87
			c62.39-67.67,95.45-136.78,62.77-211C985.4,9176.07,918.55,9119.28,830.62,9083.91z"/>
		<path class="st0" d="M882.7,8109.44c-37.58,30.77-16.23,79.05,31.55,101.21c4.09,1.9,8.32,3.65,12.65,5.25
			c-46.88-22.43-67.48-70.11-30.25-100.59c31.17-25.49,91.76-29.68,135.13-15.22c1.5,0.5,2.97,1.02,4.42,1.55
			c-5.78-2.77-11.9-5.24-18.38-7.41C974.45,8079.77,913.86,8083.95,882.7,8109.44z"/>
		<path class="st0" d="M883.79,7146.66c-0.15,0.22-0.29,0.44-0.42,0.66c3.17,1.36,6.42,2.66,9.74,3.91
			C889.93,7149.78,886.83,7148.25,883.79,7146.66z"/>
		<path class="st0" d="M926.9,8215.91c0.42,0.21,0.86,0.42,1.3,0.62c47.78,22.16,112.09,23.6,171.24,17.88
			c4.71-0.46,9.45-0.96,14.18-1.52c0.37-2.59,0.65-5.2,0.83-7.79c-9.64,1.38-19.33,2.52-28.97,3.44
			C1031.41,8233.76,973.03,8233.01,926.9,8215.91z"/>
		<path class="st0" d="M883.79,7146.66c3.05,1.59,6.15,3.12,9.32,4.58c0.82,0.31,1.65,0.62,2.48,0.92c0.64,0.24,1.3,0.47,1.95,0.7
			c19.11-29.96,48.14-57.36,85.69-78.99c17.43-10.07,37.53-19.24,60.36-21.27c12.11-1.08,23.17,0.17,32.92,3.13
			c-12.61-6.94-28.54-10.64-46.87-9c-22.83,2.05-42.93,11.21-60.37,21.27C931.85,7089.56,902.89,7116.83,883.79,7146.66z"/>
		<path class="st0" d="M895.58,7152.16c-0.83-0.3-1.66-0.61-2.48-0.92c1.4,0.65,2.82,1.29,4.25,1.9c0.05-0.1,0.12-0.19,0.18-0.28
			C896.88,7152.63,896.22,7152.4,895.58,7152.16z"/>
		<path class="st0" d="M897.53,7152.86c-0.05,0.09-0.12,0.18-0.18,0.28c3.99,1.75,8.04,3.37,12.19,4.88
			c59.14,21.61,143.52,23.66,190.47-9.89c38.64-27.62,21.78-78.6-23.51-92.39c34.38,18.93,43.92,61.97,9.55,86.52
			C1039.62,7175.44,956.58,7173.81,897.53,7152.86z"/>
		<path class="st0" d="M1036.2,8101.64c32.97,15.74,54.88,40.6,67.4,66.41c8.75,18.06,12.25,37.57,10.86,57.04
			c4.76-0.68,9.51-1.43,14.24-2.24c0.04-16.77-3.61-33.38-11.15-48.94C1103.38,8144.62,1077.05,8116.55,1036.2,8101.64z"/>
		<path class="st0" d="M1114.46,8225.09c-0.18,2.59-0.46,5.2-0.83,7.79c4.92-0.58,9.86-1.22,14.78-1.92c0.19-2.7,0.3-5.42,0.29-8.11
			C1123.96,8223.67,1119.22,8224.41,1114.46,8225.09z"/>
		<path class="st0" d="M1128.69,8222.85c0.01,2.7-0.1,5.41-0.29,8.11c51.23-7.33,101.19-21.46,134.61-47.63
			c64.18-50.23,42.47-128.9-23.19-175.73c-20.75-14.81-44.7-27.14-70.73-37.57c20.66,9.12,39.78,19.57,56.78,31.69
			c65.66,46.85,87.37,125.52,23.17,175.75C1218.74,8201.2,1174.84,8215.03,1128.69,8222.85z"/>
	</g>
	<g>
		<path class="st1" d="M449.57,7851c37.56,18.19,92.1,22.23,141.23,25.36c132.31,8.45,263.24,23.86,391.11,46.05
			c64.87,11.25,130.91,25.04,187.19,47.62c26.03,10.43,49.98,22.75,70.73,37.57c65.66,46.83,87.37,125.51,23.19,175.73
			c-33.42,26.16-83.38,40.29-134.61,47.63c-4.92,0.7-9.86,1.34-14.78,1.92c-4.72,0.56-9.46,1.06-14.18,1.52
			c-59.16,5.72-123.47,4.28-171.24-17.88c-0.44-0.2-0.88-0.41-1.3-0.62c-46.88-22.43-67.48-70.11-30.25-100.59
			c31.17-25.49,91.76-29.68,135.13-15.22c1.5,0.5,2.97,1.02,4.42,1.55c40.85,14.91,67.17,42.99,81.35,72.27
			c7.54,15.56,11.19,32.18,11.15,48.94c0.01,2.7-0.1,5.41-0.29,8.11c-4.39,61.17-57.05,122.13-146.95,137.52
			c-79.95,13.68-156.31-10.52-231.53-34.43c-21.74-6.9-43.38-13.77-65-19.71c-81.47-22.36-171.72-31.8-261.04-27.31
			c-26.3,1.32-53.45,4.06-75.99,13.33c-46.69,19.19-59.46,61.7-43.86,95.32c14.41,31,46.76,55.23,87.67,73.48
			c40.43,18.05,89.22,30.26,137.3,37.39c96.74,14.36,199.32,14.69,291.73,37.56c22.71,5.62,44.44,12.65,64.97,20.92
			c104.37,41.94,177.83,115.49,191.13,195.85c0.81,4.97-2,17.82-3.03,22.81c-10.87,52.86-90.26,52.72-110.15,51.7
			c-97.85-5.02-124.92-15.65-223.72-12.19c-91.07,3.17-200.35,29.54-221.7,87.51c-14.85,40.3,24.69,79.88,76.41,103.52
			c3.86,1.76,7.78,3.44,11.76,5.02c57.29,22.74,125.07,32.18,185.73,51.01c13.21,4.1,26.05,8.66,38.46,13.66
			c87.94,35.37,154.78,92.16,183.4,157.21c32.68,74.22-0.38,143.33-62.77,211"/>
		<path class="st1" d="M1076.5,7055.73c-9.75-2.96-20.81-4.21-32.92-3.13c-22.83,2.03-42.93,11.2-60.36,21.27
			c-37.55,21.64-66.58,49.03-85.69,78.99c-0.05,0.09-0.12,0.18-0.18,0.28c-28.46,44.8-34.73,95.31-14.02,140.98
			c29.19,64.38,103.95,114.32,155.26,172.17c51.31,57.86,75.24,137.74,6.27,189.78c-59.24,44.72-161.7,49.9-250.31,43.6
			c-88.58-6.31-180.13-20.33-265.63-1.59c-85.51,18.77-153.97,88.58-104.45,136.01c6.99,6.7,15.47,12.26,25.05,16.89"/>
		<path class="st1" d="M767.77,6977.65c0.18,2.93,0.44,5.89,0.8,8.88c6.83,57.95,47.47,124.83,115.22,160.14
			c3.05,1.59,6.15,3.12,9.32,4.58c1.4,0.65,2.82,1.29,4.25,1.9c3.99,1.75,8.04,3.37,12.19,4.88
			c59.14,21.61,143.52,23.66,190.47-9.89c38.64-27.62,21.78-78.6-23.51-92.39"/>
		<path class="st1" d="M767.65,6986.6c1.44,60.57,37.01,127,115.71,160.72c3.17,1.36,6.42,2.66,9.74,3.91
			c0.82,0.31,1.65,0.62,2.48,0.92c0.64,0.24,1.3,0.47,1.95,0.7c59.05,20.95,142.08,22.58,188.54-10.6
			c34.37-24.55,24.83-67.58-9.55-86.52c-0.01,0-0.01,0-0.01-0.01c-12.61-6.94-28.54-10.64-46.87-9
			c-22.83,2.05-42.93,11.21-60.37,21.27c-37.41,21.57-66.37,48.84-85.47,78.67c-0.15,0.22-0.29,0.44-0.42,0.66
			c-28.43,44.78-34.69,95.27-13.98,140.93c29.19,64.37,103.94,114.31,155.25,172.17c51.32,57.85,75.25,137.74,6.29,189.78
			c-59.26,44.72-161.7,49.91-250.31,43.59c-88.59-6.3-180.13-20.33-265.65-1.58c-85.49,18.76-153.95,88.56-104.44,135.99
			c10.24,9.8,23.62,17.16,39,22.76c0.01,0.01,0.03,0.02,0.04,0.02c36.39,13.26,83.94,16.72,127.28,19.49
			c132.3,8.46,263.23,23.86,391.11,46.05c70.31,12.2,142.01,27.39,201.14,53.49c20.66,9.12,39.78,19.57,56.78,31.69
			c65.66,46.85,87.37,125.52,23.17,175.75c-30.31,23.72-74.22,37.55-120.36,45.38c-4.73,0.81-9.48,1.56-14.24,2.24
			c-9.64,1.38-19.33,2.52-28.97,3.44c-54.07,5.23-112.45,4.48-158.58-12.63c-4.33-1.6-8.56-3.35-12.65-5.25
			c-47.78-22.16-69.13-70.44-31.55-101.21c31.16-25.49,91.75-29.68,135.13-15.21c6.47,2.17,12.6,4.64,18.38,7.41
			c32.97,15.74,54.88,40.6,67.4,66.41c8.75,18.06,12.25,37.57,10.86,57.04c-0.18,2.59-0.46,5.2-0.83,7.79
			c-8.1,58.48-60.04,115-146.12,129.73c-74.76,12.8-146.38-7.54-216.89-29.78c-26.68-8.41-53.19-17.09-79.65-24.35
			c-81.45-22.36-171.71-31.81-261.04-27.32c-26.29,1.33-53.44,4.05-75.98,13.33c-46.69,19.19-59.48,61.7-43.86,95.32
			c16.01,34.45,54.18,60.54,101.62,79.35c37.44,14.86,80.68,25.18,123.35,31.52c96.74,14.35,199.32,14.69,291.73,37.55
			c27.92,6.91,54.37,15.96,78.92,26.79c96.92,42.73,164.48,113.25,177.17,189.97c0.82,4.98-1.99,17.82-3.02,22.82
			c-10.88,52.85-90.27,52.72-110.15,51.7c-97.83-5.02-124.92-15.65-223.72-12.2c-91.07,3.17-200.35,29.54-221.7,87.52
			c-15.95,43.32,30.89,85.8,88.18,108.54c0.73,0.29,1.46,0.57,2.19,0.86c56.82,22.12,123.64,31.56,183.54,50.16
			c18.23,5.66,35.74,12.2,52.41,19.52c81.03,35.61,142.34,89.77,169.45,151.34c32.67,74.23,15.29,144.25-48.82,216.87"/>
	</g>
</g>
</svg>
