<?xml version="1.0" encoding="utf-8"?>
<!-- Generator: Adobe Illustrator 28.0.0, SVG Export Plug-In . SVG Version: 6.00 Build 0)  -->
<svg version="1.1" id="Layer_1" xmlns="http://www.w3.org/2000/svg" xmlns:xlink="http://www.w3.org/1999/xlink" x="0px" y="0px"
	 viewBox="0 0 1519 9500" style="enable-background:new 0 0 1519 9500;" xml:space="preserve">
<style type="text/css">
	.st0{fill:#AD354C;}
	.st1{fill:none;stroke:#AD354C;stroke-linecap:round;stroke-linejoin:round;}
</style>
<g>
	<g>
		<path class="st0" d="M4164.14,3546.88c3.22,0,3.22-5,0-5C4160.92,3541.88,4160.91,3546.88,4164.14,3546.88L4164.14,3546.88z"/>
	</g>
</g>
<g>
	<g>
		<path class="st0" d="M6350.74,2710.39c3.22,0,3.22-5,0-5C6347.52,2705.39,6347.51,2710.39,6350.74,2710.39L6350.74,2710.39z"/>
	</g>
</g>
<g id="XMLID_00000064332914111526217010000011267977066549121428_">
	<g>
		<path class="st0" d="M939.74,705.54c59.93,15.82,109.21,83.25,75.88,132.35c-6.87,10.13-15.99,17.94-26.56,24.07
			c6.54-4.96,12.29-10.8,16.99-17.72c33.32-49.1-15.96-116.53-75.89-132.36c-59.93-15.82-123.28,1.33-184.75,10.66
			c-61.48,9.32-132.88,7.64-175.16-35.03c-49.21-49.66-34.46-130.31-0.15-189.88c34.32-59.58,85.15-112.05,103.92-177.38
			c13.32-46.34,7.75-96.62-13.11-140.42c0.97-0.67,1.93-1.35,2.89-2.05c2.28-1.36,4.51-2.78,6.69-4.26
			c20.84,43.79,26.4,94.05,13.09,140.39c-18.77,65.32-69.6,117.8-103.91,177.38c-34.33,59.57-49.07,140.22,0.14,189.88
			c42.3,42.67,113.68,44.35,175.16,35.02C816.46,706.86,879.8,689.72,939.74,705.54z"/>
		<path class="st0" d="M975.99,1917.09c12.12,42.74-19.45,86.79-58.77,111.48c-0.5,0.32-1,0.62-1.5,0.93
			c35.43-25.39,61.98-66.3,50.7-106.08c-16.22-57.21-92.88-79.82-156.31-79.88c-68.81-0.08-87.39,11.46-155.33,19.83
			c-13.81,1.7-69.03,4.55-77.86-47.92c-0.84-4.95-3.09-17.69-2.64-22.69c7.34-80.76,56.69-156.79,128.29-202.26
			c-66.41,46.01-111.73,118.8-118.72,195.91c-0.45,5,1.8,17.74,2.63,22.71c8.84,52.44,64.06,49.59,77.86,47.9
			c67.94-8.36,86.52-19.89,155.33-19.83C883.1,1837.26,959.75,1859.87,975.99,1917.09z"/>
		<path class="st0" d="M1112.75,1395.04c-10.32,34.97-36.22,62.34-68.76,82.75c28-19.63,49.91-44.95,59.19-76.41
			c10.07-34.14,0.16-76.18-32.76-93.77c-15.9-8.49-34.85-10.29-53.18-10.71c-62.24-1.44-124.8,11.08-180.95,36.2
			c-14.9,6.67-29.79,14.28-44.75,21.93l-0.51-1.19c18.36-9.32,36.6-18.91,54.83-27.07c56.14-25.13,118.7-37.66,180.95-36.22
			c18.32,0.42,37.27,2.23,53.17,10.72C1112.91,1318.87,1122.83,1360.91,1112.75,1395.04z"/>
		<path class="st0" d="M791.04,1353.84l0.51,1.19c-51.76,26.46-104.3,53.25-160.24,42.31c-62.89-12.31-100.98-71.44-105.49-132.43
			c3.44,0.54,6.89,1.01,10.33,1.42c7.03,58.17,44.51,112.88,104.73,124.66C693.18,1401.23,742.52,1378.46,791.04,1353.84z"/>
		<path class="st0" d="M789.23,2085.9c41.24-20.64,87.49-32.35,126.49-56.4c-2.64,1.88-5.33,3.69-8.06,5.41
			c-39.31,24.69-86.23,36.44-127.99,57.33c-9.09,4.55-17.92,9.55-26.43,14.96C764.66,2099.31,776.69,2092.18,789.23,2085.9z"/>
		<path class="st0" d="M747.27,1567.38c-15.67,6.38-30.61,14.15-44.7,23.12c16.83-11.66,35.01-21.61,54.26-29.47
			c63.74-26.01,135.09-29.85,202.06-47.49c29.56-7.8,59.4-19.6,85.1-35.75c-27.71,19.45-61.37,33.31-94.66,42.09
			C882.37,1537.53,811.01,1541.36,747.27,1567.38z"/>
		<path class="st0" d="M747.19,8.95c0.44,60.6-22.72,128.2-76.67,164.58c-0.1-0.22-0.21-0.44-0.31-0.65
			c46.29-37.6,72.98-105.82,76.35-163.98L747.19,8.95z"/>
		<path class="st0" d="M753.23,2107.2c-55.52,38.35-96.89,94.58-114.28,157.03c-13.73,49.34-12.37,102.08,2.87,151
			c-19.89-45.86-26.66-93.56-12.43-144.66C647.75,2204.59,692.9,2145.55,753.23,2107.2z"/>
		<path class="st0" d="M670.2,172.88c0.1,0.21,0.21,0.43,0.31,0.65c-2.18,1.48-4.41,2.9-6.69,4.26
			C665.99,176.22,668.12,174.59,670.2,172.88z"/>
		<path class="st0" d="M665.61,1243c-0.28,0.22-0.57,0.44-0.86,0.65c-32.72,23.79-77.42,27.43-118.71,23.73
			c-3.29-0.3-6.6-0.64-9.9-1.04c-0.32-2.58-0.57-5.17-0.76-7.76c6.74,1.05,13.51,1.85,20.24,2.45
			C593.34,1264.4,633.93,1261.66,665.61,1243z"/>
		<path class="st0" d="M670.2,172.88c-2.08,1.71-4.21,3.34-6.38,4.9c-0.56,0.34-1.12,0.68-1.69,1.01c-0.44,0.26-0.89,0.51-1.34,0.75
			c-14-29.29-34.85-55.67-61.48-76.02c-12.36-9.46-26.58-17.93-42.5-19.19c-8.45-0.67-16.11,0.96-22.82,4.25
			c8.61-7.37,19.6-11.61,32.39-10.6c15.93,1.26,30.14,9.74,42.51,19.2C635.41,117.46,656.2,143.72,670.2,172.88z"/>
		<path class="st0" d="M662.13,178.79c0.57-0.33,1.13-0.67,1.69-1.01c-0.96,0.7-1.92,1.38-2.89,2.05c-0.04-0.09-0.09-0.19-0.14-0.29
			C661.24,179.31,661.69,179.05,662.13,178.79z"/>
		<path class="st0" d="M652.55,185.13c-40.63,23.61-99.27,28.55-132.73-3.38c-27.55-26.28-17.03-77.81,14.15-93.14
			c-23.47,20.09-29.08,63.42-4.59,86.79c33.1,31.58,90.83,27.11,131.41,4.15c0.05,0.1,0.1,0.2,0.14,0.29
			C658.2,181.7,655.41,183.48,652.55,185.13z"/>
		<path class="st0" d="M599.48,1124.49c29.83-15.95,72.08-13.82,94.36,10.59c26.88,29.46,13.18,78.45-19.54,102.23
			c-2.81,2.05-5.71,3.94-8.69,5.69c32.09-24,45.32-72.38,18.67-101.57c-22.29-24.41-64.54-26.54-94.36-10.6
			c-1.03,0.55-2.04,1.12-3.04,1.7C590.83,1129.55,595.03,1126.86,599.48,1124.49z"/>
		<path class="st0" d="M586.88,1132.52c-22.56,16.85-37.21,42.45-45.31,68.66c-5.66,18.35-7.63,37.97-6.2,57.39
			c-3.33-0.52-6.65-1.1-9.96-1.75c-0.43-16.74,1.72-33.49,6.59-49.29C541.17,1177.77,558.81,1148.82,586.88,1132.52z"/>
		<path class="st0" d="M535.37,1258.57c0.2,2.59,0.45,5.18,0.76,7.76c-3.44-0.41-6.89-0.88-10.33-1.42c-0.2-2.7-0.34-5.39-0.39-8.09
			C528.72,1257.47,532.04,1258.05,535.37,1258.57z"/>
		<path class="st0" d="M491.4,1005.45c40.5-28.08,89.97-45.68,138.56-60.25c88.42-26.54,179.14-46.42,270.97-59.38
			c30.1-4.24,63.12-9.34,88.12-23.85c-25.7,19.48-63.56,25.38-97.68,30.18C799.52,905.13,708.8,925,620.39,951.55
			C575.57,964.98,529.99,981,491.4,1005.45z"/>
		<path class="st0" d="M442.99,1045.49c14.11-15.55,30.51-28.7,48.41-40.04c-14.19,9.84-27.29,20.96-38.85,33.69
			c-44.55,49.06-57.79,128.42-11.93,176.43c21.64,22.67,52.52,35,84.8,41.24c0.06,2.7,0.2,5.39,0.39,8.09
			c-35.82-5.58-70.9-18-94.77-42.99C385.19,1173.91,398.44,1094.54,442.99,1045.49z"/>
	</g>
	<g>
		<path class="st1" d="M989.05,861.97c-25.7,19.48-63.56,25.38-97.68,30.18C799.52,905.13,708.8,925,620.39,951.55
			c-44.82,13.43-90.4,29.45-128.99,53.91c-17.9,11.34-34.3,24.49-48.41,40.04c-44.55,49.05-57.79,128.42-11.94,176.42
			c23.87,25,58.95,37.41,94.77,42.99c3.44,0.54,6.89,1.01,10.33,1.42c3.3,0.4,6.61,0.74,9.9,1.04c41.29,3.7,85.99,0.06,118.71-23.73
			c0.29-0.21,0.58-0.43,0.86-0.65c32.09-24,45.32-72.38,18.67-101.57c-22.29-24.41-64.54-26.54-94.36-10.6
			c-1.03,0.55-2.04,1.12-3.04,1.7c-28.06,16.3-45.71,45.26-54.87,75.01c-4.87,15.81-7.02,32.55-6.59,49.29
			c0.06,2.7,0.2,5.39,0.39,8.09c4.51,61,42.6,120.12,105.49,132.43c55.94,10.95,108.48-15.85,160.24-42.31
			c14.96-7.65,29.85-15.26,44.75-21.93c56.15-25.13,118.71-37.65,180.95-36.2c18.33,0.42,37.28,2.23,53.18,10.71
			c32.93,17.59,42.83,59.63,32.76,93.77c-9.29,31.46-31.2,56.78-59.19,76.41c-27.71,19.45-61.37,33.31-94.66,42.09
			c-66.96,17.65-138.32,21.49-202.06,47.5c-15.67,6.38-30.61,14.15-44.7,23.12c-71.61,45.47-120.96,121.49-128.29,202.26
			c-0.44,5,1.81,17.73,2.64,22.69c8.83,52.46,64.05,49.61,77.86,47.92c67.94-8.36,86.52-19.9,155.33-19.83
			c63.43,0.06,140.08,22.68,156.31,79.88c11.29,39.78-15.27,80.69-50.7,106.08c-2.64,1.88-5.33,3.69-8.06,5.41
			c-39.31,24.69-86.23,36.44-127.99,57.33c-9.09,4.55-17.92,9.55-26.43,14.96c-60.33,38.35-105.48,97.39-123.84,163.37
			c-14.23,51.09-7.46,98.8,12.43,144.66c9.41,21.72,21.78,43.03,36.25,64.09"/>
		<path class="st1" d="M533.98,88.59c6.71-3.29,14.37-4.92,22.82-4.25c15.93,1.25,30.14,9.73,42.5,19.19
			c26.62,20.35,47.48,46.73,61.48,76.02c0.05,0.1,0.1,0.2,0.14,0.29c20.85,43.8,26.42,94.08,13.11,140.42
			c-18.77,65.32-69.61,117.8-103.92,177.38c-34.32,59.57-49.06,140.23,0.15,189.88c42.29,42.67,113.68,44.35,175.16,35.03
			c61.47-9.33,124.82-26.47,184.75-10.66c59.94,15.83,109.21,83.26,75.89,132.36c-4.71,6.92-10.45,12.77-16.99,17.72"/>
		<path class="st1" d="M746.9,0.01c-0.05,2.94-0.16,5.9-0.35,8.9c-3.38,58.16-30.06,126.38-76.35,163.98
			c-2.08,1.71-4.21,3.34-6.38,4.9c-0.96,0.7-1.92,1.38-2.89,2.05c-2.73,1.87-5.52,3.64-8.37,5.3
			c-40.63,23.61-99.27,28.55-132.73-3.38c-27.55-26.28-17.03-77.81,14.15-93.14"/>
		<path class="st1" d="M747.19,8.95c0.44,60.6-22.72,128.2-76.67,164.58c-2.18,1.48-4.41,2.9-6.69,4.26
			c-0.56,0.34-1.12,0.68-1.69,1.01c-0.44,0.26-0.89,0.51-1.34,0.75c-40.58,22.96-98.3,27.43-131.41-4.15
			c-24.49-23.38-18.88-66.71,4.59-86.79c0.01,0,0.01-0.01,0.01-0.01c8.61-7.37,19.6-11.61,32.39-10.6
			c15.93,1.26,30.14,9.74,42.51,19.2c26.52,20.27,47.31,46.53,61.32,75.69c0.1,0.21,0.21,0.43,0.31,0.65
			c20.84,43.79,26.4,94.05,13.09,140.39c-18.77,65.32-69.6,117.8-103.91,177.38c-34.33,59.57-49.07,140.22,0.14,189.88
			c42.3,42.67,113.68,44.35,175.16,35.02c61.48-9.33,124.82-26.47,184.76-10.65c59.93,15.82,109.21,83.25,75.88,132.35
			c-6.87,10.13-15.99,17.94-26.56,24.07c-0.01,0.01-0.01,0.01-0.02,0.01c-25,14.51-58.02,19.6-88.12,23.85
			c-91.83,12.96-182.55,32.84-270.97,59.38c-48.59,14.57-98.06,32.18-138.56,60.25c-14.19,9.84-27.29,20.96-38.85,33.69
			c-44.55,49.06-57.79,128.42-11.93,176.43c21.64,22.67,52.52,35,84.8,41.24c3.31,0.65,6.63,1.23,9.96,1.75
			c6.74,1.05,13.51,1.85,20.24,2.45c37.73,3.38,78.32,0.64,109.99-18.03c2.98-1.75,5.88-3.64,8.69-5.69
			c32.72-23.78,46.42-72.77,19.54-102.23c-22.28-24.41-64.53-26.54-94.36-10.59c-4.45,2.37-8.65,5.07-12.61,8.03
			c-22.56,16.85-37.21,42.45-45.31,68.66c-5.66,18.35-7.63,37.97-6.2,57.39c0.2,2.59,0.45,5.18,0.76,7.76
			c7.03,58.17,44.51,112.88,104.73,124.66c52.31,10.23,101.65-12.54,150.17-37.15c18.36-9.32,36.6-18.91,54.83-27.07
			c56.14-25.13,118.7-37.66,180.95-36.22c18.32,0.42,37.27,2.23,53.17,10.72c32.93,17.59,42.84,59.63,32.76,93.76
			c-10.32,34.97-36.22,62.34-68.76,82.75c-25.7,16.15-55.54,27.95-85.1,35.75c-66.96,17.64-138.32,21.49-202.06,47.49
			c-19.26,7.86-37.43,17.8-54.26,29.47c-66.41,46.01-111.73,118.8-118.72,195.91c-0.45,5,1.8,17.74,2.63,22.71
			c8.84,52.44,64.06,49.59,77.86,47.9c67.94-8.36,86.52-19.89,155.33-19.83c63.43,0.06,140.08,22.68,156.32,79.89
			c12.12,42.74-19.45,86.79-58.77,111.48c-0.5,0.32-1,0.62-1.5,0.93c-39,24.05-85.25,35.76-126.49,56.4
			c-12.55,6.28-24.57,13.41-36,21.3c-55.52,38.35-96.89,94.58-114.28,157.03c-13.73,49.34-12.37,102.08,2.87,151
			c8.01,25.75,19.87,50.45,35.39,73.04"/>
	</g>
</g>
<g id="XMLID_00000060708948118504223850000017962093420134705329_">
	<g>
		<path class="st0" d="M435.92,3044.58c-59.93,15.82-109.21,83.25-75.88,132.35c6.87,10.13,15.99,17.94,26.56,24.07
			c-6.54-4.96-12.29-10.8-16.99-17.72c-33.32-49.1,15.96-116.53,75.89-132.36c59.93-15.82,123.28,1.33,184.75,10.66
			c61.48,9.32,132.88,7.64,175.16-35.03c49.21-49.66,34.46-130.31,0.15-189.88c-34.32-59.58-85.15-112.05-103.92-177.38
			c-13.32-46.34-7.75-96.62,13.11-140.42c-0.97-0.67-1.93-1.35-2.89-2.05c-2.28-1.36-4.51-2.78-6.69-4.26
			c-20.84,43.79-26.4,94.05-13.09,140.39c18.77,65.32,69.6,117.8,103.91,177.38c34.33,59.57,49.07,140.22-0.14,189.88
			c-42.3,42.67-113.68,44.35-175.16,35.02C559.21,3045.9,495.86,3028.75,435.92,3044.58z"/>
		<path class="st0" d="M399.68,4256.13c-12.12,42.74,19.45,86.79,58.77,111.48c0.5,0.32,1,0.62,1.5,0.93
			c-35.43-25.39-61.98-66.3-50.7-106.08c16.22-57.21,92.88-79.82,156.31-79.88c68.81-0.08,87.39,11.46,155.33,19.83
			c13.81,1.7,69.03,4.55,77.86-47.92c0.84-4.95,3.09-17.69,2.64-22.69c-7.34-80.76-56.69-156.79-128.29-202.26
			c66.41,46.01,111.73,118.8,118.72,195.91c0.45,5-1.8,17.74-2.63,22.71c-8.84,52.44-64.06,49.59-77.86,47.9
			c-67.94-8.36-86.52-19.89-155.33-19.82C492.56,4176.29,415.91,4198.91,399.68,4256.13z"/>
		<path class="st0" d="M262.91,3734.08c10.32,34.97,36.22,62.34,68.76,82.75c-28-19.63-49.91-44.95-59.19-76.41
			c-10.07-34.14-0.16-76.18,32.76-93.77c15.9-8.49,34.85-10.29,53.18-10.71c62.24-1.44,124.8,11.08,180.95,36.2
			c14.9,6.67,29.79,14.28,44.75,21.93l0.51-1.2c-18.36-9.32-36.6-18.91-54.83-27.07c-56.14-25.13-118.7-37.66-180.95-36.22
			c-18.32,0.42-37.27,2.23-53.17,10.73C262.75,3657.91,252.84,3699.95,262.91,3734.08z"/>
		<path class="st0" d="M584.63,3692.88l-0.51,1.2c51.76,26.46,104.3,53.25,160.24,42.31c62.89-12.31,100.98-71.44,105.49-132.43
			c-3.44,0.54-6.89,1.01-10.33,1.42c-7.03,58.17-44.51,112.88-104.73,124.66C682.49,3740.26,633.15,3717.5,584.63,3692.88z"/>
		<path class="st0" d="M586.44,4424.94c-41.24-20.64-87.49-32.35-126.49-56.4c2.64,1.88,5.33,3.69,8.06,5.41
			c39.31,24.69,86.23,36.44,127.99,57.33c9.09,4.55,17.92,9.55,26.43,14.96C611.01,4438.35,598.98,4431.22,586.44,4424.94z"/>
		<path class="st0" d="M673.09,3929.54c-16.83-11.66-35.01-21.61-54.26-29.47c-63.74-26.01-135.09-29.85-202.06-47.49
			c-29.56-7.8-59.4-19.6-85.1-35.75c27.71,19.45,61.37,33.31,94.66,42.09c66.96,17.65,138.32,21.49,202.06,47.5
			C644.06,3912.8,659.01,3920.57,673.09,3929.54z"/>
		<path class="st0" d="M705.46,2511.92c-46.29-37.6-72.98-105.82-76.35-163.98l-0.63,0.04c-0.44,60.6,22.72,128.2,76.67,164.58
			C705.25,2512.35,705.36,2512.13,705.46,2511.92z"/>
		<path class="st0" d="M622.43,4446.24c55.52,38.35,96.89,94.58,114.28,157.03c13.73,49.34,12.37,102.08-2.87,151
			c19.89-45.86,26.66-93.56,12.43-144.66C727.91,4543.63,682.76,4484.59,622.43,4446.24z"/>
		<path class="st0" d="M705.46,2511.92c-0.1,0.21-0.21,0.43-0.31,0.65c2.18,1.48,4.41,2.9,6.69,4.26
			C709.68,2515.26,707.54,2513.63,705.46,2511.92z"/>
		<path class="st0" d="M710.06,3582.04c0.28,0.22,0.57,0.44,0.86,0.65c32.72,23.79,77.42,27.43,118.71,23.73
			c3.29-0.3,6.6-0.64,9.9-1.04c0.32-2.58,0.57-5.17,0.76-7.76c-6.74,1.05-13.51,1.85-20.24,2.45
			C782.33,3603.44,741.74,3600.7,710.06,3582.04z"/>
		<path class="st0" d="M705.46,2511.92c2.08,1.71,4.21,3.34,6.38,4.9c0.56,0.34,1.12,0.68,1.69,1.01c0.44,0.26,0.89,0.51,1.34,0.75
			c14-29.29,34.85-55.67,61.48-76.02c12.36-9.46,26.58-17.93,42.5-19.19c8.45-0.67,16.11,0.96,22.82,4.25
			c-8.61-7.37-19.6-11.61-32.39-10.6c-15.93,1.26-30.14,9.74-42.51,19.2C740.26,2456.49,719.47,2482.76,705.46,2511.92z"/>
		<path class="st0" d="M713.54,2517.83c-0.57-0.33-1.13-0.67-1.69-1.01c0.96,0.7,1.92,1.38,2.89,2.05c0.04-0.09,0.09-0.19,0.14-0.29
			C714.43,2518.35,713.98,2518.09,713.54,2517.83z"/>
		<path class="st0" d="M846.28,2514.44c-33.1,31.58-90.83,27.11-131.41,4.15c-0.05,0.1-0.1,0.2-0.14,0.29
			c2.73,1.87,5.52,3.64,8.37,5.3c40.63,23.61,99.27,28.55,132.73-3.38c27.55-26.28,17.03-77.81-14.15-93.14
			C865.16,2447.73,870.78,2491.06,846.28,2514.44z"/>
		<path class="st0" d="M776.19,3463.53c-29.83-15.95-72.08-13.82-94.36,10.59c-26.88,29.46-13.18,78.45,19.54,102.23
			c2.81,2.05,5.71,3.94,8.69,5.69c-32.09-24-45.32-72.38-18.67-101.57c22.29-24.41,64.54-26.54,94.36-10.6
			c1.03,0.55,2.04,1.12,3.04,1.7C784.84,3468.59,780.64,3465.9,776.19,3463.53z"/>
		<path class="st0" d="M788.79,3471.56c22.56,16.85,37.21,42.45,45.31,68.66c5.66,18.35,7.63,37.97,6.2,57.39
			c3.33-0.52,6.65-1.1,9.96-1.75c0.43-16.74-1.72-33.49-6.59-49.29C834.5,3516.81,816.86,3487.86,788.79,3471.56z"/>
		<path class="st0" d="M840.29,3597.61c-0.2,2.59-0.45,5.18-0.76,7.76c3.44-0.41,6.89-0.88,10.33-1.42c0.2-2.7,0.34-5.39,0.39-8.09
			C846.94,3596.51,843.62,3597.09,840.29,3597.61z"/>
		<path class="st0" d="M755.28,3290.58c44.82,13.43,90.4,29.45,128.99,53.91c-40.5-28.08-89.97-45.68-138.56-60.25
			c-88.42-26.54-179.14-46.42-270.97-59.38c-30.1-4.24-63.12-9.34-88.12-23.85c25.7,19.48,63.56,25.38,97.68,30.18
			C576.15,3244.17,666.86,3264.04,755.28,3290.58z"/>
		<path class="st0" d="M932.68,3384.53c-14.11-15.55-30.51-28.7-48.41-40.04c14.19,9.84,27.29,20.96,38.85,33.69
			c44.55,49.06,57.79,128.42,11.93,176.43c-21.64,22.67-52.52,35-84.8,41.24c-0.06,2.7-0.2,5.39-0.39,8.09
			c35.82-5.58,70.9-18,94.77-42.99C990.48,3512.95,977.23,3433.58,932.68,3384.53z"/>
	</g>
	<g>
		<path class="st1" d="M386.62,3201.01c25.7,19.48,63.56,25.38,97.68,30.18c91.84,12.97,182.56,32.85,270.97,59.39
			c44.82,13.43,90.4,29.45,128.99,53.91c17.9,11.34,34.3,24.49,48.41,40.04c44.55,49.05,57.79,128.42,11.94,176.42
			c-23.87,25-58.95,37.41-94.77,42.99c-3.44,0.54-6.89,1.01-10.33,1.42c-3.3,0.4-6.61,0.74-9.9,1.04
			c-41.29,3.7-85.99,0.06-118.71-23.73c-0.29-0.21-0.58-0.43-0.86-0.65c-32.09-24-45.32-72.38-18.67-101.57
			c22.29-24.41,64.54-26.54,94.36-10.6c1.03,0.55,2.04,1.12,3.04,1.7c28.06,16.3,45.71,45.26,54.87,75.01
			c4.87,15.81,7.02,32.55,6.59,49.29c-0.06,2.7-0.2,5.39-0.39,8.09c-4.51,61-42.6,120.12-105.49,132.43
			c-55.94,10.95-108.48-15.85-160.24-42.31c-14.96-7.65-29.85-15.26-44.75-21.93c-56.15-25.13-118.71-37.65-180.95-36.2
			c-18.33,0.42-37.28,2.23-53.18,10.71c-32.93,17.59-42.83,59.63-32.76,93.77c9.29,31.46,31.2,56.78,59.19,76.41
			c27.71,19.45,61.37,33.31,94.66,42.09c66.96,17.65,138.32,21.49,202.06,47.5c15.67,6.38,30.61,14.15,44.7,23.12
			c71.61,45.47,120.96,121.49,128.29,202.26c0.44,5-1.81,17.73-2.64,22.69c-8.83,52.46-64.05,49.61-77.86,47.92
			c-67.94-8.36-86.52-19.9-155.33-19.83c-63.43,0.06-140.08,22.68-156.31,79.88c-11.29,39.78,15.27,80.69,50.7,106.08
			c2.64,1.88,5.33,3.69,8.06,5.41c39.31,24.69,86.23,36.44,127.99,57.33c9.09,4.55,17.92,9.55,26.43,14.96
			c60.33,38.35,105.48,97.39,123.84,163.37c14.23,51.09,7.46,98.8-12.43,144.66c-9.41,21.72-21.78,43.03-36.25,64.09"/>
		<path class="st1" d="M841.68,2427.63c-6.71-3.29-14.37-4.92-22.82-4.25c-15.93,1.25-30.14,9.73-42.5,19.19
			c-26.62,20.35-47.48,46.73-61.48,76.02c-0.05,0.1-0.1,0.2-0.14,0.29c-20.85,43.8-26.42,94.08-13.11,140.42
			c18.77,65.32,69.61,117.8,103.92,177.38c34.32,59.57,49.06,140.23-0.15,189.88c-42.29,42.67-113.68,44.35-175.16,35.03
			c-61.47-9.33-124.82-26.47-184.75-10.66c-59.94,15.83-109.21,83.26-75.89,132.36c4.71,6.92,10.45,12.77,16.99,17.72"/>
		<path class="st1" d="M628.76,2339.05c0.05,2.94,0.16,5.9,0.35,8.9c3.38,58.16,30.06,126.38,76.35,163.98
			c2.08,1.71,4.21,3.34,6.38,4.9c0.96,0.7,1.92,1.38,2.89,2.05c2.73,1.87,5.52,3.64,8.37,5.3c40.63,23.61,99.27,28.55,132.73-3.38
			c27.55-26.28,17.03-77.81-14.15-93.14"/>
		<path class="st1" d="M628.48,2347.99c-0.44,60.6,22.72,128.2,76.67,164.58c2.18,1.48,4.41,2.9,6.69,4.26
			c0.56,0.34,1.12,0.68,1.69,1.01c0.44,0.26,0.89,0.51,1.34,0.75c40.58,22.96,98.3,27.43,131.41-4.15
			c24.49-23.38,18.88-66.71-4.59-86.79c-0.01,0-0.01-0.01-0.01-0.01c-8.61-7.37-19.6-11.61-32.39-10.6
			c-15.93,1.26-30.14,9.74-42.51,19.2c-26.52,20.27-47.31,46.53-61.32,75.69c-0.1,0.21-0.21,0.43-0.31,0.65
			c-20.84,43.79-26.4,94.05-13.09,140.39c18.77,65.32,69.6,117.8,103.91,177.38c34.33,59.57,49.07,140.22-0.14,189.88
			c-42.3,42.67-113.68,44.35-175.16,35.02c-61.48-9.33-124.82-26.47-184.76-10.65c-59.93,15.82-109.21,83.25-75.88,132.35
			c6.87,10.13,15.99,17.94,26.56,24.07c0.01,0.01,0.01,0.01,0.02,0.01c25,14.51,58.02,19.6,88.12,23.85
			c91.83,12.96,182.55,32.84,270.97,59.38c48.59,14.57,98.06,32.18,138.56,60.25c14.19,9.84,27.29,20.96,38.85,33.69
			c44.55,49.06,57.79,128.42,11.93,176.43c-21.64,22.67-52.52,35-84.8,41.24c-3.31,0.65-6.63,1.23-9.96,1.75
			c-6.74,1.05-13.51,1.85-20.24,2.45c-37.73,3.38-78.32,0.64-109.99-18.03c-2.98-1.75-5.88-3.64-8.69-5.69
			c-32.72-23.78-46.42-72.77-19.54-102.23c22.28-24.41,64.53-26.54,94.36-10.59c4.45,2.37,8.65,5.06,12.61,8.03
			c22.56,16.85,37.21,42.45,45.31,68.66c5.66,18.35,7.63,37.97,6.2,57.39c-0.2,2.59-0.45,5.18-0.76,7.76
			c-7.03,58.17-44.51,112.88-104.73,124.66c-52.31,10.23-101.65-12.54-150.17-37.15c-18.36-9.32-36.6-18.91-54.83-27.07
			c-56.14-25.13-118.7-37.66-180.95-36.22c-18.32,0.42-37.27,2.23-53.17,10.73c-32.93,17.59-42.84,59.63-32.76,93.76
			c10.32,34.97,36.22,62.34,68.76,82.75c25.7,16.15,55.54,27.95,85.1,35.75c66.96,17.64,138.32,21.49,202.06,47.49
			c19.26,7.86,37.43,17.8,54.26,29.47c66.41,46.01,111.73,118.8,118.72,195.91c0.45,5-1.8,17.74-2.63,22.71
			c-8.84,52.44-64.06,49.59-77.86,47.9c-67.94-8.36-86.52-19.89-155.33-19.82c-63.43,0.06-140.08,22.68-156.32,79.89
			c-12.12,42.74,19.45,86.79,58.77,111.48c0.5,0.32,1,0.62,1.5,0.93c39,24.05,85.25,35.76,126.49,56.4
			c12.55,6.28,24.57,13.41,36,21.3c55.52,38.35,96.89,94.58,114.28,157.03c13.73,49.34,12.37,102.08-2.87,151
			c-8.01,25.75-19.87,50.45-35.39,73.04"/>
	</g>
</g>
<g id="XMLID_00000047767654216084375890000014279016017608175286_">
	<g>
		<path class="st0" d="M944.53,5375.59c59.92,15.82,109.2,83.25,75.88,132.35c-6.9,10.16-16.05,17.98-26.64,24.11
			c6.57-4.97,12.36-10.83,17.07-17.78c33.31-49.09-15.97-116.52-75.89-132.35s-123.28,1.33-184.76,10.65
			c-61.48,9.33-132.88,7.65-175.15-35.03c-49.21-49.64-34.46-130.3-0.15-189.88c34.32-59.57,85.14-112.04,103.91-177.38
			c13.32-46.35,7.76-96.62-13.1-140.41c0.97-0.67,1.94-1.35,2.9-2.05c2.28-1.37,4.51-2.78,6.68-4.25
			c20.83,43.78,26.39,94.04,13.08,140.36c-18.77,65.32-69.6,117.8-103.9,177.38c-34.33,59.57-49.07,140.23,0.14,189.89
			c42.29,42.67,113.67,44.35,175.15,35.01C821.25,5376.9,884.59,5359.76,944.53,5375.59z"/>
		<path class="st0" d="M980.77,6587.12c12.13,42.75-19.45,86.8-58.76,111.48c-0.46,0.28-0.92,0.58-1.38,0.84
			c35.36-25.38,61.84-66.25,50.57-105.98c-16.22-57.22-92.87-79.83-156.3-79.89c-68.81-0.08-87.4,11.48-155.34,19.84
			c-13.81,1.7-69.03,4.54-77.85-47.92c-0.84-4.95-3.1-17.69-2.65-22.7c7.35-80.76,56.71-156.79,128.31-202.27
			c-66.42,46.01-111.74,118.81-118.74,195.92c-0.45,5.01,1.81,17.74,2.64,22.71c8.83,52.44,64.05,49.6,77.85,47.91
			c67.94-8.36,86.53-19.9,155.34-19.84C887.89,6507.29,964.53,6529.9,980.77,6587.12z"/>
		<path class="st0" d="M1117.54,6065.08c-10.32,34.98-36.25,62.36-68.81,82.78c28.03-19.63,49.96-44.96,59.24-76.43
			c10.06-34.14,0.16-76.18-32.77-93.77c-15.9-8.5-34.85-10.29-53.18-10.73c-62.24-1.44-124.8,11.08-180.94,36.2
			c-13.06,5.85-26.14,12.43-39.25,19.12l-0.51-1.19c16.5-8.41,32.91-16.91,49.33-24.26c56.13-25.13,118.69-37.65,180.94-36.2
			c18.32,0.42,37.27,2.22,53.17,10.71C1117.7,5988.9,1127.61,6030.95,1117.54,6065.08z"/>
		<path class="st0" d="M801.33,6021.06l0.51,1.19c-53.55,27.32-107.83,56.46-165.75,45.12c-62.9-12.3-100.99-71.42-105.49-132.42
			c3.44,0.53,6.89,1,10.33,1.41c7.02,58.17,44.5,112.89,104.73,124.66C699.94,6071.65,751.03,6046.72,801.33,6021.06z"/>
		<path class="st0" d="M794.02,6755.94c41.27-20.67,87.59-32.38,126.61-56.5c-2.68,1.93-5.41,3.76-8.18,5.5
			c-39.31,24.68-86.24,36.43-127.99,57.33c-9.09,4.55-17.91,9.55-26.42,14.96C769.46,6769.35,781.48,6762.22,794.02,6755.94z"/>
		<path class="st0" d="M752.06,6237.41c-15.66,6.38-30.6,14.16-44.69,23.11c16.82-11.65,35-21.6,54.24-29.45
			c63.75-26.01,135.1-29.85,202.06-47.5c29.54-7.8,59.37-19.59,85.06-35.72c-27.7,19.42-61.35,33.29-94.62,42.05
			C887.15,6207.56,815.8,6211.39,752.06,6237.41z"/>
		<path class="st0" d="M674.99,4842.94c46.29-37.61,72.97-105.82,76.35-163.98l0.63,0.03c0.44,60.59-22.72,128.2-76.67,164.59
			C675.2,4843.36,675.09,4843.15,674.99,4842.94z"/>
		<path class="st0" d="M634.18,6940.62c18.36-66,63.51-125.03,123.85-163.37c-55.53,38.34-96.9,94.57-114.29,157.03
			c-13.73,49.31-12.38,102.03,2.84,150.93C626.72,7039.38,619.96,6991.69,634.18,6940.62z"/>
		<path class="st0" d="M674.99,4842.94c0.1,0.21,0.21,0.43,0.31,0.65c-2.17,1.47-4.4,2.88-6.68,4.25
			C670.79,4846.26,672.91,4844.63,674.99,4842.94z"/>
		<path class="st0" d="M670.41,5913.02c-0.29,0.23-0.59,0.45-0.89,0.67c-32.71,23.78-77.41,27.42-118.7,23.72
			c-3.29-0.3-6.6-0.64-9.9-1.04c-0.32-2.58-0.58-5.17-0.76-7.76c6.75,1.05,13.52,1.85,20.24,2.46
			C598.14,5934.45,638.74,5931.7,670.41,5913.02z"/>
		<path class="st0" d="M674.99,4842.94c-2.08,1.7-4.2,3.33-6.37,4.89c-0.56,0.34-1.13,0.68-1.7,1.01c-0.44,0.26-0.89,0.51-1.34,0.75
			c-14.01-29.29-34.85-55.68-61.49-76.02c-12.36-9.46-26.57-17.94-42.49-19.2c-8.44-0.67-16.09,0.95-22.79,4.24
			c8.6-7.36,19.58-11.59,32.35-10.58c15.93,1.25,30.14,9.74,42.51,19.19C640.2,4787.5,661,4813.76,674.99,4842.94z"/>
		<path class="st0" d="M666.92,4848.84c0.57-0.33,1.14-0.67,1.7-1.01c-0.96,0.7-1.93,1.38-2.9,2.05c-0.05-0.1-0.09-0.2-0.14-0.28
			C666.03,4849.35,666.48,4849.1,666.92,4848.84z"/>
		<path class="st0" d="M534.17,4845.44c33.1,31.58,90.83,27.1,131.41,4.15c0.05,0.09,0.09,0.19,0.14,0.28
			c-2.73,1.87-5.52,3.64-8.37,5.3c-40.63,23.61-99.27,28.54-132.74-3.4c-27.55-26.28-17.01-77.85,14.2-93.16
			C515.3,4778.68,509.67,4822.05,534.17,4845.44z"/>
		<path class="st0" d="M604.27,5794.52c29.83-15.94,72.08-13.82,94.36,10.6c26.88,29.46,13.17,78.44-19.54,102.22
			c-2.8,2.04-5.7,3.93-8.67,5.68c32.07-24.02,45.28-72.37,18.65-101.55c-22.29-24.43-64.54-26.54-94.36-10.61
			c-1.03,0.55-2.04,1.12-3.04,1.7C595.61,5799.58,599.82,5796.9,604.27,5794.52z"/>
		<path class="st0" d="M591.66,5802.55c-22.56,16.85-37.21,42.45-45.31,68.67c-5.65,18.35-7.63,37.96-6.2,57.38
			c-3.33-0.52-6.65-1.1-9.96-1.75c-0.42-16.74,1.72-33.49,6.59-49.28C545.96,5847.81,563.59,5818.86,591.66,5802.55z"/>
		<path class="st0" d="M540.16,5928.61c0.19,2.59,0.45,5.18,0.76,7.76c-3.44-0.41-6.89-0.88-10.33-1.41c-0.2-2.7-0.34-5.4-0.39-8.1
			C533.51,5927.5,536.83,5928.09,540.16,5928.61z"/>
		<path class="st0" d="M496.09,5675.56c40.51-28.11,90.03-45.74,138.65-60.33c88.43-26.53,179.15-46.41,270.98-59.38
			c30.07-4.24,63.06-9.33,88.06-23.8c-25.71,19.45-63.53,25.34-97.62,30.15c-91.84,12.97-182.56,32.84-270.98,59.38
			C580.31,5635.03,534.7,5651.08,496.09,5675.56z"/>
		<path class="st0" d="M447.77,5715.52c14.09-15.51,30.45-28.65,48.31-39.96c-14.16,9.82-27.21,20.91-38.75,33.61
			c-44.56,49.07-57.79,128.43-11.94,176.45c21.65,22.66,52.52,34.99,84.81,41.23c0.06,2.7,0.2,5.4,0.39,8.1
			c-35.82-5.58-70.91-18-94.78-42.99C389.98,5843.95,403.21,5764.58,447.77,5715.52z"/>
	</g>
	<g>
		<path class="st1" d="M751.68,4670.05c-0.05,2.94-0.16,5.91-0.34,8.91c-3.39,58.16-30.06,126.37-76.35,163.98
			c-2.08,1.7-4.2,3.33-6.37,4.89c-0.96,0.7-1.93,1.38-2.9,2.05c-2.73,1.87-5.52,3.64-8.37,5.3c-40.63,23.61-99.27,28.54-132.74-3.4
			c-27.55-26.28-17.01-77.85,14.2-93.16c6.7-3.29,14.35-4.91,22.79-4.24c15.93,1.25,30.13,9.74,42.49,19.2
			c26.63,20.34,47.48,46.73,61.49,76.02c0.05,0.09,0.09,0.19,0.14,0.28c20.85,43.79,26.41,94.06,13.1,140.41
			c-18.77,65.34-69.6,117.81-103.91,177.38c-34.32,59.58-49.06,140.24,0.15,189.88c42.28,42.68,113.67,44.36,175.15,35.03
			c61.48-9.32,124.83-26.47,184.76-10.65s109.2,83.26,75.89,132.35c-4.72,6.95-10.5,12.81-17.07,17.78
			c-25.71,19.45-63.53,25.34-97.62,30.15c-91.84,12.97-182.56,32.84-270.98,59.38c-44.86,13.46-90.47,29.5-129.08,53.98
			c-17.86,11.31-34.22,24.45-48.31,39.96c-44.56,49.06-57.79,128.43-11.95,176.43c23.87,25,58.96,37.41,94.78,42.99
			c3.44,0.53,6.89,1,10.33,1.41c3.3,0.4,6.61,0.74,9.9,1.04c41.29,3.7,85.99,0.06,118.7-23.72c0.3-0.22,0.6-0.44,0.89-0.67
			c32.07-24.02,45.28-72.37,18.65-101.55c-22.29-24.43-64.54-26.54-94.36-10.61c-1.03,0.55-2.04,1.12-3.04,1.7
			c-28.07,16.31-45.71,45.26-54.87,75.02c-4.87,15.8-7.01,32.54-6.59,49.28c0.06,2.7,0.2,5.4,0.39,8.1
			c4.5,61,42.59,120.12,105.49,132.42c57.92,11.34,112.19-17.8,165.75-45.12c13.11-6.68,26.18-13.27,39.25-19.12
			c56.14-25.13,118.7-37.65,180.94-36.2c18.33,0.43,37.28,2.23,53.18,10.73c32.94,17.59,42.83,59.63,32.77,93.77
			c-9.29,31.47-31.22,56.8-59.24,76.43c-27.7,19.42-61.35,33.29-94.62,42.05c-66.95,17.65-138.31,21.49-202.05,47.5
			c-15.66,6.38-30.6,14.16-44.69,23.11c-71.61,45.48-120.97,121.51-128.31,202.27c-0.44,5.01,1.82,17.74,2.65,22.7
			c8.82,52.45,64.04,49.61,77.85,47.92c67.94-8.36,86.53-19.91,155.34-19.84c63.43,0.06,140.07,22.68,156.3,79.89
			c11.28,39.73-15.21,80.6-50.57,105.98c-2.68,1.93-5.41,3.76-8.18,5.5c-39.31,24.68-86.24,36.43-127.99,57.33
			c-9.09,4.55-17.91,9.55-26.42,14.96c-60.34,38.34-105.49,97.37-123.85,163.37c-14.22,51.07-7.46,98.76,12.4,144.58
			c9.42,21.75,21.8,43.08,36.28,64.15"/>
		<path class="st1" d="M751.97,4678.99c0.44,60.59-22.72,128.2-76.67,164.59c-2.17,1.47-4.4,2.88-6.68,4.25
			c-0.56,0.34-1.13,0.68-1.7,1.01c-0.44,0.26-0.89,0.51-1.34,0.75c-40.58,22.95-98.3,27.43-131.41-4.15
			c-24.5-23.39-18.87-66.76,4.63-86.83c8.6-7.36,19.58-11.59,32.35-10.58c15.93,1.25,30.14,9.74,42.51,19.19
			c26.53,20.28,47.33,46.54,61.33,75.71c0.1,0.21,0.21,0.43,0.31,0.65c20.83,43.78,26.39,94.04,13.08,140.36
			c-18.77,65.32-69.6,117.8-103.9,177.38c-34.33,59.57-49.07,140.23,0.14,189.89c42.29,42.67,113.67,44.35,175.15,35.01
			c61.49-9.32,124.83-26.46,184.77-10.64c59.92,15.82,109.2,83.25,75.88,132.35c-6.9,10.16-16.05,17.98-26.64,24.11
			c-25,14.47-57.99,19.56-88.06,23.8c-91.83,12.97-182.55,32.85-270.98,59.38c-48.62,14.59-98.14,32.22-138.65,60.33
			c-14.16,9.82-27.21,20.91-38.75,33.61c-44.56,49.07-57.79,128.43-11.94,176.45c21.65,22.66,52.52,34.99,84.81,41.23
			c3.31,0.65,6.63,1.23,9.96,1.75c6.75,1.05,13.52,1.85,20.24,2.46c37.74,3.38,78.34,0.64,110.01-18.05
			c2.97-1.75,5.87-3.64,8.67-5.68c32.71-23.78,46.42-72.76,19.54-102.22c-22.28-24.43-64.53-26.54-94.36-10.6
			c-4.45,2.38-8.65,5.06-12.61,8.03c-22.56,16.85-37.21,42.45-45.31,68.67c-5.65,18.35-7.63,37.96-6.2,57.38
			c0.19,2.59,0.45,5.18,0.76,7.76c7.02,58.17,44.5,112.89,104.73,124.66c54.29,10.63,105.38-14.31,155.67-39.97
			c16.5-8.41,32.91-16.91,49.33-24.26c56.13-25.13,118.69-37.65,180.94-36.2c18.32,0.42,37.27,2.22,53.17,10.71
			c32.94,17.59,42.84,59.63,32.77,93.77c-10.32,34.98-36.25,62.36-68.81,82.78c-25.69,16.13-55.52,27.92-85.06,35.72
			c-66.95,17.65-138.31,21.5-202.06,47.5c-19.25,7.85-37.42,17.79-54.24,29.45c-66.42,46.01-111.74,118.81-118.74,195.92
			c-0.45,5.01,1.81,17.74,2.64,22.71c8.83,52.44,64.05,49.6,77.85,47.91c67.94-8.36,86.53-19.9,155.34-19.84
			c63.43,0.06,140.07,22.68,156.31,79.89c12.13,42.75-19.45,86.8-58.76,111.48c-0.46,0.28-0.92,0.58-1.38,0.84
			c-39.02,24.11-85.34,35.83-126.61,56.5c-12.54,6.28-24.56,13.41-35.99,21.3c-55.53,38.34-96.9,94.57-114.29,157.03
			c-13.73,49.31-12.38,102.03,2.84,150.93c8.01,25.78,19.88,50.49,35.41,73.1"/>
	</g>
</g>
<g id="XMLID_00000109022921978664917650000005950021372917504916_">
	<g>
		<path class="st0" d="M444.6,7717.27c-59.92,15.83-109.2,83.26-75.88,132.35c6.89,10.14,16.02,17.96,26.59,24.08
			c-6.55-4.96-12.32-10.8-17.02-17.74c-33.32-49.09,15.97-116.52,75.89-132.36c59.93-15.82,123.28,1.33,184.75,10.66
			c61.49,9.32,132.89,7.64,175.16-35.03c49.21-49.65,34.46-130.3,0.15-189.88c-34.32-59.57-85.14-112.04-103.91-177.38
			c-13.32-46.35-7.76-96.62,13.11-140.42c-0.98-0.66-1.95-1.35-2.91-2.05c-2.28-1.37-4.51-2.78-6.68-4.25
			c-20.84,43.79-26.39,94.03-13.08,140.37c18.77,65.32,69.59,117.8,103.9,177.38c34.33,59.57,49.07,140.23-0.14,189.88
			c-42.29,42.67-113.67,44.36-175.16,35.02C567.88,7718.6,504.53,7701.45,444.6,7717.27z"/>
		<path class="st0" d="M408.36,8928.82c-12.13,42.75,19.45,86.8,58.76,111.49c0.5,0.32,1,0.62,1.5,0.93
			c-35.42-25.39-61.98-66.3-50.7-106.07c16.23-57.22,92.88-79.83,156.31-79.89c68.81-0.08,87.39,11.46,155.34,19.83
			c13.81,1.7,69.03,4.55,77.85-47.91c0.84-4.95,3.1-17.7,2.65-22.7c-7.35-80.76-56.7-156.78-128.3-202.26
			c66.41,46.01,111.73,118.8,118.73,195.91c0.45,5.01-1.81,17.74-2.64,22.71c-8.83,52.44-64.05,49.6-77.85,47.91
			c-67.94-8.36-86.53-19.9-155.34-19.84C501.24,8848.99,424.59,8871.6,408.36,8928.82z"/>
		<path class="st0" d="M593.3,8365.56c-18.36-9.31-36.6-18.9-54.83-27.06c-56.13-25.13-118.69-37.66-180.94-36.21
			c-18.32,0.43-37.27,2.23-53.17,10.72c-32.94,17.59-42.84,59.63-32.77,93.77c10.32,34.98,36.25,62.36,68.81,82.78
			c-28.03-19.63-49.96-44.96-59.24-76.43c-10.06-34.13-0.16-76.18,32.77-93.77c15.9-8.5,34.85-10.3,53.18-10.72
			c62.24-1.44,124.8,11.08,180.94,36.2c14.9,6.67,29.79,14.28,44.75,21.92L593.3,8365.56z"/>
		<path class="st0" d="M593.3,8365.56l-0.51,1.2c51.76,26.47,104.3,53.26,160.24,42.32c62.9-12.31,100.98-71.44,105.49-132.42
			c-3.44,0.53-6.89,1-10.33,1.41c-7.02,58.17-44.5,112.88-104.73,124.66C691.16,8412.97,641.82,8390.19,593.3,8365.56z"/>
		<path class="st0" d="M476.69,9046.65c39.31,24.68,86.24,36.43,127.99,57.32c9.09,4.55,17.92,9.55,26.43,14.96
			c-11.43-7.89-23.45-15.02-36-21.3c-41.23-20.64-87.49-32.35-126.49-56.4C471.26,9043.13,473.95,9044.93,476.69,9046.65z"/>
		<path class="st0" d="M681.76,8602.23c-16.83-11.67-35.01-21.61-54.26-29.47c-63.74-26.01-135.09-29.85-202.05-47.49
			c-29.54-7.79-59.37-19.59-85.06-35.72c27.7,19.42,61.35,33.29,94.62,42.05c66.95,17.65,138.31,21.49,202.05,47.5
			C652.73,8585.51,667.68,8593.27,681.76,8602.23z"/>
		<path class="st0" d="M714.13,7184.62c-46.29-37.6-72.97-105.83-76.34-163.98l-0.64,0.04c-0.44,60.59,22.72,128.19,76.67,164.58
			C713.92,7185.05,714.02,7184.84,714.13,7184.62z"/>
		<path class="st0" d="M754.95,9282.32c-18.36-65.99-63.51-125.04-123.84-163.38c55.52,38.35,96.89,94.58,114.28,157.04
			c13.73,49.32,12.37,102.04-2.85,150.95C762.41,9381.09,769.17,9333.39,754.95,9282.32z"/>
		<path class="st0" d="M714.13,7184.62c-0.11,0.22-0.21,0.43-0.31,0.65c2.17,1.47,4.4,2.88,6.68,4.25
			C718.34,7187.95,716.22,7186.32,714.13,7184.62z"/>
		<path class="st0" d="M718.71,8254.72c0.29,0.23,0.59,0.45,0.89,0.67c32.71,23.78,77.41,27.42,118.7,23.72
			c3.29-0.3,6.6-0.64,9.9-1.04c0.32-2.58,0.58-5.17,0.76-7.76c-6.74,1.05-13.51,1.85-20.24,2.45
			C790.99,8276.14,750.4,8273.39,718.71,8254.72z"/>
		<path class="st0" d="M714.13,7184.62c2.08,1.7,4.2,3.33,6.37,4.89c0.56,0.34,1.13,0.68,1.7,1.01c0.44,0.26,0.89,0.51,1.34,0.77
			c14.01-29.29,34.85-55.68,61.49-76.02c12.36-9.47,26.57-17.94,42.49-19.2c8.45-0.67,16.11,0.96,22.82,4.25
			c-8.61-7.37-19.6-11.61-32.39-10.6c-15.93,1.26-30.13,9.74-42.5,19.2C748.93,7129.2,728.13,7155.46,714.13,7184.62z"/>
		<path class="st0" d="M722.21,7190.52c-0.57-0.33-1.14-0.67-1.7-1.01c0.96,0.7,1.93,1.39,2.91,2.05c0.04-0.1,0.09-0.19,0.13-0.27
			C723.1,7191.04,722.65,7190.79,722.21,7190.52z"/>
		<path class="st0" d="M731.78,7196.86c40.63,23.62,99.27,28.55,132.74-3.38c27.54-26.28,17.02-77.81-14.16-93.14
			c23.47,20.1,29.08,63.43,4.59,86.79c-33.1,31.58-90.83,27.11-131.41,4.16c-0.04,0.09-0.09,0.18-0.13,0.27
			C726.15,7193.45,728.93,7195.21,731.78,7196.86z"/>
		<path class="st0" d="M710.04,8249.04c2.8,2.04,5.7,3.93,8.67,5.68c-32.08-24.02-45.28-72.38-18.65-101.56
			c22.29-24.41,64.54-26.53,94.36-10.6c1.03,0.55,2.04,1.12,3.04,1.7c-3.95-2.97-8.15-5.65-12.61-8.03
			c-29.83-15.94-72.08-13.82-94.36,10.59C663.62,8176.28,677.33,8225.26,710.04,8249.04z"/>
		<path class="st0" d="M797.46,8144.25c22.56,16.85,37.21,42.45,45.31,68.67c5.65,18.35,7.63,37.96,6.2,57.38
			c3.33-0.52,6.65-1.1,9.96-1.75c0.43-16.76-1.72-33.49-6.59-49.29C843.17,8189.51,825.53,8160.55,797.46,8144.25z"/>
		<path class="st0" d="M848.97,8270.3c-0.19,2.59-0.45,5.18-0.76,7.76c3.44-0.41,6.89-0.88,10.33-1.41c0.2-2.7,0.34-5.4,0.39-8.1
			C855.61,8269.2,852.3,8269.79,848.97,8270.3z"/>
		<path class="st0" d="M893.04,8017.26c-40.51-28.11-90.03-45.74-138.65-60.33c-88.43-26.54-179.15-46.41-270.98-59.38
			c-30.08-4.24-63.08-9.33-88.08-23.82c25.7,19.46,63.54,25.36,97.64,30.17c91.84,12.96,182.56,32.84,270.98,59.38
			C808.82,7976.73,854.43,7992.78,893.04,8017.26z"/>
		<path class="st0" d="M941.35,8057.22c-14.09-15.51-30.45-28.65-48.31-39.96c14.16,9.82,27.21,20.91,38.75,33.61
			c44.56,49.06,57.79,128.43,11.94,176.44c-21.65,22.67-52.52,35-84.81,41.24c-0.06,2.7-0.2,5.4-0.39,8.1
			c35.82-5.58,70.91-18,94.78-43C999.15,8185.64,985.91,8106.27,941.35,8057.22z"/>
	</g>
	<g>
		<path class="st1" d="M395.33,7873.73c25.7,19.46,63.54,25.36,97.64,30.17c91.84,12.96,182.56,32.84,270.98,59.38
			c44.86,13.46,90.47,29.5,129.08,53.98c17.86,11.31,34.22,24.45,48.31,39.96c44.56,49.05,57.79,128.42,11.95,176.42
			c-23.87,25.01-58.96,37.42-94.78,43c-3.44,0.53-6.89,1-10.33,1.41c-3.3,0.4-6.61,0.74-9.9,1.04c-41.29,3.7-85.99,0.06-118.7-23.72
			c-0.3-0.22-0.6-0.44-0.89-0.67c-32.08-24.02-45.28-72.38-18.65-101.56c22.29-24.41,64.54-26.53,94.36-10.6
			c1.03,0.55,2.04,1.12,3.04,1.7c28.06,16.3,45.71,45.26,54.87,75.01c4.87,15.81,7.02,32.54,6.59,49.29c-0.06,2.7-0.2,5.4-0.39,8.1
			c-4.51,60.99-42.59,120.11-105.49,132.42c-55.94,10.95-108.48-15.85-160.24-42.32c-14.96-7.63-29.85-15.25-44.75-21.92
			c-56.14-25.13-118.7-37.65-180.94-36.2c-18.33,0.42-37.28,2.23-53.18,10.72c-32.94,17.59-42.83,59.63-32.77,93.77
			c9.29,31.47,31.22,56.8,59.24,76.43c27.7,19.42,61.35,33.29,94.62,42.05c66.95,17.65,138.31,21.49,202.05,47.5
			c15.67,6.4,30.61,14.16,44.7,23.12c71.61,45.48,120.96,121.49,128.3,202.26c0.44,5-1.82,17.74-2.65,22.7
			c-8.82,52.45-64.04,49.6-77.85,47.91c-67.95-8.36-86.53-19.9-155.34-19.83c-63.43,0.06-140.07,22.68-156.31,79.89
			c-11.29,39.77,15.28,80.68,50.7,106.07c2.64,1.89,5.33,3.7,8.06,5.42c39.31,24.68,86.24,36.43,127.99,57.32
			c9.09,4.55,17.92,9.55,26.43,14.96c60.33,38.35,105.48,97.39,123.84,163.38c14.22,51.07,7.46,98.77-12.41,144.6
			c-9.42,21.74-21.79,43.06-36.27,64.13"/>
		<path class="st1" d="M850.36,7100.32c-6.71-3.29-14.37-4.92-22.82-4.25c-15.93,1.25-30.13,9.73-42.49,19.2
			c-26.63,20.34-47.48,46.73-61.49,76.02c-0.04,0.09-0.09,0.18-0.13,0.27c-20.86,43.8-26.42,94.07-13.11,140.42
			c18.77,65.34,69.6,117.81,103.91,177.38c34.32,59.58,49.06,140.23-0.15,189.88c-42.28,42.67-113.67,44.35-175.16,35.03
			c-61.47-9.33-124.82-26.47-184.75-10.66c-59.93,15.84-109.21,83.27-75.89,132.36c4.71,6.93,10.47,12.78,17.02,17.74"/>
		<path class="st1" d="M637.44,7011.75c0.05,2.94,0.16,5.91,0.35,8.9c3.38,58.15,30.05,126.38,76.34,163.98
			c2.08,1.7,4.2,3.33,6.37,4.89c0.96,0.7,1.93,1.39,2.91,2.05c2.73,1.88,5.51,3.64,8.36,5.3c40.63,23.62,99.27,28.55,132.74-3.38
			c27.54-26.28,17.02-77.81-14.16-93.14"/>
		<path class="st1" d="M637.15,7020.69c-0.44,60.59,22.72,128.19,76.67,164.58c2.17,1.47,4.4,2.88,6.68,4.25
			c0.56,0.34,1.13,0.68,1.7,1.01c0.44,0.26,0.89,0.51,1.34,0.77c40.58,22.95,98.3,27.42,131.41-4.16
			c24.49-23.36,18.88-66.7-4.59-86.79c-0.01,0-0.01,0-0.01-0.01c-8.61-7.37-19.6-11.61-32.39-10.6c-15.93,1.26-30.13,9.74-42.5,19.2
			c-26.53,20.28-47.33,46.54-61.33,75.7c-0.11,0.22-0.21,0.43-0.31,0.65c-20.84,43.79-26.39,94.03-13.08,140.37
			c18.77,65.32,69.59,117.8,103.9,177.38c34.33,59.57,49.07,140.23-0.14,189.88c-42.29,42.67-113.67,44.36-175.16,35.02
			c-61.48-9.32-124.82-26.47-184.76-10.65c-59.92,15.83-109.2,83.26-75.88,132.35c6.89,10.14,16.02,17.96,26.59,24.08
			c0.01,0.01,0.02,0.02,0.03,0.02c25,14.5,58,19.58,88.08,23.82c91.83,12.97,182.55,32.84,270.98,59.38
			c48.62,14.59,98.14,32.22,138.65,60.33c14.16,9.82,27.21,20.91,38.75,33.61c44.56,49.06,57.79,128.43,11.94,176.44
			c-21.65,22.67-52.52,35-84.81,41.24c-3.31,0.65-6.63,1.23-9.96,1.75c-6.74,1.05-13.51,1.85-20.24,2.45
			c-37.74,3.38-78.33,0.64-110.01-18.04c-2.97-1.75-5.87-3.64-8.67-5.68c-32.71-23.78-46.42-72.76-19.54-102.23
			c22.28-24.41,64.53-26.53,94.36-10.59c4.45,2.38,8.65,5.06,12.61,8.03c22.56,16.85,37.21,42.45,45.31,68.67
			c5.65,18.35,7.63,37.96,6.2,57.38c-0.19,2.59-0.45,5.18-0.76,7.76c-7.02,58.17-44.5,112.88-104.73,124.66
			c-52.31,10.24-101.65-12.54-150.17-37.17c-18.36-9.31-36.6-18.9-54.83-27.06c-56.13-25.13-118.69-37.66-180.94-36.21
			c-18.32,0.43-37.27,2.23-53.17,10.72c-32.94,17.59-42.84,59.63-32.77,93.77c10.32,34.98,36.25,62.36,68.81,82.78
			c25.69,16.13,55.52,27.92,85.06,35.72c66.95,17.64,138.31,21.49,202.05,47.49c19.26,7.86,37.43,17.8,54.26,29.47
			c66.41,46.01,111.73,118.8,118.73,195.91c0.45,5.01-1.81,17.74-2.64,22.71c-8.83,52.44-64.05,49.6-77.85,47.91
			c-67.94-8.36-86.53-19.9-155.34-19.84c-63.43,0.06-140.07,22.68-156.31,79.89c-12.13,42.75,19.45,86.8,58.76,111.49
			c0.5,0.32,1,0.62,1.5,0.93c39,24.05,85.26,35.76,126.49,56.4c12.55,6.28,24.57,13.41,36,21.3
			c55.52,38.35,96.89,94.58,114.28,157.04c13.73,49.32,12.37,102.04-2.85,150.95c-8.01,25.77-19.87,50.48-35.4,73.08"/>
	</g>
</g>
</svg>
