<?xml version="1.0" encoding="utf-8"?>
<!-- Generator: Adobe Illustrator 28.0.0, SVG Export Plug-In . SVG Version: 6.00 Build 0)  -->
<svg version="1.1" id="Layer_1" xmlns="http://www.w3.org/2000/svg" xmlns:xlink="http://www.w3.org/1999/xlink" x="0px" y="0px"
	 viewBox="0 0 1519 9500" style="enable-background:new 0 0 1519 9500;" xml:space="preserve">
<style type="text/css">
	.st0{fill:#AD354C;}
	.st1{fill:none;stroke:#AD354C;stroke-linecap:round;stroke-linejoin:round;}
</style>
<g>
	<g>
		<path class="st0" d="M4164.14,3546.88c3.22,0,3.22-5,0-5C4160.92,3541.88,4160.91,3546.88,4164.14,3546.88L4164.14,3546.88z"/>
	</g>
</g>
<g>
	<g>
		<path class="st0" d="M6350.74,2710.39c3.22,0,3.22-5,0-5C6347.52,2705.39,6347.51,2710.39,6350.74,2710.39L6350.74,2710.39z"/>
	</g>
</g>
<g id="XMLID_00000064332914111526217010000011267977066549121428_">
	<g>
		<path class="st0" d="M562.25,951.55C510,964.98,456.87,981,411.88,1005.45c47.21-28.08,104.88-45.68,161.52-60.25
			c103.07-26.54,208.82-46.42,315.87-59.38c35.09-4.24,73.58-9.34,102.72-23.85c-29.95,19.48-74.09,25.38-113.87,30.18
			C771.06,905.13,665.31,925,562.25,951.55z"/>
		<path class="st0" d="M717.11,2107.2c-64.72,38.35-112.94,94.58-133.21,157.03c-16.06,49.47-14.38,102.37,3.53,151.39
			c-23.33-45.97-31.32-93.81-14.68-145.04C594.15,2204.59,646.78,2145.55,717.11,2107.2z"/>
		<path class="st0" d="M463.14,1258.57c0.23,2.59,0.52,5.18,0.89,7.76c-4.01-0.41-8.03-0.88-12.04-1.42
			c-0.23-2.7-0.39-5.39-0.46-8.09C455.39,1257.47,459.26,1258.05,463.14,1258.57z"/>
		<path class="st0" d="M366.6,1039.15c-51.93,49.06-67.37,128.42-13.91,176.43c25.23,22.67,61.22,35,98.85,41.24
			c0.07,2.7,0.23,5.39,0.46,8.09c-41.75-5.58-82.64-18-110.47-42.99c-53.45-48.01-38.01-127.38,13.92-176.42
			c16.45-15.55,35.57-28.7,56.43-40.04C395.34,1015.29,380.07,1026.41,366.6,1039.15z"/>
		<path class="st0" d="M610.91,178.79c0.66-0.33,1.32-0.67,1.97-1.01c-1.12,0.7-2.24,1.38-3.37,2.05c-0.05-0.09-0.1-0.19-0.16-0.29
			C609.87,179.31,610.39,179.05,610.91,178.79z"/>
		<path class="st0" d="M658.05,1590.5c-77.41,46.01-130.24,118.8-138.39,195.91c-0.53,5,2.09,17.74,3.07,22.71
			c10.3,52.44,74.67,49.59,90.76,47.9c79.19-8.36,100.85-19.89,181.06-19.83c73.94,0.06,163.29,22.68,182.22,79.89
			c14.12,42.74-22.67,86.79-68.51,111.48c-0.58,0.32-1.17,0.62-1.75,0.93c41.3-25.39,72.25-66.3,59.1-106.08
			c-18.91-57.21-108.27-79.82-182.21-79.88c-80.21-0.08-101.87,11.46-181.06,19.83c-16.1,1.7-80.47,4.55-90.76-47.92
			c-0.97-4.95-3.6-17.69-3.08-22.69C517.05,1712,574.58,1635.97,658.05,1590.5z"/>
		<path class="st0" d="M759.07,2085.9c48.07-20.64,101.98-32.35,147.45-56.4c-3.08,1.88-6.22,3.69-9.4,5.41
			c-45.82,24.69-100.52,36.44-149.19,57.33c-10.6,4.55-20.89,9.55-30.81,14.96C730.43,2099.31,744.44,2092.18,759.07,2085.9z"/>
		<path class="st0" d="M620.66,173.49c24.32,43.8,30.8,94.07,15.28,140.43c-21.88,65.32-81.13,117.8-121.13,177.38
			c-40.02,59.57-57.21,140.22,0.16,189.88c49.3,42.67,132.52,44.35,204.19,35.02c71.66-9.33,145.51-26.47,215.37-10.65
			c69.86,15.82,127.31,83.25,88.46,132.35c-8.01,10.13-18.64,17.94-30.96,24.07c7.63-4.96,14.33-10.8,19.81-17.72
			c38.84-49.1-18.6-116.53-88.47-132.36c-69.86-15.82-143.71,1.33-215.36,10.66c-71.66,9.32-154.89,7.64-204.19-35.03
			c-57.36-49.66-40.18-130.31-0.17-189.88c40.01-59.58,99.26-112.05,121.14-177.38c15.52-46.34,9.03-96.62-15.28-140.42
			c1.13-0.67,2.25-1.35,3.37-2.05c0.02,0,0.03-0.01,0.05-0.03C615.56,176.41,618.14,174.97,620.66,173.49z"/>
		<path class="st0" d="M813.93,1333.11c-17.36,6.67-34.73,14.28-52.16,21.93l-0.59-1.19c21.4-9.32,42.66-18.91,63.92-27.07
			c65.44-25.13,138.37-37.66,210.93-36.22c21.36,0.42,43.44,2.23,61.98,10.72c38.38,17.59,49.94,59.63,38.19,93.76
			c-12.03,34.97-42.22,62.34-80.15,82.75c32.64-19.63,58.18-44.95,69-76.41c11.74-34.14,0.19-76.18-38.19-93.77
			c-18.54-8.49-40.63-10.29-61.99-10.71C952.31,1295.46,879.38,1307.98,813.93,1333.11z"/>
		<path class="st0" d="M599.74,185.13c-47.36,23.61-115.72,28.55-154.72-3.38c-32.11-26.28-19.85-77.81,16.49-93.14
			c-27.35,20.09-33.9,63.42-5.35,86.79c38.59,31.58,105.88,27.11,153.18,4.15c0.06,0.1,0.12,0.2,0.16,0.29
			C606.32,181.7,603.07,183.48,599.74,185.13z"/>
		<path class="st0" d="M761.17,1353.84l0.59,1.19c-60.34,26.46-121.59,53.25-186.8,42.31c-73.31-12.31-117.72-71.44-122.97-132.43
			c4.01,0.54,8.03,1.01,12.04,1.42c8.2,58.17,51.88,112.88,122.08,124.66C647.1,1401.23,704.61,1378.46,761.17,1353.84z"/>
		<path class="st0" d="M647.87,1135.08c31.33,29.46,15.36,78.45-22.78,102.23c-3.28,2.05-6.66,3.94-10.14,5.69
			c37.41-24,52.83-72.38,21.77-101.57c-25.98-24.41-75.23-26.54-110-10.6c-1.2,0.55-2.38,1.12-3.55,1.7
			c4.61-2.97,9.51-5.66,14.7-8.03C572.65,1108.54,621.9,1110.66,647.87,1135.08z"/>
		<path class="st0" d="M463.14,1258.57c-3.88-0.52-7.75-1.1-11.61-1.75c-0.5-16.74,2-33.49,7.68-49.29
			c10.68-29.75,31.25-58.71,63.96-75.01c-26.3,16.85-43.38,42.45-52.81,68.66C463.76,1219.53,461.47,1239.15,463.14,1258.57z"/>
		<path class="st0" d="M721.31,1561.03c74.3-26.01,157.48-29.85,235.54-47.49c34.45-7.8,69.24-19.6,99.2-35.75
			c-32.3,19.45-71.54,33.31-110.35,42.09c-78.06,17.65-161.24,21.49-235.54,47.5c-18.26,6.38-35.68,14.15-52.11,23.12
			C677.67,1578.84,698.86,1568.89,721.31,1561.03z"/>
		<path class="st0" d="M620.32,172.88c0.12,0.2,0.22,0.39,0.34,0.6c-2.52,1.49-5.1,2.92-7.73,4.27
			C615.44,176.2,617.9,174.58,620.32,172.88z"/>
		<path class="st0" d="M620.32,172.88c56.74-39.53,88.2-112.93,89.41-172.88c0.51,60.61-26.21,136.32-89.07,173.48
			C620.54,173.28,620.43,173.08,620.32,172.88z"/>
		<path class="st0" d="M464.03,1266.33c-0.37-2.58-0.66-5.17-0.89-7.76c7.86,1.05,15.75,1.85,23.59,2.45
			c43.98,3.38,91.3,0.64,128.22-18.03c-0.33,0.22-0.66,0.44-1,0.65c-38.14,23.79-90.25,27.43-138.38,23.73
			C471.74,1267.07,467.88,1266.73,464.03,1266.33z"/>
		<path class="st0" d="M609.34,179.55c-16.32-29.29-40.63-55.67-71.67-76.02c-14.41-9.46-30.98-17.93-49.55-19.19
			c-9.85-0.67-18.78,0.96-26.61,4.25c10.03-7.37,22.85-11.61,37.76-10.6c18.57,1.26,35.14,9.74,49.56,19.2
			c30.92,20.27,55.15,46.53,71.48,75.69c-2.41,1.7-4.88,3.32-7.4,4.87c-0.01,0.02-0.02,0.03-0.05,0.03
			c-0.65,0.34-1.31,0.68-1.97,1.01C610.39,179.05,609.87,179.31,609.34,179.55z"/>
	</g>
	<g>
		<path class="st1" d="M991.99,861.97c-29.95,19.48-74.09,25.38-113.87,30.18C771.06,905.13,665.31,925,562.25,951.55
			C510,964.98,456.87,981,411.88,1005.45c-20.87,11.34-39.98,24.49-56.43,40.04c-51.93,49.05-67.37,128.42-13.92,176.42
			c27.83,25,68.72,37.41,110.47,42.99c4.01,0.54,8.03,1.01,12.04,1.42c3.85,0.4,7.7,0.74,11.54,1.04
			c48.13,3.7,100.24,0.06,138.38-23.73c0.34-0.21,0.68-0.43,1-0.65c37.41-24,52.83-72.38,21.77-101.57
			c-25.98-24.41-75.23-26.54-110-10.6c-1.2,0.55-2.38,1.12-3.55,1.7c-32.71,16.3-53.28,45.26-63.96,75.01
			c-5.68,15.81-8.18,32.55-7.68,49.29c0.07,2.7,0.23,5.39,0.46,8.09c5.26,61,49.66,120.12,122.97,132.43
			c65.21,10.95,126.46-15.85,186.8-42.31c17.43-7.65,34.8-15.26,52.16-21.93c65.45-25.13,138.38-37.65,210.93-36.2
			c21.37,0.42,43.46,2.23,61.99,10.71c38.38,17.59,49.93,59.63,38.19,93.77c-10.82,31.46-36.37,56.78-69,76.41
			c-32.3,19.45-71.54,33.31-110.35,42.09c-78.06,17.65-161.24,21.49-235.54,47.5c-18.26,6.38-35.68,14.15-52.11,23.12
			c-83.47,45.47-141,121.49-149.55,202.26c-0.52,5,2.1,17.73,3.08,22.69c10.29,52.46,74.66,49.61,90.76,47.92
			c79.19-8.36,100.85-19.9,181.06-19.83c73.94,0.06,163.29,22.68,182.21,79.88c13.16,39.78-17.8,80.69-59.1,106.08
			c-3.08,1.88-6.22,3.69-9.4,5.41c-45.82,24.69-100.52,36.44-149.19,57.33c-10.6,4.55-20.89,9.55-30.81,14.96
			c-70.33,38.35-122.96,97.39-144.36,163.37c-16.64,51.24-8.65,99.08,14.68,145.04c10.96,21.59,25.3,42.77,42.07,63.7"/>
		<path class="st1" d="M461.52,88.59c7.83-3.29,16.76-4.92,26.61-4.25c18.57,1.25,35.14,9.73,49.55,19.19
			c31.04,20.35,55.35,46.73,71.67,76.02c0.06,0.1,0.12,0.2,0.16,0.29c24.31,43.8,30.8,94.08,15.28,140.42
			c-21.88,65.32-81.14,117.8-121.14,177.38c-40.01,59.57-57.19,140.23,0.17,189.88c49.29,42.67,132.52,44.35,204.19,35.03
			c71.65-9.33,145.51-26.47,215.36-10.66c69.87,15.83,127.31,83.26,88.47,132.36c-5.49,6.92-12.18,12.77-19.81,17.72"/>
		<path class="st1" d="M612.88,177.79c-1.12,0.7-2.24,1.38-3.37,2.05c-3.18,1.87-6.44,3.64-9.76,5.3
			c-47.36,23.61-115.72,28.55-154.72-3.38c-32.11-26.28-19.85-77.81,16.49-93.14"/>
		<path class="st1" d="M709.73,0.01c-1.21,59.95-32.67,133.34-89.41,172.88c-2.41,1.7-4.88,3.32-7.4,4.87"/>
		<path class="st1" d="M709.73,0.01c0.51,60.61-26.21,136.32-89.07,173.48c-2.52,1.49-5.1,2.92-7.73,4.27
			c-0.01,0.02-0.02,0.03-0.05,0.03c-0.65,0.34-1.31,0.68-1.97,1.01c-0.51,0.26-1.04,0.51-1.56,0.75
			c-47.3,22.96-114.59,27.43-153.18-4.15c-28.55-23.38-22-66.71,5.35-86.79c0.01,0,0.01-0.01,0.01-0.01
			c10.03-7.37,22.85-11.61,37.76-10.6c18.57,1.26,35.14,9.74,49.56,19.2c30.92,20.27,55.15,46.53,71.48,75.69
			c0.12,0.2,0.22,0.39,0.34,0.6c24.32,43.8,30.8,94.07,15.28,140.43c-21.88,65.32-81.13,117.8-121.13,177.38
			c-40.02,59.57-57.21,140.22,0.16,189.88c49.3,42.67,132.52,44.35,204.19,35.02c71.66-9.33,145.51-26.47,215.37-10.65
			c69.86,15.82,127.31,83.25,88.46,132.35c-8.01,10.13-18.64,17.94-30.96,24.07c-0.01,0.01-0.01,0.01-0.02,0.01
			c-29.14,14.51-67.63,19.6-102.72,23.85c-107.05,12.96-212.8,32.84-315.87,59.38c-56.64,14.57-114.3,32.18-161.52,60.25
			c-16.54,9.84-31.81,20.96-45.28,33.69c-51.93,49.06-67.37,128.42-13.91,176.43c25.23,22.67,61.22,35,98.85,41.24
			c3.86,0.65,7.73,1.23,11.61,1.75c7.86,1.05,15.75,1.85,23.59,2.45c43.98,3.38,91.3,0.64,128.22-18.03
			c3.48-1.75,6.86-3.64,10.14-5.69c38.14-23.78,54.11-72.77,22.78-102.23c-25.97-24.41-75.22-26.54-110-10.59
			c-5.19,2.37-10.09,5.07-14.7,8.03c-26.3,16.85-43.38,42.45-52.81,68.66c-6.6,18.35-8.9,37.97-7.22,57.39
			c0.23,2.59,0.52,5.18,0.89,7.76c8.2,58.17,51.88,112.88,122.08,124.66c60.98,10.23,118.49-12.54,175.05-37.15
			c21.4-9.32,42.66-18.91,63.92-27.07c65.44-25.13,138.37-37.66,210.93-36.22c21.36,0.42,43.44,2.23,61.98,10.72
			c38.38,17.59,49.94,59.63,38.19,93.76c-12.03,34.97-42.22,62.34-80.15,82.75c-29.96,16.15-64.75,27.95-99.2,35.75
			c-78.06,17.64-161.24,21.49-235.54,47.49c-22.45,7.86-43.64,17.8-63.26,29.47c-77.41,46.01-130.24,118.8-138.39,195.91
			c-0.53,5,2.09,17.74,3.07,22.71c10.3,52.44,74.67,49.59,90.76,47.9c79.19-8.36,100.85-19.89,181.06-19.83
			c73.94,0.06,163.29,22.68,182.22,79.89c14.12,42.74-22.67,86.79-68.51,111.48c-0.58,0.32-1.17,0.62-1.75,0.93
			c-45.46,24.05-99.38,35.76-147.45,56.4c-14.62,6.28-28.64,13.41-41.96,21.3c-64.72,38.35-112.94,94.58-133.21,157.03
			c-16.06,49.47-14.38,102.37,3.53,151.39c5.73,15.69,13.12,30.98,22.13,45.64"/>
	</g>
</g>
<g id="XMLID_00000060708948118504223850000017962093420134705329_">
	<g>
		<path class="st0" d="M812.16,3584.48c-0.23,2.59-0.52,5.18-0.89,7.76c4.01-0.41,8.03-0.88,12.04-1.42
			c0.23-2.7,0.39-5.39,0.46-8.09C819.91,3583.37,816.04,3583.96,812.16,3584.48z"/>
		<path class="st0" d="M660.35,3568.9c0.33,0.22,0.66,0.44,1,0.65c38.14,23.79,90.25,27.43,138.38,23.73
			c3.83-0.3,7.69-0.64,11.54-1.04c0.37-2.58,0.66-5.17,0.89-7.76c-7.86,1.05-15.75,1.85-23.59,2.45
			C744.59,3590.31,697.27,3587.56,660.35,3568.9z"/>
		<path class="st0" d="M919.86,3371.39c-16.45-15.55-35.57-28.7-56.43-40.04c16.54,9.84,31.81,20.96,45.28,33.69
			c51.93,49.06,67.37,128.42,13.91,176.43c-25.23,22.67-61.22,35-98.85,41.24c-0.07,2.7-0.23,5.39-0.46,8.09
			c41.75-5.58,82.64-18,110.47-42.99C987.23,3499.81,971.79,3420.44,919.86,3371.39z"/>
		<path class="st0" d="M650.21,3563.21c3.28,2.05,6.66,3.94,10.14,5.69c-37.41-24-52.83-72.38-21.77-101.57
			c25.98-24.41,75.23-26.54,110-10.6c1.2,0.55,2.38,1.12,3.55,1.7c-4.61-2.97-9.51-5.66-14.7-8.03
			c-34.78-15.95-84.03-13.82-110,10.59C596.1,3490.44,612.07,3539.43,650.21,3563.21z"/>
		<path class="st0" d="M340.79,3031.44c-69.86,15.82-127.31,83.25-88.46,132.35c8.01,10.13,18.64,17.94,30.96,24.07
			c-7.63-4.96-14.33-10.8-19.81-17.72c-38.84-49.1,18.6-116.53,88.47-132.36c69.86-15.82,143.71,1.33,215.36,10.66
			c71.66,9.32,154.89,7.64,204.19-35.03c57.36-49.66,40.18-130.31,0.17-189.88c-40.01-59.58-99.26-112.05-121.14-177.38
			c-15.52-46.34-9.03-96.62,15.28-140.42c-1.13-0.67-2.25-1.35-3.37-2.05c-0.02,0-0.03-0.01-0.06-0.03
			c-2.64-1.35-5.22-2.76-7.74-4.23c-24.3,43.79-30.78,94.06-15.25,140.4c21.88,65.32,81.13,117.8,121.13,177.38
			c40.02,59.57,57.21,140.22-0.16,189.88c-49.3,42.67-132.52,44.35-204.19,35.02S410.66,3015.62,340.79,3031.44z"/>
		<path class="st0" d="M298.53,4242.99c-14.12,42.74,22.67,86.79,68.51,111.48c0.58,0.32,1.17,0.62,1.75,0.93
			c-41.3-25.39-72.25-66.3-59.1-106.08c18.91-57.21,108.27-79.82,182.21-79.88c80.21-0.08,101.87,11.46,181.06,19.82
			c16.1,1.7,80.47,4.55,90.76-47.92c0.97-4.95,3.6-17.69,3.08-22.69c-8.55-80.76-66.08-156.79-149.55-202.26
			c77.41,46.01,130.24,118.8,138.39,195.91c0.53,5-2.09,17.74-3.07,22.71c-10.3,52.44-74.67,49.59-90.76,47.9
			c-79.19-8.36-100.85-19.89-181.06-19.83C406.81,4163.16,317.46,4185.77,298.53,4242.99z"/>
		<path class="st0" d="M610.33,2462.69c12.11,14.1,26.82,26.63,44.3,36.73c0.13-0.22,0.24-0.43,0.36-0.64
			c-53.96-37.6-85.07-105.82-89.01-163.98l-0.73,0.04C564.88,2378.62,578.86,2426.02,610.33,2462.69z"/>
		<path class="st0" d="M819.14,2501.3c-38.59,31.58-105.88,27.11-153.18,4.15c-0.06,0.1-0.12,0.2-0.16,0.28
			c3.18,1.87,6.44,3.64,9.76,5.3c47.36,23.61,115.72,28.55,154.72-3.38c32.11-26.28,19.85-77.81-16.49-93.14
			C841.15,2434.59,847.69,2477.92,819.14,2501.3z"/>
		<path class="st0" d="M752.12,3458.42c26.3,16.85,43.38,42.45,52.81,68.66c6.6,18.35,8.9,37.97,7.22,57.39
			c3.88-0.52,7.75-1.1,11.61-1.75c0.5-16.74-2-33.49-7.68-49.29C805.41,3503.68,784.84,3474.72,752.12,3458.42z"/>
		<path class="st0" d="M139.11,3720.94c12.03,34.97,42.22,62.34,80.15,82.75c-32.64-19.63-58.18-44.95-69-76.41
			c-11.74-34.14-0.19-76.18,38.19-93.77c18.54-8.49,40.63-10.29,61.99-10.71c72.55-1.44,145.48,11.08,210.93,36.2
			c17.36,6.67,34.73,14.28,52.16,21.93l0.59-1.19c-21.4-9.32-42.66-18.91-63.92-27.07c-65.44-25.13-138.37-37.66-210.93-36.22
			c-21.36,0.42-43.44,2.23-61.98,10.72C138.92,3644.77,127.36,3686.82,139.11,3720.94z"/>
		<path class="st0" d="M713.05,3277.45c52.25,13.43,105.38,29.45,150.37,53.91c-47.21-28.08-104.88-45.68-161.52-60.25
			c-103.07-26.54-208.82-46.42-315.87-59.38c-35.09-4.24-73.58-9.34-102.72-23.85c29.95,19.48,74.09,25.38,113.87,30.18
			C504.24,3231.03,609.99,3250.91,713.05,3277.45z"/>
		<path class="st0" d="M654.99,2498.78c2.41,1.7,4.88,3.32,7.38,4.87c0.02,0.02,0.03,0.03,0.06,0.03c0.65,0.34,1.31,0.68,1.97,1.01
			c0.51,0.26,1.04,0.51,1.56,0.75c16.32-29.29,40.63-55.67,71.67-76.02c14.41-9.46,30.98-17.93,49.55-19.19
			c9.85-0.67,18.78,0.96,26.61,4.25c-10.03-7.37-22.85-11.61-37.76-10.6c-18.57,1.26-35.14,9.74-49.56,19.2
			C695.55,2443.36,671.31,2469.62,654.99,2498.78z"/>
		<path class="st0" d="M558.2,4433.1c64.72,38.35,112.94,94.58,133.21,157.03c16.01,49.31,14.43,102.01-3.3,150.91
			c23.14-45.82,31.02-93.5,14.45-144.56C681.16,4530.49,628.53,4471.45,558.2,4433.1z"/>
		<path class="st0" d="M527.39,4418.14c10.6,4.55,20.89,9.55,30.81,14.96c-13.32-7.89-27.34-15.02-41.96-21.3
			c-48.07-20.64-101.98-32.35-147.45-56.4c3.08,1.88,6.22,3.69,9.4,5.41C424.02,4385.5,478.71,4397.25,527.39,4418.14z"/>
		<path class="st0" d="M565.15,3893.28c18.26,6.38,35.68,14.15,52.11,23.12c-19.62-11.67-40.81-21.61-63.26-29.47
			c-74.3-26.01-157.48-29.85-235.54-47.49c-34.45-7.8-69.24-19.6-99.2-35.75c32.3,19.45,71.54,33.31,110.35,42.09
			C407.67,3863.43,490.85,3867.26,565.15,3893.28z"/>
		<path class="st0" d="M664.4,2504.69c-0.66-0.33-1.32-0.67-1.97-1.01c1.12,0.7,2.24,1.38,3.37,2.05c0.05-0.09,0.1-0.19,0.16-0.28
			C665.44,2505.21,664.91,2504.96,664.4,2504.69z"/>
		<path class="st0" d="M514.13,3679.74l-0.59,1.19c60.34,26.46,121.59,53.25,186.8,42.31c73.31-12.31,117.72-71.44,122.97-132.43
			c-4.01,0.54-8.03,1.01-12.04,1.42c-8.2,58.17-51.88,112.88-122.08,124.66C628.21,3727.13,570.69,3704.36,514.13,3679.74z"/>
		<path class="st0" d="M654.99,2498.78c-0.12,0.21-0.23,0.42-0.36,0.64c2.52,1.48,5.11,2.89,7.74,4.23
			C659.86,2502.1,657.4,2500.48,654.99,2498.78z"/>
	</g>
	<g>
		<path class="st1" d="M688.12,4741.05c-6.26,12.38-13.64,24.62-21.94,36.77"/>
		<path class="st1" d="M283.31,3187.87c29.95,19.48,74.09,25.38,113.87,30.18c107.06,12.97,212.81,32.85,315.87,59.39
			c52.25,13.43,105.38,29.45,150.37,53.91c20.87,11.33,39.98,24.49,56.43,40.04c51.93,49.05,67.37,128.42,13.92,176.42
			c-27.83,25-68.72,37.41-110.47,42.99c-4.01,0.54-8.03,1.01-12.04,1.42c-3.85,0.4-7.7,0.74-11.54,1.04
			c-48.13,3.7-100.24,0.06-138.38-23.73c-0.34-0.21-0.68-0.43-1-0.65c-37.41-24-52.83-72.38-21.77-101.57
			c25.98-24.41,75.23-26.54,110-10.6c1.2,0.55,2.38,1.12,3.55,1.7c32.71,16.3,53.28,45.26,63.96,75.01
			c5.68,15.81,8.18,32.55,7.68,49.29c-0.07,2.7-0.23,5.39-0.46,8.09c-5.26,61-49.66,120.12-122.97,132.43
			c-65.21,10.95-126.46-15.85-186.8-42.31c-17.43-7.65-34.8-15.26-52.16-21.93c-65.45-25.13-138.38-37.65-210.93-36.2
			c-21.37,0.42-43.46,2.23-61.99,10.71c-38.38,17.59-49.93,59.63-38.19,93.77c10.82,31.46,36.37,56.78,69,76.41
			c32.3,19.45,71.54,33.31,110.35,42.09c78.06,17.65,161.24,21.49,235.54,47.5c18.26,6.38,35.68,14.15,52.11,23.12
			c83.47,45.47,141,121.49,149.55,202.26c0.52,5-2.1,17.73-3.08,22.69c-10.29,52.46-74.66,49.61-90.76,47.92
			c-79.19-8.36-100.85-19.9-181.06-19.82c-73.94,0.06-163.29,22.68-182.21,79.88c-13.16,39.78,17.8,80.69,59.1,106.08
			c3.08,1.88,6.22,3.69,9.4,5.41c45.82,24.69,100.52,36.44,149.19,57.33c10.6,4.55,20.89,9.55,30.81,14.96
			c70.33,38.35,122.96,97.39,144.36,163.37c16.58,51.06,8.7,98.74-14.45,144.56"/>
		<path class="st1" d="M813.78,2414.49c-7.83-3.29-16.76-4.92-26.61-4.25c-18.57,1.25-35.14,9.73-49.55,19.19
			c-31.04,20.35-55.35,46.73-71.67,76.02c-0.06,0.1-0.12,0.2-0.16,0.28c-24.31,43.8-30.8,94.08-15.28,140.42
			c21.88,65.32,81.14,117.8,121.14,177.38c40.01,59.57,57.19,140.23-0.17,189.88c-49.29,42.67-132.52,44.35-204.19,35.03
			c-71.65-9.33-145.51-26.47-215.36-10.66c-69.87,15.83-127.31,83.26-88.47,132.36c5.49,6.92,12.18,12.77,19.81,17.72"/>
		<path class="st1" d="M662.43,2503.69c1.12,0.7,2.24,1.38,3.37,2.05c3.18,1.87,6.44,3.64,9.76,5.3
			c47.36,23.61,115.72,28.55,154.72-3.38c32.11-26.28,19.85-77.81-16.49-93.14"/>
		<path class="st1" d="M565.58,2325.91c0.06,2.94,0.19,5.9,0.4,8.9c3.94,58.16,35.04,126.38,89.01,163.98
			c2.41,1.7,4.88,3.32,7.38,4.87"/>
		<path class="st1" d="M565.25,2334.85c-0.37,43.77,13.61,91.17,45.08,127.84c12.11,14.1,26.82,26.63,44.3,36.73
			c2.52,1.48,5.11,2.89,7.74,4.23c0.02,0.02,0.03,0.03,0.06,0.03c0.65,0.34,1.31,0.68,1.97,1.01c0.51,0.26,1.04,0.51,1.56,0.75
			c47.3,22.96,114.59,27.43,153.18-4.15c28.55-23.38,22-66.71-5.35-86.79c-0.01-0.01-0.01-0.01-0.01-0.01
			c-10.03-7.37-22.85-11.61-37.76-10.6c-18.57,1.26-35.14,9.74-49.56,19.2c-30.92,20.27-55.15,46.53-71.48,75.69
			c-0.12,0.21-0.23,0.42-0.36,0.64c-24.3,43.79-30.78,94.06-15.25,140.4c21.88,65.32,81.13,117.8,121.13,177.38
			c40.02,59.57,57.21,140.22-0.16,189.88c-49.3,42.67-132.52,44.35-204.19,35.02s-145.51-26.47-215.37-10.65
			c-69.86,15.82-127.31,83.25-88.46,132.35c8.01,10.13,18.64,17.94,30.96,24.07c0,0,0.01,0.01,0.02,0.01
			c29.14,14.51,67.63,19.6,102.72,23.85c107.05,12.96,212.8,32.84,315.87,59.38c56.64,14.57,114.3,32.18,161.52,60.25
			c16.54,9.84,31.81,20.96,45.28,33.69c51.93,49.06,67.37,128.42,13.91,176.43c-25.23,22.67-61.22,35-98.85,41.24
			c-3.86,0.65-7.73,1.23-11.61,1.75c-7.86,1.05-15.75,1.85-23.59,2.45c-43.98,3.38-91.3,0.64-128.22-18.03
			c-3.48-1.75-6.86-3.64-10.14-5.69c-38.14-23.78-54.11-72.77-22.78-102.23c25.97-24.41,75.22-26.54,110-10.59
			c5.19,2.37,10.09,5.07,14.7,8.03c26.3,16.85,43.38,42.45,52.81,68.66c6.6,18.35,8.9,37.97,7.22,57.39
			c-0.23,2.59-0.52,5.18-0.89,7.76c-8.2,58.17-51.88,112.88-122.08,124.66c-60.98,10.23-118.49-12.54-175.05-37.15
			c-21.4-9.32-42.66-18.91-63.92-27.07c-65.44-25.13-138.37-37.66-210.93-36.22c-21.36,0.42-43.44,2.23-61.98,10.72
			c-38.38,17.59-49.94,59.63-38.19,93.76c12.03,34.97,42.22,62.34,80.15,82.75c29.96,16.15,64.75,27.95,99.2,35.75
			c78.06,17.64,161.24,21.49,235.54,47.49c22.45,7.86,43.64,17.8,63.26,29.47c77.41,46.01,130.24,118.8,138.39,195.91
			c0.53,5-2.09,17.74-3.07,22.71c-10.3,52.44-74.67,49.59-90.76,47.9c-79.19-8.36-100.85-19.89-181.06-19.83
			c-73.94,0.06-163.29,22.68-182.22,79.89c-14.12,42.74,22.67,86.79,68.51,111.48c0.58,0.32,1.17,0.62,1.75,0.93
			c45.46,24.05,99.38,35.76,147.45,56.4c14.62,6.28,28.64,13.41,41.96,21.3c64.72,38.35,112.94,94.58,133.21,157.03
			c16.01,49.31,14.43,102.01-3.3,150.91c0,0.01,0,0.01,0,0.01c-4.46,12.33-9.97,24.42-16.47,36.15"/>
	</g>
</g>
<g id="XMLID_00000047767654216084375890000014279016017608175286_">
	<g>
		<path class="st0" d="M652.49,6247.92c19.61-11.65,40.8-21.6,63.23-29.45c74.32-26.01,157.49-29.85,235.54-47.5
			c34.43-7.79,69.2-19.59,99.15-35.72c-32.29,19.42-71.51,33.29-110.3,42.05c-78.05,17.65-161.23,21.49-235.53,47.5
			C686.33,6231.2,668.91,6238.97,652.49,6247.92z"/>
		<path class="st0" d="M1050.41,6135.26c32.67-19.63,58.23-44.96,69.06-76.43c11.72-34.14,0.19-76.18-38.2-93.77
			c-18.54-8.5-40.63-10.29-61.99-10.73c-72.55-1.44-145.48,11.08-210.92,36.2c-15.23,5.85-30.47,12.43-45.75,19.12l-0.59-1.2
			c19.23-8.41,38.37-16.91,57.5-24.26c65.43-25.13,138.36-37.65,210.92-36.2c21.36,0.42,43.44,2.22,61.98,10.71
			c38.39,17.59,49.94,59.63,38.2,93.77C1118.6,6087.46,1088.37,6114.84,1050.41,6135.26z"/>
		<path class="st0" d="M986.35,5519.45c7.66-4.97,14.41-10.83,19.9-17.78c38.83-49.09-18.61-116.52-88.47-132.35
			s-143.71,1.33-215.37,10.65c-71.66,9.33-154.89,7.65-204.17-35.03c-57.36-49.64-40.18-130.3-0.17-189.88
			c40.01-59.57,99.25-112.04,121.13-177.38c15.52-46.35,9.04-96.62-15.27-140.41c1.13-0.67,2.26-1.35,3.38-2.05
			c2.66-1.37,5.26-2.78,7.79-4.25c24.29,43.78,30.77,94.03,15.24,140.36c-21.88,65.32-81.13,117.8-121.12,177.38
			c-40.02,59.57-57.21,140.23,0.16,189.89c49.29,42.67,132.51,44.35,204.18,35.01c71.68-9.32,145.52-26.46,215.39-10.64
			c69.85,15.82,127.3,83.25,88.46,132.35C1009.36,5505.5,998.69,5513.31,986.35,5519.45z"/>
		<path class="st0" d="M361.02,5696.58c-51.94,49.07-67.37,128.43-13.92,176.45c25.24,22.66,61.22,34.99,98.86,41.23
			c0.07,2.7,0.23,5.4,0.46,8.1c-41.75-5.58-82.65-18-110.48-42.99c-53.44-48.01-38.01-127.38,13.93-176.44
			c16.43-15.51,35.5-28.65,56.32-39.96C389.69,5672.78,374.48,5683.88,361.02,5696.58z"/>
		<path class="st0" d="M457.57,5916c0.22,2.59,0.52,5.18,0.89,7.76c-4.01-0.41-8.03-0.88-12.04-1.41c-0.23-2.7-0.39-5.4-0.46-8.1
			C449.82,5914.9,453.69,5915.49,457.57,5916z"/>
		<path class="st0" d="M458.46,5923.76c-0.37-2.58-0.67-5.17-0.89-7.76c7.87,1.05,15.76,1.85,23.59,2.46
			c43.99,3.38,91.32,0.64,128.24-18.05c-0.34,0.23-0.69,0.45-1.04,0.67c-38.13,23.78-90.24,27.42-138.37,23.72
			C466.16,5924.5,462.31,5924.16,458.46,5923.76z"/>
		<path class="st0" d="M517.61,5789.95c-26.3,16.85-43.38,42.45-52.81,68.67c-6.59,18.35-8.9,37.96-7.22,57.38
			c-3.88-0.52-7.75-1.1-11.61-1.75c-0.49-16.74,2-33.49,7.68-49.28C464.33,5835.21,484.88,5806.26,517.61,5789.95z"/>
		<path class="st0" d="M578.32,6921.67c-16.02,49.34-14.41,102.07,3.33,150.99c-23.18-45.85-31.07-93.55-14.48-144.65
			c21.41-66,74.04-125.04,144.38-163.37C646.81,6802.99,598.59,6859.22,578.32,6921.67z"/>
		<path class="st0" d="M704.48,4666.39c0.51,60.59-26.49,128.2-89.38,164.59c-0.12-0.22-0.24-0.44-0.36-0.65
			c53.96-37.61,85.06-105.82,89.01-163.98L704.48,4666.39z"/>
		<path class="st0" d="M971.19,6574.52c14.13,42.75-22.67,86.8-68.5,111.48c-0.54,0.28-1.07,0.58-1.61,0.84
			c41.22-25.38,72.09-66.25,58.95-105.98c-18.91-57.22-108.25-79.83-182.19-79.89c-80.21-0.08-101.88,11.48-181.08,19.84
			c-16.1,1.7-80.47,4.53-90.75-47.92c-0.97-4.95-3.61-17.69-3.09-22.7c8.56-80.76,66.1-156.79,149.58-202.27
			c-77.42,46.01-130.25,118.81-138.41,195.92c-0.53,5.01,2.1,17.74,3.08,22.71c10.29,52.44,74.66,49.6,90.75,47.91
			c79.19-8.36,100.86-19.9,181.08-19.84C862.92,6494.69,952.26,6517.3,971.19,6574.52z"/>
		<path class="st0" d="M753.49,6743.34c48.1-20.67,102.1-32.38,147.59-56.5c-3.13,1.93-6.31,3.76-9.54,5.5
			c-45.82,24.68-100.53,36.43-149.19,57.33c-10.6,4.55-20.88,9.55-30.8,14.96C724.86,6756.75,738.88,6749.62,753.49,6743.34z"/>
		<path class="st0" d="M609.41,5900.42c37.38-24.02,52.78-72.37,21.74-101.55c-25.98-24.43-75.23-26.54-110-10.61
			c-1.2,0.55-2.38,1.12-3.55,1.7c4.61-2.97,9.51-5.65,14.7-8.03c34.78-15.94,84.03-13.82,110,10.6
			c31.33,29.46,15.35,78.44-22.78,102.22C616.25,5896.77,612.87,5898.67,609.41,5900.42z"/>
		<path class="st0" d="M762.01,6008.46l0.59,1.2c-62.43,27.32-125.69,56.46-193.21,45.12c-73.32-12.3-117.73-71.42-122.97-132.42
			c4.01,0.53,8.03,1,12.04,1.41c8.19,58.17,51.87,112.89,122.08,124.66C643.83,6059.05,703.39,6034.12,762.01,6008.46z"/>
		<path class="st0" d="M605.33,4836.23c0.66-0.33,1.33-0.67,1.98-1.01c-1.12,0.7-2.25,1.38-3.38,2.05c-0.06-0.1-0.1-0.2-0.16-0.29
			C604.29,4836.75,604.82,4836.5,605.33,4836.23z"/>
		<path class="st0" d="M605.33,4836.23c-0.51,0.26-1.04,0.51-1.56,0.75c-16.33-29.29-40.63-55.68-71.68-76.02
			c-14.41-9.46-30.97-17.94-49.54-19.2c-9.84-0.67-18.76,0.95-26.57,4.24c10.02-7.36,22.82-11.59,37.71-10.58
			c18.57,1.25,35.14,9.74,49.56,19.19c30.93,20.28,55.18,46.54,71.49,75.71c-2.43,1.7-4.9,3.33-7.43,4.89
			C606.66,4835.57,606,4835.91,605.33,4836.23z"/>
		<path class="st0" d="M883.7,5543.25c35.06-4.24,73.51-9.33,102.65-23.8c-29.97,19.45-74.06,25.34-113.8,30.15
			c-107.06,12.97-212.81,32.84-315.88,59.38c-52.29,13.46-105.47,29.5-150.47,53.99c47.23-28.11,104.95-45.74,161.62-60.33
			C670.9,5576.1,776.65,5556.22,883.7,5543.25z"/>
		<path class="st0" d="M615.1,4830.98c-2.53,1.47-5.13,2.88-7.79,4.25c2.53-1.56,5-3.2,7.43-4.89
			C614.86,4830.54,614.99,4830.76,615.1,4830.98z"/>
		<path class="st0" d="M455.98,4746.01c-27.39,20.06-33.96,63.44-5.4,86.83c38.59,31.58,105.88,27.1,153.18,4.15
			c0.06,0.09,0.1,0.19,0.16,0.29c-3.18,1.87-6.44,3.64-9.76,5.3c-47.36,23.61-115.72,28.54-154.73-3.4
			C407.32,4812.89,419.61,4761.32,455.98,4746.01z"/>
	</g>
	<g>
		<path class="st1" d="M581.67,7072.72c7.75,15.3,17.19,30.4,27.99,45.35"/>
		<path class="st1" d="M704.14,4657.45c-0.06,2.94-0.19,5.91-0.39,8.91c-3.95,58.16-35.04,126.37-89.01,163.98
			c-2.43,1.7-4.9,3.33-7.43,4.89c-1.12,0.7-2.25,1.38-3.38,2.05c-3.18,1.87-6.44,3.64-9.76,5.3
			c-47.36,23.61-115.72,28.54-154.73-3.4c-32.11-26.28-19.82-77.85,16.55-93.16c7.81-3.29,16.73-4.91,26.57-4.24
			c18.57,1.25,35.13,9.74,49.54,19.2c31.05,20.34,55.35,46.73,71.68,76.02c0.06,0.09,0.1,0.19,0.16,0.29
			c24.31,43.79,30.79,94.06,15.27,140.41c-21.88,65.34-81.13,117.81-121.13,177.38c-40.01,59.58-57.19,140.24,0.17,189.88
			c49.28,42.68,132.51,44.36,204.17,35.03c71.66-9.32,145.52-26.47,215.37-10.65s127.3,83.26,88.47,132.35
			c-5.5,6.95-12.24,12.81-19.9,17.78c-29.97,19.45-74.06,25.34-113.8,30.15c-107.06,12.97-212.81,32.84-315.88,59.38
			c-52.29,13.46-105.47,29.5-150.47,53.99c-20.82,11.31-39.89,24.45-56.32,39.96c-51.94,49.06-67.37,128.43-13.93,176.44
			c27.83,25,68.73,37.41,110.48,42.99c4.01,0.53,8.03,1,12.04,1.41c3.85,0.4,7.7,0.74,11.54,1.04
			c48.13,3.7,100.24,0.06,138.37-23.72c0.35-0.22,0.7-0.44,1.04-0.67c37.38-24.02,52.78-72.37,21.74-101.55
			c-25.98-24.43-75.23-26.54-110-10.61c-1.2,0.55-2.38,1.12-3.55,1.7c-32.73,16.31-53.28,45.26-63.96,75.02
			c-5.68,15.8-8.17,32.54-7.68,49.28c0.07,2.7,0.23,5.4,0.46,8.1c5.25,61,49.65,120.12,122.97,132.42
			c67.52,11.34,130.79-17.8,193.21-45.12c15.28-6.68,30.52-13.27,45.75-19.12c65.44-25.13,138.37-37.65,210.92-36.2
			c21.37,0.43,43.46,2.23,61.99,10.73c38.39,17.59,49.93,59.63,38.2,93.77c-10.82,31.47-36.39,56.8-69.06,76.43
			c-32.29,19.42-71.51,33.29-110.3,42.05c-78.05,17.65-161.23,21.49-235.53,47.5c-18.25,6.38-35.67,14.16-52.09,23.11
			c-83.47,45.48-141.01,121.51-149.58,202.27c-0.52,5.01,2.12,17.74,3.09,22.7c10.28,52.45,74.65,49.61,90.75,47.92
			c79.19-8.36,100.86-19.91,181.08-19.84c73.94,0.06,163.28,22.68,182.19,79.89c13.15,39.73-17.73,80.6-58.95,105.98
			c-3.13,1.93-6.31,3.76-9.54,5.5c-45.82,24.68-100.53,36.43-149.19,57.33c-10.6,4.55-20.88,9.55-30.8,14.96
			c-70.34,38.34-122.97,97.37-144.38,163.37c-16.59,51.09-8.7,98.8,14.48,144.65"/>
		<path class="st1" d="M704.48,4666.39c0.51,60.59-26.49,128.2-89.38,164.59c-2.53,1.47-5.13,2.88-7.79,4.25
			c-0.65,0.34-1.32,0.68-1.98,1.01c-0.51,0.26-1.04,0.51-1.56,0.75c-47.3,22.95-114.59,27.43-153.18-4.15
			c-28.56-23.39-21.99-66.76,5.4-86.83c10.02-7.36,22.82-11.59,37.71-10.58c18.57,1.25,35.14,9.74,49.56,19.19
			c30.93,20.28,55.18,46.54,71.49,75.71c0.12,0.21,0.24,0.43,0.36,0.65c24.29,43.78,30.77,94.03,15.24,140.36
			c-21.88,65.32-81.13,117.8-121.12,177.38c-40.02,59.57-57.21,140.23,0.16,189.89c49.29,42.67,132.51,44.35,204.18,35.01
			c71.68-9.32,145.52-26.46,215.39-10.64c69.85,15.82,127.3,83.25,88.46,132.35c-8.04,10.16-18.71,17.98-31.05,24.11
			c-29.14,14.47-67.59,19.56-102.65,23.8c-107.05,12.97-212.8,32.85-315.88,59.38c-56.68,14.59-114.4,32.22-161.62,60.33
			c-16.5,9.82-31.72,20.91-45.17,33.61c-51.94,49.07-67.37,128.43-13.92,176.45c25.24,22.66,61.22,34.99,98.86,41.23
			c3.86,0.65,7.73,1.23,11.61,1.75c7.87,1.05,15.76,1.85,23.59,2.46c43.99,3.38,91.32,0.64,128.24-18.05
			c3.46-1.75,6.85-3.64,10.11-5.68c38.13-23.78,54.11-72.76,22.78-102.22c-25.97-24.43-75.22-26.54-110-10.6
			c-5.19,2.38-10.09,5.07-14.7,8.03c-26.3,16.85-43.38,42.45-52.81,68.67c-6.59,18.35-8.9,37.96-7.22,57.38
			c0.22,2.59,0.52,5.18,0.89,7.76c8.19,58.17,51.87,112.89,122.08,124.66c63.29,10.63,122.84-14.31,181.47-39.97
			c19.23-8.41,38.37-16.91,57.5-24.26c65.43-25.13,138.36-37.65,210.92-36.2c21.36,0.42,43.44,2.22,61.98,10.71
			c38.39,17.59,49.94,59.63,38.2,93.77c-12.03,34.98-42.26,62.36-80.21,82.78c-29.95,16.13-64.72,27.92-99.15,35.72
			c-78.05,17.65-161.23,21.5-235.54,47.5c-22.44,7.85-43.63,17.79-63.23,29.45c-77.42,46.01-130.25,118.81-138.41,195.92
			c-0.53,5.01,2.1,17.74,3.08,22.71c10.29,52.44,74.66,49.6,90.75,47.91c79.19-8.36,100.86-19.9,181.08-19.84
			c73.94,0.06,163.28,22.68,182.21,79.89c14.13,42.75-22.67,86.8-68.5,111.48c-0.54,0.28-1.07,0.58-1.61,0.84
			c-45.49,24.11-99.48,35.83-147.59,56.5c-14.61,6.28-28.63,13.41-41.95,21.3c-64.73,38.34-112.95,94.57-133.23,157.03
			c-16.02,49.34-14.41,102.07,3.33,150.99c0.01,0.02,0.02,0.03,0.02,0.05c2.58,7.11,5.5,14.14,8.76,21.07"/>
	</g>
</g>
<g id="XMLID_00000109022921978664917650000005950021372917504916_">
	<g>
		<path class="st0" d="M805.01,8242.07c0.37-2.58,0.67-5.17,0.89-7.76c-7.86,1.05-15.75,1.85-23.59,2.45
			c-43.99,3.38-91.31,0.63-128.24-18.04c0.34,0.23,0.69,0.45,1.04,0.67c38.13,23.78,90.24,27.42,138.37,23.72
			C797.31,8242.81,801.17,8242.47,805.01,8242.07z"/>
		<path class="st0" d="M807.54,7064.34c27.35,20.1,33.9,63.43,5.35,86.79c-38.59,31.58-105.88,27.11-153.18,4.16
			c-0.05,0.09-0.1,0.18-0.15,0.27c3.18,1.88,6.43,3.64,9.75,5.3c47.36,23.62,115.72,28.55,154.73-3.38
			C856.14,7131.2,843.87,7079.67,807.54,7064.34z"/>
		<path class="st0" d="M805.9,8234.31c-0.22,2.59-0.52,5.18-0.89,7.76c4.01-0.41,8.03-0.88,12.04-1.41c0.23-2.7,0.39-5.4,0.46-8.1
			C813.66,8233.21,809.79,8233.79,805.9,8234.31z"/>
		<path class="st0" d="M507.88,8329.57l-0.59,1.2c60.34,26.47,121.59,53.26,186.8,42.32c73.32-12.31,117.72-71.43,122.97-132.42
			c-4.01,0.53-8.03,1-12.04,1.41c-8.19,58.17-51.87,112.88-122.08,124.66C621.95,8376.97,564.44,8354.2,507.88,8329.57z"/>
		<path class="st0" d="M658.14,7154.53c0.51,0.26,1.04,0.51,1.56,0.77c16.33-29.29,40.63-55.68,71.68-76.02
			c14.41-9.47,30.97-17.94,49.54-19.2c9.85-0.67,18.78,0.96,26.61,4.25c-10.03-7.37-22.85-11.61-37.76-10.6
			c-18.57,1.27-35.13,9.74-49.55,19.2c-30.93,20.28-55.18,46.54-71.49,75.7c2.43,1.7,4.9,3.33,7.43,4.89
			C656.81,7153.86,657.48,7154.2,658.14,7154.53z"/>
		<path class="st0" d="M633.13,7289.65c21.88,65.32,81.12,117.8,121.12,177.38c40.02,59.57,57.21,140.23-0.16,189.88
			c-49.29,42.67-132.51,44.36-204.19,35.02c-71.66-9.32-145.51-26.47-215.37-10.65c-69.85,15.83-127.3,83.26-88.46,132.35
			c8.03,10.14,18.68,17.96,31,24.08c-7.64-4.96-14.36-10.8-19.85-17.74c-38.84-49.09,18.61-116.52,88.47-132.36
			c69.86-15.82,143.71,1.33,215.36,10.66c71.68,9.32,154.91,7.64,204.19-35.03c57.36-49.66,40.18-130.3,0.17-189.88
			c-40.01-59.57-99.25-112.04-121.13-177.38c-15.52-46.35-9.04-96.62,15.28-140.42c-1.14-0.66-2.27-1.35-3.39-2.05
			c-2.66-1.37-5.26-2.78-7.79-4.25C624.07,7193.06,617.6,7243.31,633.13,7289.65z"/>
		<path class="st0" d="M648.37,7149.28c2.53,1.47,5.13,2.88,7.79,4.25c-2.53-1.56-5-3.2-7.43-4.89
			C648.6,7148.85,648.49,7149.06,648.37,7149.28z"/>
		<path class="st0" d="M685.16,9239.98c24.43,75.3,8.4,144.68-45.6,215.08c52.46-65.5,81.19-133.44,56.75-208.73
			c-21.41-65.99-74.04-125.04-144.36-163.38C616.66,9121.29,664.88,9177.52,685.16,9239.98z"/>
		<path class="st0" d="M648.73,7148.63c-53.96-37.6-85.06-105.83-88.99-163.98l-0.75,0.04c-0.51,60.59,26.49,128.19,89.38,164.58
			C648.49,7149.06,648.6,7148.85,648.73,7148.63z"/>
		<path class="st0" d="M455.12,8308.84c17.36,6.67,34.73,14.28,52.16,21.92l0.59-1.2c-21.4-9.31-42.66-18.9-63.92-27.06
			c-65.43-25.13-138.36-37.66-210.92-36.21c-21.36,0.43-43.44,2.23-61.98,10.72c-38.39,17.59-49.94,59.63-38.2,93.77
			c12.03,34.98,42.26,62.36,80.21,82.78c-32.67-19.63-58.23-44.96-69.06-76.43c-11.72-34.14-0.19-76.18,38.2-93.77
			c18.54-8.5,40.63-10.3,61.99-10.73C316.75,8271.2,389.68,8283.72,455.12,8308.84z"/>
		<path class="st0" d="M611,8566.24c-19.62-11.67-40.81-21.61-63.26-29.47c-74.3-26.01-157.48-29.85-235.53-47.49
			c-34.43-7.79-69.2-19.59-99.15-35.72c32.29,19.42,71.51,33.29,110.3,42.05c78.05,17.65,161.23,21.49,235.53,47.5
			C577.15,8549.51,594.58,8557.28,611,8566.24z"/>
		<path class="st0" d="M913.6,8021.23c-16.43-15.51-35.5-28.65-56.32-39.96c16.5,9.82,31.72,20.91,45.17,33.61
			c51.94,49.06,67.37,128.43,13.92,176.44c-25.24,22.67-61.22,35-98.86,41.24c-0.07,2.7-0.23,5.4-0.46,8.1
			c41.75-5.58,82.65-18,110.48-43C980.97,8149.65,965.54,8070.28,913.6,8021.23z"/>
		<path class="st0" d="M521.13,9067.97c10.6,4.55,20.89,9.55,30.81,14.96c-13.32-7.89-27.34-15.02-41.96-21.3
			c-48.06-20.64-101.98-32.35-147.45-56.4c3.08,1.89,6.22,3.7,9.4,5.42C417.76,9035.34,472.47,9047.08,521.13,9067.97z"/>
		<path class="st0" d="M654.07,8218.72c-37.4-24.02-52.78-72.38-21.74-101.56c25.98-24.41,75.23-26.53,110-10.6
			c1.2,0.55,2.38,1.12,3.55,1.7c-4.61-2.97-9.51-5.65-14.7-8.03c-34.78-15.94-84.03-13.82-110,10.59
			c-31.33,29.47-15.35,78.45,22.78,102.23C647.22,8215.08,650.6,8216.97,654.07,8218.72z"/>
		<path class="st0" d="M817.51,8232.56c0.5-16.75-2-33.49-7.68-49.29c-10.68-29.75-31.25-58.71-63.96-75.01
			c26.3,16.85,43.38,42.45,52.81,68.67c6.59,18.35,8.9,37.96,7.22,57.38C809.79,8233.79,813.66,8233.21,817.51,8232.56z"/>
		<path class="st0" d="M360.79,9004.31c0.58,0.32,1.17,0.62,1.75,0.93c-41.29-25.39-72.25-66.3-59.1-106.07
			c18.92-57.22,108.27-79.83,182.21-79.89c80.21-0.08,101.87,11.46,181.08,19.83c16.1,1.7,80.47,4.55,90.75-47.91
			c0.97-4.95,3.61-17.7,3.09-22.7c-8.56-80.76-66.09-156.78-149.56-202.26c77.41,46.01,130.24,118.8,138.4,195.91
			c0.53,5.01-2.1,17.74-3.08,22.71c-10.29,52.44-74.66,49.6-90.75,47.91c-79.19-8.36-100.86-19.9-181.08-19.84
			c-73.94,0.06-163.28,22.68-182.21,79.89C278.15,8935.57,314.96,8979.63,360.79,9004.31z"/>
		<path class="st0" d="M658.14,7154.53c-0.66-0.33-1.33-0.67-1.98-1.01c1.12,0.7,2.25,1.39,3.39,2.05c0.05-0.1,0.1-0.19,0.15-0.27
			C659.18,7155.04,658.66,7154.79,658.14,7154.53z"/>
		<path class="st0" d="M277.1,7837.73c29.95,19.46,74.07,25.36,113.82,30.17c107.06,12.96,212.81,32.84,315.88,59.38
			c52.29,13.46,105.47,29.5,150.47,53.98c-47.23-28.11-104.95-45.74-161.62-60.33c-103.09-26.54-208.83-46.41-315.88-59.38
			C344.71,7857.31,306.25,7852.23,277.1,7837.73z"/>
	</g>
	<g>
		<path class="st1" d="M277.1,7837.73c29.95,19.46,74.07,25.36,113.82,30.17c107.06,12.96,212.81,32.84,315.88,59.38
			c52.29,13.46,105.47,29.5,150.47,53.98c20.82,11.31,39.89,24.45,56.32,39.96c51.94,49.05,67.37,128.42,13.93,176.42
			c-27.83,25.01-68.73,37.42-110.48,43c-4.01,0.53-8.03,1-12.04,1.41c-3.85,0.4-7.7,0.74-11.54,1.04
			c-48.13,3.7-100.24,0.06-138.37-23.72c-0.35-0.22-0.7-0.44-1.04-0.67c-37.4-24.02-52.78-72.38-21.74-101.56
			c25.98-24.41,75.23-26.53,110-10.6c1.2,0.55,2.38,1.12,3.55,1.7c32.71,16.3,53.28,45.26,63.96,75.01
			c5.68,15.81,8.18,32.54,7.68,49.29c-0.07,2.7-0.23,5.4-0.46,8.1c-5.26,60.99-49.65,120.11-122.97,132.42
			c-65.21,10.95-126.46-15.85-186.8-42.32c-17.43-7.63-34.8-15.25-52.16-21.92c-65.44-25.13-138.37-37.65-210.92-36.2
			c-21.37,0.42-43.46,2.23-61.99,10.73c-38.39,17.59-49.93,59.63-38.2,93.77c10.82,31.47,36.39,56.8,69.06,76.43
			c32.29,19.42,71.51,33.29,110.3,42.05c78.05,17.65,161.23,21.49,235.53,47.5c18.26,6.4,35.68,14.16,52.11,23.12
			c83.47,45.48,141,121.49,149.56,202.26c0.52,5-2.12,17.74-3.09,22.7c-10.28,52.45-74.65,49.6-90.75,47.91
			c-79.21-8.36-100.86-19.9-181.08-19.83c-73.94,0.06-163.28,22.68-182.21,79.89c-13.16,39.77,17.81,80.68,59.1,106.07
			c3.08,1.89,6.22,3.7,9.4,5.42c45.82,24.68,100.53,36.43,149.19,57.32c10.6,4.55,20.89,9.55,30.81,14.96
			c70.33,38.35,122.96,97.39,144.36,163.38c24.45,75.29-4.28,143.24-56.75,208.73"/>
		<path class="st1" d="M807.52,7064.33c-7.83-3.29-16.76-4.92-26.61-4.25c-18.57,1.25-35.13,9.73-49.54,19.2
			c-31.05,20.34-55.35,46.73-71.68,76.02c-0.05,0.09-0.1,0.18-0.15,0.27c-24.32,43.8-30.8,94.07-15.28,140.42
			c21.88,65.34,81.13,117.81,121.13,177.38c40.01,59.58,57.19,140.23-0.17,189.88c-49.28,42.67-132.51,44.35-204.19,35.03
			c-71.65-9.33-145.51-26.47-215.36-10.66c-69.86,15.84-127.31,83.27-88.47,132.36c5.49,6.93,12.21,12.78,19.85,17.74"/>
		<path class="st1" d="M559.33,6975.76c0.06,2.94,0.19,5.91,0.4,8.9c3.94,58.15,35.03,126.38,88.99,163.98
			c2.43,1.7,4.9,3.33,7.43,4.89c1.12,0.7,2.25,1.39,3.39,2.05c3.18,1.88,6.43,3.64,9.75,5.3c47.36,23.62,115.72,28.55,154.73-3.38
			c32.1-26.28,19.84-77.81-16.5-93.14"/>
		<path class="st1" d="M558.99,6984.7c-0.51,60.59,26.49,128.19,89.38,164.58c2.53,1.47,5.13,2.88,7.79,4.25
			c0.65,0.34,1.32,0.68,1.98,1.01c0.51,0.26,1.04,0.51,1.56,0.77c47.3,22.95,114.59,27.42,153.18-4.16
			c28.55-23.36,22-66.7-5.35-86.79c-0.01,0-0.01,0-0.01-0.01c-10.03-7.37-22.85-11.61-37.76-10.6c-18.57,1.27-35.13,9.74-49.55,19.2
			c-30.93,20.28-55.18,46.54-71.49,75.7c-0.13,0.22-0.24,0.43-0.36,0.65c-24.3,43.79-30.77,94.03-15.24,140.37
			c21.88,65.32,81.12,117.8,121.12,177.38c40.02,59.57,57.21,140.23-0.16,189.88c-49.29,42.67-132.51,44.36-204.19,35.02
			c-71.66-9.32-145.51-26.47-215.37-10.65c-69.85,15.83-127.3,83.26-88.46,132.35c8.03,10.14,18.68,17.96,31,24.08
			c0.01,0.01,0.02,0.02,0.03,0.02c29.14,14.49,67.61,19.58,102.67,23.82c107.05,12.97,212.8,32.84,315.88,59.38
			c56.68,14.59,114.4,32.22,161.62,60.33c16.5,9.82,31.72,20.91,45.17,33.61c51.94,49.06,67.37,128.43,13.92,176.44
			c-25.24,22.67-61.22,35-98.86,41.24c-3.86,0.65-7.73,1.23-11.61,1.75c-7.86,1.05-15.75,1.85-23.59,2.45
			c-43.99,3.38-91.31,0.63-128.24-18.04c-3.46-1.75-6.85-3.64-10.11-5.68c-38.13-23.78-54.11-72.76-22.78-102.23
			c25.97-24.41,75.22-26.53,110-10.59c5.19,2.38,10.09,5.06,14.7,8.03c26.3,16.85,43.38,42.45,52.81,68.67
			c6.59,18.35,8.9,37.96,7.22,57.38c-0.22,2.59-0.52,5.18-0.89,7.76c-8.19,58.17-51.87,112.88-122.08,124.66
			c-60.98,10.24-118.49-12.54-175.05-37.17c-21.4-9.31-42.66-18.9-63.92-27.06c-65.43-25.13-138.36-37.66-210.92-36.21
			c-21.36,0.43-43.44,2.23-61.98,10.72c-38.39,17.59-49.94,59.63-38.2,93.77c12.03,34.98,42.26,62.36,80.21,82.78
			c29.95,16.13,64.72,27.92,99.15,35.72c78.05,17.64,161.23,21.49,235.53,47.49c22.45,7.86,43.64,17.8,63.26,29.47
			c77.41,46.01,130.24,118.8,138.4,195.91c0.53,5.01-2.1,17.74-3.08,22.71c-10.29,52.44-74.66,49.6-90.75,47.91
			c-79.19-8.36-100.86-19.9-181.08-19.84c-73.94,0.06-163.28,22.68-182.21,79.89c-14.13,42.75,22.67,86.8,68.5,111.48
			c0.58,0.32,1.17,0.62,1.75,0.93c45.46,24.05,99.39,35.76,147.45,56.4c14.62,6.28,28.64,13.41,41.96,21.3
			c64.72,38.35,112.94,94.58,133.21,157.04c24.43,75.3,8.4,144.68-45.6,215.08"/>
	</g>
</g>
</svg>
