<?xml version="1.0" encoding="utf-8"?>
<!-- Generator: Adobe Illustrator 28.0.0, SVG Export Plug-In . SVG Version: 6.00 Build 0)  -->
<svg version="1.1" id="Layer_1" xmlns="http://www.w3.org/2000/svg" xmlns:xlink="http://www.w3.org/1999/xlink" x="0px" y="0px"
	 viewBox="0 0 1519 9500" style="enable-background:new 0 0 1519 9500;" xml:space="preserve">
<style type="text/css">
	.st0{fill:#AD354C;}
	.st1{fill:none;stroke:#AD354C;stroke-linecap:round;stroke-linejoin:round;}
</style>
<g>
	<g>
		<path class="st0" d="M4164.14,3546.88c3.22,0,3.22-5,0-5C4160.92,3541.88,4160.91,3546.88,4164.14,3546.88L4164.14,3546.88z"/>
	</g>
</g>
<g>
	<g>
		<path class="st0" d="M6350.74,2710.39c3.22,0,3.22-5,0-5C6347.52,2705.39,6347.51,2710.39,6350.74,2710.39L6350.74,2710.39z"/>
	</g>
</g>
<g id="XMLID_00000064332914111526217010000011267977066549121428_">
	<g>
		<path class="st0" d="M540.94,1258.57c9.68,1.05,19.41,1.85,29.08,2.45c54.2,3.38,112.52,0.64,158.03-18.03
			c-0.4,0.22-0.82,0.44-1.24,0.65c-47.01,23.79-111.23,27.43-170.55,23.73c-4.73-0.3-9.48-0.64-14.22-1.04
			C541.58,1263.76,541.23,1261.16,540.94,1258.57z"/>
		<path class="st0" d="M908.25,1353.84l0.73,1.19c-74.36,26.46-149.85,53.25-230.22,42.31c-90.35-12.31-145.08-71.44-151.56-132.43
			c4.94,0.54,9.9,1.01,14.84,1.42c10.1,58.17,63.94,112.88,150.46,124.66C767.66,1401.23,838.54,1378.46,908.25,1353.84z"/>
		<path class="st0" d="M538.93,88.6c-33.71,20.09-41.78,63.42-6.6,86.79c47.56,31.58,130.49,27.11,188.79,4.15
			c0.07,0.1,0.14,0.2,0.2,0.29c-3.92,1.87-7.93,3.64-12.03,5.3c-58.37,23.61-142.62,28.55-190.69-3.38
			C479.03,155.46,494.15,103.94,538.93,88.6z"/>
		<path class="st0" d="M721.12,179.55c-20.11-29.29-50.08-55.67-88.32-76.02c-17.76-9.46-38.18-17.93-61.07-19.19
			c-12.14-0.67-23.15,0.96-32.79,4.25c12.36-7.37,28.16-11.61,46.53-10.6c22.88,1.26,43.3,9.74,61.08,19.2
			c38.11,20.27,67.97,46.53,88.1,75.69c-2.99,1.71-6.05,3.34-9.17,4.9c-0.8,0.34-1.61,0.68-2.43,1.01
			C722.42,179.05,721.77,179.31,721.12,179.55z"/>
		<path class="st0" d="M540.94,1258.57c0.28,2.59,0.64,5.18,1.1,7.76c-4.94-0.41-9.9-0.88-14.84-1.42c-0.28-2.7-0.48-5.39-0.57-8.09
			C531.39,1257.47,536.16,1258.05,540.94,1258.57z"/>
		<path class="st0" d="M1075.79,2034.91c-56.48,24.69-123.88,36.44-183.88,57.33c-13.06,4.55-25.74,9.55-37.97,14.96
			c16.42-7.89,33.69-15.02,51.72-21.3c59.24-20.64,125.69-32.35,181.72-56.4C1083.58,2031.39,1079.71,2033.19,1075.79,2034.91z"/>
		<path class="st0" d="M728.04,1243c46.1-24,65.11-72.38,26.83-101.57c-32.02-24.41-92.72-26.54-135.57-10.6
			c-1.48,0.55-2.93,1.12-4.37,1.7c5.68-2.97,11.72-5.66,18.11-8.03c42.86-15.95,103.56-13.82,135.57,10.59
			c38.61,29.46,18.93,78.45-28.08,102.23C736.5,1239.35,732.33,1241.25,728.04,1243z"/>
		<path class="st0" d="M421.95,1039.15c-64,49.06-83.03,128.42-17.14,176.43c31.09,22.67,75.46,35,121.83,41.24
			c0.08,2.7,0.28,5.39,0.57,8.09c-51.46-5.58-101.85-18-136.15-42.99c-65.87-48.01-46.85-127.38,17.16-176.42
			c20.28-15.55,43.84-28.7,69.55-40.04C457.38,1015.29,438.56,1026.41,421.95,1039.15z"/>
		<path class="st0" d="M781.16,1590.5c-95.41,46.01-160.52,118.8-170.56,195.91c-0.65,5,2.58,17.74,3.78,22.71
			c12.7,52.44,92.03,49.59,111.86,47.9c97.6-8.36,124.3-19.89,223.15-19.83c91.13,0.06,201.25,22.68,224.57,79.89
			c17.41,42.74-27.94,86.79-84.43,111.48c-0.72,0.32-1.44,0.62-2.16,0.93c50.9-25.39,89.05-66.3,72.83-106.08
			c-23.31-57.21-133.43-79.82-224.56-79.88c-98.86-0.08-125.55,11.46-223.15,19.83c-19.84,1.7-99.18,4.55-111.86-47.92
			c-1.2-4.95-4.43-17.69-3.8-22.69C607.38,1712,678.28,1635.97,781.16,1590.5z"/>
		<path class="st0" d="M604.61,491.29c-49.32,59.57-70.5,140.22,0.2,189.88c60.76,42.67,163.33,44.35,251.65,35.02
			c88.32-9.33,179.33-26.47,265.44-10.65c86.1,15.82,156.9,83.25,109.02,132.35c-9.87,10.13-22.98,17.94-38.16,24.07
			c9.4-4.96,17.66-10.8,24.42-17.72c47.87-49.1-22.92-116.53-109.03-132.36c-86.1-15.82-177.12,1.33-265.42,10.66
			c-88.32,9.32-190.9,7.64-251.65-35.03c-70.7-49.66-49.51-130.31-0.21-189.88c49.3-59.58,122.33-112.05,149.31-177.38
			c19.13-46.34,11.13-96.62-18.83-140.42c1.39-0.67,2.77-1.35,4.15-2.05c3.28-1.36,6.48-2.78,9.62-4.26
			c29.95,43.79,37.93,94.05,18.8,140.39C726.93,379.24,653.91,431.71,604.61,491.29z"/>
		<path class="st0" d="M1066.12,885.82c43.25-4.24,90.68-9.34,126.6-23.85c-36.92,19.48-91.32,25.38-140.34,30.18
			C920.44,905.13,790.11,925,663.09,951.55c-64.39,13.43-129.88,29.45-185.32,53.91c58.19-28.08,129.25-45.68,199.06-60.25
			C803.86,918.66,934.19,898.78,1066.12,885.82z"/>
		<path class="st0" d="M723.05,178.79c0.82-0.33,1.62-0.67,2.43-1.01c-1.38,0.7-2.76,1.38-4.15,2.05c-0.06-0.09-0.13-0.19-0.2-0.29
			C721.77,179.31,722.42,179.05,723.05,178.79z"/>
		<path class="st0" d="M1271.67,1477.79c40.22-19.63,71.7-44.95,85.04-76.41c14.46-34.14,0.23-76.18-47.07-93.77
			c-22.85-8.49-50.07-10.29-76.4-10.71c-89.42-1.44-179.3,11.08-259.97,36.2c-21.4,6.67-42.8,14.28-64.29,21.93l-0.73-1.19
			c26.37-9.32,52.58-18.91,78.78-27.07c80.66-25.13,170.53-37.66,259.97-36.22c26.32,0.42,53.54,2.23,76.39,10.72
			c47.3,17.59,61.55,59.63,47.07,93.76C1355.63,1430.01,1318.41,1457.38,1271.67,1477.79z"/>
		<path class="st0" d="M735.1,173.53c-3.13,1.48-6.34,2.9-9.62,4.26c3.12-1.56,6.18-3.2,9.17-4.9
			C734.79,173.09,734.95,173.31,735.1,173.53z"/>
		<path class="st0" d="M734.65,172.88c66.5-37.6,104.84-105.82,109.7-163.98l0.91,0.04c0.63,60.6-32.65,128.2-110.16,164.58
			C734.95,173.31,734.79,173.09,734.65,172.88z"/>
		<path class="st0" d="M540.94,1258.57c-4.78-0.52-9.55-1.1-14.31-1.75c-0.61-16.74,2.47-33.49,9.47-49.29
			c13.17-29.75,38.51-58.71,78.83-75.01c-32.42,16.85-53.47,42.45-65.09,68.66C541.71,1219.53,538.88,1239.15,540.94,1258.57z"/>
		<path class="st0" d="M845.37,1567.38c-22.51,6.38-43.98,14.15-64.22,23.12c24.18-11.66,50.29-21.61,77.96-29.47
			c91.58-26.01,194.09-29.85,290.29-47.49c42.46-7.8,85.33-19.6,122.26-35.75c-39.8,19.45-88.16,33.31-136,42.09
			C1039.46,1537.53,936.95,1541.36,845.37,1567.38z"/>
		<path class="st0" d="M689.76,2264.23c-19.8,49.47-17.72,102.37,4.35,151.39c-28.75-45.97-38.59-93.81-18.09-145.04
			c26.38-65.98,91.25-125.02,177.92-163.37C774.17,2145.56,714.74,2201.78,689.76,2264.23z"/>
	</g>
	<g>
		<path class="st1" d="M694.11,2415.63c13.51,21.59,31.18,42.76,51.85,63.69"/>
		<path class="st1" d="M1192.72,861.97c-36.92,19.48-91.32,25.38-140.34,30.18C920.44,905.13,790.11,925,663.09,951.55
			c-64.39,13.43-129.88,29.45-185.32,53.91c-25.72,11.34-49.28,24.49-69.55,40.04c-64,49.05-83.03,128.42-17.16,176.42
			c34.29,25,84.69,37.41,136.15,42.99c4.94,0.54,9.9,1.01,14.84,1.42c4.74,0.4,9.5,0.74,14.22,1.04
			c59.32,3.7,123.54,0.06,170.55-23.73c0.42-0.21,0.83-0.43,1.24-0.65c46.1-24,65.11-72.38,26.83-101.57
			c-32.02-24.41-92.72-26.54-135.57-10.6c-1.48,0.55-2.93,1.12-4.37,1.7c-40.32,16.3-65.67,45.26-78.83,75.01
			c-7,15.81-10.08,32.55-9.47,49.29c0.08,2.7,0.28,5.39,0.57,8.09c6.48,61,61.21,120.12,151.56,132.43
			c80.37,10.95,155.86-15.85,230.22-42.31c21.49-7.65,42.89-15.26,64.29-21.93c80.67-25.13,170.55-37.65,259.97-36.2
			c26.33,0.42,53.56,2.23,76.4,10.71c47.3,17.59,61.54,59.63,47.07,93.77c-13.34,31.46-44.82,56.78-85.04,76.41
			c-39.8,19.45-88.16,33.31-136,42.09c-96.21,17.65-198.72,21.49-290.29,47.5c-22.51,6.38-43.98,14.15-64.22,23.12
			c-102.88,45.47-173.78,121.49-184.32,202.26c-0.64,5,2.59,17.73,3.8,22.69c12.68,52.46,92.02,49.61,111.86,47.92
			c97.6-8.36,124.3-19.9,223.15-19.83c91.13,0.06,201.25,22.68,224.56,79.88c16.22,39.78-21.93,80.69-72.83,106.08
			c-3.8,1.88-7.66,3.69-11.59,5.41c-56.48,24.69-123.88,36.44-183.88,57.33c-13.06,4.55-25.74,9.55-37.97,14.96
			c-86.68,38.35-151.54,97.39-177.92,163.37c-20.5,51.24-10.66,99.08,18.09,145.04"/>
		<path class="st1" d="M538.94,88.59c9.64-3.29,20.65-4.92,32.79-4.25c22.88,1.25,43.3,9.73,61.07,19.19
			c38.25,20.35,68.22,46.73,88.32,76.02c0.07,0.1,0.14,0.2,0.2,0.29c29.96,43.8,37.96,94.08,18.83,140.42
			c-26.97,65.32-100,117.8-149.31,177.38c-49.3,59.57-70.49,140.23,0.21,189.88c60.75,42.67,163.33,44.35,251.65,35.03
			c88.31-9.33,179.33-26.47,265.42-10.66c86.11,15.83,156.9,83.26,109.03,132.36c-6.76,6.92-15.01,12.77-24.42,17.72"/>
		<path class="st1" d="M844.85,0.01c-0.08,2.94-0.24,5.9-0.5,8.9c-4.85,58.16-43.19,126.38-109.7,163.98
			c-2.99,1.71-6.05,3.34-9.17,4.9c-1.38,0.7-2.76,1.38-4.15,2.05c-3.92,1.87-7.93,3.64-12.03,5.3
			c-58.37,23.61-142.62,28.55-190.69-3.38c-39.58-26.28-24.46-77.81,20.32-93.14"/>
		<path class="st1" d="M845.25,8.95c0.63,60.6-32.65,128.2-110.16,164.58c-3.13,1.48-6.34,2.9-9.62,4.26
			c-0.8,0.34-1.61,0.68-2.43,1.01c-0.63,0.26-1.28,0.51-1.93,0.75c-58.3,22.96-141.23,27.43-188.79-4.15
			c-35.19-23.38-27.12-66.71,6.6-86.79c0.01,0,0.01-0.01,0.01-0.01c12.36-7.37,28.16-11.61,46.53-10.6
			c22.88,1.26,43.3,9.74,61.08,19.2c38.11,20.27,67.97,46.53,88.1,75.69c0.14,0.21,0.3,0.43,0.44,0.65
			c29.95,43.79,37.93,94.05,18.8,140.39c-26.97,65.32-99.99,117.8-149.29,177.38c-49.32,59.57-70.5,140.22,0.2,189.88
			c60.76,42.67,163.33,44.35,251.65,35.02c88.32-9.33,179.33-26.47,265.44-10.65c86.1,15.82,156.9,83.25,109.02,132.35
			c-9.87,10.13-22.98,17.94-38.16,24.07c-0.01,0.01-0.01,0.01-0.03,0.01c-35.92,14.51-83.35,19.6-126.6,23.85
			c-131.93,12.96-262.26,32.84-389.29,59.38c-69.81,14.57-140.88,32.18-199.06,60.25c-20.38,9.84-39.2,20.96-55.81,33.69
			c-64,49.06-83.03,128.42-17.14,176.43c31.09,22.67,75.46,35,121.83,41.24c4.75,0.65,9.52,1.23,14.31,1.75
			c9.68,1.05,19.41,1.85,29.08,2.45c54.2,3.38,112.52,0.64,158.03-18.03c4.28-1.75,8.45-3.64,12.49-5.69
			c47.01-23.78,66.69-72.77,28.08-102.23c-32.01-24.41-92.71-26.54-135.57-10.59c-6.4,2.37-12.43,5.07-18.11,8.03
			c-32.42,16.85-53.47,42.45-65.09,68.66c-8.14,18.35-10.96,37.97-8.9,57.39c0.28,2.59,0.64,5.18,1.1,7.76
			c10.1,58.17,63.94,112.88,150.46,124.66c75.16,10.23,146.04-12.54,215.75-37.15c26.37-9.32,52.58-18.91,78.78-27.07
			c80.66-25.13,170.53-37.66,259.97-36.22c26.32,0.42,53.54,2.23,76.39,10.72c47.3,17.59,61.55,59.63,47.07,93.76
			c-14.82,34.97-52.04,62.34-98.78,82.75c-36.93,16.15-79.8,27.95-122.26,35.75c-96.21,17.64-198.72,21.49-290.29,47.49
			c-27.67,7.86-53.78,17.8-77.96,29.47c-95.41,46.01-160.52,118.8-170.56,195.91c-0.65,5,2.58,17.74,3.78,22.71
			c12.7,52.44,92.03,49.59,111.86,47.9c97.6-8.36,124.3-19.89,223.15-19.83c91.13,0.06,201.25,22.68,224.57,79.89
			c17.41,42.74-27.94,86.79-84.43,111.48c-0.72,0.32-1.44,0.62-2.16,0.93c-56.03,24.05-122.48,35.76-181.72,56.4
			c-18.02,6.28-35.3,13.41-51.72,21.3c-79.77,38.35-139.2,94.58-164.18,157.03c-19.8,49.47-17.72,102.37,4.35,151.39c0,0,0,0,0,0.01
			c7.06,15.69,16.17,30.97,27.27,45.63"/>
	</g>
</g>
<g id="XMLID_00000060708948118504223850000017962093420134705329_">
	<g>
		<path class="st0" d="M971.09,3584.48c-0.28,2.59-0.64,5.18-1.1,7.76c4.94-0.41,9.9-0.88,14.84-1.42c0.28-2.7,0.48-5.39,0.57-8.09
			C980.64,3583.37,975.87,3583.96,971.09,3584.48z"/>
		<path class="st0" d="M783.99,3568.9c0.4,0.22,0.82,0.44,1.24,0.65c47.01,23.79,111.23,27.43,170.55,23.73
			c4.73-0.3,9.48-0.64,14.22-1.04c0.46-2.58,0.81-5.17,1.1-7.76c-9.68,1.05-19.41,1.85-29.08,2.45
			C887.81,3590.31,829.49,3587.56,783.99,3568.9z"/>
		<path class="st0" d="M1103.82,3371.39c-20.28-15.55-43.84-28.7-69.55-40.04c20.38,9.84,39.2,20.96,55.81,33.69
			c64,49.06,83.03,128.42,17.14,176.43c-31.09,22.67-75.46,35-121.83,41.24c-0.08,2.7-0.28,5.39-0.57,8.09
			c51.46-5.58,101.85-18,136.15-42.99C1186.85,3499.81,1167.82,3420.44,1103.82,3371.39z"/>
		<path class="st0" d="M771.5,3563.21c4.04,2.05,8.21,3.94,12.49,5.69c-46.1-24-65.11-72.38-26.83-101.57
			c32.02-24.41,92.72-26.54,135.57-10.6c1.48,0.55,2.93,1.12,4.37,1.7c-5.68-2.97-11.72-5.66-18.11-8.03
			c-42.86-15.95-103.56-13.82-135.57,10.59C704.81,3490.44,724.49,3539.43,771.5,3563.21z"/>
		<path class="st0" d="M390.14,3031.44c-86.1,15.82-156.9,83.25-109.02,132.35c9.87,10.13,22.98,17.94,38.16,24.07
			c-9.4-4.96-17.66-10.8-24.42-17.72c-47.87-49.1,22.92-116.53,109.03-132.36c86.1-15.82,177.12,1.33,265.42,10.66
			c88.32,9.32,190.9,7.64,251.65-35.03c70.7-49.66,49.51-130.31,0.21-189.88c-49.3-59.58-122.33-112.05-149.31-177.38
			c-19.13-46.34-11.13-96.62,18.83-140.42c-1.39-0.67-2.77-1.35-4.15-2.05c-0.03,0-0.04-0.01-0.07-0.03
			c-3.25-1.35-6.44-2.76-9.54-4.23c-29.95,43.79-37.93,94.06-18.8,140.4c26.97,65.32,99.99,117.8,149.29,177.38
			c49.32,59.57,70.5,140.22-0.2,189.88c-60.76,42.67-163.33,44.35-251.65,35.02S476.25,3015.62,390.14,3031.44z"/>
		<path class="st0" d="M338.07,4242.99c-17.41,42.74,27.94,86.79,84.43,111.48c0.72,0.32,1.44,0.62,2.16,0.93
			c-50.9-25.39-89.05-66.3-72.83-106.08c23.31-57.21,133.43-79.82,224.56-79.88c98.86-0.08,125.55,11.46,223.15,19.82
			c19.84,1.7,99.18,4.55,111.86-47.92c1.2-4.95,4.43-17.69,3.8-22.69c-10.54-80.76-81.44-156.79-184.32-202.26
			c95.41,46.01,160.52,118.8,170.56,195.91c0.65,5-2.58,17.74-3.78,22.71c-12.7,52.44-92.03,49.59-111.86,47.9
			c-97.6-8.36-124.3-19.89-223.15-19.83C471.51,4163.16,361.39,4185.77,338.07,4242.99z"/>
		<path class="st0" d="M722.34,2462.69c14.93,14.1,33.06,26.63,54.59,36.73c0.16-0.22,0.3-0.43,0.44-0.64
			c-66.5-37.6-104.84-105.82-109.7-163.98l-0.91,0.04C666.33,2378.62,683.55,2426.02,722.34,2462.69z"/>
		<path class="st0" d="M979.7,2501.3c-47.56,31.58-130.49,27.11-188.79,4.15c-0.07,0.1-0.14,0.2-0.2,0.28
			c3.92,1.87,7.93,3.64,12.03,5.3c58.37,23.61,142.62,28.55,190.69-3.38c39.58-26.28,24.46-77.81-20.32-93.14
			C1006.82,2434.59,1014.88,2477.92,979.7,2501.3z"/>
		<path class="st0" d="M897.1,3458.42c32.42,16.85,53.47,42.45,65.09,68.66c8.14,18.35,10.96,37.97,8.9,57.39
			c4.78-0.52,9.55-1.1,14.31-1.75c0.61-16.74-2.47-33.49-9.47-49.29C962.76,3503.68,937.42,3474.72,897.1,3458.42z"/>
		<path class="st0" d="M141.58,3720.94c14.82,34.97,52.04,62.34,98.78,82.75c-40.22-19.63-71.7-44.95-85.04-76.41
			c-14.46-34.14-0.23-76.18,47.07-93.77c22.85-8.49,50.07-10.29,76.4-10.71c89.42-1.44,179.3,11.08,259.97,36.2
			c21.4,6.67,42.8,14.28,64.29,21.93l0.73-1.19c-26.37-9.32-52.58-18.91-78.78-27.07c-80.66-25.13-170.53-37.66-259.97-36.22
			c-26.32,0.42-53.54,2.23-76.39,10.72C141.35,3644.77,127.1,3686.82,141.58,3720.94z"/>
		<path class="st0" d="M848.94,3277.45c64.39,13.43,129.88,29.45,185.32,53.91c-58.19-28.08-129.25-45.68-199.06-60.25
			c-127.03-26.54-257.36-46.42-389.29-59.38c-43.25-4.24-90.68-9.34-126.6-23.85c36.92,19.48,91.32,25.38,140.34,30.18
			C591.6,3231.03,721.93,3250.91,848.94,3277.45z"/>
		<path class="st0" d="M777.38,2498.78c2.98,1.7,6.01,3.32,9.1,4.87c0.03,0.02,0.04,0.03,0.07,0.03c0.8,0.34,1.61,0.68,2.43,1.01
			c0.63,0.26,1.28,0.51,1.93,0.75c20.11-29.29,50.08-55.67,88.32-76.02c17.76-9.46,38.18-17.93,61.07-19.19
			c12.14-0.67,23.15,0.96,32.79,4.25c-12.36-7.37-28.16-11.61-46.53-10.6c-22.88,1.26-43.3,9.74-61.08,19.2
			C827.37,2443.36,797.5,2469.62,777.38,2498.78z"/>
		<path class="st0" d="M658.09,4433.1c79.77,38.35,139.2,94.58,164.18,157.03c19.73,49.31,17.79,102.01-4.06,150.91
			c28.52-45.82,38.24-93.5,17.8-144.56C809.63,4530.49,744.77,4471.45,658.09,4433.1z"/>
		<path class="st0" d="M620.12,4418.14c13.06,4.55,25.74,9.55,37.97,14.96c-16.42-7.89-33.69-15.02-51.72-21.3
			c-59.24-20.64-125.69-32.35-181.72-56.4c3.8,1.88,7.66,3.69,11.59,5.41C492.72,4385.5,560.13,4397.25,620.12,4418.14z"/>
		<path class="st0" d="M666.66,3893.28c22.51,6.38,43.98,14.15,64.22,23.12c-24.18-11.67-50.29-21.61-77.96-29.47
			c-91.58-26.01-194.09-29.85-290.29-47.49c-42.46-7.8-85.33-19.6-122.26-35.75c39.8,19.45,88.16,33.31,136,42.09
			C472.57,3863.43,575.08,3867.26,666.66,3893.28z"/>
		<path class="st0" d="M788.98,2504.69c-0.82-0.33-1.62-0.67-2.43-1.01c1.38,0.7,2.76,1.38,4.15,2.05c0.06-0.09,0.13-0.19,0.2-0.28
			C790.26,2505.21,789.61,2504.96,788.98,2504.69z"/>
		<path class="st0" d="M603.78,3679.74l-0.73,1.19c74.36,26.46,149.85,53.25,230.22,42.31c90.35-12.31,145.08-71.44,151.56-132.43
			c-4.94,0.54-9.9,1.01-14.84,1.42c-10.1,58.17-63.94,112.88-150.46,124.66C744.38,3727.13,673.49,3704.36,603.78,3679.74z"/>
		<path class="st0" d="M777.38,2498.78c-0.14,0.21-0.29,0.42-0.44,0.64c3.1,1.48,6.3,2.89,9.54,4.23
			C783.39,2502.1,780.36,2500.48,777.38,2498.78z"/>
	</g>
	<g>
		<path class="st1" d="M818.21,4741.05c-7.71,12.38-16.81,24.62-27.04,36.77"/>
		<path class="st1" d="M319.31,3187.87c36.92,19.48,91.32,25.38,140.34,30.18c131.95,12.97,262.28,32.85,389.29,59.39
			c64.39,13.43,129.88,29.45,185.32,53.91c25.72,11.33,49.28,24.49,69.55,40.04c64,49.05,83.03,128.42,17.16,176.42
			c-34.29,25-84.69,37.41-136.15,42.99c-4.94,0.54-9.9,1.01-14.84,1.42c-4.74,0.4-9.5,0.74-14.22,1.04
			c-59.32,3.7-123.54,0.06-170.55-23.73c-0.42-0.21-0.83-0.43-1.24-0.65c-46.1-24-65.11-72.38-26.83-101.57
			c32.02-24.41,92.72-26.54,135.57-10.6c1.48,0.55,2.93,1.12,4.37,1.7c40.32,16.3,65.67,45.26,78.83,75.01
			c7,15.81,10.08,32.55,9.47,49.29c-0.08,2.7-0.28,5.39-0.57,8.09c-6.48,61-61.21,120.12-151.56,132.43
			c-80.37,10.95-155.86-15.85-230.22-42.31c-21.49-7.65-42.89-15.26-64.29-21.93c-80.67-25.13-170.55-37.65-259.97-36.2
			c-26.33,0.42-53.56,2.23-76.4,10.71c-47.3,17.59-61.54,59.63-47.07,93.77c13.34,31.46,44.82,56.78,85.04,76.41
			c39.8,19.45,88.16,33.31,136,42.09c96.21,17.65,198.72,21.49,290.29,47.5c22.51,6.38,43.98,14.15,64.22,23.12
			c102.88,45.47,173.78,121.49,184.32,202.26c0.64,5-2.59,17.73-3.8,22.69c-12.68,52.46-92.02,49.61-111.86,47.92
			c-97.6-8.36-124.3-19.9-223.15-19.82c-91.13,0.06-201.25,22.68-224.56,79.88c-16.22,39.78,21.93,80.69,72.83,106.08
			c3.8,1.88,7.66,3.69,11.59,5.41c56.48,24.69,123.88,36.44,183.88,57.33c13.06,4.55,25.74,9.55,37.97,14.96
			c86.68,38.35,151.54,97.39,177.92,163.37c20.43,51.06,10.72,98.74-17.8,144.56"/>
		<path class="st1" d="M973.09,2414.49c-9.64-3.29-20.65-4.92-32.79-4.25c-22.88,1.25-43.3,9.73-61.07,19.19
			c-38.25,20.35-68.22,46.73-88.32,76.02c-0.07,0.1-0.14,0.2-0.2,0.28c-29.96,43.8-37.96,94.08-18.83,140.42
			c26.97,65.32,100,117.8,149.31,177.38c49.3,59.57,70.49,140.23-0.21,189.88c-60.75,42.67-163.33,44.35-251.65,35.03
			c-88.31-9.33-179.33-26.47-265.42-10.66c-86.11,15.83-156.9,83.26-109.03,132.36c6.76,6.92,15.01,12.77,24.42,17.72"/>
		<path class="st1" d="M786.55,2503.69c1.38,0.7,2.76,1.38,4.15,2.05c3.92,1.87,7.93,3.64,12.03,5.3
			c58.37,23.61,142.62,28.55,190.69-3.38c39.58-26.28,24.46-77.81-20.32-93.14"/>
		<path class="st1" d="M667.19,2325.91c0.08,2.94,0.24,5.9,0.5,8.9c4.85,58.16,43.19,126.38,109.7,163.98
			c2.98,1.7,6.01,3.32,9.1,4.87"/>
		<path class="st1" d="M666.78,2334.85c-0.45,43.77,16.77,91.17,55.56,127.84c14.93,14.1,33.06,26.63,54.59,36.73
			c3.1,1.48,6.3,2.89,9.54,4.23c0.03,0.02,0.04,0.03,0.07,0.03c0.8,0.34,1.61,0.68,2.43,1.01c0.63,0.26,1.28,0.51,1.93,0.75
			c58.3,22.96,141.23,27.43,188.79-4.15c35.19-23.38,27.12-66.71-6.6-86.79c-0.01-0.01-0.01-0.01-0.01-0.01
			c-12.36-7.37-28.16-11.61-46.53-10.6c-22.88,1.26-43.3,9.74-61.08,19.2c-38.11,20.27-67.97,46.53-88.1,75.69
			c-0.14,0.21-0.29,0.42-0.44,0.64c-29.95,43.79-37.93,94.06-18.8,140.4c26.97,65.32,99.99,117.8,149.29,177.38
			c49.32,59.57,70.5,140.22-0.2,189.88c-60.76,42.67-163.33,44.35-251.65,35.02s-179.33-26.47-265.44-10.65
			c-86.1,15.82-156.9,83.25-109.02,132.35c9.87,10.13,22.98,17.94,38.16,24.07c0,0,0.01,0.01,0.03,0.01
			c35.92,14.51,83.35,19.6,126.6,23.85c131.93,12.96,262.26,32.84,389.29,59.38c69.81,14.57,140.88,32.18,199.06,60.25
			c20.38,9.84,39.2,20.96,55.81,33.69c64,49.06,83.03,128.42,17.14,176.43c-31.09,22.67-75.46,35-121.83,41.24
			c-4.75,0.65-9.52,1.23-14.31,1.75c-9.68,1.05-19.41,1.85-29.08,2.45c-54.2,3.38-112.52,0.64-158.03-18.03
			c-4.28-1.75-8.45-3.64-12.49-5.69c-47.01-23.78-66.69-72.77-28.08-102.23c32.01-24.41,92.71-26.54,135.57-10.59
			c6.4,2.37,12.43,5.07,18.11,8.03c32.42,16.85,53.47,42.45,65.09,68.66c8.14,18.35,10.96,37.97,8.9,57.39
			c-0.28,2.59-0.64,5.18-1.1,7.76c-10.1,58.17-63.94,112.88-150.46,124.66c-75.16,10.23-146.04-12.54-215.75-37.15
			c-26.37-9.32-52.58-18.91-78.78-27.07c-80.66-25.13-170.53-37.66-259.97-36.22c-26.32,0.42-53.54,2.23-76.39,10.72
			c-47.3,17.59-61.55,59.63-47.07,93.76c14.82,34.97,52.04,62.34,98.78,82.75c36.93,16.15,79.8,27.95,122.26,35.75
			c96.21,17.64,198.72,21.49,290.29,47.49c27.67,7.86,53.78,17.8,77.96,29.47c95.41,46.01,160.52,118.8,170.56,195.91
			c0.65,5-2.58,17.74-3.78,22.71c-12.7,52.44-92.03,49.59-111.86,47.9c-97.6-8.36-124.3-19.89-223.15-19.83
			c-91.13,0.06-201.25,22.68-224.57,79.89c-17.41,42.74,27.94,86.79,84.43,111.48c0.72,0.32,1.44,0.62,2.16,0.93
			c56.03,24.05,122.48,35.76,181.72,56.4c18.02,6.28,35.3,13.41,51.72,21.3c79.77,38.35,139.2,94.58,164.18,157.03
			c19.73,49.31,17.79,102.01-4.06,150.91c0,0.01,0,0.01,0,0.01c-5.5,12.33-12.28,24.42-20.3,36.15"/>
	</g>
</g>
<g id="XMLID_00000047767654216084375890000014279016017608175286_">
	<g>
		<path class="st0" d="M774.3,6247.92c24.16-11.65,50.28-21.6,77.93-29.45c91.59-26.01,194.1-29.85,290.29-47.5
			c42.43-7.79,85.29-19.59,122.2-35.72c-39.79,19.42-88.14,33.29-135.94,42.05c-96.19,17.65-198.7,21.49-290.28,47.5
			C816.01,6231.2,794.54,6238.97,774.3,6247.92z"/>
		<path class="st0" d="M1264.73,6135.26c40.26-19.63,71.77-44.96,85.11-76.43c14.45-34.14,0.23-76.18-47.09-93.77
			c-22.85-8.5-50.07-10.29-76.4-10.73c-89.42-1.44-179.3,11.08-259.95,36.2c-18.77,5.85-37.55,12.43-56.38,19.12l-0.73-1.2
			c23.7-8.41,47.29-16.91,70.87-24.26c80.64-25.13,170.52-37.65,259.95-36.2c26.32,0.42,53.54,2.22,76.39,10.71
			c47.32,17.59,61.55,59.63,47.09,93.77C1348.76,6087.46,1311.5,6114.84,1264.73,6135.26z"/>
		<path class="st0" d="M1185.77,5519.45c9.44-4.97,17.76-10.83,24.53-17.78c47.86-49.09-22.94-116.52-109.03-132.35
			s-177.12,1.33-265.44,10.65c-88.32,9.33-190.9,7.65-251.64-35.03c-70.7-49.64-49.51-130.3-0.21-189.88
			c49.3-59.57,122.32-112.04,149.29-177.38c19.13-46.35,11.15-96.62-18.81-140.41c1.39-0.67,2.79-1.35,4.17-2.05
			c3.28-1.37,6.48-2.78,9.6-4.25c29.93,43.78,37.92,94.03,18.79,140.36c-26.97,65.32-99.99,117.8-149.28,177.38
			c-49.32,59.57-70.5,140.23,0.2,189.89c60.75,42.67,163.31,44.35,251.64,35.01c88.34-9.32,179.34-26.46,265.45-10.64
			c86.08,15.82,156.89,83.25,109.02,132.35C1214.13,5505.5,1200.97,5513.31,1185.77,5519.45z"/>
		<path class="st0" d="M415.08,5696.58c-64.02,49.07-83.03,128.43-17.16,176.45c31.11,22.66,75.46,34.99,121.84,41.23
			c0.08,2.7,0.28,5.4,0.57,8.1c-51.46-5.58-101.87-18-136.16-42.99c-65.86-48.01-46.85-127.38,17.17-176.44
			c20.25-15.51,43.75-28.65,69.41-39.96C450.41,5672.78,431.66,5683.88,415.08,5696.58z"/>
		<path class="st0" d="M534.07,5916c0.27,2.59,0.64,5.18,1.1,7.76c-4.94-0.41-9.9-0.88-14.84-1.41c-0.28-2.7-0.48-5.4-0.57-8.1
			C524.52,5914.9,529.29,5915.49,534.07,5916z"/>
		<path class="st0" d="M535.17,5923.76c-0.46-2.58-0.83-5.17-1.1-7.76c9.7,1.05,19.42,1.85,29.08,2.46
			c54.22,3.38,112.55,0.64,158.06-18.05c-0.42,0.23-0.85,0.45-1.28,0.67c-46.99,23.78-111.22,27.42-170.53,23.72
			C544.66,5924.5,539.91,5924.16,535.17,5923.76z"/>
		<path class="st0" d="M608.06,5789.95c-32.42,16.85-53.47,42.45-65.09,68.67c-8.12,18.35-10.96,37.96-8.9,57.38
			c-4.78-0.52-9.55-1.1-14.31-1.75c-0.6-16.74,2.47-33.49,9.47-49.28C542.4,5835.21,567.73,5806.26,608.06,5789.95z"/>
		<path class="st0" d="M682.89,6921.67c-19.74,49.34-17.76,102.07,4.11,150.99c-28.57-45.85-38.29-93.55-17.85-144.65
			c26.38-66,91.25-125.04,177.94-163.37C767.3,6802.99,707.87,6859.22,682.89,6921.67z"/>
		<path class="st0" d="M838.38,4666.39c0.63,60.59-32.65,128.2-110.16,164.59c-0.14-0.22-0.3-0.44-0.44-0.65
			c66.5-37.61,104.83-105.82,109.7-163.98L838.38,4666.39z"/>
		<path class="st0" d="M1167.08,6574.52c17.42,42.75-27.94,86.8-84.42,111.48c-0.66,0.28-1.32,0.58-1.98,0.84
			c50.8-25.38,88.85-66.25,72.65-105.98c-23.31-57.22-133.42-79.83-224.55-79.89c-98.86-0.08-125.56,11.48-223.17,19.84
			c-19.84,1.7-99.18,4.53-111.85-47.92c-1.2-4.95-4.45-17.69-3.81-22.7c10.55-80.76,81.47-156.79,184.35-202.27
			c-95.42,46.01-160.53,118.81-170.59,195.92c-0.65,5.01,2.59,17.74,3.8,22.71c12.68,52.44,92.02,49.6,111.85,47.91
			c97.6-8.36,124.31-19.9,223.17-19.84C1033.65,6494.69,1143.76,6517.3,1167.08,6574.52z"/>
		<path class="st0" d="M898.78,6743.34c59.29-20.67,125.83-32.38,181.89-56.5c-3.85,1.93-7.78,3.76-11.76,5.5
			c-56.48,24.68-123.9,36.43-183.88,57.33c-13.06,4.55-25.73,9.55-37.96,14.96C863.5,6756.75,880.78,6749.62,898.78,6743.34z"/>
		<path class="st0" d="M721.2,5900.42c46.07-24.02,65.05-72.37,26.8-101.55c-32.02-24.43-92.72-26.54-135.57-10.61
			c-1.48,0.55-2.93,1.12-4.37,1.7c5.68-2.97,11.72-5.65,18.11-8.03c42.86-15.94,103.56-13.82,135.57,10.6
			c38.61,29.46,18.92,78.44-28.08,102.22C729.64,5896.77,725.47,5898.67,721.2,5900.42z"/>
		<path class="st0" d="M909.28,6008.46l0.73,1.2c-76.94,27.32-154.91,56.46-238.12,45.12c-90.37-12.3-145.09-71.42-151.56-132.42
			c4.94,0.53,9.9,1,14.84,1.41c10.09,58.17,63.93,112.89,150.46,124.66C763.63,6059.05,837.03,6034.12,909.28,6008.46z"/>
		<path class="st0" d="M716.18,4836.23c0.82-0.33,1.64-0.67,2.44-1.01c-1.38,0.7-2.77,1.38-4.17,2.05c-0.07-0.1-0.13-0.2-0.2-0.29
			C714.9,4836.75,715.55,4836.5,716.18,4836.23z"/>
		<path class="st0" d="M716.18,4836.23c-0.63,0.26-1.28,0.51-1.93,0.75c-20.12-29.29-50.08-55.68-88.34-76.02
			c-17.76-9.46-38.17-17.94-61.05-19.2c-12.12-0.67-23.12,0.95-32.75,4.24c12.35-7.36,28.13-11.59,46.47-10.58
			c22.88,1.25,43.3,9.74,61.08,19.19c38.12,20.28,68,46.54,88.11,75.71c-2.99,1.7-6.04,3.33-9.16,4.89
			C717.82,4835.57,717,4835.91,716.18,4836.23z"/>
		<path class="st0" d="M1059.25,5543.25c43.21-4.24,90.59-9.33,126.51-23.8c-36.93,19.45-91.27,25.34-140.26,30.15
			c-131.95,12.97-262.28,32.84-389.31,59.38c-64.45,13.46-129.98,29.5-185.45,53.99c58.2-28.11,129.34-45.74,199.19-60.33
			C796.99,5576.1,927.32,5556.22,1059.25,5543.25z"/>
		<path class="st0" d="M728.23,4830.98c-3.12,1.47-6.32,2.88-9.6,4.25c3.12-1.56,6.17-3.2,9.16-4.89
			C727.92,4830.54,728.08,4830.76,728.23,4830.98z"/>
		<path class="st0" d="M532.12,4746.01c-33.76,20.06-41.85,63.44-6.65,86.83c47.56,31.58,130.49,27.1,188.79,4.15
			c0.07,0.09,0.13,0.19,0.2,0.29c-3.92,1.87-7.93,3.64-12.03,5.3c-58.37,23.61-142.62,28.54-190.7-3.4
			C472.14,4812.89,487.29,4761.32,532.12,4746.01z"/>
	</g>
	<g>
		<path class="st1" d="M687.02,7072.72c9.55,15.3,21.18,30.4,34.5,45.35"/>
		<path class="st1" d="M837.96,4657.45c-0.08,2.94-0.24,5.91-0.48,8.91c-4.87,58.16-43.19,126.37-109.7,163.98
			c-2.99,1.7-6.04,3.33-9.16,4.89c-1.38,0.7-2.77,1.38-4.17,2.05c-3.92,1.87-7.93,3.64-12.03,5.3
			c-58.37,23.61-142.62,28.54-190.7-3.4c-39.58-26.28-24.43-77.85,20.39-93.16c9.63-3.29,20.62-4.91,32.75-4.24
			c22.88,1.25,43.29,9.74,61.05,19.2c38.26,20.34,68.22,46.73,88.34,76.02c0.07,0.09,0.13,0.19,0.2,0.29
			c29.96,43.79,37.95,94.06,18.81,140.41c-26.97,65.34-99.99,117.81-149.29,177.38c-49.3,59.58-70.49,140.24,0.21,189.88
			c60.74,42.68,163.31,44.36,251.64,35.03c88.32-9.32,179.34-26.47,265.44-10.65s156.89,83.26,109.03,132.35
			c-6.77,6.95-15.09,12.81-24.53,17.78c-36.93,19.45-91.27,25.34-140.26,30.15c-131.95,12.97-262.28,32.84-389.31,59.38
			c-64.45,13.46-129.98,29.5-185.45,53.99c-25.66,11.31-49.16,24.45-69.41,39.96c-64.02,49.06-83.03,128.43-17.17,176.44
			c34.29,25,84.71,37.41,136.16,42.99c4.94,0.53,9.9,1,14.84,1.41c4.74,0.4,9.5,0.74,14.22,1.04c59.32,3.7,123.54,0.06,170.53-23.72
			c0.43-0.22,0.86-0.44,1.28-0.67c46.07-24.02,65.05-72.37,26.8-101.55c-32.02-24.43-92.72-26.54-135.57-10.61
			c-1.48,0.55-2.93,1.12-4.37,1.7c-40.33,16.31-65.67,45.26-78.83,75.02c-7,15.8-10.07,32.54-9.47,49.28c0.08,2.7,0.28,5.4,0.57,8.1
			c6.47,61,61.19,120.12,151.56,132.42c83.21,11.34,161.19-17.8,238.12-45.12c18.83-6.68,37.61-13.27,56.38-19.12
			c80.66-25.13,170.53-37.65,259.95-36.2c26.33,0.43,53.56,2.23,76.4,10.73c47.32,17.59,61.54,59.63,47.09,93.77
			c-13.34,31.47-44.85,56.8-85.11,76.43c-39.79,19.42-88.14,33.29-135.94,42.05c-96.19,17.65-198.7,21.49-290.28,47.5
			c-22.49,6.38-43.96,14.16-64.2,23.11c-102.88,45.48-173.79,121.51-184.35,202.27c-0.64,5.01,2.61,17.74,3.81,22.7
			c12.67,52.45,92,49.61,111.85,47.92c97.6-8.36,124.31-19.91,223.17-19.84c91.13,0.06,201.24,22.68,224.55,79.89
			c16.2,39.73-21.85,80.6-72.65,105.98c-3.85,1.93-7.78,3.76-11.76,5.5c-56.48,24.68-123.9,36.43-183.88,57.33
			c-13.06,4.55-25.73,9.55-37.96,14.96c-86.69,38.34-151.55,97.37-177.94,163.37c-20.45,51.09-10.72,98.8,17.85,144.65"/>
		<path class="st1" d="M838.38,4666.39c0.63,60.59-32.65,128.2-110.16,164.59c-3.12,1.47-6.32,2.88-9.6,4.25
			c-0.8,0.34-1.62,0.68-2.44,1.01c-0.63,0.26-1.28,0.51-1.93,0.75c-58.3,22.95-141.23,27.43-188.79-4.15
			c-35.2-23.39-27.1-66.76,6.65-86.83c12.35-7.36,28.13-11.59,46.47-10.58c22.88,1.25,43.3,9.74,61.08,19.19
			c38.12,20.28,68,46.54,88.11,75.71c0.14,0.21,0.3,0.43,0.44,0.65c29.93,43.78,37.92,94.03,18.79,140.36
			c-26.97,65.32-99.99,117.8-149.28,177.38c-49.32,59.57-70.5,140.23,0.2,189.89c60.75,42.67,163.31,44.35,251.64,35.01
			c88.34-9.32,179.34-26.46,265.45-10.64c86.08,15.82,156.89,83.25,109.02,132.35c-9.91,10.16-23.07,17.98-38.27,24.11
			c-35.92,14.47-83.31,19.56-126.51,23.8c-131.93,12.97-262.26,32.85-389.31,59.38c-69.85,14.59-140.99,32.22-199.19,60.33
			c-20.34,9.82-39.09,20.91-55.67,33.61c-64.02,49.07-83.03,128.43-17.16,176.45c31.11,22.66,75.46,34.99,121.84,41.23
			c4.75,0.65,9.52,1.23,14.31,1.75c9.7,1.05,19.42,1.85,29.08,2.46c54.22,3.38,112.55,0.64,158.06-18.05
			c4.27-1.75,8.44-3.64,12.46-5.68c46.99-23.78,66.69-72.76,28.08-102.22c-32.01-24.43-92.71-26.54-135.57-10.6
			c-6.4,2.38-12.43,5.07-18.11,8.03c-32.42,16.85-53.47,42.45-65.09,68.67c-8.12,18.35-10.96,37.96-8.9,57.38
			c0.27,2.59,0.64,5.18,1.1,7.76c10.09,58.17,63.93,112.89,150.46,124.66c78,10.63,151.4-14.31,223.65-39.97
			c23.7-8.41,47.29-16.91,70.87-24.26c80.64-25.13,170.52-37.65,259.95-36.2c26.32,0.42,53.54,2.22,76.39,10.71
			c47.32,17.59,61.55,59.63,47.09,93.77c-14.82,34.98-52.08,62.36-98.85,82.78c-36.91,16.13-79.77,27.92-122.2,35.72
			c-96.19,17.65-198.7,21.5-290.29,47.5c-27.65,7.85-53.77,17.79-77.93,29.45c-95.42,46.01-160.53,118.81-170.59,195.92
			c-0.65,5.01,2.59,17.74,3.8,22.71c12.68,52.44,92.02,49.6,111.85,47.91c97.6-8.36,124.31-19.9,223.17-19.84
			c91.13,0.06,201.24,22.68,224.56,79.89c17.42,42.75-27.94,86.8-84.42,111.48c-0.66,0.28-1.32,0.58-1.98,0.84
			c-56.06,24.11-122.6,35.83-181.89,56.5c-18.01,6.28-35.29,13.41-51.7,21.3c-79.78,38.34-139.21,94.57-164.19,157.03
			c-19.74,49.34-17.76,102.07,4.11,150.99c0.01,0.02,0.03,0.03,0.03,0.05c3.18,7.11,6.78,14.14,10.79,21.07"/>
	</g>
</g>
<g id="XMLID_00000109022921978664917650000005950021372917504916_">
	<g>
		<path class="st0" d="M962.28,8242.07c0.46-2.58,0.83-5.17,1.1-7.76c-9.68,1.05-19.41,1.85-29.08,2.45
			c-54.22,3.38-112.53,0.63-158.06-18.04c0.42,0.23,0.85,0.45,1.28,0.67c46.99,23.78,111.22,27.42,170.53,23.72
			C952.79,8242.81,957.54,8242.47,962.28,8242.07z"/>
		<path class="st0" d="M965.39,7064.34c33.71,20.1,41.78,63.43,6.6,86.79c-47.56,31.58-130.49,27.11-188.79,4.16
			c-0.06,0.09-0.13,0.18-0.19,0.27c3.92,1.88,7.92,3.64,12.02,5.3c58.37,23.62,142.62,28.55,190.7-3.38
			C1025.29,7131.2,1010.17,7079.67,965.39,7064.34z"/>
		<path class="st0" d="M963.38,8234.31c-0.27,2.59-0.64,5.18-1.1,7.76c4.94-0.41,9.9-0.88,14.84-1.41c0.28-2.7,0.48-5.4,0.57-8.1
			C972.93,8233.21,968.16,8233.79,963.38,8234.31z"/>
		<path class="st0" d="M596.07,8329.57l-0.73,1.2c74.36,26.47,149.85,53.26,230.22,42.32c90.37-12.31,145.08-71.43,151.56-132.42
			c-4.94,0.53-9.9,1-14.84,1.41c-10.09,58.17-63.93,112.88-150.46,124.66C736.66,8376.97,665.78,8354.2,596.07,8329.57z"/>
		<path class="st0" d="M781.27,7154.53c0.63,0.26,1.28,0.51,1.93,0.77c20.12-29.29,50.08-55.68,88.34-76.02
			c17.76-9.47,38.17-17.94,61.05-19.2c12.14-0.67,23.15,0.96,32.79,4.25c-12.36-7.37-28.16-11.61-46.53-10.6
			c-22.88,1.27-43.29,9.74-61.07,19.2c-38.12,20.28-68,46.54-88.11,75.7c2.99,1.7,6.04,3.33,9.16,4.89
			C779.63,7153.86,780.45,7154.2,781.27,7154.53z"/>
		<path class="st0" d="M750.44,7289.65c26.97,65.32,99.97,117.8,149.28,177.38c49.32,59.57,70.5,140.23-0.2,189.88
			c-60.75,42.67-163.31,44.36-251.65,35.02c-88.32-9.32-179.33-26.47-265.44-10.65c-86.08,15.83-156.89,83.26-109.02,132.35
			c9.9,10.14,23.02,17.96,38.2,24.08c-9.42-4.96-17.7-10.8-24.46-17.74c-47.87-49.09,22.94-116.52,109.03-132.36
			c86.1-15.82,177.12,1.33,265.42,10.66c88.34,9.32,190.91,7.64,251.65-35.03c70.7-49.66,49.51-130.3,0.21-189.88
			c-49.3-59.57-122.32-112.04-149.29-177.38c-19.13-46.35-11.15-96.62,18.83-140.42c-1.41-0.66-2.8-1.35-4.18-2.05
			c-3.28-1.37-6.48-2.78-9.6-4.25C739.28,7193.06,731.3,7243.31,750.44,7289.65z"/>
		<path class="st0" d="M769.22,7149.28c3.12,1.47,6.32,2.88,9.6,4.25c-3.12-1.56-6.17-3.2-9.16-4.89
			C769.51,7148.85,769.37,7149.06,769.22,7149.28z"/>
		<path class="st0" d="M814.56,9239.98c30.11,75.3,10.35,144.68-56.2,215.08c64.66-65.5,100.07-133.44,69.94-208.73
			c-26.38-65.99-91.25-125.04-177.92-163.38C730.15,9121.29,789.58,9177.52,814.56,9239.98z"/>
		<path class="st0" d="M769.67,7148.63c-66.5-37.6-104.83-105.83-109.68-163.98l-0.92,0.04c-0.63,60.59,32.65,128.19,110.16,164.58
			C769.37,7149.06,769.51,7148.85,769.67,7148.63z"/>
		<path class="st0" d="M531.05,8308.84c21.4,6.67,42.8,14.28,64.29,21.92l0.73-1.2c-26.37-9.31-52.58-18.9-78.78-27.06
			c-80.64-25.13-170.52-37.66-259.95-36.21c-26.32,0.43-53.54,2.23-76.39,10.72c-47.32,17.59-61.55,59.63-47.09,93.77
			c14.82,34.98,52.08,62.36,98.85,82.78c-40.26-19.63-71.77-44.96-85.11-76.43c-14.45-34.14-0.23-76.18,47.09-93.77
			c22.85-8.5,50.07-10.3,76.4-10.73C360.52,8271.2,450.4,8283.72,531.05,8308.84z"/>
		<path class="st0" d="M723.16,8566.24c-24.18-11.67-50.29-21.61-77.96-29.47c-91.58-26.01-194.09-29.85-290.28-47.49
			c-42.43-7.79-85.29-19.59-122.2-35.72c39.79,19.42,88.14,33.29,135.94,42.05c96.19,17.65,198.7,21.49,290.28,47.5
			C681.45,8549.51,702.93,8557.28,723.16,8566.24z"/>
		<path class="st0" d="M1096.11,8021.23c-20.25-15.51-43.75-28.65-69.41-39.96c20.34,9.82,39.09,20.91,55.67,33.61
			c64.02,49.06,83.03,128.43,17.16,176.44c-31.11,22.67-75.46,35-121.84,41.24c-0.08,2.7-0.28,5.4-0.57,8.1
			c51.46-5.58,101.87-18,136.16-43C1179.14,8149.65,1160.13,8070.28,1096.11,8021.23z"/>
		<path class="st0" d="M612.41,9067.97c13.06,4.55,25.74,9.55,37.97,14.96c-16.42-7.89-33.69-15.02-51.72-21.3
			c-59.23-20.64-125.69-32.35-181.72-56.4c3.8,1.89,7.66,3.7,11.59,5.42C485.01,9035.34,552.43,9047.08,612.41,9067.97z"/>
		<path class="st0" d="M776.25,8218.72c-46.09-24.02-65.05-72.38-26.8-101.56c32.02-24.41,92.72-26.53,135.57-10.6
			c1.48,0.55,2.93,1.12,4.37,1.7c-5.68-2.97-11.72-5.65-18.11-8.03c-42.86-15.94-103.56-13.82-135.57,10.59
			c-38.61,29.47-18.92,78.45,28.08,102.23C767.81,8215.08,771.98,8216.97,776.25,8218.72z"/>
		<path class="st0" d="M977.69,8232.56c0.61-16.75-2.47-33.49-9.47-49.29c-13.17-29.75-38.51-58.71-78.83-75.01
			c32.42,16.85,53.47,42.45,65.09,68.67c8.12,18.35,10.96,37.96,8.9,57.38C968.16,8233.79,972.93,8233.21,977.69,8232.56z"/>
		<path class="st0" d="M414.79,9004.31c0.72,0.32,1.44,0.62,2.16,0.93c-50.89-25.39-89.05-66.3-72.83-106.07
			c23.32-57.22,133.43-79.83,224.56-79.89c98.86-0.08,125.55,11.46,223.17,19.83c19.84,1.7,99.18,4.55,111.85-47.91
			c1.2-4.95,4.45-17.7,3.81-22.7c-10.55-80.76-81.46-156.78-184.33-202.26c95.41,46.01,160.52,118.8,170.58,195.91
			c0.65,5.01-2.59,17.74-3.8,22.71c-12.68,52.44-92.02,49.6-111.85,47.91c-97.6-8.36-124.31-19.9-223.17-19.84
			c-91.13,0.06-201.24,22.68-224.56,79.89C312.95,8935.57,358.31,8979.63,414.79,9004.31z"/>
		<path class="st0" d="M781.27,7154.53c-0.82-0.33-1.64-0.67-2.44-1.01c1.38,0.7,2.77,1.39,4.18,2.05c0.06-0.1,0.13-0.19,0.19-0.27
			C782.55,7155.04,781.9,7154.79,781.27,7154.53z"/>
		<path class="st0" d="M311.65,7837.73c36.92,19.46,91.29,25.36,140.28,30.17c131.95,12.96,262.28,32.84,389.31,59.38
			c64.45,13.46,129.98,29.5,185.45,53.98c-58.2-28.11-129.34-45.74-199.19-60.33c-127.05-26.54-257.38-46.41-389.31-59.38
			C394.98,7857.31,347.57,7852.23,311.65,7837.73z"/>
	</g>
	<g>
		<path class="st1" d="M311.65,7837.73c36.92,19.46,91.29,25.36,140.28,30.17c131.95,12.96,262.28,32.84,389.31,59.38
			c64.45,13.46,129.98,29.5,185.45,53.98c25.66,11.31,49.16,24.45,69.41,39.96c64.02,49.05,83.03,128.42,17.17,176.42
			c-34.29,25.01-84.71,37.42-136.16,43c-4.94,0.53-9.9,1-14.84,1.41c-4.74,0.4-9.5,0.74-14.22,1.04
			c-59.32,3.7-123.54,0.06-170.53-23.72c-0.43-0.22-0.86-0.44-1.28-0.67c-46.09-24.02-65.05-72.38-26.8-101.56
			c32.02-24.41,92.72-26.53,135.57-10.6c1.48,0.55,2.93,1.12,4.37,1.7c40.32,16.3,65.67,45.26,78.83,75.01
			c7,15.81,10.08,32.54,9.47,49.29c-0.08,2.7-0.28,5.4-0.57,8.1c-6.48,60.99-61.19,120.11-151.56,132.42
			c-80.37,10.95-155.86-15.85-230.22-42.32c-21.49-7.63-42.89-15.25-64.29-21.92c-80.66-25.13-170.53-37.65-259.95-36.2
			c-26.33,0.42-53.56,2.23-76.4,10.73c-47.32,17.59-61.54,59.63-47.09,93.77c13.34,31.47,44.85,56.8,85.11,76.43
			c39.79,19.42,88.14,33.29,135.94,42.05c96.19,17.65,198.7,21.49,290.28,47.5c22.51,6.4,43.98,14.16,64.22,23.12
			c102.88,45.48,173.78,121.49,184.33,202.26c0.64,5-2.61,17.74-3.81,22.7c-12.67,52.45-92,49.6-111.85,47.91
			c-97.62-8.36-124.31-19.9-223.17-19.83c-91.13,0.06-201.24,22.68-224.56,79.89c-16.22,39.77,21.95,80.68,72.83,106.07
			c3.8,1.89,7.66,3.7,11.59,5.42c56.48,24.68,123.9,36.43,183.88,57.32c13.06,4.55,25.74,9.55,37.97,14.96
			c86.68,38.35,151.54,97.39,177.92,163.38c30.13,75.29-5.28,143.24-69.94,208.73"/>
		<path class="st1" d="M965.38,7064.33c-9.64-3.29-20.65-4.92-32.79-4.25c-22.88,1.25-43.29,9.73-61.05,19.2
			c-38.26,20.34-68.22,46.73-88.34,76.02c-0.06,0.09-0.13,0.18-0.19,0.27c-29.98,43.8-37.96,94.07-18.83,140.42
			c26.97,65.34,99.99,117.81,149.29,177.38c49.3,59.58,70.49,140.23-0.21,189.88c-60.74,42.67-163.31,44.35-251.65,35.03
			c-88.31-9.33-179.33-26.47-265.42-10.66c-86.1,15.84-156.9,83.27-109.03,132.36c6.76,6.93,15.04,12.78,24.46,17.74"/>
		<path class="st1" d="M659.49,6975.76c0.08,2.94,0.24,5.91,0.5,8.9c4.85,58.15,43.18,126.38,109.68,163.98
			c2.99,1.7,6.04,3.33,9.16,4.89c1.38,0.7,2.77,1.39,4.18,2.05c3.92,1.88,7.92,3.64,12.02,5.3c58.37,23.62,142.62,28.55,190.7-3.38
			c39.56-26.28,24.45-77.81-20.34-93.14"/>
		<path class="st1" d="M659.07,6984.7c-0.63,60.59,32.65,128.19,110.16,164.58c3.12,1.47,6.32,2.88,9.6,4.25
			c0.8,0.34,1.62,0.68,2.44,1.01c0.63,0.26,1.28,0.51,1.93,0.77c58.3,22.95,141.23,27.42,188.79-4.16
			c35.19-23.36,27.12-66.7-6.6-86.79c-0.01,0-0.01,0-0.01-0.01c-12.36-7.37-28.16-11.61-46.53-10.6
			c-22.88,1.27-43.29,9.74-61.07,19.2c-38.12,20.28-68,46.54-88.11,75.7c-0.16,0.22-0.3,0.43-0.44,0.65
			c-29.95,43.79-37.92,94.03-18.79,140.37c26.97,65.32,99.97,117.8,149.28,177.38c49.32,59.57,70.5,140.23-0.2,189.88
			c-60.75,42.67-163.31,44.36-251.65,35.02c-88.32-9.32-179.33-26.47-265.44-10.65c-86.08,15.83-156.89,83.26-109.02,132.35
			c9.9,10.14,23.02,17.96,38.2,24.08c0.01,0.01,0.03,0.02,0.04,0.02c35.92,14.49,83.32,19.58,126.54,23.82
			c131.93,12.97,262.26,32.84,389.31,59.38c69.85,14.59,140.99,32.22,199.19,60.33c20.34,9.82,39.09,20.91,55.67,33.61
			c64.02,49.06,83.03,128.43,17.16,176.44c-31.11,22.67-75.46,35-121.84,41.24c-4.75,0.65-9.52,1.23-14.31,1.75
			c-9.68,1.05-19.41,1.85-29.08,2.45c-54.22,3.38-112.53,0.63-158.06-18.04c-4.27-1.75-8.44-3.64-12.46-5.68
			c-46.99-23.78-66.69-72.76-28.08-102.23c32.01-24.41,92.71-26.53,135.57-10.59c6.4,2.38,12.43,5.06,18.11,8.03
			c32.42,16.85,53.47,42.45,65.09,68.67c8.12,18.35,10.96,37.96,8.9,57.38c-0.27,2.59-0.64,5.18-1.1,7.76
			c-10.09,58.17-63.93,112.88-150.46,124.66c-75.16,10.24-146.04-12.54-215.75-37.17c-26.37-9.31-52.58-18.9-78.78-27.06
			c-80.64-25.13-170.52-37.66-259.95-36.21c-26.32,0.43-53.54,2.23-76.39,10.72c-47.32,17.59-61.55,59.63-47.09,93.77
			c14.82,34.98,52.08,62.36,98.85,82.78c36.91,16.13,79.77,27.92,122.2,35.72c96.19,17.64,198.7,21.49,290.28,47.49
			c27.67,7.86,53.78,17.8,77.96,29.47c95.41,46.01,160.52,118.8,170.58,195.91c0.65,5.01-2.59,17.74-3.8,22.71
			c-12.68,52.44-92.02,49.6-111.85,47.91c-97.6-8.36-124.31-19.9-223.17-19.84c-91.13,0.06-201.24,22.68-224.56,79.89
			c-17.42,42.75,27.94,86.8,84.42,111.48c0.72,0.32,1.44,0.62,2.16,0.93c56.03,24.05,122.49,35.76,181.72,56.4
			c18.02,6.28,35.3,13.41,51.72,21.3c79.77,38.35,139.2,94.58,164.18,157.04c30.11,75.3,10.35,144.68-56.2,215.08"/>
	</g>
</g>
</svg>
