<?xml version="1.0" encoding="utf-8"?>
<!-- Generator: Adobe Illustrator 28.0.0, SVG Export Plug-In . SVG Version: 6.00 Build 0)  -->
<svg version="1.1" id="Layer_1" xmlns="http://www.w3.org/2000/svg" xmlns:xlink="http://www.w3.org/1999/xlink" x="0px" y="0px"
	 viewBox="0 0 1417.32 3461.1" style="enable-background:new 0 0 1417.32 3461.1;" xml:space="preserve">
<style type="text/css">
	.st0{fill:#A9203F;}
	.st1{fill:none;stroke:#A9203F;stroke-miterlimit:10;}
</style>
<g id="XMLID_00000023960792664010394750000007352939145099584189_">
	<g>
		<path class="st0" d="M1089.61,1855.83c24.89,23.55,30.65,64.96,26.71,100.59c-12.6,114.67-98.09,217.97-208.39,251.81
			c-67.03,20.61-139.3,16.98-208.93,24.71l0-5.95c68.01-7.05,138.39-4.1,203.8-24.2c110.26-33.84,195.75-137.14,208.39-251.81
			C1114.82,1917.95,1110.14,1879.99,1089.61,1855.83z"/>
		<path class="st0" d="M1089.61,1855.83c-4.19-4.02-8.96-7.5-14.3-10.34c-18.36-9.83-40.33-10.16-61.05-8.13
			c-106.41,10.41-198.71,74.74-298.49,113.14c-5.51,2.13-11.12,4.16-16.76,6.09l0-7.23c3.92-1.39,7.77-2.81,11.63-4.3
			c99.78-38.4,192.07-102.73,298.45-113.14c20.76-2.04,42.69-1.7,61.09,8.13C1077.81,1844.14,1084.27,1849.51,1089.61,1855.83z"/>
		<path class="st0" d="M1055.33,1048.09c36.22,37.68,37.66,99.54,14.48,146.4c-23.17,46.83-66.26,80.75-111.52,106.86
			c-79.83,46.03-168.46,72.09-259.31,90.01l0-6.46c89.03-17.91,175.83-43.8,254.14-88.99c45.25-26.11,88.38-60.03,111.55-106.86
			c22.6-45.68,21.77-105.64-11.88-143.53C1053.64,1046.37,1054.49,1047.22,1055.33,1048.09z"/>
		<path class="st0" d="M1050.16,1042.65c0.85,0.88,1.69,1.79,2.47,2.7c-49.71-48.12-131.51-34.77-200.23-21.64
			c-50.77,9.72-101.98,17.24-153.4,22.6l0-5.98c49.69-5.29,99.18-12.64,148.26-22.06C917.23,1004.9,1000.79,991.32,1050.16,1042.65z
			"/>
		<path class="st0" d="M959.34,2697.09c5.9,51.62-24.61,101.76-64.93,134.56c-40.32,32.77-89.7,51.85-137.19,72.89
			c-19.4,8.59-39.04,18.27-58.23,29.06l0-8.28c17.54-9.64,35.39-18.37,53.06-26.18c47.52-21.08,96.9-40.16,137.22-72.93
			c40.32-32.8,70.83-82.95,64.93-134.56c-3.09-26.94-15.26-50.33-32.98-69.96C941.75,2642.4,955.98,2667.58,959.34,2697.09z"/>
		<path class="st0" d="M920.98,2621.45c-29.96-30.14-73.14-50.72-115.16-60.91c-35.06-8.51-70.82-12.52-106.83-14.97l0-5.07
			c34.28,2.49,68.29,6.5,101.69,14.6C845.18,2565.9,890.99,2588.33,920.98,2621.45z"/>
		<path class="st0" d="M699.01,242.76c1.6,27.96,1.57,55.81-0.01,83.43L699.01,242.76z"/>
		<path class="st0" d="M699.01,242.76L699,326.19c-9.98,175.18-82.57,342.36-201.65,481.03c-49.2,57.31-110.33,134.21-70.38,198.35
			c2.37,3.79,4.97,7.33,7.78,10.58c-4.87-4.7-9.2-10-12.95-16.02c-39.91-64.15,21.22-141,70.42-198.32
			c158.65-184.76,237.67-424.29,193.51-662.05C692.66,174.18,697.04,208.56,699.01,242.76z"/>
		<path class="st0" d="M699,1040.34l0,5.98c-41.88,4.37-83.9,7.3-125.98,8.76c-49.39,1.67-106.89-2.8-138.14-38.76
			c32.12,30.99,86.18,34.92,133,33.32C611.69,1048.14,655.43,1045.02,699,1040.34z"/>
		<path class="st0" d="M698.98,1384.9l0,6.46c-50.3,9.99-101.27,17.48-151.81,24.49c-96.98,13.45-210.82,37.96-249.03,128.1
			c-25.94,61.19-2.59,128.73,43.23,178.61c-49.17-50.35-75.25-120.59-48.37-184.01c38.2-90.17,152.05-114.65,249.03-128.13
			C594.3,1403.16,647.03,1395.4,698.98,1384.9z"/>
		<path class="st0" d="M699,1949.36l0,7.23c-49.31,16.99-102.86,25.89-151.84,9.38c-32.32-10.91-60.22-32.23-83.38-57.41
			c22.12,22.81,48.29,41.87,78.24,51.96C592.73,1977.62,648.27,1967.5,699,1949.36z"/>
		<path class="st0" d="M698.99,2226.99l0,5.95c-29.81,3.32-59.15,8.71-87.34,18.96c-71.15,25.85-130.29,83.03-158.52,153.25
			c-13.17,32.73-17.82,74.51,4.06,100.73c-27.66-25.58-23.31-71.08-9.2-106.18c28.24-70.22,87.34-127.37,158.49-153.22
			C636.32,2235.67,667.42,2230.25,698.99,2226.99z"/>
		<path class="st0" d="M699,2540.49l0,5.07c-60.17-4.07-121.12-3.75-180.79-12.79c-19.74-3-40.36-7.52-55.24-20.87
			c-2.1-1.89-4.06-3.89-5.78-6.02c0.2,0.2,0.41,0.41,0.64,0.61c14.88,13.31,35.5,17.84,55.24,20.84
			C574.43,2536.65,637.14,2536.05,699,2540.49z"/>
		<path class="st0" d="M698.99,2925.32l0,8.28c-96.42,53.95-182.7,134.97-179.76,241.39c2.33,83.46,54.45,177.76,110.55,241.43
			l-0.1,0.07c-56.37-63.97-113.26-163.51-115.59-246.93C511.09,3061.27,600.54,2979.27,698.99,2925.32z"/>
		<path class="st0" d="M593.87,1639.68c22.28,22.03,34.8,52.86,27.17,83.42c-17.76,70.93-114.9,87.49-183.94,63.41
			c-14.03-4.9-27.69-11.35-40.67-19.09c-0.07-0.85-0.14-1.69-0.17-2.57c11.5,6.45,23.46,11.92,35.7,16.21
			c69.04,24.11,166.15,7.52,183.91-63.41C622.93,1689.57,612.88,1661.21,593.87,1639.68z"/>
		<path class="st0" d="M593.87,1639.68c-21-20.82-50.68-33.75-80.3-31.24c-60.98,5.19-109.13,62.51-116.55,123.25
			c-1.35,11.09-1.58,22.18-0.77,33.16c-1.66-0.95-3.31-1.93-4.97-2.91c-0.98-11.83-0.85-23.76,0.6-35.66
			c7.42-60.75,55.57-118.1,116.55-123.29C540.55,1600.25,572.77,1615.76,593.87,1639.68z"/>
		<path class="st0" d="M456.14,1899.99c2.47,2.91,5.04,5.78,7.64,8.58c-4.43-4.53-8.69-9.23-12.78-14.02
			c-31.42-36.77-54.72-82.56-59.44-130.13c1.59,1.01,3.21,1.99,4.87,3.01C400.64,1815.87,424.22,1862.58,456.14,1899.99z"/>
		<path class="st0" d="M396.26,1764.86c0.03,0.88,0.1,1.72,0.17,2.57c-1.66-1.01-3.28-1.99-4.87-3.01c-0.1-0.81-0.2-1.66-0.27-2.47
			C392.95,1762.93,394.6,1763.91,396.26,1764.86z"/>
		<path class="st0" d="M391.29,1761.95c0.07,0.81,0.17,1.66,0.27,2.47c-18.46-11.62-35.5-25.81-50.18-41.87
			C356.16,1737.73,373.1,1751.11,391.29,1761.95z"/>
	</g>
	<g>
		<path class="st1" d="M921.22,2621.68c20.53,20.72,34.77,45.89,38.12,75.4c5.9,51.62-24.61,101.76-64.93,134.56
			c-40.32,32.77-89.7,51.85-137.19,72.89c-19.4,8.59-39.04,18.27-58.23,29.06c-96.42,53.95-182.7,134.97-179.76,241.39
			c2.33,83.46,54.45,177.76,110.55,241.43c1.83,2.03,3.62,4.06,5.44,6.05"/>
		<path class="st1" d="M1052.8,1045.53c0.85,0.84,1.69,1.69,2.54,2.57c36.22,37.68,37.66,99.54,14.48,146.4
			c-23.17,46.83-66.26,80.75-111.52,106.86c-79.83,46.03-168.46,72.09-259.31,90.01c-50.3,9.99-101.27,17.48-151.81,24.49
			c-96.98,13.45-210.82,37.96-249.03,128.1c-25.94,61.19-2.59,128.73,43.23,178.61c14.68,16.05,31.72,30.24,50.18,41.87
			c1.59,1.01,3.21,1.99,4.87,3.01c12.98,7.74,26.64,14.19,40.67,19.09c69.04,24.08,166.18,7.52,183.94-63.41
			c7.63-30.56-4.89-61.39-27.17-83.42c-21-20.82-50.68-33.75-80.3-31.24c-60.98,5.19-109.13,62.51-116.55,123.25
			c-1.35,11.09-1.58,22.18-0.77,33.16c0.03,0.88,0.1,1.72,0.17,2.57c4.21,48.44,27.78,95.15,59.71,132.56
			c2.47,2.91,5.04,5.78,7.64,8.58c23.16,25.18,51.06,46.5,83.38,57.41c48.99,16.51,102.53,7.61,151.84-9.38
			c5.64-1.93,11.26-3.96,16.76-6.09c99.78-38.4,192.07-102.73,298.49-113.14c20.72-2.04,42.69-1.7,61.05,8.13
			c5.34,2.84,10.11,6.32,14.3,10.34c24.89,23.55,30.65,64.96,26.71,100.59c-12.6,114.67-98.09,217.97-208.39,251.81
			c-67.03,20.61-139.3,16.98-208.93,24.71c-29.81,3.32-59.15,8.71-87.34,18.96c-71.15,25.85-130.29,83.03-158.52,153.25
			c-13.17,32.73-17.82,74.51,4.06,100.73c1.72,2.13,3.69,4.12,5.78,6.02c14.88,13.35,35.5,17.87,55.24,20.87
			c59.67,9.04,120.62,8.71,180.79,12.79c36,2.46,71.77,6.47,106.83,14.97c42.02,10.19,85.2,30.77,115.16,60.91"/>
		<path class="st1" d="M434.89,1016.32c31.25,35.96,88.75,40.43,138.14,38.76c42.09-1.47,84.1-4.39,125.98-8.76
			c51.41-5.36,102.62-12.88,153.4-22.6c68.72-13.14,150.52-26.49,200.23,21.64"/>
		<path class="st1" d="M682.13,122.83c1.29,5.64,2.47,11.29,3.59,16.93c6.94,34.41,11.31,68.79,13.29,103
			c1.6,27.96,1.57,55.81-0.01,83.43c-9.98,175.18-82.57,342.36-201.65,481.03c-49.2,57.31-110.33,134.21-70.38,198.35
			c2.37,3.79,4.97,7.33,7.78,10.58"/>
		<path class="st1" d="M680.2,112.83c2.03,8.96,3.86,17.95,5.52,26.94c44.16,237.76-34.86,477.29-193.51,662.05
			c-49.2,57.31-110.33,134.17-70.42,198.32c3.75,6.02,8.08,11.32,12.95,16.02c0.07,0.07,0.1,0.1,0.14,0.17
			c32.12,30.99,86.18,34.92,133,33.32c43.81-1.5,87.55-4.63,131.12-9.31c49.69-5.29,99.18-12.64,148.26-22.06
			c69.97-13.38,153.53-26.96,202.9,24.37c0.85,0.88,1.69,1.79,2.47,2.7c0.03,0.07,0.1,0.14,0.17,0.17
			c33.65,37.88,34.48,97.85,11.88,143.53c-23.17,46.83-66.3,80.75-111.55,106.86c-78.31,45.19-165.11,71.08-254.14,88.99
			c-51.95,10.5-104.68,18.26-156.94,25.51c-96.98,13.49-210.82,37.96-249.03,128.13c-26.89,63.43-0.8,133.66,48.37,184.01
			c14.78,15.17,31.72,28.55,49.91,39.4c1.66,0.98,3.31,1.96,4.97,2.91c11.5,6.45,23.46,11.92,35.7,16.21
			c69.04,24.11,166.15,7.52,183.91-63.41c7.06-28.09-2.99-56.45-22-77.98c-21.1-23.93-53.32-39.43-85.44-36.68
			c-60.98,5.19-109.13,62.54-116.55,123.29c-1.45,11.9-1.58,23.83-0.6,35.66c0.07,0.81,0.17,1.66,0.27,2.47
			c4.71,47.56,28.02,93.36,59.44,130.13c4.09,4.8,8.35,9.5,12.78,14.02c22.12,22.81,48.29,41.87,78.24,51.96
			c50.71,17.09,106.25,6.96,156.98-11.17c3.92-1.39,7.77-2.81,11.63-4.3c99.78-38.4,192.07-102.73,298.45-113.14
			c20.76-2.04,42.69-1.7,61.09,8.13c7.64,4.09,14.1,9.46,19.44,15.78c20.53,24.16,25.2,62.12,21.56,95.15
			c-12.64,114.67-98.13,217.97-208.39,251.81c-65.4,20.1-135.79,17.15-203.8,24.2c-31.57,3.26-62.67,8.67-92.52,19.5
			c-71.15,25.85-130.25,83-158.49,153.22c-14.12,35.09-18.46,80.59,9.2,106.18c0.2,0.2,0.41,0.41,0.64,0.61
			c14.88,13.31,35.5,17.84,55.24,20.84c61.36,9.31,124.06,8.71,185.93,13.16c34.28,2.49,68.29,6.5,101.69,14.6
			c44.49,10.8,90.3,33.23,120.3,66.35c0.1,0.07,0.17,0.14,0.24,0.24c17.72,19.63,29.9,43.02,32.98,69.96
			c5.9,51.62-24.61,101.76-64.93,134.56c-40.32,32.77-89.7,51.85-137.22,72.93c-17.68,7.81-35.52,16.54-53.06,26.18
			c-98.45,53.95-187.91,135.95-184.89,244.23c2.33,83.43,59.22,182.96,115.59,246.93c1.83,2.1,3.69,4.16,5.51,6.15"/>
	</g>
</g>
</svg>
