<?xml version="1.0" encoding="utf-8"?>
<!-- Generator: Adobe Illustrator 28.0.0, SVG Export Plug-In . SVG Version: 6.00 Build 0)  -->
<svg version="1.1" xmlns="http://www.w3.org/2000/svg" xmlns:xlink="http://www.w3.org/1999/xlink" x="0px" y="0px"
	 viewBox="0 0 1417.32 3461.1" style="enable-background:new 0 0 1417.32 3461.1;" xml:space="preserve">
<style type="text/css">
	.Drop_x0020_Shadow{fill:none;}
	.st0{display:none;}
	.st1{display:inline;}
	.st2{fill:#AD354C;}
	.st3{fill:none;stroke:#AD354C;stroke-width:0.5;stroke-linecap:round;stroke-linejoin:round;}
</style>
<g id="Layer_1" class="st0">
	<g id="XMLID_00000029766855039979572050000005750955124155143570_" class="st1">
	</g>
	<g id="XMLID_00000179618037366487564330000000763038797777666238_" class="st1">
	</g>
	<g id="XMLID_00000076583105302306476950000018328059941983277718_" class="st1">
		<g>
			<path class="st2" d="M1117.14,944.8c0.69,2.2,1.07,4.54,1.06,7.01c-0.07,12.92-10.93,22.82-21.63,29.33
				c-56.9,34.63-127.86,23.92-193.52,17.87c-125.28-11.54-252.34-1.87-374.66,28.52c-40.9,10.15-90.67,36.72-85.67,79.55
				c-0.33-1.35-0.6-2.71-0.8-4.09c-6.58-43.86,43.98-71.01,85.44-81.3c122.32-30.39,249.38-40.06,374.67-28.52
				c65.65,6.05,136.61,16.76,193.51-17.87c10.71-6.51,21.56-16.41,21.63-29.33C1117.17,945.58,1117.16,945.18,1117.14,944.8z"/>
			<path class="st2" d="M1117.14,944.8c-3.71-11.92-16.64-20.11-28.39-25.37c-161.95-72.42-349.45-12.83-523.67-40.45
				c-47.92-7.6-99.22-25.17-124.64-68.17c-4.9-8.29-8.06-17.64-9.62-27.35c1.84,7.6,4.7,14.88,8.6,21.51
				c25.41,43,76.71,60.57,124.64,68.17c174.22,27.63,361.72-31.96,523.66,40.45C1101.31,919.67,1116.46,929.67,1117.14,944.8z"/>
			<path class="st2" d="M1047.95,1334.88c6.4,58.43-93.55,62.38-151.16,63.12c-124.51,1.62-253.52,12.66-362.51,75.36
				c-17.28,9.95-36.04,27.34-34.82,46.1c-6.14-20.93,14.74-40.97,33.8-51.94c109.01-62.7,238-73.74,362.51-75.35
				c56.44-0.73,153.51-4.54,151.42-59.61C1047.48,1333.31,1047.73,1334.08,1047.95,1334.88z"/>
			<path class="st2" d="M1046.92,1329.05c0.13,1.19,0.22,2.36,0.26,3.51c-13.43-34.74-102.01-15.73-152.69-27.13
				c-12.93-2.91-26.98-9.38-31.14-22.46c-0.67-2.13-1.05-4.3-1.23-6.51c0.07,0.22,0.13,0.45,0.2,0.67
				c4.16,13.08,18.2,19.55,31.14,22.46C945.24,1311.24,1036.56,1291.15,1046.92,1329.05z"/>
			<path class="st2" d="M907.03,1800.52c5.81,21.03-14.97,39.08-33.61,49.15c-102.75,55.51-176.27,58.21-249.92,75.83v-1
				c73.64-17.62,146.14-25.16,248.89-80.67c16.99-9.18,35.76-24.98,34.55-43.62C906.98,1800.31,907.01,1800.42,907.03,1800.52z"/>
			<path class="st2" d="M906.01,1794.69c0.52,1.87,0.82,3.71,0.93,5.52c-5.97-20.7-32.34-24.46-53.2-24.21
				c-30.75,0.37-61.53,0.73-92.28,1.11c-22.11,0.27-50.03-3.64-56.39-25.69c-0.56-1.95-0.9-3.92-1.05-5.9
				c0.01,0.02,0.01,0.05,0.02,0.07c6.37,22.04,34.28,25.95,56.4,25.68c30.75-0.38,61.52-0.74,92.27-1.11
				C873.68,1769.91,900.21,1773.71,906.01,1794.69z"/>
			<path class="st2" d="M878.92,1555.24c3.46,9.34-2.48,21.49-9.29,29.76c-42.98,52.12-114.89,72.36-153.95,127.71
				c-6.75,9.58-12.51,21.29-11.66,32.81c-3.8-13.33,2.74-27.44,10.64-38.64c39.05-55.36,110.97-75.6,153.94-127.72
				C874.06,1572.53,878.96,1563.41,878.92,1555.24z"/>
			<path class="st2" d="M878.92,1555.24c-1.04-2.82-2.93-5.39-5.92-7.52c-2.45-1.75-5.3-2.85-8.23-3.4
				c-110.66-20.63-227.25,42.32-333.88,6.1c-12.04-4.09-24.8-10.5-29.59-22.72c-1.08-2.76-1.68-5.52-1.84-8.24
				c0.23,0.8,0.5,1.6,0.82,2.4c4.79,12.22,17.55,18.63,29.59,22.72c106.64,36.23,223.23-26.72,333.88-6.1
				c2.93,0.55,5.78,1.65,8.24,3.41C876.93,1545.41,878.89,1550.14,878.92,1555.24z"/>
			<path class="st2" d="M861.81,1255.37c0.9,6.95-0.29,14.16,0.31,21.08c-2.35-8.2-0.37-17.12-1.2-25.68
				C861.3,1252.25,861.61,1253.78,861.81,1255.37z"/>
			<path class="st2" d="M860.78,1249.53c0.06,0.41,0.1,0.82,0.13,1.24c-6.95-26.48-42.16-35.11-69.57-31.68
				c-28.93,3.65-61.25,12.64-85.02-4.92c-9.71-7.15-16.45-17.95-25.89-25.49c-22.96-18.36-55.14-13.61-83.96-10.84
				c-45.04,4.34-94.13,0.27-129.15-29.54c-11.91-10.13-22.02-23.65-24.38-39.47c-0.09-0.59-0.16-1.17-0.23-1.75
				c3.34,14.06,12.71,26.13,23.58,35.38c35.03,29.81,84.11,33.88,129.15,29.54c28.82-2.77,61.01-7.52,83.97,10.84
				c9.44,7.54,16.17,18.34,25.88,25.49c23.77,17.57,56.09,8.57,85.03,4.92C819.26,1209.63,856.9,1219.46,860.78,1249.53z"/>
			<path class="st2" d="M523.5,699.5c-17-4-19-5-27-6c-4,0-5,0-8.01,0c-41.48-0.84-64.45,47.96-57.68,89.96
				c-10.45-42.97,11.28-95.84,54.68-94.96c2-1,3,0,6,0C491.5,688.5,509.5,690.5,523.5,699.5z"/>
		</g>
		<g>
			<path class="st3" d="M862.12,1276.46c0.18,2.21,0.56,4.38,1.23,6.51c4.16,13.08,18.2,19.55,31.14,22.46
				c50.69,11.4,139.26-7.61,152.69,27.13c0.3,0.75,0.55,1.52,0.77,2.32c6.4,58.43-93.55,62.38-151.16,63.12
				c-124.51,1.62-253.52,12.66-362.51,75.36c-17.28,9.95-36.04,27.34-34.82,46.1c0.16,2.72,0.76,5.48,1.84,8.24
				c4.79,12.22,17.55,18.63,29.59,22.72c106.63,36.22,223.22-26.73,333.88-6.1c2.93,0.55,5.78,1.65,8.23,3.4
				c3,2.13,4.89,4.7,5.92,7.52c3.46,9.34-2.48,21.49-9.29,29.76c-42.98,52.12-114.89,72.36-153.95,127.71
				c-6.75,9.58-12.51,21.29-11.66,32.81c0.14,1.98,0.49,3.95,1.05,5.9c6.36,22.05,34.28,25.96,56.39,25.69
				c30.75-0.38,61.53-0.74,92.28-1.11c20.86-0.25,47.23,3.51,53.2,24.21c0.04,0.1,0.07,0.21,0.1,0.31
				c5.81,21.03-14.97,39.08-33.61,49.15c-102.75,55.51-176.27,58.21-249.92,75.83"/>
			<path class="st3" d="M523.5,699.5c-17-4-19-5-27-6c-4,0-5,0-8.01,0c-41.48-0.84-64.45,47.96-57.68,89.96
				c1.57,9.71,4.72,19.06,9.62,27.35c25.42,43,76.72,60.57,124.64,68.17c174.23,27.62,361.73-31.97,523.67,40.45
				c11.75,5.26,24.69,13.45,28.39,25.37c0.69,2.2,1.07,4.54,1.06,7.01c-0.07,12.92-10.93,22.82-21.63,29.33
				c-56.9,34.63-127.86,23.92-193.52,17.87c-125.28-11.54-252.34-1.87-374.66,28.52c-40.9,10.15-90.67,36.72-85.67,79.55
				c0.07,0.58,0.14,1.16,0.23,1.75c2.36,15.82,12.47,29.34,24.38,39.47c35.02,29.81,84.11,33.88,129.15,29.54
				c28.82-2.77,61.01-7.52,83.96,10.84c9.44,7.54,16.18,18.34,25.89,25.49c23.77,17.56,56.09,8.57,85.02,4.92
				c27.41-3.43,62.62,5.2,69.57,31.68c0.38,1.48,0.69,3.01,0.89,4.6c0.9,6.95-0.29,14.16,0.31,21.08"/>
			<path class="st3" d="M523.5,699.5c-14-9-32-11-32-11c-3.01,0-4-1-6,0c-43.4-0.88-65.13,51.99-54.68,94.96
				c1.84,7.6,4.7,14.88,8.6,21.51c25.41,43,76.71,60.57,124.64,68.17c174.22,27.63,361.72-31.96,523.66,40.45
				c13.59,6.08,28.74,16.08,29.42,31.21c0.02,0.38,0.03,0.78,0.03,1.17c-0.07,12.92-10.93,22.82-21.63,29.33
				c-56.9,34.63-127.86,23.92-193.51,17.87c-125.29-11.54-252.35-1.87-374.67,28.52c-41.46,10.29-92.02,37.44-85.44,81.3
				c0.2,1.38,0.47,2.74,0.8,4.09c3.34,14.06,12.71,26.13,23.58,35.38c35.03,29.81,84.11,33.88,129.15,29.54
				c28.82-2.77,61.01-7.52,83.97,10.84c9.44,7.54,16.17,18.34,25.88,25.49c23.77,17.57,56.09,8.57,85.03,4.92
				c28.93-3.62,66.57,6.21,70.46,36.28c0.06,0.41,0.1,0.82,0.13,1.24c0.83,8.56-1.15,17.48,1.2,25.68v0.01
				c0.07,0.22,0.13,0.45,0.2,0.67c4.16,13.08,18.2,19.55,31.14,22.46c51.78,11.65,143.1-8.44,153.46,29.46
				c0.13,1.19,0.22,2.36,0.26,3.51c2.09,55.07-94.98,58.88-151.42,59.61c-124.51,1.61-253.51,12.65-362.51,75.35
				c-19.06,10.97-39.93,31.01-33.8,51.94c0.23,0.8,0.5,1.6,0.82,2.4c4.79,12.22,17.55,18.63,29.59,22.72
				c106.64,36.23,223.23-26.72,333.88-6.1c2.93,0.55,5.78,1.65,8.24,3.41c4.95,3.52,6.91,8.25,6.94,13.35
				c0.04,8.17-4.86,17.29-10.32,23.92c-42.97,52.12-114.89,72.36-153.94,127.72c-7.9,11.2-14.44,25.31-10.64,38.64
				c0.01,0.02,0.01,0.05,0.02,0.07c6.37,22.04,34.28,25.95,56.4,25.68c30.75-0.38,61.52-0.74,92.27-1.11
				c20.97-0.25,47.5,3.55,53.3,24.53c0.52,1.87,0.82,3.71,0.93,5.52c1.21,18.64-17.55,34.44-34.55,43.62
				c-102.75,55.51-175.25,63.05-248.89,80.67"/>
		</g>
	</g>
	<g id="XMLID_00000010302285593979765920000010545507010197437339_" class="st1">
		<g>
			<path class="st2" d="M969.3,3269.15c40.74,19.16,73.59,102.33,88.81,155.7c-15.23-52.54-48.18-127.87-88.91-147.02
				c-25.74-12.11-58.47-14.82-72.82-42.22c-6.24-11.9-7.26-25.29-6.72-39.23c0.21,10.81,1.89,21.14,6.82,30.56
				C910.83,3254.33,943.56,3257.04,969.3,3269.15z"/>
			<path class="st2" d="M898.51,2241.86c16.8,8.59,34.43,28.77,26.34,47.73c-1.59,3.73-4.02,6.82-6.82,9.47
				c1.06-1.47,1.98-3.06,2.72-4.79c8.09-18.96-9.55-39.14-26.34-47.73c-35.62-18.22-76.01-19.99-114.85-16.06
				c-128.88,13.09-257.84,85.18-382.59,45.78c-12.51-3.96-25.76-9.91-32.38-22.73c-8.67-16.79-1.93-39.49,10.99-52.32
				c-10.13,13.18-14.58,32.73-6.89,47.64c6.62,12.82,19.87,18.77,32.38,22.73c124.76,39.4,253.71-32.69,382.59-45.78
				C822.5,2221.87,862.89,2223.65,898.51,2241.86z"/>
			<path class="st2" d="M918.03,2299.06c-2.8,3.94-6.56,7.05-10.36,9.75c-75.61,53.87-179.95-8.68-261.39,32.51
				c-2.94,1.48-5.99,3.41-8.6,5.76c3.02-4.56,8-8.07,12.7-10.44c81.44-41.19,185.78,21.36,261.4-32.51
				C913.92,2302.6,916.07,2300.93,918.03,2299.06z"/>
			<path class="st2" d="M891.89,3133.14c0.62,5.83,0.67,11.78,0.45,17.78c-0.06-3.06-0.23-6.1-0.55-9.1
				c-4.02-37.93-32.28-67.75-63.54-80.71c-24.1-9.99-51.17-13.76-77.53-14.58c-5.05-1.64-10.19-3-15.37-4.22
				c31.2-0.88,63.88-1.93,93,10.13C859.62,3065.39,887.87,3095.22,891.89,3133.14z"/>
			<path class="st2" d="M892.34,3151c0.27,14.98-2.1,30.49-2.68,45.38C889.37,3181.72,891.76,3166.21,892.34,3151z"/>
			<path class="st2" d="M736.49,2398.08c83.66,18.33,151.21,113.28,144.03,210.82c-3.18,43.13-21.88,83.24-48.99,113.11
				c24.89-29.31,41.87-67.52,44.88-108.43c7.19-97.55-60.36-192.49-144.02-210.82c-31.13-6.82-65.26-5.15-91.58-25.43
				c-4.83-3.72-9.61-8.84-10.06-15.5c-0.41-5.99,2.69-10.94,6.93-14.75c-1.95,2.93-3.09,6.29-2.83,10.07
				c0.46,6.66,5.23,11.78,10.07,15.5C671.23,2392.93,705.36,2391.26,736.49,2398.08z"/>
			<path class="st2" d="M739.18,2772.99c34.25-4.09,66.93-23.02,92.27-50.89c-25.89,30.47-60.33,51.31-96.52,55.58
				C736.4,2776.16,737.81,2774.6,739.18,2772.99z"/>
			<path class="st2" d="M828.31,2073.92c1.02,18.13-8,34.21-19.9,46.95c9.8-11.91,16.7-26.3,15.8-42.27
				c-1.95-34.82-38.29-52.24-68.63-53.23c-71.4-2.32-138.51,40.69-209.77,46.12c-30.74,2.34-69.61-13.14-70.9-47.97
				c1.72-18.58,8.36-31.83,17.7-41.39c-7.16,9.08-12.14,20.99-13.6,36.71c1.29,34.83,40.16,50.31,70.9,47.98
				c71.26-5.43,138.37-48.45,209.77-46.12C790.03,2021.69,826.36,2039.1,828.31,2073.92z"/>
			<path class="st2" d="M767.78,3053.45c52.81,26.69,78.57,107.69,53.19,167.23c-14.62,34.31-42.5,59.56-55.98,94.46
				c-5.49,14.63-27.53,55.56-4.12,113.47c-23.59-57.71-5.47-94.17,0.02-108.79c13.48-34.91,41.35-60.15,55.97-94.46
				c25.39-59.54-0.37-140.54-53.18-167.23c-11.06-5.59-22.79-8.97-34.72-11.66c7.15-0.16,14.43-0.16,21.76,0.06
				C756.54,3048.41,762.24,3050.65,767.78,3053.45z"/>
			<path class="st2" d="M800.81,2553.92c17.99,44.01,6.14,100.42-24.17,132.95c27.25-33.06,37.23-86.3,20.06-128.27
				c-23.22-56.81-88.71-83.39-139.15-59.3c-12.19,5.82-23.16,14.24-32.66,24.53c10.39-12.43,22.79-22.53,36.77-29.21
				C712.09,2470.54,777.58,2497.11,800.81,2553.92z"/>
			<path class="st2" d="M795.62,2132.62c4.41-3.5,8.77-7.43,12.79-11.75c-5.08,6.19-10.94,11.7-16.89,16.43
				c-51.08,40.54-116.07,50.08-178.14,49.2c-62.06-0.88-124.18-10.97-186.02-4.68c-17.64,1.79-36.06,5.32-50.07,17.77
				c-0.58,0.52-1.15,1.05-1.71,1.62c1.77-2.32,3.72-4.43,5.81-6.29c14.01-12.46,32.43-15.99,50.07-17.77
				c61.84-6.3,123.96,3.79,186.03,4.68C679.55,2182.7,744.54,2173.16,795.62,2132.62z"/>
			<path class="st2" d="M766.17,2696.55c3.7-2.91,7.2-6.16,10.47-9.68c-3.24,3.95-6.73,7.6-10.46,10.91
				C766.19,2697.37,766.18,2696.96,766.17,2696.55z"/>
			<path class="st2" d="M762.04,2699.61c0.02,0.54,0.03,1.09,0.03,1.63c-6.24,4.92-13.06,8.91-20.38,11.76
				c-33.7,13.09-74.66,0.58-95.67-32.41c-20.71-32.51-17.84-82.98,8.13-109.85c-22.12,27.73-23.6,74.46-4.03,105.17
				c21.01,32.99,61.97,45.5,95.67,32.41C751.53,2706.09,756.96,2703.15,762.04,2699.61z"/>
			<path class="st2" d="M752.45,2579.62c8.43,15.8,10.15,36.36,4.53,53.46c-0.52-1.8-1.09-3.59-1.69-5.35
				c2.32-14.69-0.11-30.62-6.94-43.43c-18.58-34.87-65.98-41.29-93.04-14.74c-0.39,0.39-0.78,0.78-1.16,1.18
				c1.64-2.07,3.4-4.02,5.27-5.86C686.47,2538.34,733.87,2544.75,752.45,2579.62z"/>
			<path class="st2" d="M755.29,2627.73c0.6,1.76,1.17,3.55,1.69,5.35c-0.88,2.71-1.95,5.32-3.21,7.82
				c-0.29-1.05-0.58-2.11-0.89-3.15C753.95,2634.52,754.75,2631.16,755.29,2627.73z"/>
			<path class="st2" d="M755.29,2627.73c-0.54,3.43-1.34,6.79-2.41,10.02c-2.88-9.8-6.79-19.07-12.49-27.03
				c-10.59-14.8-28.77-23.93-44.37-17.21c-2.79,1.2-5.31,2.9-7.54,4.98c3.06-4.26,6.97-7.65,11.64-9.66
				c15.6-6.72,33.79,2.41,44.37,17.21C749.14,2612.55,752.61,2619.92,755.29,2627.73z"/>
			<path class="st2" d="M744.87,2653.32c-0.36,0.49-0.74,0.96-1.12,1.43c-15.1,18.42-43.89,20.28-58.92,1.78
				c-12.99-15.99-10.57-44.8,3.65-58.04c-10.46,14.5-11.17,39.05,0.45,53.36C703.02,2669.21,729.21,2668.64,744.87,2653.32z"/>
			<path class="st2" d="M735.35,3042.31c5.18,1.22,10.32,2.58,15.37,4.22c-7.33-0.22-14.61-0.22-21.76-0.06
				c-18.44-4.18-37.34-6.72-54.96-13.28c-2.79-1.04-5.54-2.18-8.26-3.44c-3.26-1.52-6.46-3.21-9.6-5.12
				c-50.81-30.93-64.05-120.85-24.94-169.28c1.61-1.99,3.28-3.91,5.01-5.76c-0.3,0.36-0.6,0.72-0.9,1.09
				c-39.12,48.43-25.88,138.35,24.93,169.27C683.19,3033.92,709.78,3036.32,735.35,3042.31z"/>
			<path class="st2" d="M739.02,2773.01c0.42-0.42,0.83-0.86,1.22-1.29c-0.34,0.43-0.7,0.85-1.06,1.27
				C739.13,2773.01,739.08,2773.01,739.02,2773.01z"/>
			<path class="st2" d="M739.02,2773.01c0.06,0,0.11,0,0.16-0.02c-1.37,1.61-2.78,3.17-4.25,4.69c-0.26,0.04-0.51,0.07-0.77,0.09
				C735.83,2776.24,737.45,2774.65,739.02,2773.01z"/>
			<path class="st2" d="M739.02,2773.01c-1.57,1.64-3.19,3.23-4.86,4.76c-11.69,1.31-23.56,0.88-35.38-1.52
				c-53.77-10.92-100.91-60.96-111.17-122.62c-7.78-46.76,7.47-97.5,37.28-129.8c-27.1,32.39-40.6,80.57-33.18,125.13
				c10.26,61.66,57.4,111.7,111.17,122.62C714.96,2774.03,727.09,2774.43,739.02,2773.01z"/>
			<path class="st2" d="M734.16,2777.77c0.26-0.02,0.51-0.05,0.77-0.09c-27.65,28.76-70.35,41.5-98.62,71.8
				C662.86,2817.57,705.09,2804.62,734.16,2777.77z"/>
			<path class="st2" d="M688.65,3066.99c1.49,18.86-5.95,36.51-16.96,50.02c-20.54,25.22-50.66,35.9-78.74,45.02
				c-30.04,9.76-61.75,18.21-87.21,40.1c-23.93,20.6-44.57,56.58-36.48,92.28c2.61,11.47,8.15,21.29,14.03,30.88l-1.44,0.9
				c-7.07-11.4-14.37-22.75-17.48-36.46c-8.1-35.7,12.54-71.67,36.48-92.27c25.45-21.9,57.16-30.35,87.2-40.11
				c28.08-9.11,58.2-19.8,78.74-45.02c11.01-13.5,18.45-31.16,16.96-50.02c-1.15-14.67-6.94-25.83-18.01-32.56
				c2.72,1.26,5.47,2.4,8.26,3.44C682.63,3041.32,687.65,3054.27,688.65,3066.99z"/>
			<path class="st2" d="M513.04,1965.38c20.81-13.38,45.68-20.6,70.34-27.34c-25.94,8.51-52.3,17.77-74.44,32.01
				c-5.96,3.19-11.5,7.14-16.33,12.08C498.27,1974.94,505.31,1969.52,513.04,1965.38z"/>
		</g>
		<g>
			<path class="st3" d="M636.21,2849.59c-1.73,1.85-3.4,3.77-5.01,5.76c-39.11,48.43-25.87,138.35,24.94,169.28
				c3.14,1.91,6.34,3.6,9.6,5.12c2.72,1.26,5.47,2.4,8.26,3.44c17.62,6.56,36.52,9.1,54.96,13.28c11.93,2.69,23.66,6.07,34.72,11.66
				c52.81,26.69,78.57,107.69,53.18,167.23c-14.62,34.31-42.49,59.55-55.97,94.46c-5.49,14.62-23.61,51.08-0.02,108.79
				c0.26,0.65,0.52,1.29,0.8,1.94"/>
			<path class="st3" d="M831.45,2722.1c-25.89,30.47-60.33,51.31-96.52,55.58c-0.26,0.04-0.51,0.07-0.77,0.09
				c-11.69,1.31-23.56,0.88-35.38-1.52c-53.77-10.92-100.91-60.96-111.17-122.62c-7.78-46.76,7.47-97.5,37.28-129.8
				c9.5-10.29,20.47-18.71,32.66-24.53c50.44-24.09,115.93,2.49,139.15,59.3c17.17,41.97,7.19,95.21-20.06,128.27
				c-3.24,3.95-6.73,7.6-10.46,10.91c-1.34,1.2-2.71,2.35-4.11,3.46c-6.24,4.92-13.06,8.91-20.38,11.76
				c-33.7,13.09-74.66,0.58-95.67-32.41c-20.71-32.51-17.84-82.98,8.13-109.85c0.38-0.4,0.77-0.79,1.16-1.18
				c27.06-26.55,74.46-20.13,93.04,14.74c6.83,12.81,9.26,28.74,6.94,43.43c-0.54,3.43-1.34,6.79-2.41,10.02
				c-1.85,5.67-4.52,10.96-8.01,15.57c-0.36,0.49-0.74,0.96-1.12,1.43c-15.1,18.42-43.89,20.28-58.92,1.78
				c-12.99-15.99-10.57-44.8,3.65-58.04c2.23-2.08,4.75-3.78,7.54-4.98c15.6-6.72,33.78,2.41,44.37,17.21
				c5.7,7.96,9.61,17.23,12.49,27.03c0.31,1.04,0.6,2.1,0.89,3.15c2,7.43,3.46,15.11,4.69,22.72c1.91,11.77,3.34,23.94,3.58,35.99
				c0.02,0.54,0.03,1.09,0.03,1.63c0.22,17.19-2.03,34.12-8.76,49.35c-3.51,7.96-7.95,14.91-13.07,21.13
				c-0.34,0.43-0.7,0.85-1.06,1.27c-1.37,1.61-2.78,3.17-4.25,4.69c-27.65,28.76-70.35,41.5-98.62,71.8"/>
			<path class="st3" d="M623.5,1924.5c-12.8,4.73-26.41,9.03-40.12,13.54c-25.94,8.51-52.3,17.77-74.44,32.01
				c-5.96,3.19-11.5,7.14-16.33,12.08c-9.34,9.56-15.98,22.81-17.7,41.39c1.29,34.83,40.16,50.31,70.9,47.97
				c71.26-5.43,138.37-48.44,209.77-46.12c30.34,0.99,66.68,18.41,68.63,53.23c0.9,15.97-6,30.36-15.8,42.27
				c-5.08,6.19-10.94,11.7-16.89,16.43c-51.08,40.54-116.07,50.08-178.14,49.2c-62.06-0.88-124.18-10.97-186.02-4.68
				c-17.64,1.79-36.06,5.32-50.07,17.77c-0.58,0.52-1.15,1.05-1.71,1.62c-12.92,12.83-19.66,35.53-10.99,52.32
				c6.62,12.82,19.87,18.77,32.38,22.73c124.75,39.4,253.71-32.69,382.59-45.78c38.84-3.93,79.23-2.16,114.85,16.06
				c16.79,8.59,34.43,28.77,26.34,47.73c-0.74,1.73-1.66,3.32-2.72,4.79c-2.8,3.94-6.56,7.05-10.36,9.75
				c-75.61,53.87-179.95-8.68-261.39,32.51c-2.94,1.48-5.99,3.41-8.6,5.76c-4.24,3.81-7.34,8.76-6.93,14.75
				c0.45,6.66,5.23,11.78,10.06,15.5c26.32,20.28,60.45,18.61,91.58,25.43c83.66,18.33,151.21,113.27,144.02,210.82
				c-3.01,40.91-19.99,79.12-44.88,108.43"/>
			<path class="st3" d="M1058.42,3425.92c0.75,2.59,1.45,5.12,2.1,7.58"/>
			<path class="st3" d="M892.34,3151c0.27,14.98-2.1,30.49-2.68,45.38c-0.54,13.94,0.48,27.33,6.72,39.23
				c14.35,27.4,47.08,30.11,72.82,42.22c40.73,19.15,73.68,94.48,88.91,147.02"/>
			<path class="st3" d="M727.5,3046.5c0.49-0.01,0.97-0.02,1.46-0.03c7.15-0.16,14.43-0.16,21.76,0.06
				c26.36,0.82,53.43,4.59,77.53,14.58c31.26,12.96,59.52,42.78,63.54,80.71c0.32,3,0.49,6.04,0.55,9.1"/>
			<path class="st3" d="M665.53,3027.41c3.12,1.43,5.95,3.4,8.47,5.78c8.63,8.13,13.65,21.08,14.65,33.8
				c1.49,18.86-5.95,36.51-16.96,50.02c-20.54,25.22-50.66,35.9-78.74,45.02c-30.04,9.76-61.75,18.21-87.21,40.1
				c-23.93,20.6-44.57,56.58-36.48,92.28c2.61,11.47,8.15,21.29,14.03,30.88c3.53,5.75,7.18,11.41,10.39,17.31
				c9.41,17.25,14.82,37.9,13.42,57.37c-1.6,13.53-8.22,24.34-8.5,28.53"/>
			<path class="st3" d="M628.5,1924.5c-14.26,5.27-29.65,9.31-45.12,13.54c-24.66,6.74-49.53,13.96-70.34,27.34
				c-7.73,4.14-14.77,9.56-20.43,16.75c-7.16,9.08-12.14,20.99-13.6,36.71c1.29,34.83,40.16,50.31,70.9,47.98
				c71.26-5.43,138.37-48.45,209.77-46.12c30.35,0.99,66.68,18.4,68.63,53.22c1.02,18.13-8,34.21-19.9,46.95
				c-4.02,4.32-8.38,8.25-12.79,11.75c-51.08,40.54-116.07,50.08-178.13,49.21c-62.07-0.89-124.19-10.98-186.03-4.68
				c-17.64,1.78-36.06,5.31-50.07,17.77c-2.09,1.86-4.04,3.97-5.81,6.29c-10.13,13.18-14.58,32.73-6.89,47.64
				c6.62,12.82,19.87,18.77,32.38,22.73c124.76,39.4,253.71-32.69,382.59-45.78c38.84-3.93,79.23-2.15,114.85,16.06
				c16.8,8.59,34.43,28.77,26.34,47.73c-1.59,3.73-4.02,6.82-6.82,9.47c-1.96,1.87-4.11,3.54-6.25,5.07
				c-75.62,53.87-179.96-8.68-261.4,32.51c-4.7,2.37-9.68,5.88-12.7,10.44c-1.95,2.93-3.09,6.29-2.83,10.07
				c0.46,6.66,5.23,11.78,10.07,15.5c26.31,20.28,60.44,18.61,91.57,25.43c83.66,18.33,151.21,113.28,144.03,210.82
				c-3.18,43.13-21.88,83.24-48.99,113.11c-0.02,0.03-0.05,0.06-0.08,0.09c-25.34,27.87-58.02,46.8-92.27,50.89
				c-0.05,0.02-0.1,0.02-0.16,0.02c-11.93,1.42-24.06,1.02-36.14-1.43c-53.77-10.92-100.91-60.96-111.17-122.62
				c-7.42-44.56,6.08-92.74,33.18-125.13c10.39-12.43,22.79-22.53,36.77-29.21c50.43-24.08,115.92,2.49,139.15,59.3
				c17.99,44.01,6.14,100.42-24.17,132.95c-3.27,3.52-6.77,6.77-10.47,9.68c-1.35,1.07-2.72,2.09-4.13,3.06
				c-5.08,3.54-10.51,6.48-16.25,8.71c-33.7,13.09-74.66,0.58-95.67-32.41c-19.57-30.71-18.09-77.44,4.03-105.17
				c1.64-2.07,3.4-4.02,5.27-5.86c27.05-26.54,74.45-20.13,93.03,14.74c8.43,15.8,10.15,36.36,4.53,53.46
				c-0.88,2.71-1.95,5.32-3.21,7.82c-1.65,3.29-3.62,6.37-5.92,9.17c-0.94,1.15-1.94,2.23-2.98,3.25
				c-15.66,15.32-41.85,15.89-55.94-1.47c-11.62-14.31-10.91-38.86-0.45-53.36c3.06-4.26,6.97-7.65,11.64-9.66
				c15.6-6.72,33.79,2.41,44.37,17.21c4.65,6.51,8.12,13.88,10.8,21.69c0.6,1.76,1.17,3.55,1.69,5.35
				c2.48,8.39,4.18,17.18,5.58,25.86c2,12.3,3.46,25.02,3.61,37.61c0.01,0.41,0.02,0.82,0.01,1.23c0.1,16.77-2.2,33.26-8.77,48.14
				c-4.42,10.01-10.3,18.43-17.17,25.8c-0.39,0.43-0.8,0.87-1.22,1.29c-1.57,1.64-3.19,3.23-4.86,4.76
				c-29.07,26.85-71.3,39.8-97.85,71.71c-0.04,0.03-0.07,0.07-0.1,0.11c-0.3,0.36-0.6,0.72-0.9,1.09
				c-39.12,48.43-25.88,138.35,24.93,169.27c22.95,13.97,49.54,16.37,75.11,22.36c5.18,1.22,10.32,2.58,15.37,4.22
				c5.82,1.88,11.52,4.12,17.06,6.92c52.81,26.69,78.57,107.69,53.19,167.23c-14.62,34.31-42.5,59.56-55.98,94.46
				c-5.49,14.63-27.53,55.56-4.12,113.47c0.26,0.65,0.53,1.29,0.8,1.94c0.27,0.65,0.55,1.3,0.83,1.95"/>
			<path class="st3" d="M728.5,3042.5c2.27-0.06,4.56-0.12,6.85-0.19c31.2-0.88,63.88-1.93,93,10.13
				c31.27,12.95,59.52,42.78,63.54,80.7c0.62,5.83,0.67,11.78,0.45,17.78c0,0.02,0,0.05,0,0.08c-0.58,15.21-2.97,30.72-2.68,45.38
				c0.21,10.81,1.89,21.14,6.82,30.56c14.35,27.39,47.08,30.1,72.82,42.21c40.74,19.16,73.59,102.33,88.81,155.7
				c0.11,0.36,0.21,0.72,0.31,1.07c0.74,2.6,1.43,5.13,2.08,7.58"/>
			<path class="st3" d="M661.5,3027.5c1.49,0.68,2.9,1.43,4.24,2.25c11.07,6.73,16.86,17.89,18.01,32.56
				c1.49,18.86-5.95,36.52-16.96,50.02c-20.54,25.22-50.66,35.91-78.74,45.02c-30.04,9.76-61.75,18.21-87.2,40.11
				c-23.94,20.6-44.58,56.57-36.48,92.27c3.11,13.71,10.41,25.06,17.48,36.46c2.39,3.87,4.76,7.75,6.93,11.73
				c9.41,17.25,13.38,37.12,13.42,57.38c-0.09,9.19-7.42,29.01-7.7,33.2"/>
		</g>
	</g>
	<g id="XMLID_00000042695048485994065730000011429035614693542075_" class="st1">
		<g>
			<path class="st2" d="M492.58,690.01c55.34,7.24,72.38,59.29,112.6,61.66C561.73,754.19,549.55,697.88,492.58,690.01z"/>
			<path class="st2" d="M624.91,747.09c64.64-24.9,98.83-81.8,49.08-116.4c-7.16-4.98-15.76-9.37-24.36-13.73l1.2-2.45
				c10.1,5.16,20.58,10.23,29.02,16.12c49.72,34.61,15.57,91.55-49.02,116.46c-9.65,3.72-18.06,5.04-25.65,4.58
				C611.11,751.33,617.62,749.89,624.91,747.09z"/>
			<path class="st2" d="M616.49,588.52c5.63,10.72,19.59,18.45,34.34,25.99l-1.2,2.45c-16.43-8.32-32.83-16.5-39.06-28.35
				c-10.44-19.84,12.69-40.06,36.77-55.34c60.42-38.34,115.87-60.37,188.5-91.27l-0.09,2.12c-64.54,27.38-128.96,54.99-182.52,89.04
				C629.17,548.44,606.06,568.68,616.49,588.52z"/>
		</g>
		<g>
			<path class="st3" d="M490.25,689.73c-3.38-0.36-6.91-0.55-10.59-0.56"/>
			<path class="st3" d="M491.26,689.84c0.44,0.06,0.88,0.11,1.32,0.17c56.97,7.87,69.15,64.18,112.6,61.66
				c5.93-0.34,12.44-1.78,19.73-4.58c64.64-24.9,98.83-81.8,49.08-116.4c-7.16-4.98-15.76-9.37-24.36-13.73
				c-16.43-8.32-32.83-16.5-39.06-28.35c-10.44-19.84,12.69-40.06,36.77-55.34c60.42-38.34,115.87-60.37,188.5-91.27l-0.09,2.12
				c-64.54,27.38-128.96,54.99-182.52,89.04c-24.06,15.28-47.17,35.52-36.74,55.36c5.63,10.72,19.59,18.45,34.34,25.99
				c10.1,5.16,20.58,10.23,29.02,16.12c49.72,34.61,15.57,91.55-49.02,116.46c-9.65,3.72-18.06,5.04-25.65,4.58
				c-40.22-2.37-57.26-54.42-112.6-61.66C492.14,689.95,491.7,689.89,491.26,689.84"/>
			<path class="st3" d="M491.26,689.84c-0.33-0.04-0.67-0.08-1.01-0.11"/>
			<path class="st3" d="M479.17,689.11c3.87,0.01,7.56,0.22,11.08,0.62"/>
		</g>
	</g>
	<g class="st1">
		<g>
			<path class="st2" d="M2649.05,1458.26c3.22,0,3.22-5,0-5C2645.84,1453.26,2645.83,1458.26,2649.05,1458.26L2649.05,1458.26z"/>
		</g>
	</g>
</g>
<g id="Layer_2">
	<g>
		<g>
			<path class="st2" d="M-499.43,2957.86c3.22,0,3.22-5,0-5C-502.65,2952.86-502.65,2957.86-499.43,2957.86L-499.43,2957.86z"/>
		</g>
	</g>
	<g>
		<g>
			<path class="st2" d="M756.87,3442.26c-48.84-76.82,22.38-162.76,49.27-233.57c11.97-31.52,20.55-67.16,12.69-100.74
				c-6.85-29.22-26.92-51.06-52.88-65c-25.03-13.45-52.83-20.49-79.36-30.25c-27.23-10.02-56.26-24.12-66.9-53.21
				c-17.28-47.22,21.93-90.09,53.14-120.06c27.92-26.81,53.22-53.64,65.69-91.12c11.44-34.39,12.88-74.42,0.48-108.82
				c-6.77-18.8-31.61-50.27-54.68-35c-22.17,14.66-5.97,46.65,16.26,49.72c25.98,3.59,47.65-17.75,50.57-42.33
				c2.67-22.44-7.36-47.78-27.34-59.47c-24.82-14.52-58-2.73-75.7,17.74c-35.69,41.27-23.36,111.4,29.05,131.55
				c56.22,21.62,119.55-15.58,125.1-75.87c6.22-67.54-50.94-119.63-117.15-112.76c-64.39,6.68-105.98,62.5-103.69,125.43
				c2.28,62.56,45.43,114.22,107.73,124.31c62.92,10.19,128.58-19.93,157.72-77.34c30.23-59.56,20.8-134.48-21.1-185.92
				c-23.46-28.8-54.6-50-86.08-69.1c-16.33-9.91-32.96-19.33-49.31-29.2c-15.34-9.27-56.71-28.47-37.24-50.43
				c14.18-15.99,40.42-17.5,60.02-20.32c25.32-3.65,50.83-6.02,76.39-7.14c22.84-1.01,45.6,0.09,68.42-0.3
				c14.4-0.25,30.07-2.39,40.48-13.37c18-18.98,8.09-50.9-10.72-65.33c-28.41-21.8-70.63-16.33-103.56-11.74
				c-85.47,11.92-165.53,46.97-250.49,61.27c-40.91,6.89-87.48,10.52-127.65-2.25c-35.42-11.26-81-51.53-43.32-88.03
				c30.81-29.84,85.89-27.4,125.28-25.54c46.86,2.21,93.43,10.03,140.42,9.48c61.71-0.71,133.33-19.83,168.65-74.77
				c14.65-22.79,24.58-57.09-0.47-76.61c-20.49-15.97-51.38-13.45-75.38-9.63c-18.19,2.89-35.82,8.33-53.83,12.07
				c-24.25,5.04-48.83,8.39-73.54,10.06c-29.53,1.99-137.2,10.53-107.26-48.82c9.89-19.61,30.6-32.13,48.99-42.71
				c18.16-10.45,37.31-19.1,56.91-26.47c38.13-14.34,77.81-23.98,117.31-33.66c39.01-9.56,78.16-19.12,115.87-33.11
				c25.47-9.45,67.66-21.98,72.75-53.57c4.2-26.05-21.6-43.16-43.53-49.05c-38.47-10.32-76.23,13.29-114.82,5.3
				c-14.72-3.05-32.07-12.38-29.55-30.17c1.58-11.19,16.4-21.35,24.33-28.38c19.12-16.96,38.25-33.93,57.37-50.89
				c18.44-16.36,36.88-32.71,55.32-49.07c9.97-8.84,26.24-19.44,24.83-34.84c-2.63-28.66-48.15-36.59-70.37-38.18
				c-33.62-2.41-67.21,5.35-99.75,12.83c-33.99,7.81-68.72,16.82-103.88,15.19c-18.12-0.84-36.29-4.89-52.4-13.42
				c-11.73-6.21-22.81-15.82-22.62-30.3c0.17-12.66,8.64-24.23,17.23-32.77c28.68-28.49,74.94-42.39,113.21-51.91
				c40.38-10.05,81.83-14.79,123.18-18.77c77.46-7.45,160.06-10.63,232.48-42.06c27.04-11.74,40.01-37.64,19.29-62.57
				c-26.98-32.47-70.73-17.89-106.26-13.79c-18.17,2.09-38.47,1.34-54.4-8.64c-17.33-10.86-17.68-30.79-29.78-45.38
				c-16.07-19.37-44.27-17.89-66.93-16.33c-26.35,1.81-64.24,8.87-80.76-17.85c-8.28-13.38-10.28-28.65-25.94-35.81
				c-17.85-8.16-41.11-4.91-60.06-4.94c-38.6-0.06-83.95,5.76-120.77-8.76c-19.38-7.65-34.79-23.98-34.51-45.83
				c0.28-21.64,14.76-41.8,32.4-53.29c39.17-25.52,95.21-16.53,139.54-17.39c47.6-0.92,95.17-3.89,142.52-8.89
				c93.9-9.91,187.51-27.29,278.27-53.44c14.15-4.08,29.3-9.23,36.42-23.24c5.69-11.19,4.8-24.77,0.09-36.14
				c-13.9-33.54-56.02-39.68-87.83-41.73c-46.19-2.98-92.2,4.39-137.65,11.74c-49,7.92-97.76,14.51-147.51,13.83
				c-47.75-0.66-95.4-6.63-141.82-17.85c-41.28-9.98-86.74-22.15-121.39-47.74c-33.89-25.04-57.91-77.01-25.77-113.37
				c12.71-14.37,31.23-22.13,49.39-27c22.1-5.92,41.15-7.78,61.26,5.23c2.71,1.75,5.22-2.57,2.52-4.32
				c-26.95-17.43-58.17-10.66-86.15,1.48c-27.32,11.85-47.38,34.9-47.02,65.8c0.9,76.57,90.71,104.86,150.89,120.93
				c83.48,22.29,170.6,27.2,256.16,15.63c45.7-6.18,90.98-15.86,137.05-19.01c22.51-1.54,45.18-1.52,67.58,1.33
				c20.94,2.66,44.23,8.19,58.4,25.12c16.17,19.32,14.09,48.04-10.25,59.06c-19.15,8.67-41.39,12.58-61.71,17.69
				c-44.46,11.18-89.4,20.51-134.63,27.98c-91.13,15.05-183.49,22.46-275.85,22.21c-35.98-0.09-77.5-2.14-108.26,19.98
				c-21.41,15.4-37.84,43.91-29.48,70.65c8.48,27.15,36.5,38.19,62.32,41.96c38.52,5.62,78.88,2.32,117.68,2.41
				c9.72,0.02,19.86-0.35,29.34,2.13c14.6,3.82,20.14,13.96,25.75,26.6c4.8,10.8,10.84,19.83,21.6,25.31
				c21.47,10.95,48.4,5.76,71.33,4.32c13.28-0.84,27.44-1.63,40.33,2.33c17.16,5.27,23.53,17.67,30.31,33.27
				c12.49,28.74,40.18,37.51,69.91,35.65c37.73-2.36,97.92-25.06,116.93,23.27c16.96,43.12-61.58,56.64-89.75,63.05
				c-75.86,17.26-154.14,17.84-230.9,29.05c-37.15,5.43-74.16,13.4-109.17,27.21c-29.23,11.53-66.24,27.21-80.01,57.81
				c-12.46,27.7,9.57,46.7,33.58,55.97c27.89,10.77,58.22,10.03,87.35,5.66c63.01-9.46,131.97-40.97,195.3-17.47
				c9.57,3.55,26.97,11.16,28.55,23.2c1.99,15.15-13.15,24.91-22.95,33.61c-17.76,15.75-35.51,31.5-53.27,47.25
				c-17.07,15.15-34.15,30.29-51.22,45.44c-11.53,10.23-29.7,21.83-33.81,37.86c-8.54,33.25,41.68,39.55,63.13,37.51
				c36.12-3.44,72.49-18.98,106.06,2.79c17.24,11.18,25.47,31.13,11.83,49.03c-11.7,15.35-32.68,22.91-49.97,29.87
				c-35.88,14.46-73.4,24.33-110.89,33.62c-71.29,17.67-145.38,33.41-207.82,74.11c-20.97,13.67-52.48,41.19-37.59,69.58
				c14.53,27.71,59.29,23.6,84.98,23.23c43.34-0.63,86.45-6.53,128.44-17.25c27.57-7.04,61.15-14.64,88.69-3.62
				c44.05,17.63,18.61,71.2-5.25,95.6c-24.19,24.73-57.26,38.92-90.58,46.37c-82.24,18.39-165.54-8.55-248.4-2.55
				c-29.19,2.11-64.61,7.6-84.08,32.11c-16.31,20.53-11.65,47.22,5.97,65.15c22.14,22.54,54.13,30.26,84.54,32.86
				c37.92,3.25,76.04-1.32,113.14-9.16c80.86-17.09,158.33-49.79,240.95-58.53c35.95-3.8,91.55-5.82,102.7,38.6
				c13.91,55.44-67.45,42.63-98.64,43.47c-23.13,0.63-46.23,2.28-69.22,4.95c-19.32,2.25-40.03,3.71-58.6,9.71
				c-19.49,6.3-44.34,25.49-25.57,46.63c10.84,12.21,28.11,20.27,41.97,28.58c15.78,9.45,31.77,18.55,47.48,28.12
				c31.09,18.95,61.69,40.08,84.57,68.82c46.41,58.31,49.72,149.61-0.26,207.05c-44.54,51.2-129.51,64.75-185.92,25.27
				c-53.75-37.61-67.63-120.64-29.96-174.3c45.05-64.17,154.76-60.07,183.62,17.06c12.1,32.34,8.2,72.09-16.78,97.45
				c-23.74,24.09-62.61,31.84-94.16,20.28c-32.27-11.83-49.71-43.49-47.1-77.06c2.75-35.4,29.51-70.93,68.06-69.25
				c32.48,1.41,51.79,37.27,43.88,67.04c-5.26,19.82-26.19,36.05-47.34,30.32c-11.27-3.05-19.33-13.97-18.5-25.74
				c1.14-16.32,18.21-19.93,30.37-13.1c35.61,20.01,36.51,77.4,30.55,112.33c-7.02,41.16-29.38,73.75-58.78,102.4
				c-26.19,25.52-54.88,50.46-66.22,86.53c-8.44,26.84-3.55,55.76,16.52,76.06c37.59,38.04,99.11,37.98,142.69,66.59
				c70.03,45.96,38.41,137.43,7.29,197.43c-29.69,57.25-68.3,131.8-28.93,193.72C754.27,3447.49,758.6,3444.99,756.87,3442.26
				L756.87,3442.26z"/>
		</g>
	</g>
	<g>
		<g>
			<path class="st2" d="M763.94,3434.06c-48.84-76.82,22.38-162.76,49.27-233.57c11.97-31.52,20.55-67.16,12.69-100.74
				c-6.85-29.22-26.92-51.06-52.88-65c-25.03-13.45-52.83-20.49-79.36-30.25c-27.23-10.02-56.26-24.12-66.9-53.21
				c-17.28-47.22,21.93-90.09,53.14-120.06c27.92-26.81,53.22-53.64,65.69-91.12c11.44-34.39,12.88-74.42,0.48-108.82
				c-6.77-18.8-31.61-50.27-54.68-35c-22.17,14.66-5.97,46.65,16.26,49.72c25.98,3.59,47.65-17.75,50.57-42.33
				c2.67-22.44-7.36-47.78-27.34-59.47c-24.82-14.52-58-2.73-75.7,17.74c-35.69,41.27-23.36,111.4,29.05,131.55
				c56.22,21.62,119.55-15.58,125.1-75.87c6.22-67.54-50.94-119.63-117.15-112.76c-64.39,6.68-105.98,62.5-103.69,125.43
				c2.28,62.56,45.43,114.22,107.73,124.31c62.92,10.19,128.58-19.93,157.72-77.34c30.23-59.56,20.8-134.48-21.1-185.92
				c-23.46-28.8-54.6-50-86.08-69.1c-16.33-9.91-32.96-19.33-49.31-29.21c-15.34-9.27-56.71-28.47-37.24-50.43
				c14.18-15.99,40.42-17.5,60.02-20.32c25.32-3.65,50.83-6.01,76.39-7.14c22.84-1.01,45.6,0.09,68.42-0.3
				c14.4-0.25,30.07-2.39,40.48-13.37c18-18.98,8.09-50.9-10.72-65.33c-28.41-21.8-70.63-16.33-103.56-11.74
				c-85.47,11.92-165.53,46.97-250.49,61.27c-40.91,6.89-87.48,10.52-127.65-2.25c-35.42-11.26-81-51.53-43.32-88.03
				c30.81-29.84,85.89-27.4,125.28-25.54c46.86,2.21,93.43,10.03,140.42,9.48c61.71-0.71,133.33-19.83,168.65-74.77
				c14.65-22.79,24.58-57.09-0.47-76.61c-20.49-15.97-51.38-13.45-75.38-9.63c-18.19,2.89-35.82,8.33-53.83,12.07
				c-24.25,5.04-48.83,8.39-73.54,10.06c-29.53,1.99-137.2,10.54-107.26-48.82c9.89-19.61,30.6-32.13,48.99-42.71
				c18.16-10.45,37.31-19.1,56.91-26.47c38.13-14.34,77.81-23.98,117.31-33.66c39.01-9.56,78.16-19.12,115.87-33.11
				c25.47-9.44,67.66-21.98,72.75-53.57c4.2-26.05-21.6-43.16-43.53-49.05c-38.47-10.32-76.23,13.29-114.82,5.3
				c-14.72-3.05-32.07-12.38-29.55-30.17c1.58-11.19,16.4-21.35,24.33-28.38c19.12-16.96,38.25-33.93,57.37-50.89
				c18.44-16.36,36.88-32.71,55.32-49.07c9.97-8.84,26.24-19.44,24.83-34.84c-2.63-28.66-48.15-36.59-70.37-38.18
				c-33.62-2.41-67.21,5.35-99.75,12.83c-33.99,7.81-68.72,16.82-103.88,15.19c-18.12-0.84-36.29-4.89-52.4-13.42
				c-11.73-6.21-22.81-15.82-22.62-30.3c0.17-12.66,8.64-24.23,17.23-32.77c28.68-28.49,74.94-42.39,113.21-51.91
				c40.38-10.05,81.83-14.79,123.18-18.77c77.46-7.45,160.06-10.63,232.48-42.06c27.04-11.74,40.01-37.64,19.29-62.57
				c-26.98-32.47-70.73-17.89-106.26-13.79c-18.17,2.09-38.47,1.34-54.4-8.64c-17.33-10.86-17.68-30.79-29.78-45.38
				c-16.07-19.37-44.27-17.89-66.93-16.33c-26.35,1.81-64.24,8.87-80.76-17.85c-8.28-13.38-10.28-28.65-25.94-35.81
				c-17.85-8.16-41.11-4.91-60.06-4.94c-38.6-0.06-83.95,5.76-120.77-8.76c-19.38-7.65-34.79-23.98-34.51-45.83
				c0.28-21.64,14.76-41.8,32.4-53.29c39.17-25.52,95.21-16.53,139.54-17.39c47.6-0.92,95.17-3.89,142.52-8.89
				c93.9-9.91,187.51-27.29,278.27-53.44c14.15-4.08,29.3-9.23,36.42-23.24c5.69-11.19,4.8-24.77,0.09-36.14
				c-13.9-33.54-56.02-39.68-87.83-41.73c-46.19-2.97-92.2,4.39-137.65,11.74c-49,7.92-97.76,14.51-147.51,13.83
				c-47.75-0.66-95.4-6.63-141.82-17.85c-41.28-9.98-86.74-22.15-121.39-47.74c-33.89-25.04-57.91-77.01-25.77-113.37
				c12.71-14.37,31.23-22.13,49.39-27c22.1-5.92,41.15-7.78,61.26,5.23c2.71,1.75,5.22-2.57,2.52-4.32
				c-26.95-17.43-58.17-10.66-86.15,1.48c-27.32,11.85-47.38,34.9-47.02,65.8c0.9,76.57,90.71,104.86,150.89,120.93
				c83.48,22.29,170.6,27.2,256.16,15.63c45.7-6.18,90.98-15.86,137.05-19.01c22.51-1.54,45.18-1.52,67.58,1.33
				c20.94,2.66,44.23,8.19,58.4,25.12c16.17,19.32,14.09,48.04-10.25,59.06c-19.15,8.67-41.39,12.58-61.71,17.69
				c-44.46,11.18-89.4,20.51-134.63,27.98c-91.13,15.05-183.49,22.46-275.86,22.21c-35.98-0.09-77.5-2.14-108.26,19.98
				c-21.41,15.4-37.84,43.91-29.48,70.65c8.48,27.15,36.5,38.19,62.32,41.96c38.52,5.62,78.88,2.32,117.68,2.41
				c9.72,0.02,19.86-0.35,29.34,2.13c14.6,3.82,20.14,13.96,25.75,26.6c4.8,10.8,10.84,19.83,21.6,25.31
				c21.47,10.95,48.4,5.76,71.33,4.32c13.28-0.84,27.44-1.63,40.33,2.33c17.16,5.27,23.53,17.67,30.31,33.28
				c12.49,28.74,40.18,37.51,69.91,35.65c37.74-2.36,97.92-25.06,116.93,23.27c16.96,43.12-61.58,56.64-89.75,63.05
				c-75.86,17.26-154.14,17.84-230.9,29.05c-37.15,5.43-74.16,13.4-109.17,27.21c-29.23,11.53-66.24,27.21-80.01,57.81
				c-12.46,27.7,9.57,46.7,33.58,55.97c27.89,10.77,58.22,10.03,87.35,5.66c63.01-9.46,131.97-40.97,195.3-17.47
				c9.57,3.55,26.97,11.16,28.55,23.2c1.99,15.15-13.15,24.91-22.95,33.61c-17.76,15.75-35.51,31.5-53.27,47.25
				c-17.07,15.15-34.15,30.29-51.22,45.44c-11.53,10.23-29.7,21.83-33.81,37.86c-8.54,33.25,41.68,39.55,63.13,37.51
				c36.12-3.44,72.49-18.98,106.06,2.79c17.24,11.18,25.47,31.13,11.83,49.03c-11.7,15.35-32.68,22.91-49.97,29.87
				c-35.88,14.46-73.4,24.33-110.89,33.62c-71.29,17.67-145.38,33.41-207.82,74.11c-20.97,13.67-52.48,41.19-37.59,69.58
				c14.53,27.71,59.29,23.6,84.98,23.23c43.34-0.63,86.45-6.53,128.44-17.25c27.57-7.04,61.15-14.64,88.69-3.62
				c44.05,17.63,18.61,71.2-5.25,95.6c-24.19,24.73-57.26,38.92-90.58,46.37c-82.24,18.39-165.54-8.55-248.4-2.55
				c-29.19,2.11-64.61,7.6-84.08,32.11c-16.31,20.53-11.65,47.22,5.97,65.15c22.14,22.54,54.13,30.26,84.54,32.86
				c37.92,3.25,76.04-1.32,113.14-9.16c80.86-17.09,158.33-49.79,240.95-58.53c35.95-3.8,91.55-5.82,102.7,38.6
				c13.91,55.44-67.45,42.63-98.64,43.47c-23.13,0.63-46.23,2.28-69.22,4.95c-19.32,2.25-40.03,3.71-58.6,9.71
				c-19.49,6.3-44.34,25.49-25.57,46.63c10.84,12.21,28.11,20.27,41.97,28.58c15.78,9.45,31.77,18.55,47.48,28.12
				c31.09,18.95,61.69,40.08,84.57,68.82c46.41,58.31,49.72,149.61-0.26,207.05c-44.54,51.2-129.51,64.75-185.92,25.27
				c-53.75-37.61-67.63-120.64-29.96-174.3c45.05-64.17,154.76-60.07,183.62,17.06c12.1,32.34,8.2,72.09-16.78,97.45
				c-23.74,24.09-62.61,31.84-94.16,20.28c-32.27-11.83-49.71-43.49-47.1-77.06c2.75-35.4,29.51-70.93,68.06-69.25
				c32.48,1.41,51.79,37.27,43.88,67.04c-5.26,19.82-26.19,36.05-47.34,30.32c-11.27-3.05-19.33-13.97-18.5-25.74
				c1.14-16.32,18.21-19.93,30.37-13.1c35.61,20.01,36.51,77.4,30.55,112.33c-7.02,41.16-29.38,73.75-58.78,102.4
				c-26.19,25.52-54.88,50.46-66.22,86.53c-8.44,26.84-3.55,55.76,16.52,76.06c37.59,38.04,99.11,37.98,142.69,66.59
				c70.03,45.96,38.41,137.43,7.29,197.43c-29.69,57.25-68.3,131.8-28.93,193.72C761.34,3439.29,765.67,3436.78,763.94,3434.06
				L763.94,3434.06z"/>
		</g>
	</g>
</g>
<g id="Layer_3" class="st0">
	<g class="st1">
		<g>
			<path class="st2" d="M1107.4,3381.73c-48.84-76.82,22.38-162.76,49.27-233.57c11.97-31.52,20.55-67.16,12.69-100.74
				c-6.85-29.22-26.92-51.06-52.88-65c-25.03-13.45-52.83-20.49-79.36-30.25c-27.23-10.02-56.26-24.12-66.9-53.21
				c-17.28-47.22,21.93-90.09,53.14-120.06c27.92-26.81,53.22-53.65,65.69-91.12c11.44-34.39,12.88-74.42,0.48-108.82
				c-6.77-18.8-31.61-50.27-54.68-35c-22.17,14.66-5.97,46.65,16.26,49.72c25.98,3.59,47.65-17.75,50.57-42.33
				c2.67-22.44-7.36-47.78-27.34-59.47c-24.82-14.52-58-2.73-75.7,17.74c-35.69,41.27-23.36,111.4,29.05,131.55
				c56.22,21.62,119.55-15.58,125.1-75.87c6.22-67.54-50.94-119.63-117.15-112.76c-64.39,6.68-105.98,62.5-103.69,125.44
				c2.28,62.56,45.43,114.22,107.73,124.31c62.92,10.19,128.58-19.93,157.72-77.34c30.23-59.56,20.8-134.48-21.1-185.92
				c-23.46-28.8-54.6-50-86.08-69.1c-16.33-9.91-32.96-19.33-49.31-29.21c-15.34-9.27-56.71-28.47-37.24-50.43
				c14.18-15.99,40.42-17.5,60.02-20.32c25.32-3.65,50.83-6.02,76.39-7.14c22.84-1.01,45.6,0.09,68.42-0.3
				c14.4-0.25,30.07-2.39,40.48-13.37c18-18.98,8.09-50.9-10.72-65.33c-28.41-21.8-70.63-16.33-103.56-11.74
				c-85.47,11.92-165.53,46.97-250.49,61.27c-40.91,6.89-87.48,10.52-127.65-2.25c-35.42-11.26-81-51.53-43.32-88.03
				c30.81-29.84,85.89-27.4,125.28-25.54c46.86,2.21,93.43,10.03,140.42,9.48c61.71-0.71,133.33-19.83,168.65-74.77
				c14.65-22.79,24.58-57.09-0.47-76.61c-20.49-15.97-51.38-13.45-75.38-9.63c-18.19,2.89-35.82,8.33-53.83,12.07
				c-24.25,5.04-48.83,8.39-73.54,10.06c-29.53,1.99-137.2,10.54-107.26-48.82c9.89-19.61,30.6-32.13,48.99-42.71
				c18.16-10.45,37.31-19.1,56.91-26.47c38.13-14.34,77.81-23.98,117.31-33.66c39.01-9.56,78.16-19.12,115.87-33.11
				c25.47-9.44,67.66-21.98,72.75-53.57c4.2-26.05-21.6-43.16-43.53-49.05c-38.47-10.32-76.23,13.29-114.82,5.3
				c-14.72-3.05-32.07-12.38-29.55-30.17c1.58-11.19,16.4-21.35,24.33-28.38c19.12-16.96,38.25-33.93,57.37-50.89
				c18.44-16.36,36.88-32.71,55.32-49.07c9.97-8.84,26.24-19.44,24.83-34.84c-2.63-28.66-48.15-36.59-70.37-38.18
				c-33.62-2.41-67.21,5.35-99.75,12.83c-33.99,7.81-68.72,16.82-103.88,15.19c-18.12-0.84-36.29-4.89-52.4-13.42
				c-11.73-6.21-22.81-15.82-22.62-30.3c0.17-12.66,8.64-24.23,17.23-32.77c28.68-28.49,74.94-42.39,113.21-51.91
				c40.38-10.05,81.83-14.79,123.18-18.77c77.46-7.45,160.06-10.63,232.48-42.06c27.04-11.74,40.01-37.64,19.29-62.57
				c-26.98-32.47-70.73-17.89-106.26-13.79c-18.17,2.09-38.47,1.34-54.4-8.64c-17.33-10.86-17.68-30.79-29.78-45.38
				c-16.07-19.37-44.27-17.89-66.93-16.33c-26.35,1.81-64.24,8.87-80.76-17.85c-8.28-13.38-10.28-28.65-25.94-35.81
				c-17.85-8.16-41.11-4.91-60.06-4.94c-38.6-0.06-83.95,5.76-120.77-8.76c-19.38-7.65-34.79-23.98-34.51-45.83
				c0.28-21.64,14.76-41.8,32.4-53.29c39.17-25.52,95.21-16.53,139.54-17.39c47.6-0.92,95.17-3.89,142.52-8.89
				c93.9-9.91,187.51-27.29,278.27-53.44c14.15-4.08,29.3-9.23,36.42-23.24c5.69-11.19,4.8-24.77,0.09-36.14
				c-13.9-33.54-56.02-39.68-87.83-41.73c-46.19-2.97-92.2,4.39-137.65,11.74c-49,7.92-97.76,14.51-147.51,13.83
				c-47.75-0.66-95.4-6.63-141.82-17.85c-41.28-9.98-86.74-22.15-121.39-47.74c-33.89-25.04-57.91-77.01-25.77-113.37
				c12.71-14.37,31.23-22.13,49.39-27c22.1-5.92,41.15-7.78,61.26,5.23c2.71,1.75,5.22-2.57,2.52-4.32
				c-26.95-17.43-58.17-10.66-86.15,1.48c-27.32,11.85-47.38,34.9-47.02,65.8c0.9,76.57,90.71,104.86,150.89,120.93
				c83.48,22.29,170.6,27.2,256.16,15.63c45.7-6.18,90.98-15.86,137.05-19.01c22.51-1.54,45.18-1.52,67.58,1.33
				c20.94,2.66,44.23,8.19,58.4,25.12c16.17,19.32,14.09,48.04-10.25,59.06c-19.15,8.67-41.39,12.58-61.71,17.69
				c-44.46,11.18-89.4,20.51-134.63,27.98c-91.13,15.05-183.49,22.46-275.86,22.21c-35.98-0.09-77.5-2.14-108.26,19.98
				c-21.41,15.4-37.84,43.91-29.48,70.65c8.48,27.15,36.5,38.19,62.32,41.96c38.52,5.62,78.88,2.32,117.68,2.41
				c9.72,0.02,19.86-0.35,29.34,2.13c14.6,3.82,20.14,13.96,25.75,26.6c4.8,10.8,10.84,19.83,21.6,25.31
				c21.47,10.95,48.4,5.76,71.33,4.32c13.28-0.84,27.44-1.63,40.33,2.33c17.16,5.27,23.53,17.67,30.31,33.27
				c12.49,28.74,40.18,37.51,69.91,35.65c37.74-2.36,97.92-25.06,116.93,23.27c16.96,43.12-61.58,56.64-89.75,63.05
				c-75.86,17.26-154.14,17.84-230.9,29.05c-37.15,5.43-74.16,13.4-109.17,27.21c-29.23,11.53-66.24,27.21-80.01,57.81
				c-12.46,27.7,9.57,46.7,33.58,55.97c27.89,10.77,58.22,10.03,87.35,5.66c63.01-9.46,131.97-40.97,195.3-17.47
				c9.57,3.55,26.97,11.16,28.55,23.2c1.99,15.15-13.15,24.91-22.95,33.61c-17.76,15.75-35.51,31.5-53.27,47.25
				c-17.07,15.15-34.15,30.29-51.22,45.44c-11.53,10.23-29.7,21.83-33.81,37.86c-8.54,33.25,41.68,39.55,63.13,37.51
				c36.12-3.44,72.49-18.98,106.06,2.79c17.24,11.18,25.47,31.13,11.83,49.03c-11.7,15.35-32.68,22.91-49.97,29.87
				c-35.88,14.46-73.4,24.33-110.89,33.62c-71.29,17.67-145.38,33.41-207.82,74.11c-20.97,13.67-52.48,41.19-37.59,69.58
				c14.53,27.71,59.29,23.6,84.98,23.23c43.34-0.63,86.45-6.53,128.44-17.25c27.57-7.04,61.15-14.64,88.69-3.62
				c44.05,17.63,18.61,71.2-5.25,95.6c-24.19,24.73-57.26,38.92-90.58,46.37c-82.24,18.39-165.54-8.55-248.4-2.55
				c-29.19,2.11-64.61,7.6-84.08,32.11c-16.31,20.53-11.65,47.22,5.97,65.15c22.14,22.54,54.13,30.26,84.54,32.86
				c37.92,3.25,76.04-1.32,113.14-9.16c80.86-17.09,158.33-49.79,240.95-58.53c35.95-3.8,91.55-5.82,102.7,38.6
				c13.91,55.44-67.45,42.63-98.64,43.47c-23.13,0.63-46.23,2.28-69.22,4.95c-19.32,2.25-40.03,3.71-58.6,9.71
				c-19.49,6.3-44.34,25.49-25.57,46.63c10.84,12.21,28.11,20.27,41.97,28.58c15.78,9.45,31.77,18.55,47.48,28.12
				c31.09,18.95,61.69,40.08,84.57,68.82c46.41,58.31,49.72,149.61-0.26,207.05c-44.54,51.2-129.51,64.75-185.92,25.27
				c-53.75-37.61-67.63-120.64-29.96-174.3c45.05-64.17,154.76-60.07,183.62,17.06c12.1,32.34,8.2,72.09-16.78,97.45
				c-23.74,24.09-62.61,31.84-94.16,20.28c-32.27-11.83-49.71-43.49-47.1-77.06c2.75-35.4,29.51-70.93,68.06-69.25
				c32.48,1.41,51.79,37.27,43.88,67.04c-5.26,19.82-26.19,36.05-47.34,30.32c-11.27-3.05-19.33-13.97-18.5-25.74
				c1.14-16.32,18.21-19.93,30.37-13.1c35.61,20.01,36.51,77.4,30.55,112.33c-7.02,41.16-29.38,73.75-58.78,102.4
				c-26.19,25.52-54.88,50.46-66.22,86.53c-8.44,26.84-3.55,55.76,16.52,76.06c37.59,38.04,99.11,37.98,142.69,66.59
				c70.03,45.96,38.41,137.43,7.29,197.43c-29.69,57.25-68.3,131.8-28.93,193.72C1104.8,3386.96,1109.13,3384.46,1107.4,3381.73
				L1107.4,3381.73z"/>
		</g>
	</g>
</g>
</svg>
