<?xml version="1.0" encoding="utf-8"?>
<!-- Generator: Adobe Illustrator 28.0.0, SVG Export Plug-In . SVG Version: 6.00 Build 0)  -->
<svg version="1.1" id="Layer_1" xmlns="http://www.w3.org/2000/svg" xmlns:xlink="http://www.w3.org/1999/xlink" x="0px" y="0px"
	 viewBox="0 0 1417.32 3461.1" style="enable-background:new 0 0 1417.32 3461.1;" xml:space="preserve">
<style type="text/css">
	.Drop_x0020_Shadow{fill:none;}
	.st0{fill:#AD354C;}
	.st1{fill:none;stroke:#AD354C;stroke-width:0.5;stroke-linecap:round;stroke-linejoin:round;}
</style>
<g id="XMLID_00000029766855039979572050000005750955124155143570_">
</g>
<g id="XMLID_00000179618037366487564330000000763038797777666238_">
</g>
<g id="XMLID_00000076583105302306476950000018328059941983277718_">
	<g>
		<path class="st0" d="M1118.06,399.51c0.75,2.29,1.15,4.72,1.14,7.3c-0.07,12.92-10.93,22.82-21.63,29.33
			c-56.9,34.63-127.86,23.92-193.52,17.87c-125.28-11.54-252.34-1.87-374.66,28.52c-41.46,10.29-92.02,37.44-85.44,81.3
			c0.02,0.15,0.05,0.31,0.08,0.46c-0.47-1.73-0.84-3.5-1.1-5.3c-6.58-43.86,43.98-71.01,85.44-81.3
			c122.32-30.39,249.38-40.06,374.67-28.52c65.65,6.05,136.61,16.76,193.51-17.87c10.71-6.51,21.56-16.41,21.63-29.33
			C1118.17,401.14,1118.13,400.32,1118.06,399.51z"/>
		<path class="st0" d="M1118.06,399.51c-3.83-11.76-16.65-19.86-28.31-25.08c-161.95-72.42-349.45-12.83-523.67-40.45
			c-47.92-7.6-99.22-25.17-124.64-68.17c-4.62-7.83-7.7-16.6-9.35-25.72c1.78,7.38,4.53,14.45,8.33,20.88
			c25.41,43,76.71,60.57,124.64,68.17c174.22,27.63,361.72-31.96,523.66,40.45C1101.92,375.49,1116.6,385.1,1118.06,399.51z"/>
		<path class="st0" d="M1048.95,789.88c6.4,58.43-93.55,62.38-151.16,63.12c-124.51,1.62-253.52,12.66-362.51,75.36
			c-17.72,10.19-36.98,28.22-34.7,47.51c-6.53-21.08,14.49-41.31,33.67-52.35c109.01-62.7,238-73.74,362.51-75.35
			c56.82-0.74,154.85-4.59,151.36-60.76C1048.44,788.2,1048.72,789.03,1048.95,789.88z"/>
		<path class="st0" d="M1047.92,785.05c0.09,0.8,0.15,1.59,0.2,2.36c-13.62-34.53-102.02-15.59-152.63-26.98
			c-12.93-2.91-26.98-9.38-31.14-22.46c-0.52-1.62-0.85-3.28-1.06-4.95c0.01,0.04,0.02,0.07,0.03,0.11
			c4.16,13.08,18.2,19.55,31.14,22.46C946.24,767.24,1037.56,747.15,1047.92,785.05z"/>
		<path class="st0" d="M908.03,1255.52c5.81,21.03-14.97,39.08-33.61,49.15c-101.14,54.64-173.97,58.11-246.46,75.01
			c72.46-17.05,144.3-25.21,245.43-79.85c17.44-9.42,36.74-25.81,34.41-45.09C907.88,1255,907.96,1255.26,908.03,1255.52z"/>
		<path class="st0" d="M907.01,1250.69c0.38,1.36,0.64,2.72,0.8,4.05c-6.23-20.28-32.36-23.99-53.07-23.74
			c-30.75,0.37-61.53,0.73-92.28,1.11c-22.11,0.27-50.03-3.64-56.39-25.69c-0.42-1.46-0.72-2.93-0.89-4.4
			c6.6,21.66,34.29,25.52,56.26,25.25c30.75-0.38,61.52-0.74,92.27-1.11C874.68,1225.91,901.21,1229.71,907.01,1250.69z"/>
		<path class="st0" d="M879.88,1010.14c3.54,9.36-2.42,21.56-9.26,29.86c-42.98,52.12-114.89,72.36-153.95,127.71
			c-7.05,9.99-13.01,22.31-11.5,34.31c-0.05-0.14-0.1-0.29-0.13-0.43c-3.84-13.35,2.71-27.49,10.62-38.71
			c39.05-55.36,110.97-75.6,153.94-127.72C875.3,1028.23,880.4,1018.58,879.88,1010.14z"/>
		<path class="st0" d="M879.88,1010.14c-1.04-2.79-2.93-5.32-5.89-7.42c-2.45-1.75-5.3-2.85-8.23-3.4
			c-110.66-20.63-227.25,42.32-333.88,6.1c-12.04-4.09-24.8-10.5-29.59-22.72c-0.9-2.29-1.46-4.57-1.72-6.83
			c0.2,0.66,0.43,1.33,0.69,1.99c4.79,12.22,17.55,18.63,29.59,22.72c106.64,36.23,223.23-26.72,333.88-6.1
			c2.93,0.55,5.78,1.65,8.24,3.41C877.58,1001.16,879.6,1005.46,879.88,1010.14z"/>
		<path class="st0" d="M862.81,710.37c0.97,7.48-0.48,15.26,0.48,22.65c-2.75-8.75-0.33-18.36-1.51-27.49
			c-0.02-0.17-0.05-0.33-0.07-0.49C862.21,706.74,862.57,708.52,862.81,710.37z"/>
		<path class="st0" d="M861.72,705.04c-7.4-25.91-42.22-34.35-69.37-30.95c-28.93,3.65-61.25,12.64-85.02-4.92
			c-5.46-4.02-9.99-9.2-14.58-14.3l2.04-1.44c3.58,3.95,7.26,7.78,11.51,10.9c23.77,17.57,56.09,8.57,85.03,4.92
			C820.09,665.65,857.48,675.35,861.72,705.04z"/>
		<path class="st0" d="M694.79,653.43l-2.04,1.44c-3.57-3.96-7.18-7.89-11.31-11.19c-22.96-18.36-55.14-13.61-83.96-10.84
			c-45.04,4.34-94.13,0.27-129.15-29.54c-11.79-10.03-21.82-23.39-24.3-39.01c3.58,13.55,12.72,25.19,23.27,34.17
			c35.03,29.81,84.11,33.88,129.15,29.54c28.82-2.77,61.01-7.52,83.97,10.84C685.73,643.08,690.19,648.35,694.79,653.43z"/>
		<path class="st0" d="M504.82,158.62c4.11,10.88-4.17,27.29-14.64,35.51c-17.54,13.76-37.99,19.9-59.07,19.99
			c0.14-1.41,0.31-2.82,0.51-4.22c20.52-0.73,40.41-7.17,57.54-20.61C498.18,182.22,505.55,169.08,504.82,158.62z"/>
		<path class="st0" d="M504.82,158.62c-1.2-3.17-3.45-5.88-7-7.77c-2.56-1.37-5.43-1.99-8.31-2.04
			c-32.17-0.65-53.22,28.45-57.89,61.09c-0.53,0.03-1.07,0.04-1.59,0.05c3.17-34.58,24.69-66.66,58.45-65.98
			c2.88,0.06,5.75,0.67,8.31,2.04C502.06,148.8,504.46,153.38,504.82,158.62z"/>
		<path class="st0" d="M430.03,209.95c0.53-0.01,1.07-0.02,1.59-0.05c-0.2,1.4-0.36,2.81-0.51,4.22c-0.46,0-0.91,0-1.36-0.01
			C429.8,212.72,429.9,211.33,430.03,209.95z"/>
		<path class="st0" d="M429.75,214.11c0.45,0.01,0.9,0.01,1.36,0.01c-0.84,8.65-0.56,17.46,0.98,25.97
			C430.06,231.67,429.3,222.85,429.75,214.11z"/>
		<path class="st0" d="M430.03,209.95c-0.12,1.38-0.22,2.77-0.28,4.16c-50.04-0.4-103.31-34.61-129.25-81.61l0.16-0.1
			C327.1,178.95,380.26,211.03,430.03,209.95z"/>
	</g>
	<g>
		<path class="st1" d="M300.5,132.5c25.93,47,79.2,81.21,129.25,81.61c0.45,0.01,0.9,0.01,1.36,0.01
			c21.08-0.09,41.53-6.23,59.07-19.99c10.48-8.22,18.75-24.63,14.64-35.51c-1.2-3.17-3.45-5.88-7-7.77
			c-2.56-1.37-5.43-1.99-8.31-2.04c-32.17-0.65-53.22,28.45-57.89,61.09c-0.2,1.4-0.36,2.81-0.51,4.22
			c-0.84,8.65-0.56,17.46,0.98,25.97c1.65,9.12,4.73,17.89,9.35,25.72c25.42,43,76.72,60.57,124.64,68.17
			c174.23,27.62,361.73-31.97,523.67,40.45c11.66,5.22,24.47,13.32,28.31,25.08c0.75,2.29,1.15,4.72,1.14,7.3
			c-0.07,12.92-10.93,22.82-21.63,29.33c-56.9,34.63-127.86,23.92-193.52,17.87c-125.28-11.54-252.34-1.87-374.66,28.52
			c-41.46,10.29-92.02,37.44-85.44,81.3c0.02,0.15,0.05,0.31,0.08,0.46c2.48,15.62,12.51,28.98,24.3,39.01
			c35.02,29.81,84.11,33.88,129.15,29.54c28.82-2.77,61.01-7.52,83.96,10.84c4.13,3.3,7.74,7.23,11.31,11.19
			c4.59,5.1,9.11,10.28,14.58,14.3c23.77,17.56,56.09,8.57,85.02,4.92c27.15-3.4,61.97,5.04,69.37,30.95
			c0.49,1.7,0.85,3.48,1.09,5.33c0.97,7.48-0.48,15.26,0.48,22.65c0.2,1.67,0.54,3.33,1.06,4.95c4.16,13.08,18.2,19.55,31.14,22.46
			c50.62,11.39,139.01-7.55,152.63,26.98c0.32,0.79,0.6,1.62,0.83,2.47c6.4,58.43-93.55,62.38-151.16,63.12
			c-124.51,1.62-253.52,12.66-362.51,75.36c-17.72,10.19-36.98,28.22-34.7,47.51c0.26,2.26,0.82,4.54,1.72,6.83
			c4.79,12.22,17.55,18.63,29.59,22.72c106.63,36.22,223.22-26.73,333.88-6.1c2.93,0.55,5.78,1.65,8.23,3.4
			c2.96,2.1,4.85,4.63,5.89,7.42c3.54,9.36-2.42,21.56-9.26,29.86c-42.98,52.12-114.89,72.36-153.95,127.71
			c-7.05,9.99-13.01,22.31-11.5,34.31c0.17,1.47,0.47,2.94,0.89,4.4c6.36,22.05,34.28,25.96,56.39,25.69
			c30.75-0.38,61.53-0.74,92.28-1.11c20.71-0.25,46.84,3.46,53.07,23.74c0.08,0.26,0.15,0.52,0.23,0.78
			c5.81,21.03-14.97,39.08-33.61,49.15c-101.14,54.64-173.97,58.11-246.46,75.01"/>
		<path class="st1" d="M299.78,130.85c0.29,0.52,0.58,1.04,0.88,1.55c26.43,46.55,79.6,78.63,129.36,77.55
			c0.53-0.01,1.07-0.02,1.59-0.05c20.52-0.73,40.41-7.17,57.54-20.61c9.02-7.07,16.39-20.21,15.66-30.67
			c-0.36-5.24-2.77-9.82-8.03-12.61c-2.56-1.37-5.43-1.98-8.31-2.04c-33.77-0.68-55.29,31.4-58.45,65.98
			c-0.12,1.38-0.22,2.77-0.28,4.16c-0.44,8.74,0.32,17.56,2.34,25.98c1.78,7.38,4.53,14.45,8.33,20.88
			c25.41,43,76.71,60.57,124.64,68.17c174.22,27.63,361.72-31.96,523.66,40.45c13.19,5.9,27.87,15.51,29.33,29.92
			c0.08,0.81,0.12,1.63,0.12,2.46c-0.07,12.92-10.93,22.82-21.63,29.33c-56.9,34.63-127.86,23.92-193.51,17.87
			c-125.29-11.54-252.35-1.87-374.67,28.52c-41.46,10.29-92.02,37.44-85.44,81.3c0.27,1.8,0.63,3.57,1.1,5.3
			c3.58,13.55,12.72,25.19,23.27,34.17c35.03,29.81,84.11,33.88,129.15,29.54c28.82-2.77,61.01-7.52,83.97,10.84
			c5.31,4.24,9.76,9.51,14.36,14.59c3.58,3.95,7.26,7.78,11.51,10.9c23.77,17.57,56.09,8.57,85.03,4.92
			c28.77-3.6,66.15,6.1,70.39,35.79c0.02,0.16,0.05,0.32,0.07,0.49c1.18,9.13-1.24,18.74,1.51,27.49c0.01,0.04,0.02,0.07,0.03,0.11
			c4.16,13.08,18.2,19.55,31.14,22.46c51.78,11.65,143.1-8.44,153.46,29.46c0.09,0.8,0.15,1.59,0.2,2.36
			c3.49,56.17-94.54,60.02-151.36,60.76c-124.51,1.61-253.51,12.65-362.51,75.35c-19.18,11.04-40.2,31.27-33.67,52.35
			c0.2,0.66,0.43,1.33,0.69,1.99c4.79,12.22,17.55,18.63,29.59,22.72c106.64,36.23,223.23-26.72,333.88-6.1
			c2.93,0.55,5.78,1.65,8.24,3.41c4.6,3.27,6.62,7.57,6.9,12.25c0.52,8.44-4.58,18.09-10.28,25.02
			c-42.97,52.12-114.89,72.36-153.94,127.72c-7.91,11.22-14.46,25.36-10.62,38.71c0.04,0.14,0.09,0.29,0.13,0.43
			c6.6,21.66,34.29,25.52,56.26,25.25c30.75-0.38,61.52-0.74,92.27-1.11c20.97-0.25,47.5,3.55,53.3,24.53
			c0.38,1.36,0.64,2.72,0.8,4.05c2.32,19.28-16.98,35.67-34.41,45.09c-101.13,54.64-172.97,62.8-245.43,79.85
			c-1.15,0.27-2.3,0.54-3.46,0.82"/>
	</g>
</g>
<g id="XMLID_00000010302285593979765920000010545507010197437339_">
	<g>
		<path class="st0" d="M1053.78,2859.75c-16.86-50.54-47.1-112.77-83.58-129.92c-25.74-12.11-58.47-14.82-72.82-42.22
			c-3.01-5.76-4.81-11.86-5.81-18.2c1.07,4.68,2.64,9.2,4.91,13.53c14.35,27.39,47.08,30.1,72.82,42.21
			C1006.52,2742.65,1037.16,2808.34,1053.78,2859.75z"/>
		<path class="st0" d="M920.85,1745.59c1.8-4.21,2.32-8.47,1.88-12.66c1.56,5.65,1.49,11.55-0.98,17.34
			c-2.7,6.34-7.86,10.82-13.08,14.54c-75.61,53.87-179.95-8.68-261.39,32.51c-7.57,3.81-15.86,10.57-15.56,19.95
			c-0.47-1.3-0.77-2.67-0.87-4.12c-0.66-9.66,7.82-16.62,15.53-20.51c81.44-41.19,185.78,21.36,261.4-32.51
			C912.99,1756.41,918.15,1751.94,920.85,1745.59z"/>
		<path class="st0" d="M922.73,1732.93c-3.58-12.86-15.66-24.42-27.32-30.39c-35.62-18.22-76.01-19.99-114.85-16.06
			c-128.88,13.09-257.84,85.18-382.59,45.78c-12.51-3.96-25.76-9.91-32.38-22.73c-1.89-3.67-3.05-7.61-3.56-11.67
			c0.62,2.41,1.5,4.75,2.66,6.99c6.62,12.82,19.87,18.77,32.38,22.73c124.76,39.4,253.71-32.69,382.59-45.78
			c38.84-3.93,79.23-2.15,114.85,16.06C907.58,1704.55,921.16,1718.25,922.73,1732.93z"/>
		<path class="st0" d="M892.79,2593.82c2.63,24.88-4.91,51.91-1.22,75.59c-5.64-24.75,3.12-53.73,0.32-80.27
			c-0.17-1.64-0.39-3.27-0.66-4.88C891.92,2587.38,892.45,2590.57,892.79,2593.82z"/>
		<path class="st0" d="M873.76,2014.49c3.67,17.92,5.02,36.46,3.65,55.09c-6.15,83.5-70.47,155.72-141.48,164.1
			c1.71-1.77,3.36-3.6,4.94-5.5c68.66-11.54,129.66-82.06,135.65-163.28C877.77,2047.89,876.75,2030.96,873.76,2014.49z"/>
		<path class="st0" d="M891.23,2584.26c-7.32-33.36-33.4-59.3-61.98-71.15c-30.21-12.51-65.08-15.27-97.39-14.68
			c-0.03,0-0.06-0.01-0.09-0.02c32.27-0.88,66.34-2.5,96.58,10.03C858.27,2520.83,885.42,2548.67,891.23,2584.26z"/>
		<path class="st0" d="M873.76,2014.49c-15.55-75.93-72.69-140.9-140.37-155.73c-31.13-6.82-65.26-5.15-91.58-25.43
			c-4.83-3.72-9.61-8.84-10.06-15.5c-0.01-0.19-0.02-0.38-0.03-0.56c1.66,4.7,5.41,8.47,9.2,11.38
			c26.31,20.28,60.44,18.61,91.57,25.43C801.56,1869.21,859.65,1936.57,873.76,2014.49z"/>
		<path class="st0" d="M825.21,1534.6c1.37,24.27-15.27,44.87-32.69,58.7c-51.08,40.54-116.07,50.08-178.14,49.2
			c-62.06-0.88-124.18-10.97-186.02-4.68c-17.64,1.79-36.06,5.32-50.07,17.77c-11.09,9.86-18.24,26.9-16.26,42.27
			c-4.3-16.46,3.14-36.06,15.36-46.94c14.01-12.46,32.43-15.99,50.07-17.77c61.84-6.3,123.96,3.79,186.03,4.68
			c62.06,0.87,127.05-8.67,178.13-49.21c17.42-13.82,34.06-34.42,32.69-58.7c-0.08-1.45-0.22-2.88-0.43-4.27
			C824.58,1528.49,825.04,1531.48,825.21,1534.6z"/>
		<path class="st0" d="M824.54,2600.49c5.63,26.99,4,55.83-6.68,80.87c-14.62,34.31-42.49,59.55-55.97,94.46
			c-4.36,11.61-18.49,35.17-12.4,73.19c-6.58-39.62,7.12-66.2,11.5-77.87c13.48-34.9,41.36-60.15,55.98-94.46
			C827.03,2653.08,829.05,2626.11,824.54,2600.49z"/>
		<path class="st0" d="M762.94,2151.93c31.48-25.39,48.04-74.51,40.57-118.33c9.61,45.31-7.33,97.53-40.44,123.64
			C763.06,2155.47,763.01,2153.7,762.94,2151.93z"/>
		<path class="st0" d="M823.88,1525.65c-7.09-28.86-39.68-43.38-67.3-44.28c-71.4-2.32-138.51,40.69-209.77,46.12
			c-29.42,2.24-66.29-11.84-70.53-43.59c7.05,28.45,41.7,41.04,69.63,38.92c71.26-5.43,138.37-48.45,209.77-46.12
			C784.76,1477.65,819.34,1493.67,823.88,1525.65z"/>
		<path class="st0" d="M803.51,2033.6c-1.38-6.51-3.31-12.87-5.81-19c-23.22-56.81-88.71-83.39-139.15-59.3
			c-50.42,24.09-80.2,92.67-69.94,154.33c0.09,0.55,0.19,1.1,0.29,1.64c-0.44-2.09-0.84-4.19-1.19-6.31
			c-10.26-61.66,19.52-130.25,69.95-154.34c50.43-24.08,115.92,2.49,139.15,59.3C799.91,2017.5,802.13,2025.46,803.51,2033.6z"/>
		<path class="st0" d="M666.26,2485.46c0.11,0.07,0.21,0.13,0.31,0.21c-3.2-1.5-6.35-3.16-9.43-5.04
			c-24.47-14.89-40.23-43.47-45.62-74.51c6.1,29.21,21.48,55.69,44.72,69.83c23.07,14.05,49.84,16.4,75.53,22.46
			c-1.09,0.03-2.18,0.06-3.27,0.09c1.12-0.03,2.24-0.05,3.36-0.07c10.96,2.6,21.73,5.87,31.92,11.02
			c31.88,16.11,53.9,52.01,60.76,91.04c-7.74-37.2-29.26-70.89-59.86-86.36c-30.88-15.6-66.95-13.98-97.94-28.38
			C666.58,2485.64,666.42,2485.55,666.26,2485.46z"/>
		<path class="st0" d="M763.07,2157.24c0.22,17.19-2.03,34.12-8.76,49.35c-3.6,8.15-8.16,15.25-13.44,21.59
			c-1.94,0.33-3.89,0.61-5.85,0.83c7.4-7.67,13.71-16.49,18.39-27.09c6.03-13.64,8.46-28.65,8.75-43.98
			C762.47,2157.71,762.77,2157.47,763.07,2157.24z"/>
		<path class="st0" d="M762.94,2151.93c0.07,1.77,0.12,3.54,0.13,5.31c-0.3,0.23-0.6,0.47-0.91,0.7c0.03-1.8,0.04-3.6,0.01-5.39
			C762.43,2152.35,762.69,2152.15,762.94,2151.93z"/>
		<path class="st0" d="M762.94,2151.93c-0.25,0.22-0.51,0.42-0.77,0.62c-0.15-12.59-1.61-25.31-3.61-37.61
			c-0.37-2.31-0.77-4.63-1.2-6.94c0.79,3.86,1.48,7.75,2.1,11.62C761.18,2130.2,762.5,2141.09,762.94,2151.93z"/>
		<path class="st0" d="M762.17,2152.55c0.03,1.79,0.02,3.59-0.01,5.39c-5.99,4.6-12.5,8.35-19.47,11.06
			c-33.7,13.09-74.66,0.58-95.67-32.41c-6.23-9.78-10.33-21.19-12.31-33.1c2.2,10.21,6,19.93,11.41,28.42
			c21.01,32.99,61.97,45.5,95.67,32.41C749.11,2161.47,755.93,2157.48,762.17,2152.55z"/>
		<path class="st0" d="M755.32,2056.54c2.76,12.04,2.41,25.04-1.22,36.55c-0.35-1.35-0.72-2.69-1.12-4.01
			C756.33,2078.88,757.07,2067.45,755.32,2056.54z"/>
		<path class="st0" d="M752.7,2089.93c0.41,1.26,0.8,2.53,1.18,3.82c-2.05,6.27-5.08,12.07-9.13,17
			c-15.1,18.42-43.89,20.28-58.92,1.78c-4.39-5.4-7.02-12.25-8.02-19.48c1.34,5.48,3.69,10.58,7.12,14.8
			c15.03,18.51,43.82,16.64,58.92-1.78C747.71,2101.36,750.65,2095.87,752.7,2089.93z"/>
		<path class="st0" d="M740.49,2062.04c5.7,7.97,9.62,17.24,12.49,27.04c-0.09,0.29-0.19,0.57-0.28,0.85
			c-2.75-8.38-6.36-16.28-11.31-23.21c-10.59-14.8-28.77-23.93-44.37-17.21c-14.6,6.29-21.67,26-19.21,43.54
			c-4.58-18.55,2.39-41.36,18.31-48.22C711.72,2038.11,729.91,2047.24,740.49,2062.04z"/>
		<path class="st0" d="M755.32,2056.54c-1.29-5.72-3.29-11.22-5.97-16.24c-18.58-34.87-65.98-41.29-93.04-14.74
			c-19,18.66-26.27,49.64-21.62,77.85c-6.32-29.41,0.66-62.83,20.73-82.53c27.05-26.54,74.45-20.13,93.03,14.74
			C751.85,2042,754.16,2049.15,755.32,2056.54z"/>
		<path class="st0" d="M740.87,2228.18c-1.58,1.9-3.23,3.73-4.94,5.5c-2.09,0.26-4.19,0.45-6.3,0.58c1.85-1.69,3.66-3.44,5.39-5.25
			C736.98,2228.79,738.93,2228.51,740.87,2228.18z"/>
		<path class="st0" d="M731.77,2498.41c0.03,0.01,0.06,0.02,0.09,0.02c-1.12,0.02-2.24,0.04-3.36,0.07
			C729.59,2498.47,730.68,2498.44,731.77,2498.41z"/>
		<path class="st0" d="M735.02,2229.01c-1.73,1.81-3.54,3.56-5.39,5.25c-9.89,0.64-19.89,0.01-29.85-2.01
			c-53.29-10.82-100.07-60.07-110.88-120.98c12.31,58.74,58.06,105.76,109.98,116.31C710.96,2230.03,723.09,2230.43,735.02,2229.01z
			"/>
		<path class="st0" d="M729.63,2234.26c2.11-0.13,4.21-0.32,6.3-0.58c-29.38,30.55-75.73,43.02-103.73,77.67
			c-20.27,25.1-26.48,61.36-20.68,94.76c-7.25-34.65-1.44-73.15,19.79-99.43C657.64,2274.09,700.21,2261.11,729.63,2234.26z"/>
		<path class="st0" d="M685.65,2522.99c1.49,18.86-5.95,36.51-16.96,50.02c-20.54,25.22-50.66,35.9-78.74,45.02
			c-30.04,9.76-61.75,18.21-87.21,40.1c-22.88,19.7-42.76,53.47-37.37,87.6c-8.1-35.7,12.54-71.67,36.48-92.27
			c25.45-21.9,57.16-30.35,87.2-40.11c28.08-9.11,58.2-19.8,78.74-45.02c11.01-13.5,18.45-31.16,16.96-50.02
			c-0.12-1.51-0.29-2.99-0.51-4.43C684.94,2516.88,685.41,2519.94,685.65,2522.99z"/>
		<path class="st0" d="M684.23,2513.8c-2.68-11.52-8.67-22.19-17.64-28.12c0.05,0.02,0.1,0.05,0.15,0.07
			C676.64,2491.77,682.32,2501.34,684.23,2513.8z"/>
		<path class="st0" d="M624.5,1380.5c-36.99,13.66-80.7,23.77-114.56,45.55c-17.49,9.36-31.42,25.29-34.03,53.47
			c0.06,1.49,0.18,2.95,0.37,4.38c-0.72-2.86-1.15-5.88-1.27-9.06c2.62-28.18,16.54-44.1,34.03-53.46
			C542.9,1399.6,587.51,1394.16,624.5,1380.5z"/>
		<path class="st0" d="M499.61,2819.79c3.64,11.8,5.35,24.21,4.49,36.18c-1.55,13.11-7.81,23.66-8.46,28.12l-0.09-0.01
			c0.66-4.95,7.56-23.86,7.65-32.78C503.18,2840.58,502.06,2829.97,499.61,2819.79z"/>
		<path class="st0" d="M499.61,2819.79c-2.27-7.39-5.31-14.54-8.93-21.19c-8.57-15.71-20.25-29.84-24.42-48.19
			c-0.35-1.55-0.65-3.11-0.89-4.66c4.17,18.35,15.84,32.47,24.41,48.17C494.21,2802.04,497.43,2810.74,499.61,2819.79z"/>
	</g>
	<g>
		<path class="st1" d="M749.58,2849.59c1.78,10.79,5.18,22.74,10.9,35.91"/>
		<path class="st1" d="M666.59,2485.68c0.05,0.02,0.1,0.05,0.15,0.07c30.99,14.4,67.06,12.78,97.94,28.38
			c30.6,15.47,52.12,49.16,59.86,86.36c5.63,26.99,4,55.83-6.68,80.87c-14.62,34.31-42.49,59.55-55.97,94.46
			c-4.36,11.61-18.49,35.17-12.4,73.19"/>
		<path class="st1" d="M611.52,2406.12c5.39,31.04,21.15,59.62,45.62,74.51c3.08,1.88,6.23,3.54,9.43,5.04"/>
		<path class="st1" d="M757.36,2108c0.79,3.86,1.48,7.75,2.1,11.62c1.72,10.58,3.04,21.47,3.48,32.31c0.07,1.77,0.12,3.54,0.13,5.31
			c0.22,17.19-2.03,34.12-8.76,49.35c-3.6,8.15-8.16,15.25-13.44,21.59c-1.58,1.9-3.23,3.73-4.94,5.5
			c-29.38,30.55-75.73,43.02-103.73,77.67c-20.27,25.1-26.48,61.36-20.68,94.76"/>
		<path class="st1" d="M634.69,2103.41c-4.65-28.21,2.62-59.19,21.62-77.85c27.06-26.55,74.46-20.13,93.04,14.74
			c2.68,5.02,4.68,10.52,5.97,16.24c2.76,12.04,2.41,25.04-1.22,36.55c-0.07,0.22-0.14,0.44-0.22,0.66
			c-2.05,6.27-5.08,12.07-9.13,17c-15.1,18.42-43.89,20.28-58.92,1.78c-4.39-5.4-7.02-12.25-8.02-19.48
			c-2.46-17.54,4.61-37.25,19.21-43.54c15.6-6.72,33.78,2.41,44.37,17.21c4.95,6.93,8.56,14.83,11.31,23.21
			c0.41,1.26,0.8,2.53,1.18,3.82c1.36,4.61,2.48,9.35,3.46,14.12"/>
		<path class="st1" d="M624.5,1380.5c-36.99,13.66-80.7,23.77-114.56,45.55c-17.49,9.36-31.42,25.29-34.03,53.47
			c0.06,1.49,0.18,2.95,0.37,4.38c4.24,31.75,41.11,45.83,70.53,43.59c71.26-5.43,138.37-48.44,209.77-46.12
			c27.62,0.9,60.21,15.42,67.3,44.28c0.7,2.84,1.16,5.83,1.33,8.95c1.37,24.27-15.27,44.87-32.69,58.7
			c-51.08,40.54-116.07,50.08-178.14,49.2c-62.06-0.88-124.18-10.97-186.02-4.68c-17.64,1.79-36.06,5.32-50.07,17.77
			c-11.09,9.86-18.24,26.9-16.26,42.27c0.51,4.06,1.67,8,3.56,11.67c6.62,12.82,19.87,18.77,32.38,22.73
			c124.75,39.4,253.71-32.69,382.59-45.78c38.84-3.93,79.23-2.16,114.85,16.06c11.66,5.97,23.74,17.53,27.32,30.39
			c1.56,5.65,1.49,11.55-0.98,17.34c-2.7,6.34-7.86,10.82-13.08,14.54c-75.61,53.87-179.95-8.68-261.39,32.51
			c-7.57,3.81-15.86,10.57-15.56,19.95c0.01,0.18,0.02,0.37,0.03,0.56c0.45,6.66,5.23,11.78,10.06,15.5
			c26.32,20.28,60.45,18.61,91.58,25.43c67.68,14.83,124.82,79.8,140.37,155.73c3.67,17.92,5.02,36.46,3.65,55.09
			c-6.15,83.5-70.47,155.72-141.48,164.1c-2.09,0.26-4.19,0.45-6.3,0.58c-9.89,0.64-19.89,0.01-29.85-2.01
			c-53.29-10.82-100.07-60.07-110.88-120.98c-0.1-0.54-0.2-1.09-0.29-1.64c-10.26-61.66,19.52-130.24,69.94-154.33
			c50.44-24.09,115.93,2.49,139.15,59.3c2.5,6.13,4.43,12.49,5.81,19c9.61,45.31-7.33,97.53-40.44,123.64
			c-0.3,0.23-0.6,0.47-0.91,0.7c-5.99,4.6-12.5,8.35-19.47,11.06c-33.7,13.09-74.66,0.58-95.67-32.41
			c-6.23-9.78-10.33-21.19-12.31-33.1"/>
		<path class="st1" d="M728.5,2498.5c1.12-0.03,2.24-0.05,3.36-0.07c32.31-0.59,67.18,2.17,97.39,14.68
			c28.58,11.85,54.66,37.79,61.98,71.15c0.69,3.12,1.22,6.31,1.56,9.56c2.63,24.88-4.91,51.91-1.22,75.59
			c1,6.34,2.8,12.44,5.81,18.2c14.35,27.4,47.08,30.11,72.82,42.22c36.48,17.15,66.72,79.38,83.58,129.92
			c3.02,9.07,5.62,17.76,7.74,25.75"/>
		<path class="st1" d="M465.37,2745.75c0.24,1.55,0.54,3.11,0.89,4.66c4.17,18.35,15.85,32.48,24.42,48.19
			c3.62,6.65,6.66,13.8,8.93,21.19c3.64,11.8,5.35,24.21,4.49,36.18c-1.55,13.11-7.81,23.66-8.46,28.12
			c-0.02,0.14-0.03,0.28-0.04,0.41"/>
		<path class="st1" d="M684.24,2513.88c0.7,3,1.17,6.06,1.41,9.11c1.49,18.86-5.95,36.51-16.96,50.02
			c-20.54,25.22-50.66,35.9-78.74,45.02c-30.04,9.76-61.75,18.21-87.21,40.1c-22.88,19.7-42.76,53.47-37.37,87.6"/>
		<path class="st1" d="M666.26,2485.46c0.11,0.07,0.21,0.13,0.31,0.21c0.01,0,0.01,0.01,0.02,0.01c8.97,5.93,14.96,16.6,17.64,28.12
			"/>
		<path class="st1" d="M662.53,2483.41c1.24,0.57,2.43,1.22,3.57,1.95"/>
		<path class="st1" d="M624.5,1380.5c-36.99,13.66-81.6,19.1-115.46,40.88c-17.49,9.36-31.41,25.28-34.03,53.46
			c0.12,3.18,0.55,6.2,1.27,9.06c7.05,28.45,41.7,41.04,69.63,38.92c71.26-5.43,138.37-48.45,209.77-46.12
			c29.08,0.95,63.66,16.97,68.2,48.95c0.21,1.39,0.35,2.82,0.43,4.27c1.37,24.28-15.27,44.88-32.69,58.7
			c-51.08,40.54-116.07,50.08-178.13,49.21c-62.07-0.89-124.19-10.98-186.03-4.68c-17.64,1.78-36.06,5.31-50.07,17.77
			c-12.22,10.88-19.66,30.48-15.36,46.94c0.62,2.41,1.5,4.75,2.66,6.99c6.62,12.82,19.87,18.77,32.38,22.73
			c124.76,39.4,253.71-32.69,382.59-45.78c38.84-3.93,79.23-2.15,114.85,16.06c13.07,6.69,26.65,20.39,28.22,35.07
			c0.44,4.19-0.08,8.45-1.88,12.66c-2.7,6.35-7.86,10.82-13.07,14.54c-75.62,53.87-179.96-8.68-261.4,32.51
			c-7.71,3.89-16.19,10.85-15.53,20.51c0.1,1.45,0.4,2.82,0.87,4.12c1.66,4.7,5.41,8.47,9.2,11.38
			c26.31,20.28,60.44,18.61,91.57,25.43c69.07,15.13,127.16,82.49,141.27,160.41c2.99,16.47,4.01,33.4,2.76,50.41
			c-5.99,81.22-66.99,151.74-135.65,163.28c-1.94,0.33-3.89,0.61-5.85,0.83c-11.93,1.42-24.06,1.02-36.14-1.43
			c-51.92-10.55-97.67-57.57-109.98-116.31c-0.44-2.09-0.84-4.19-1.19-6.31c-10.26-61.66,19.52-130.25,69.95-154.34
			c50.43-24.08,115.92,2.49,139.15,59.3c3.1,7.58,5.32,15.54,6.7,23.68c7.47,43.82-9.09,92.94-40.57,118.33
			c-0.25,0.22-0.51,0.42-0.77,0.62c-6.24,4.93-13.06,8.92-20.38,11.77c-33.7,13.09-74.66,0.58-95.67-32.41
			c-5.41-8.49-9.21-18.21-11.41-28.42c0-0.02-0.01-0.05-0.02-0.08c-6.32-29.41,0.66-62.83,20.73-82.53
			c27.05-26.54,74.45-20.13,93.03,14.74c3.4,6.38,5.71,13.53,6.87,20.92c1.75,10.91,1.01,22.34-2.34,32.54
			c-0.09,0.29-0.19,0.57-0.28,0.85c-2.05,5.94-4.99,11.43-8.85,16.14c-15.1,18.42-43.89,20.29-58.92,1.78
			c-3.43-4.22-5.78-9.32-7.12-14.8c-4.58-18.55,2.39-41.36,18.31-48.22c15.6-6.72,33.79,2.41,44.37,17.21
			c5.7,7.97,9.62,17.24,12.49,27.04c0.4,1.32,0.77,2.66,1.12,4.01c1.28,4.86,2.33,9.81,3.24,14.78c0.01,0.04,0.02,0.09,0.02,0.13
			c0.43,2.31,0.83,4.63,1.2,6.94c2,12.3,3.46,25.02,3.61,37.61c0.03,1.79,0.02,3.59-0.01,5.39c-0.29,15.33-2.72,30.34-8.75,43.98
			c-4.68,10.6-10.99,19.42-18.39,27.09c-1.73,1.81-3.54,3.56-5.39,5.25c-29.42,26.85-71.99,39.83-98.32,72.42
			c-21.23,26.28-27.04,64.78-19.79,99.43v0.01c6.1,29.21,21.48,55.69,44.72,69.83c23.07,14.05,49.84,16.4,75.53,22.46
			c0.03,0.01,0.06,0.02,0.09,0.02c10.96,2.6,21.73,5.87,31.92,11.02c31.88,16.11,53.9,52.01,60.76,91.04
			c4.51,25.62,2.49,52.59-7.57,76.19c-14.62,34.31-42.5,59.56-55.98,94.46c-4.38,11.67-18.08,38.25-11.5,77.87
			c0.03,0.2,0.06,0.39,0.09,0.58c1.87,10.99,5.3,22.97,10.92,35.91"/>
		<path class="st1" d="M728.5,2498.5c1.09-0.03,2.18-0.06,3.27-0.09c32.27-0.88,66.34-2.5,96.58,10.03
			c29.92,12.39,57.07,40.23,62.88,75.82c0.27,1.61,0.49,3.24,0.66,4.88c2.8,26.54-5.96,55.52-0.32,80.27
			c1.07,4.68,2.64,9.2,4.91,13.53c14.35,27.39,47.08,30.1,72.82,42.21c37.22,17.5,67.86,83.19,84.48,134.6
			c2.59,8.01,4.84,15.67,6.72,22.75"/>
		<path class="st1" d="M662.5,2483.5c1.25,0.57,2.45,1.19,3.6,1.86c0.05,0.03,0.1,0.06,0.16,0.1c0.16,0.09,0.32,0.18,0.48,0.29
			c9.9,6.02,15.58,15.59,17.49,28.05c0,0.03,0.01,0.06,0.01,0.08c0.22,1.44,0.39,2.92,0.51,4.43c1.49,18.86-5.95,36.52-16.96,50.02
			c-20.54,25.22-50.66,35.91-78.74,45.02c-30.04,9.76-61.75,18.21-87.2,40.11c-23.94,20.6-44.58,56.57-36.48,92.27
			c0,0.01,0,0.01,0,0.02c4.17,18.35,15.84,32.47,24.41,48.17c4.43,8.12,7.65,16.82,9.83,25.87c2.45,10.18,3.57,20.79,3.59,31.51
			c-0.09,8.92-6.99,27.83-7.65,32.78c-0.03,0.15-0.04,0.29-0.05,0.42"/>
	</g>
</g>
</svg>
