<?xml version="1.0" encoding="utf-8"?>
<!-- Generator: Adobe Illustrator 28.0.0, SVG Export Plug-In . SVG Version: 6.00 Build 0)  -->
<svg version="1.1" xmlns="http://www.w3.org/2000/svg" xmlns:xlink="http://www.w3.org/1999/xlink" x="0px" y="0px"
	 viewBox="0 0 1417.32 3461.1" style="enable-background:new 0 0 1417.32 3461.1;" xml:space="preserve">
<style type="text/css">
	.st0{display:none;}
	.st1{display:inline;}
	.st2{fill:#AD354C;}
	.st3{fill:none;stroke:#AD354C;stroke-miterlimit:10;}
	.st4{fill:none;stroke:#AD354C;stroke-width:0.5;stroke-linecap:round;stroke-linejoin:round;}
	.st5{fill:none;stroke:#AD354C;stroke-linecap:round;stroke-linejoin:round;}
</style>
<g id="Layer_1" class="st0">
	<g id="XMLID_00000023960792664010394750000007352939145099584189_" class="st1">
		<g>
			<path class="st2" d="M934.83,1789.59c13.96,13.76,17.18,37.39,14.92,57.75c-7.3,66.42-56.82,126.25-120.7,145.85
				c-43.52,13.37-90.87,9.13-135.6,16.26l0-3.52c43.88-6.55,90.14-2.77,132.76-15.85c63.86-19.62,113.38-79.45,120.7-145.85
				C949,1825.32,946.37,1803.61,934.83,1789.59z"/>
			<path class="st2" d="M934.83,1789.59c-2.57-2.52-5.5-4.72-8.83-6.5c-10.63-5.69-23.36-5.89-35.38-4.71
				c-61.61,6.03-115.07,43.29-172.87,65.53c-7.89,3.04-16.03,5.8-24.3,8.04l0-3.92c7.28-2.08,14.47-4.55,21.46-7.23
				c57.79-22.24,111.25-59.52,172.87-65.55c12.02-1.18,24.73-0.99,35.38,4.71C927.78,1782.45,931.65,1785.72,934.83,1789.59z"/>
			<path class="st2" d="M914.41,1321.24c21,21.82,21.83,57.65,8.41,84.8c-13.42,27.12-38.38,46.77-64.61,61.89
				c-50.49,29.13-107.07,44.42-164.74,54.92l0-3.64c56.7-10.47,112.24-25.75,161.9-54.41c26.23-15.12,51.19-34.75,64.61-61.89
				c12.89-26.05,12.61-60.15-6.02-82.13C914.09,1320.93,914.25,1321.08,914.41,1321.24z"/>
			<path class="st2" d="M911.57,1318.13c0.82,0.86,1.63,1.74,2.39,2.64c-28.67-29.2-76.76-21.36-117.07-13.65
				c-34.2,6.53-68.74,11.38-103.43,14.52l0-3.37c33.73-3.14,67.31-7.91,100.59-14.27C834.57,1296.24,882.97,1288.38,911.57,1318.13z
				"/>
			<path class="st2" d="M858.83,2276.35c3.42,29.9-14.25,58.94-37.61,77.94c-23.35,18.98-51.95,30.03-79.46,42.22
				c-16.19,7.17-32.67,15.67-48.31,25.43l0-4.86c14.78-9.03,30.24-16.95,45.46-23.69c27.52-12.19,56.13-23.24,79.48-42.24
				c23.35-18.98,41.02-48.02,37.61-77.94c-1.71-14.98-8.27-28.07-17.87-39.15C849.26,2245.79,856.96,2259.94,858.83,2276.35z"/>
			<path class="st2" d="M837.88,2233.81c-17.41-18.14-43.05-30.51-67.97-36.55c-25.04-6.1-50.69-8.19-76.46-9.53l0-2.98
				c24.83,1.34,49.5,3.51,73.62,9.37C793.41,2200.52,820.53,2213.94,837.88,2233.81z"/>
			<path class="st2" d="M705.48,815.22c0.39,52.1-2.71,101.31-12.03,148.38l0-7.87c0.72-4.25,1.41-8.52,2.05-12.79
				c6.21-41.3,3.81-87.07,9.1-127.84L705.48,815.22z"/>
			<path class="st2" d="M693.45,955.72l0,7.87c-2.03,10.36-4.38,20.6-7.06,30.76c-2.68,10.2-5.71,20.29-9.09,30.31
				c3.09-10.07,5.83-20.23,8.29-30.47C688.64,981.49,691.24,968.67,693.45,955.72z"/>
			<path class="st2" d="M693.45,1318.28l0,3.37c-19.42,1.75-38.9,2.97-58.39,3.64c-28.96,0.99-62.71-1.68-80.62-23.21
				c18.51,18.67,50.31,21.03,77.78,20.08C652.67,1321.46,673.09,1320.16,693.45,1318.28z"/>
			<path class="st2" d="M693.46,1519.2l0,3.64c-24.38,4.43-48.95,8-73.36,11.4c-56.17,7.79-122.11,21.99-144.24,74.2
				c-14.61,34.52-2.19,72.5,22.94,101.16c-27.03-28.97-40.94-68.48-25.78-104.27c22.13-52.23,88.07-66.4,144.24-74.22
				C642.59,1527.58,668.14,1523.87,693.46,1519.2z"/>
			<path class="st2" d="M693.45,1848.04l0,3.92c-24.34,6.65-49.75,8.89-73.36,0.93c-19.52-6.59-36.25-19.72-50-35.11
				c13.22,14.03,28.99,25.84,47.16,31.98C641.78,1858.03,668.27,1855.3,693.45,1848.04z"/>
			<path class="st2" d="M693.45,2005.93l0,3.52c-12.26,1.96-24.3,4.77-36.02,9.04c-41.19,14.97-75.44,48.09-91.8,88.77
				c-7.55,18.76-10.27,42.67,1.98,57.88c-15.45-14.88-12.9-40.88-4.82-60.99c16.35-40.69,50.61-73.79,91.8-88.77
				C667.21,2010.8,680.21,2007.89,693.45,2005.93z"/>
			<path class="st2" d="M693.45,2184.75l0,2.98c-30.09-1.56-60.38-2.04-90.13-6.55c-11.44-1.74-23.38-4.36-32-12.09
				c-1.37-1.23-2.62-2.54-3.72-3.95c0.29,0.29,0.59,0.57,0.88,0.84c8.62,7.73,20.56,10.35,32,12.09
				C631.16,2182.72,662.41,2183.08,693.45,2184.75z"/>
			<path class="st2" d="M693.45,2417.08l0,4.86c-49.66,31.03-91.08,75.02-89.53,131.21c1.09,38.98,20.92,82.05,45.6,116.6
				c-25.6-35.47-47.35-80.63-48.44-119.71C599.47,2492.77,642.53,2448.19,693.45,2417.08z"/>
			<path class="st2" d="M667.95,2692.97c-2.08-2.35-4.13-4.78-6.21-7.28C663.79,2688.19,665.87,2690.62,667.95,2692.97z"/>
			<path class="st2" d="M647.93,1664.66c12.4,12.72,19.28,30.22,14.94,47.55c-10.29,41.08-66.53,50.67-106.52,36.73
				c-8.13-2.84-16.04-6.57-23.56-11.05c-0.04-0.51-0.08-1.02-0.1-1.55c6.7,3.8,13.69,6.99,20.82,9.47
				c39.99,13.97,96.23,4.35,106.52-36.73C664.03,1693.12,658.52,1677.01,647.93,1664.66z"/>
			<path class="st2" d="M677.18,1025.04c-16.88,55.02-43.63,107.43-85.94,156.68c-28.5,33.2-63.9,77.73-40.77,114.89
				c1.21,1.94,2.53,3.76,3.98,5.46c-2.55-2.53-4.84-5.38-6.84-8.59c-23.12-37.13,12.29-81.67,40.78-114.87
				C631.09,1128.91,659.2,1078.15,677.18,1025.04z"/>
			<path class="st2" d="M649.52,2669.75c1.96,2.74,3.96,5.42,5.95,8.05C653.45,2675.17,651.45,2672.49,649.52,2669.75z"/>
			<path class="st2" d="M647.89,1664.62c-12.2-12.47-29.75-20.31-47.25-18.82c-35.32,3.01-63.21,36.2-67.51,71.39
				c-0.78,6.4-0.92,12.81-0.44,19.15c-0.92-0.51-1.84-1.06-2.74-1.59c-0.57-6.85-0.49-13.76,0.35-20.68
				c4.3-35.19,32.19-68.38,67.51-71.39C616.71,1641.07,635.66,1650.35,647.89,1664.62z"/>
			<path class="st2" d="M567.37,1814.66c0.8,0.94,1.61,1.88,2.45,2.8c-1.82-1.92-3.58-3.9-5.29-5.91
				c-18.18-21.3-31.68-47.8-34.43-75.33c0.88,0.57,1.78,1.12,2.68,1.66C535.22,1765.94,548.88,1792.99,567.37,1814.66z"/>
			<path class="st2" d="M532.69,1736.34c0.02,0.53,0.06,1.04,0.1,1.55c-0.9-0.55-1.8-1.1-2.68-1.66c-0.06-0.49-0.1-0.98-0.16-1.47
				C530.84,1735.28,531.77,1735.83,532.69,1736.34z"/>
			<path class="st2" d="M529.94,1734.75c0.06,0.49,0.1,0.98,0.16,1.47c-11.52-7.22-22.07-16.18-31.02-26.34
				C508.09,1719.53,518.59,1727.98,529.94,1734.75z"/>
		</g>
		<g>
			<path class="st3" d="M661.74,2685.69c2.06,2.51,4.13,4.93,6.21,7.28"/>
			<path class="st3" d="M838.12,2234.06c11.14,11.72,18.84,25.88,20.71,42.29c3.42,29.9-14.25,58.94-37.61,77.94
				c-23.35,18.98-51.95,30.03-79.46,42.22c-16.19,7.17-32.67,15.67-48.31,25.43c-49.66,31.03-91.08,75.02-89.53,131.21
				c1.09,38.98,20.92,82.05,45.6,116.6c1.96,2.74,3.96,5.42,5.95,8.05"/>
			<path class="st3" d="M570.09,1817.77c13.75,15.38,30.48,28.52,50,35.11c23.62,7.96,49.03,5.72,73.36-0.93
				c8.26-2.23,16.41-5,24.3-8.04c57.79-22.24,111.25-59.5,172.87-65.53c12.02-1.18,24.75-0.99,35.38,4.71
				c3.33,1.78,6.27,3.97,8.83,6.5c13.96,13.76,17.18,37.39,14.92,57.75c-7.3,66.42-56.82,126.25-120.7,145.85
				c-43.52,13.37-90.87,9.13-135.6,16.26c-12.26,1.96-24.3,4.77-36.02,9.04c-41.19,14.97-75.44,48.09-91.8,88.77
				c-7.55,18.76-10.27,42.67,1.98,57.88c1.1,1.41,2.35,2.72,3.72,3.95c8.62,7.73,20.56,10.35,32,12.09
				c29.74,4.51,60.03,4.99,90.13,6.55c25.77,1.34,51.42,3.43,76.46,9.53c24.93,6.04,50.56,18.41,67.97,36.55"/>
			<path class="st3" d="M647.89,1664.62c-12.2-12.47-29.75-20.31-47.25-18.82c-35.32,3.01-63.21,36.2-67.51,71.39
				c-0.78,6.4-0.92,12.81-0.44,19.15c0.02,0.53,0.06,1.04,0.1,1.55c2.44,28.06,16.09,55.11,34.58,76.78c0.8,0.94,1.61,1.88,2.45,2.8
				"/>
			<path class="st3" d="M499.08,1709.88c8.95,10.16,19.51,19.12,31.02,26.34c0.88,0.57,1.78,1.12,2.68,1.66
				c7.52,4.48,15.43,8.22,23.56,11.05c39.99,13.95,96.23,4.35,106.52-36.73c4.34-17.33-2.54-34.83-14.94-47.55"/>
			<path class="st3" d="M677.18,1025.04c-16.88,55.02-43.63,107.43-85.94,156.68c-28.5,33.2-63.9,77.73-40.77,114.89
				c1.21,1.94,2.53,3.76,3.98,5.46c17.9,21.53,51.66,24.2,80.62,23.21c19.48-0.67,38.96-1.89,58.39-3.64
				c34.69-3.14,69.23-7.99,103.43-14.52c40.31-7.71,88.4-15.56,117.07,13.65c0.14,0.16,0.29,0.31,0.45,0.47
				c21,21.82,21.83,57.65,8.41,84.8c-13.42,27.12-38.38,46.77-64.61,61.89c-50.49,29.13-107.07,44.42-164.74,54.92
				c-24.38,4.43-48.95,8-73.36,11.4c-56.17,7.79-122.11,21.99-144.24,74.2c-14.61,34.52-2.19,72.5,22.94,101.16"/>
			<path class="st3" d="M705.79,806.84c-0.43,2.72-0.84,5.48-1.19,8.26c-5.29,40.77-2.89,86.54-9.1,127.84
				c-0.64,4.27-1.33,8.54-2.05,12.79c-2.21,12.94-4.81,25.77-7.86,38.48c-2.46,10.24-5.2,20.4-8.29,30.47"/>
			<path class="st3" d="M705.48,815.22c0.39,52.1-2.71,101.31-12.03,148.38c-2.03,10.36-4.38,20.6-7.06,30.76
				c-2.68,10.2-5.71,20.29-9.09,30.31c-0.04,0.12-0.08,0.25-0.12,0.37c-17.98,53.11-46.09,103.87-88.78,153.57
				c-28.5,33.2-63.9,77.73-40.78,114.87c2,3.21,4.29,6.07,6.84,8.59c18.51,18.67,50.31,21.03,77.78,20.08
				c20.44-0.69,40.86-1.99,61.22-3.88c33.73-3.14,67.31-7.91,100.59-14.27c40.53-7.77,88.93-15.63,117.52,14.12
				c0.82,0.86,1.63,1.74,2.39,2.64c18.63,21.98,18.91,56.09,6.02,82.13c-13.42,27.14-38.38,46.77-64.61,61.89
				c-49.66,28.66-105.21,43.93-161.9,54.41c-25.31,4.67-50.86,8.38-76.2,11.91c-56.17,7.81-122.11,21.99-144.24,74.22
				c-15.16,35.8-1.25,75.3,25.78,104.27c0.08,0.1,0.18,0.18,0.27,0.27c9.01,9.65,19.51,18.1,30.87,24.88
				c0.9,0.53,1.82,1.08,2.74,1.59c6.7,3.8,13.69,6.99,20.82,9.47c39.99,13.97,96.23,4.35,106.52-36.73
				c4.01-15.96-1.5-32.07-12.1-44.42c-0.02-0.02-0.02-0.04-0.04-0.04c-12.22-14.27-31.18-23.54-50.09-21.93
				c-35.32,3.01-63.21,36.2-67.51,71.39c-0.84,6.91-0.92,13.82-0.35,20.68c0.06,0.49,0.1,0.98,0.16,1.47
				c2.75,27.53,16.25,54.03,34.43,75.33c1.7,2.02,3.47,3.99,5.29,5.91c0.1,0.12,0.2,0.22,0.27,0.31
				c13.22,14.03,28.99,25.84,47.16,31.98c24.54,8.27,51.03,5.54,76.2-1.71c7.28-2.08,14.47-4.55,21.46-7.23
				c57.79-22.24,111.25-59.52,172.87-65.55c12.02-1.18,24.73-0.99,35.38,4.71c4.62,2.49,8.5,5.75,11.67,9.63
				c11.54,14.02,14.17,35.73,12.08,54.64c-7.32,66.4-56.84,126.23-120.7,145.85c-42.62,13.07-88.89,9.29-132.76,15.85
				c-13.24,1.96-26.23,4.86-38.86,9.45c-41.19,14.97-75.44,48.07-91.8,88.77c-8.08,20.11-10.64,46.11,4.82,60.99
				c0.29,0.29,0.59,0.57,0.88,0.84c8.62,7.73,20.56,10.35,32,12.09c30.68,4.65,61.93,5.01,92.97,6.68
				c24.83,1.34,49.5,3.51,73.62,9.37c26.34,6.39,53.46,19.82,70.81,39.68c0.06,0.08,0.14,0.16,0.24,0.25
				c9.6,11.08,16.16,24.18,17.87,39.15c3.42,29.92-14.25,58.96-37.61,77.94c-23.35,19-51.95,30.05-79.48,42.24
				c-15.21,6.74-30.68,14.66-45.46,23.69c-50.92,31.11-93.98,75.69-92.37,132.96c1.09,39.08,22.84,84.24,48.44,119.71
				c1.94,2.74,3.94,5.42,5.95,8.05c2.08,2.7,4.17,5.32,6.27,7.89c2.08,2.51,4.13,4.93,6.21,7.28c1.04,1.19,2.1,2.37,3.15,3.52
				c0.04,0.04,0.08,0.1,0.12,0.14"/>
		</g>
	</g>
	<g id="XMLID_00000149360703667806245350000010000354064019990191_" class="st1">
		<g>
			<path class="st2" d="M1109.87,67.13c-64.54,27.39-128.7,56.61-182.26,90.66c-24.07,15.28-47.17,35.52-36.75,55.36
				c0.44,0.84,0.94,1.67,1.49,2.48c-3.12-2.82-5.66-5.85-7.41-9.17c-10.43-19.84,12.69-40.06,36.78-55.34
				c60.41-38.34,115.86-60.37,188.49-91.27L1109.87,67.13z"/>
			<path class="st2" d="M899.29,364.94c56.31-21.69,89.51-67.66,64.23-102.03c35.46,34.83,1.72,85.66-58.31,108.81
				c-61.92,23.91-124.33,26.89-136.18,83.43C777.82,386.14,833.18,387.31,899.29,364.94z"/>
			<path class="st2" d="M963.52,262.91c-2.69-2.66-5.78-5.21-9.29-7.65c-19.82-13.81-50.81-23.14-61.88-39.62
				c13.85,12.55,39.03,21.08,56.01,32.9C954.77,253,959.79,257.83,963.52,262.91z"/>
			<path class="st2" d="M769.03,455.15c-0.83,6.46-1.24,13.55-1.22,21.33l-0.79-0.25C767.01,468.46,767.7,461.47,769.03,455.15z"/>
		</g>
		<g>
			<path class="st4" d="M769.03,455.15c8.79-69.01,64.15-67.84,130.26-90.21c56.31-21.69,89.51-67.66,64.23-102.03
				c-3.73-5.08-8.75-9.91-15.16-14.37c-16.98-11.82-42.16-20.35-56.01-32.9"/>
			<path class="st4" d="M769.03,455.15c-1.33,6.32-2.02,13.31-2.01,21.08l0.79,0.25C767.79,468.7,768.2,461.61,769.03,455.15z"/>
			<path class="st4" d="M892.35,215.64c11.07,16.48,42.06,25.81,61.88,39.62c3.51,2.44,6.6,4.99,9.29,7.65
				c35.46,34.83,1.72,85.66-58.31,108.81c-61.92,23.91-124.33,26.89-136.18,83.43"/>
			<line class="st4" x1="892.35" y1="215.64" x2="892.35" y2="215.63"/>
			<path class="st4" d="M892.35,215.63c-3.12-2.82-5.66-5.85-7.41-9.17c-10.43-19.84,12.69-40.06,36.78-55.34
				c60.41-38.34,115.86-60.37,188.49-91.27l-0.34,7.28c-64.54,27.39-128.7,56.61-182.26,90.66c-24.07,15.28-47.17,35.52-36.75,55.36
				C891.3,213.99,891.8,214.82,892.35,215.63z"/>
		</g>
	</g>
	<g id="XMLID_00000173883981026257630640000003734549366867210680_" class="st1">
		<g>
			<path class="st2" d="M704.7,863.55l0.2,0.01c-0.66,27.97-8.28,56.71-24.57,79.07c-0.3-1.02-0.6-2.03-0.92-3.04
				C695.48,918.18,703.39,890.67,704.7,863.55z"/>
			<path class="st2" d="M680.33,942.63c3.78,13.11,5.66,26.89,5.55,40.48c-0.28-13.26-2.46-26.63-6.43-39.29
				C679.75,943.43,680.04,943.03,680.33,942.63z"/>
			<path class="st2" d="M679.41,939.59c0.32,1.01,0.62,2.02,0.92,3.04c-0.29,0.4-0.58,0.8-0.88,1.19c-0.31-1.01-0.63-2.01-0.97-3
				C678.8,940.41,679.11,940,679.41,939.59z"/>
			<path class="st2" d="M679.41,939.59c-0.3,0.41-0.61,0.82-0.93,1.23c-2.47-7.29-5.54-14.32-9.2-20.93
				c-20.49-37.07-68.82-67.42-103.88-43.67c-13.57,9.2-20.2,24.81-20.6,41.02c-0.74-17.69,5.81-35.24,20.56-45.24
				c35.06-23.75,83.39,6.6,103.88,43.67C673.39,923.18,676.79,931.23,679.41,939.59z"/>
			<path class="st2" d="M678.48,940.82c0.34,0.99,0.66,1.99,0.97,3c-4.13,5.51-8.8,10.61-14.04,15.2
				c-26.66,23.36-69.59,29.5-97.92,8.19c-15.21-11.44-23.15-31.1-22.69-49.93c0.73,17.5,8.58,35.12,22.66,45.71
				c28.32,21.31,71.25,15.17,97.91-8.19C670.22,950.55,674.58,945.86,678.48,940.82z"/>
		</g>
		<g>
			<path class="st4" d="M567.46,962.99c28.32,21.31,71.25,15.17,97.91-8.19c4.85-4.25,9.21-8.94,13.11-13.98
				c0.32-0.41,0.63-0.82,0.93-1.23c16.07-21.41,23.98-48.92,25.29-76.04c0.08-1.41,0.13-2.81,0.16-4.21"/>
			<path class="st4" d="M544.8,917.28c0.73,17.5,8.58,35.12,22.66,45.71"/>
			<path class="st4" d="M685.36,993.99c0.32-3.6,0.5-7.23,0.52-10.88c0.11-13.59-1.77-27.37-5.55-40.48
				c-0.3-1.02-0.6-2.03-0.92-3.04c-2.62-8.36-6.02-16.41-10.17-23.92c-20.49-37.07-68.82-67.42-103.88-43.67
				c-14.75,10-21.3,27.55-20.56,45.24"/>
			<path class="st4" d="M567.49,967.21c28.33,21.31,71.26,15.17,97.92-8.19c5.24-4.59,9.91-9.69,14.04-15.2
				c0.3-0.39,0.59-0.79,0.88-1.19c16.29-22.36,23.91-51.1,24.57-79.07"/>
			<path class="st4" d="M685.69,994.21c0.03-0.46,0.05-0.92,0.07-1.39c0.16-3.22,0.2-6.46,0.12-9.71
				c-0.28-13.26-2.46-26.63-6.43-39.29c-0.31-1.01-0.63-2.01-0.97-3c-2.47-7.29-5.54-14.32-9.2-20.93
				c-20.49-37.07-68.82-67.42-103.88-43.67c-13.57,9.2-20.2,24.81-20.6,41.02c0,0.01,0,0.03,0,0.04
				c-0.46,18.83,7.48,38.49,22.69,49.93"/>
		</g>
	</g>
	<g class="st1">
		<g>
			<path class="st2" d="M-481.95,960.79c3.22,0,3.22-5,0-5C-485.17,955.79-485.17,960.79-481.95,960.79L-481.95,960.79z"/>
		</g>
	</g>
</g>
<g id="Layer_3">
	<g id="XMLID_00000064332914111526217010000011267977066549121428_">
		<g>
			<path class="st2" d="M902.49,1758.59c11.62,8.63,15.12,29.26,11.56,46.01c-3.64,17.16-12.79,30.6-24.27,40.62
				c9.89-9.63,17.62-22.06,20.9-37.5c3.55-16.75,0.06-37.38-11.56-46.01c-5.61-4.17-12.29-5.06-18.76-5.26
				c-21.96-0.71-44.03,5.44-63.83,17.77c-4.61,2.87-9.22,6.1-13.84,9.38l-0.18-0.59c5.82-4.13,11.61-8.3,17.4-11.9
				c19.8-12.33,41.88-18.48,63.84-17.77C890.2,1753.54,896.89,1754.42,902.49,1758.59z"/>
			<path class="st2" d="M853.02,1466.26c21.14,7.77,38.53,40.85,26.77,64.94c-2.42,4.97-5.65,8.81-9.37,11.81
				c2.31-2.43,4.34-5.3,6-8.7c11.75-24.09-5.63-57.18-26.77-64.95c-21.14-7.76-43.49,0.65-65.18,5.23
				c-21.69,4.57-46.88,3.75-61.79-17.19c-17.36-24.37-12.16-63.94-0.05-93.18c12.11-29.23,30.04-54.98,36.66-87.04
				c4.7-22.74,2.74-47.41-4.62-68.9c0.34-0.33,0.68-0.66,1.02-1c0.8-0.67,1.59-1.36,2.36-2.08c7.35,21.49,9.31,46.14,4.61,68.88
				c-6.62,32.05-24.55,57.8-36.66,87.04c-12.11,29.23-17.31,68.81,0.05,93.18c14.92,20.94,40.11,21.77,61.79,17.18
				C809.53,1466.91,831.87,1458.5,853.02,1466.26z"/>
			<path class="st2" d="M865.81,2060.77c4.27,20.98-6.87,42.59-20.73,54.71c-0.18,0.16-0.35,0.31-0.53,0.46
				c12.5-12.46,21.87-32.53,17.88-52.05c-5.72-28.08-32.76-39.17-55.14-39.2c-24.27-0.04-30.83,5.63-54.8,9.73
				c-4.87,0.83-24.35,2.23-27.47-23.51c-0.29-2.43-1.09-8.69-0.93-11.14c2.59-39.63,20-76.93,45.26-99.25
				c-23.43,22.58-39.41,58.29-41.88,96.14c-0.16,2.46,0.63,8.71,0.93,11.14c3.12,25.73,22.6,24.34,27.47,23.51
				c23.97-4.1,30.52-9.77,54.8-9.73C833.04,2021.6,860.08,2032.69,865.81,2060.77z"/>
			<path class="st2" d="M839.33,1554.72c10.62-2.08,22.27-4.58,31.09-11.7c-9.07,9.56-22.43,12.46-34.46,14.82
				c-32.4,6.36-64.4,16.11-95.59,29.14c-15.83,6.6-31.92,14.47-45.54,26.49c14.29-13.79,31.76-22.44,48.91-29.6
				C774.93,1570.84,806.93,1561.09,839.33,1554.72z"/>
			<path class="st2" d="M859.77,1862.75c10.42-3.83,20.94-9.61,30.01-17.53c-9.77,9.53-21.64,16.33-33.38,20.64
				c-23.62,8.66-48.79,10.54-71.28,23.31c-5.53,3.14-10.8,6.95-15.77,11.35c5.93-5.72,12.35-10.6,19.14-14.46
				C810.98,1873.29,836.15,1871.41,859.77,1862.75z"/>
			<path class="st2" d="M844.54,2115.93c-0.93,0.93-1.88,1.81-2.84,2.66c-13.87,12.11-30.42,17.88-45.15,28.13
				c-3.21,2.23-6.32,4.69-9.32,7.34c4.03-3.87,8.27-7.37,12.7-10.45C814.47,2133.48,830.79,2127.73,844.54,2115.93z"/>
			<path class="st2" d="M802.5,1783l0.18,0.59c-18.89,13.41-38.04,27.7-58.47,22.14c-22.19-6.04-35.62-35.05-37.22-64.98
				c1.21,0.26,2.43,0.49,3.64,0.69c2.48,28.55,15.7,55.39,36.95,61.17C766.74,1807.83,784.76,1795.59,802.5,1783z"/>
			<path class="st2" d="M785.09,1124.45c0.16,29.73-8.02,62.9-27.05,80.76c-0.04-0.11-0.07-0.21-0.11-0.32
				c16.33-18.45,25.74-51.93,26.93-80.46L785.09,1124.45z"/>
			<path class="st2" d="M787.22,2154.06c-19.59,18.82-34.18,46.41-40.31,77.06c-4.84,24.21-4.36,50.08,1.01,74.09
				c-7.01-22.5-9.4-45.91-4.38-70.97C750.01,2201.85,765.94,2172.88,787.22,2154.06z"/>
			<path class="st2" d="M766.27,1677.04c9.48,14.46,4.65,38.5-6.89,50.16c-0.99,1-2.01,1.93-3.06,2.79
				c11.32-11.79,15.97-35.52,6.58-49.84c-7.86-11.98-22.77-13.02-33.29-5.2c-0.36,0.27-0.72,0.55-1.07,0.83
				c1.39-1.46,2.88-2.77,4.45-3.94C743.51,1664.02,758.41,1665.06,766.27,1677.04z"/>
			<path class="st2" d="M757.93,1204.89c0.04,0.11,0.07,0.21,0.11,0.32c-0.77,0.72-1.55,1.41-2.36,2.08
				C756.45,1206.52,757.2,1205.72,757.93,1204.89z"/>
			<path class="st2" d="M756.32,1729.99c-0.1,0.11-0.21,0.22-0.31,0.33c-11.54,11.67-27.31,13.45-41.87,11.64
				c-1.16-0.15-2.33-0.32-3.49-0.51c-0.11-1.26-0.2-2.54-0.27-3.81c2.38,0.51,4.77,0.91,7.14,1.2
				C730.82,1740.5,745.14,1739.15,756.32,1729.99z"/>
			<path class="st2" d="M757.93,1204.89c-0.73,0.83-1.48,1.63-2.25,2.4c-0.2,0.17-0.4,0.33-0.6,0.49c-0.16,0.13-0.31,0.25-0.47,0.37
				c-4.94-14.37-12.3-27.32-21.69-37.3c-4.36-4.65-9.38-8.8-14.99-9.42c-2.98-0.33-5.68,0.47-8.05,2.09
				c3.04-3.61,6.91-5.7,11.43-5.2c5.62,0.62,10.63,4.78,14.99,9.42C745.65,1177.69,752.99,1190.58,757.93,1204.89z"/>
			<path class="st2" d="M755.08,1207.78c0.2-0.16,0.4-0.33,0.6-0.49c-0.34,0.34-0.68,0.68-1.02,1c-0.02-0.05-0.03-0.09-0.05-0.14
				C754.77,1208.04,754.93,1207.91,755.08,1207.78z"/>
			<path class="st2" d="M754.61,1208.15c0.02,0.05,0.03,0.09,0.05,0.14c-0.96,0.92-1.95,1.79-2.95,2.6
				c-14.33,11.59-35.02,14.01-46.83-1.66c-9.72-12.9-6-38.18,4.99-45.7c-8.28,9.86-10.26,31.13-1.62,42.59
				C719.93,1221.61,740.3,1219.42,754.61,1208.15z"/>
			<path class="st2" d="M728.54,1675.78c-7.96,8.27-13.13,20.83-15.98,33.7c-1.99,9-2.69,18.63-2.19,28.16
				c-1.17-0.25-2.35-0.54-3.51-0.86c-0.15-8.22,0.61-16.43,2.32-24.19C712.41,1697.99,718.64,1683.78,728.54,1675.78z"/>
			<path class="st2" d="M710.37,1737.64c0.07,1.27,0.16,2.54,0.27,3.81c-1.21-0.2-2.43-0.43-3.64-0.69
				c-0.07-1.32-0.12-2.65-0.14-3.97C708.02,1737.09,709.19,1737.38,710.37,1737.64z"/>
			<path class="st2" d="M706.85,1736.78c0.02,1.32,0.07,2.65,0.14,3.97c-12.63-2.74-25.01-8.83-33.43-21.1
				c-16.18-23.56-11.5-62.5,4.21-86.57c4.97-7.61,10.74-14.06,17.04-19.61c-4.99,4.82-9.6,10.26-13.67,16.49
				c-15.72,24.07-20.39,63.02-4.21,86.58C684.57,1727.66,695.47,1733.71,706.85,1736.78z"/>
		</g>
		<g>
			<path class="st5" d="M870.41,1543.02c-9.07,9.56-22.43,12.46-34.46,14.82c-32.4,6.36-64.4,16.11-95.59,29.14
				c-15.83,6.6-31.92,14.47-45.54,26.49c-6.3,5.55-12.08,12-17.04,19.61c-15.72,24.07-20.39,63.01-4.21,86.57
				c8.42,12.27,20.8,18.36,33.43,21.1c1.21,0.26,2.43,0.49,3.64,0.69c1.16,0.2,2.33,0.36,3.49,0.51
				c14.57,1.82,30.34,0.03,41.87-11.64c0.11-0.11,0.21-0.21,0.31-0.33c11.32-11.79,15.97-35.52,6.58-49.84
				c-7.86-11.98-22.77-13.02-33.29-5.2c-0.36,0.27-0.72,0.55-1.07,0.83c-9.9,8-16.12,22.21-19.36,36.81
				c-1.72,7.76-2.48,15.97-2.32,24.19c0.02,1.32,0.07,2.65,0.14,3.97c1.59,29.93,15.03,58.94,37.22,64.98
				c20.43,5.56,39.58-8.73,58.47-22.14c4.62-3.28,9.24-6.51,13.84-9.38c19.81-12.33,41.88-18.47,63.83-17.77
				c6.47,0.21,13.15,1.09,18.76,5.26c11.62,8.63,15.11,29.26,11.56,46.01c-3.28,15.44-11.01,27.87-20.9,37.5
				c-9.77,9.53-21.64,16.33-33.38,20.64c-23.62,8.66-48.79,10.54-71.28,23.31c-5.53,3.14-10.8,6.95-15.77,11.35
				c-25.26,22.32-42.67,59.62-45.26,99.25c-0.16,2.45,0.64,8.71,0.93,11.14c3.11,25.74,22.6,24.34,27.47,23.51
				c23.97-4.1,30.52-9.77,54.8-9.73c22.38,0.03,49.42,11.13,55.14,39.2c3.98,19.51-5.39,39.59-17.88,52.05
				c-0.93,0.93-1.88,1.81-2.84,2.66c-13.87,12.11-30.42,17.88-45.15,28.13c-3.21,2.23-6.32,4.69-9.32,7.34
				c-21.28,18.82-37.21,47.79-43.69,80.17c-5.02,25.07-2.63,48.48,4.38,70.97c3.32,10.66,7.69,21.12,12.79,31.45"/>
			<path class="st5" d="M709.88,1163.52c2.37-1.62,5.07-2.41,8.05-2.09c5.62,0.62,10.63,4.77,14.99,9.42
				c9.39,9.98,16.75,22.92,21.69,37.3c0.02,0.05,0.03,0.09,0.05,0.14c7.36,21.49,9.32,46.16,4.62,68.9
				c-6.62,32.06-24.55,57.81-36.66,87.04c-12.11,29.24-17.31,68.81,0.05,93.18c14.92,20.94,40.11,21.76,61.79,17.19
				c21.68-4.58,44.03-12.99,65.18-5.23c21.14,7.77,38.53,40.86,26.77,64.95c-1.66,3.4-3.69,6.26-6,8.7"/>
			<path class="st5" d="M784.99,1120.06c-0.02,1.44-0.06,2.9-0.12,4.37c-1.19,28.53-10.6,62.02-26.93,80.46
				c-0.73,0.83-1.48,1.63-2.25,2.4c-0.34,0.34-0.68,0.68-1.02,1c-0.96,0.92-1.95,1.79-2.95,2.6c-14.33,11.59-35.02,14.01-46.83-1.66
				c-9.72-12.9-6-38.18,4.99-45.7"/>
			<path class="st5" d="M785.09,1124.45c0.16,29.73-8.02,62.9-27.05,80.76c-0.77,0.72-1.55,1.41-2.36,2.08
				c-0.2,0.17-0.4,0.33-0.6,0.49c-0.16,0.13-0.31,0.25-0.47,0.37c-14.32,11.27-34.68,13.46-46.36-2.04
				c-8.64-11.46-6.66-32.73,1.62-42.59c0,0,0,0,0-0.01c3.04-3.61,6.91-5.7,11.43-5.2c5.62,0.62,10.63,4.78,14.99,9.42
				c9.36,9.95,16.7,22.84,21.64,37.15c0.04,0.11,0.07,0.21,0.11,0.32c7.35,21.49,9.31,46.14,4.61,68.88
				c-6.62,32.05-24.55,57.8-36.66,87.04c-12.11,29.23-17.31,68.81,0.05,93.18c14.92,20.94,40.11,21.77,61.79,17.18
				c21.69-4.58,44.03-12.99,65.18-5.22c21.14,7.77,38.53,40.85,26.77,64.94c-2.42,4.97-5.65,8.81-9.37,11.81
				c0,0.01,0,0.01-0.01,0.01c-8.82,7.12-20.47,9.62-31.09,11.7c-32.4,6.37-64.4,16.11-95.6,29.14
				c-17.15,7.16-34.62,15.81-48.91,29.6c-4.99,4.82-9.6,10.26-13.67,16.49c-15.72,24.07-20.39,63.02-4.21,86.58
				c7.63,11.12,18.53,17.17,29.91,20.24c1.17,0.32,2.34,0.61,3.51,0.86c2.38,0.51,4.77,0.91,7.14,1.2
				c13.31,1.66,27.63,0.31,38.81-8.85c1.05-0.86,2.07-1.79,3.06-2.79c11.54-11.67,16.38-35.7,6.89-50.16
				c-7.86-11.98-22.76-13.02-33.29-5.2c-1.57,1.17-3.05,2.49-4.45,3.94c-7.96,8.27-13.13,20.83-15.98,33.7
				c-1.99,9-2.69,18.63-2.19,28.16c0.07,1.27,0.16,2.54,0.27,3.81c2.48,28.55,15.7,55.39,36.95,61.17
				c19.15,5.21,37.18-7.02,54.92-19.61c5.82-4.13,11.61-8.3,17.4-11.9c19.8-12.33,41.88-18.48,63.84-17.77
				c6.46,0.21,13.15,1.09,18.75,5.26c11.62,8.63,15.12,29.26,11.56,46.01c-3.64,17.16-12.79,30.6-24.27,40.62
				c-9.06,7.91-19.59,13.7-30.01,17.53c-23.62,8.66-48.79,10.54-71.28,23.3c-6.79,3.86-13.21,8.74-19.14,14.46
				c-23.43,22.58-39.41,58.29-41.88,96.14c-0.16,2.46,0.63,8.71,0.93,11.14c3.12,25.73,22.6,24.34,27.47,23.51
				c23.97-4.1,30.52-9.77,54.8-9.73c22.38,0.03,49.42,11.13,55.14,39.2c4.27,20.98-6.87,42.59-20.73,54.71
				c-0.18,0.16-0.35,0.31-0.53,0.46c-13.76,11.8-30.07,17.55-44.62,27.67c-4.43,3.08-8.67,6.58-12.7,10.45
				c-19.59,18.82-34.18,46.41-40.31,77.06c-4.84,24.21-4.36,50.08,1.01,74.09c2.83,12.64,7.01,24.76,12.49,35.84"/>
		</g>
	</g>
</g>
<g id="Layer_2" class="st0">
	<g class="st1">
		<g>
			<path class="st2" d="M-1879.76,1162.58c3.22,0,3.22-5,0-5C-1882.98,1157.58-1882.98,1162.58-1879.76,1162.58L-1879.76,1162.58z"
				/>
		</g>
	</g>
	<g class="st1">
		<g>
			<path class="st2" d="M1028.74,421.21c-48.75,21.02-96.66,43.93-143.55,68.84c-23.85,12.67-82.72,35.25-68.57,72.69
				c9.98,26.42,50.43,26.11,71.66,37.86c41.31,22.88,14.92,75.72-15.06,95.61c-34.48,22.89-79.24,24.05-112.26,50.1
				c-29.38,23.18-41.08,59.76-51.18,94.32c-11.78,40.29-23.42,83.72-59.61,109.27c-36,25.41-88.54,23.3-106.65-22.02
				c-6.65-16.63-6.27-36.77,6.28-50.58c14.91-16.43,39.86-19.01,60.12-12.59c22.95,7.28,40.13,26.22,52.58,46.05
				c13.31,21.21,26.12,46.76,24.58,72.45c-1.53,25.38-18.8,45.24-35.11,63.17c-15.02,16.51-29.47,33.4-42.66,51.42
				c-27.69,37.84-53.34,80.79-67.92,125.6c-11.03,33.88-3.35,66.87,25.88,88.33c26.47,19.44,62.03,26.41,94.25,22.17
				c48.29-6.36,92.19-30,140.11-38.04c38-6.37,81.67,1.99,108.84,31.25c29.53,31.82,17.73,74.83-13.59,100.08
				c-33.19,26.76-76.89,37.9-116.74,50.52c-51.2,16.21-103.11,30.83-156.48,37.73c-40.05,5.18-83.94,8.03-114.31,38.07
				c-24.52,24.25-36.71,60.64-31.63,94.75c5.32,35.69,30.73,65.14,63.41,79.34c30.92,13.44,70.48,13.48,97.72-8.46
				c12.36-9.96,21.05-24.64,19.85-40.89c-1.03-13.95-8.57-28.22-21.69-34.18c-30.16-13.71-60.32,18.38-70.64,43.29
				c-13.72,33.13-14.84,75.8-6.87,110.48c8.66,37.71,40.75,56.34,77.91,56.79c46.46,0.56,89.02-24.12,129.67-43.5
				c43.26-20.63,95.4-40.38,142.03-18.4c19.45,9.17,36.78,24.93,43.45,45.84c7.08,22.17,0.27,45.39-13.14,63.67
				c-29.78,40.59-81.73,49.29-127.8,58.98c-46.54,9.79-91.71,24.75-134.5,45.57c-37.62,18.3-79.25,39.97-101.54,77.06
				c-17.63,29.33-12.65,65.56,20.46,80.76c15.04,6.9,32.03,8.64,48.36,9.61c24.2,1.44,48.06,2.15,72,6.59
				c23.43,4.34,46.45,10.99,68.57,19.84c22.46,8.99,46.83,19.79,65.14,35.96c39.32,34.72,18.49,87.93-16.32,117.11
				c-35.39,29.66-83.5,38.33-122.32,62.36c-58.36,36.12-88.29,107.3-82.44,174.57c2.83,32.48,13.96,63.66,33.62,89.76
				c1.91,2.54,6.26,0.05,4.32-2.52c-44.43-59.01-43.53-143.85-4.8-205.56c22.15-35.29,54.88-56.1,92.5-72.27
				c37.85-16.27,78.28-30.51,103.45-65.13c20.89-28.73,27.55-67.61,1.86-95.64c-14.68-16.02-35.43-26.29-54.84-35.32
				c-20.61-9.58-42.1-17.26-64.13-22.86c-22.02-5.6-44.59-9.15-67.28-10.55c-19.74-1.23-39.76-0.67-59.17-5.08
				c-20.19-4.59-39.44-16.37-43.98-38.07c-4.78-22.86,9.79-45.19,24.7-61.04c16.45-17.49,36.91-29.84,57.74-41.4
				c21.97-12.19,44.75-22.9,68.17-32c23-8.94,46.58-16.36,70.56-22.17c22.93-5.56,46.29-9.29,69.07-15.46
				c37.95-10.29,76.07-29.92,92.87-67.61c14.52-32.59,3.55-67.44-24.43-88.62c-79.65-60.3-172.2,22.05-249.1,44.07
				c-43.29,12.4-101.21,8.61-114.97-43.08c-9.71-36.47-8.28-86.09,10.02-119.77c9.46-17.41,27.55-34.26,48.65-33.99
				c26.21,0.34,36.15,32.75,25.34,53.04c-21.51,40.36-80.75,38.27-115.39,19.1c-37.36-20.68-58.11-61.3-50.7-103.64
				c7.96-45.48,41.49-75.86,85.5-86.11c23.04-5.37,46.76-6.81,70.1-10.38c26.01-3.98,51.72-9.72,77.14-16.46
				c45.32-12.02,91.88-25.05,135.22-43.11c29.59-12.33,62.55-30.47,76.09-61.28c12.68-28.86,3.32-60.36-20.05-80.5
				c-68.58-59.09-153.64-7.79-227.37,8.58c-38.1,8.46-81.26,5.13-112.71-20.27c-14.88-12.02-24.99-28.91-25.96-48.25
				c-1.29-25.72,11.77-51.22,22.67-73.75c21.46-44.34,49.05-85.68,81.83-122.45c13.68-15.34,28.98-30.09,38.38-48.64
				c9.13-18.02,10.08-37.6,4.7-56.93c-10-35.94-35.17-78.01-70.96-93.01c-28.03-11.75-67.63-5.87-80.08,25.32
				c-10.62,26.62,4.01,58.76,26.73,74.12c29.4,19.87,68.63,8.73,94.3-11.98c64.18-51.76,42.23-156.61,110.96-203.57
				c34.07-23.28,79.54-24.19,112.03-49.9c21.75-17.21,42.01-50.53,29.63-78.71c-12.71-28.94-49.3-28.62-73.9-40.95
				c-20.52-10.29-22.44-31.78-6.03-47.84c17.36-16.99,42.74-27.25,63.98-38.42c44.45-23.37,89.82-44.94,135.94-64.82
				C1034.21,424.26,1031.67,419.95,1028.74,421.21L1028.74,421.21z"/>
		</g>
	</g>
</g>
</svg>
