<?xml version="1.0" encoding="utf-8"?>
<!-- Generator: Adobe Illustrator 28.0.0, SVG Export Plug-In . SVG Version: 6.00 Build 0)  -->
<svg version="1.1" id="Layer_1" xmlns="http://www.w3.org/2000/svg" xmlns:xlink="http://www.w3.org/1999/xlink" x="0px" y="0px"
	 viewBox="0 0 1417.32 3461.1" style="enable-background:new 0 0 1417.32 3461.1;" xml:space="preserve">
<style type="text/css">
	.st0{fill:#AD354C;}
	.st1{fill:none;stroke:#AD354C;stroke-miterlimit:10;}
</style>
<g id="XMLID_00000158005626418567469950000006256669412245589396_">
	<g>
		<path class="st0" d="M1244.57,356.31c-2.04,0.85-4.05,1.71-6.07,2.62c-57.26,25.55-109.62,74.86-159.8,123.06
			c-23.67,22.74-47.89,46.26-65.02,74.91c-32.72,54.71,50.22,156.52,37.76,214.58c-43.86,204.54-325.52,340.01-392.61,545.14
			c-6.41,19.58-11.56,40.6-6.42,56.41c6.89,21.22,29.69,26.45,50.75,29.41c73.27,10.34,151.53,14.45,207.47,56.61
			c55.94,42.16,81.64,136.93,32.81,224.09c-31.48,56.18-85.36,94.02-138.64,111.12c45.58-19.65,89.23-54.41,116.31-102.74
			c48.84-87.18,23.13-181.93-32.81-224.09c-55.94-42.16-134.19-46.29-207.47-56.61c-21.04-2.98-43.85-8.19-50.75-29.41
			c-5.13-15.8,0.01-36.83,6.42-56.41c67.1-205.15,348.76-340.62,392.61-545.14c12.45-58.06-70.47-159.88-37.76-214.58
			c17.14-28.65,41.36-52.19,65.02-74.91c50.18-48.2,102.55-97.5,159.8-123.06C1225.48,363.16,1234.97,359.57,1244.57,356.31z"/>
		<path class="st0" d="M751.44,1804.46c17.12-0.93,35.2-4.36,53.37-10.2c-25.48,10.99-51.56,17.28-75.69,18.59
			c-67.31,3.64-124.16-22.61-182.29-43.12c-55.42-19.55-116.86-33.89-183.25-12.76c4.13-1.79,8.28-3.45,12.47-5
			c70.18-25.91,134.96-11.13,193.1,9.38C627.28,1781.85,684.13,1808.11,751.44,1804.46z"/>
		<path class="st0" d="M353.75,1760.34c3.28-1.21,6.52-2.32,9.79-3.36c-82.32,35.68-154.76,118.81-220.9,197.21
			c-20.52,24.34-42.02,50.37-51.24,79.52c-17.41,54.97,17.3,96.51,60.47,104.75c36.77,7.02,77.5-2.24,119.32-17.13
			c-49.58,19.48-98.34,33.77-141.64,25.51c-43.18-8.24-77.88-49.77-60.47-104.75c9.23-29.17,30.72-55.18,51.25-79.51
			C189.78,1880.23,266.21,1792.66,353.75,1760.34z"/>
		<path class="st0" d="M881.22,2203.97c12.06,4.66,31.72,33.37,36.39,46.58c30.96,87.56,5.94,188.07-60.27,289.26
			c-54.1,82.7-135.08,147.02-214.75,173.46c72.25-30.23,143.39-90.12,192.44-165.09c66.2-101.17,91.22-201.68,60.27-289.23
			c-4.67-13.22-24.34-41.93-36.39-46.59c-13.19-5.11-34.33-7.47-52.02-3.43c4.35-1.94,8.81-3.81,13.41-5.64
			C839.27,2195.75,865.72,2197.99,881.22,2203.97z"/>
		<path class="st0" d="M797.96,2211.68c2.82-1.12,5.81-2.03,8.91-2.75c-71.36,31.73-112.9,78.17-174.71,123.82
			c-15.58,11.52-33.7,23.53-49.15,25.99c9.15-4.94,18.37-11.34,26.84-17.59C675.44,2292.69,718.21,2243.36,797.96,2211.68z"/>
		<path class="st0" d="M382.6,2076.09c78.19-31.01,169.2-45.25,205.07,15.67c23.53,39.94,15.5,103.62-9.14,160.67
			c-16.35,37.85-38.34,89.09-12.86,103.77c5.08,2.93,10.98,3.54,17.34,2.53c-14.58,7.89-28.94,12.03-39.66,5.86
			c-25.48-14.68-3.48-65.91,12.86-103.77c24.64-57.05,32.66-120.73,9.15-160.69c-32.9-55.87-112.21-48.5-185.44-22.97
			C380.82,2076.8,381.71,2076.45,382.6,2076.09z"/>
		<path class="st0" d="M589.61,2725.16c17.38-1.91,35.14-5.94,52.97-11.88c-25.27,10.6-50.66,17.55-75.29,20.27
			c-26.12,2.89-54.21,2.73-80.69,10.05C519.15,2727.54,556,2728.86,589.61,2725.16z"/>
		<path class="st0" d="M790.5,2997.37l-0.09,0.48c-96.84,34.61-198.22,69.67-283.03,51.07c-84.82-18.6-144.9-110.51-106.01-219.4
			c6.65-18.64,16.21-37.48,29.87-52.53c16.58-18.26,35.52-27.91,55.35-33.4c-11.68,5.76-22.81,13.76-33.03,25.02
			c-13.66,15.05-23.23,33.9-29.89,52.53c-38.88,108.88,21.21,200.79,106.02,219.38C608.03,3057.73,700.51,3029.12,790.5,2997.37z"/>
	</g>
	<g>
		<path class="st1" d="M363.58,1756.97c4.13-1.79,8.28-3.45,12.47-5c70.18-25.91,134.96-11.13,193.1,9.38
			c58.13,20.51,114.98,46.76,182.29,43.12c17.12-0.93,35.2-4.36,53.37-10.2c53.28-17.11,107.15-54.94,138.64-111.12
			c48.83-87.16,23.13-181.93-32.81-224.09c-55.94-42.16-134.2-46.27-207.47-56.61c-21.05-2.96-43.85-8.19-50.75-29.41
			c-5.14-15.81,0.01-36.83,6.42-56.41c67.09-205.14,348.75-340.6,392.61-545.14c12.45-58.06-70.48-159.87-37.76-214.58
			c17.13-28.65,41.35-52.17,65.02-74.91c50.18-48.2,102.54-97.5,159.8-123.06c2.02-0.9,4.03-1.77,6.07-2.62
			c32.43-13.56,67.02-21.07,99.89-32.22c3.02-1.03,6.01-2.07,8.99-3.17"/>
		<path class="st1" d="M271.18,2121.33c-41.82,14.89-82.55,24.15-119.32,17.13c-43.18-8.24-77.89-49.78-60.47-104.75
			c9.22-29.15,30.72-55.18,51.24-79.52c66.14-78.39,138.59-161.52,220.9-197.21"/>
		<path class="st1" d="M812.72,2989.48c-7.38,2.63-14.8,5.29-22.22,7.89c-89.98,31.75-182.46,60.36-260.8,43.16
			c-84.81-18.6-144.9-110.51-106.02-219.38c6.66-18.63,16.23-37.48,29.89-52.53c10.22-11.26,21.35-19.26,33.03-25.02
			c32.56-16.06,69.41-14.74,103.02-18.44c17.38-1.91,35.14-5.94,52.97-11.88c79.67-26.44,160.65-90.76,214.75-173.46
			c66.21-101.19,91.23-201.7,60.27-289.26c-4.66-13.22-24.33-41.93-36.39-46.58c-15.5-5.99-41.95-8.22-60.93-0.68
			c-4.6,1.83-9.06,3.7-13.41,5.64c-71.36,31.73-112.9,78.17-174.71,123.82c-15.58,11.52-33.7,23.53-49.15,25.99
			c-6.36,1.01-12.26,0.39-17.34-2.53c-25.48-14.68-3.49-65.92,12.86-103.77c24.64-57.05,32.66-120.73,9.14-160.67
			c-35.87-60.93-126.88-46.68-205.07-15.67c-0.89,0.35-1.78,0.71-2.68,1.08c-35.8,14.32-72.63,31.3-108.65,44.13"/>
		<path class="st1" d="M790.41,2997.85c-96.84,34.61-198.22,69.67-283.03,51.07c-84.82-18.6-144.9-110.51-106.01-219.4
			c6.65-18.64,16.21-37.48,29.87-52.53c16.58-18.26,35.52-27.91,55.35-33.4c26.49-7.32,54.57-7.17,80.69-10.05
			c24.64-2.72,50.03-9.67,75.29-20.27c72.25-30.23,143.39-90.12,192.44-165.09c66.2-101.17,91.22-201.68,60.27-289.23
			c-4.67-13.22-24.34-41.93-36.39-46.59c-13.19-5.11-34.33-7.47-52.02-3.43c-3.1,0.72-6.09,1.63-8.91,2.75
			c-79.76,31.69-122.53,81.01-188.11,129.47c-8.47,6.25-17.69,12.65-26.84,17.59c-14.58,7.89-28.94,12.03-39.66,5.86
			c-25.48-14.68-3.48-65.91,12.86-103.77c24.64-57.05,32.66-120.73,9.15-160.69c-32.9-55.87-112.21-48.5-185.44-22.97
			c-6.61,2.31-13.16,4.75-19.63,7.32c-29.3,11.62-59.3,25.15-89.02,36.81c-0.02,0.01-0.06,0.03-0.09,0.03
			c-49.58,19.48-98.34,33.77-141.64,25.51c-43.18-8.24-77.88-49.77-60.47-104.75c9.23-29.17,30.72-55.18,51.25-79.51
			c69.46-82.36,145.89-169.92,233.43-202.24c3.28-1.21,6.52-2.32,9.79-3.36c0.02-0.01,0.03,0,0.05-0.01
			c66.38-21.13,127.83-6.78,183.25,12.76c58.13,20.51,114.98,46.76,182.29,43.12c24.13-1.31,50.21-7.6,75.69-18.59
			c45.58-19.65,89.23-54.41,116.31-102.74c48.84-87.18,23.13-181.93-32.81-224.09c-55.94-42.16-134.19-46.29-207.47-56.61
			c-21.04-2.98-43.85-8.19-50.75-29.41c-5.13-15.8,0.01-36.83,6.42-56.41c67.1-205.15,348.76-340.62,392.61-545.14
			c12.45-58.06-70.47-159.88-37.76-214.58c17.14-28.65,41.36-52.19,65.02-74.91c50.18-48.2,102.55-97.5,159.8-123.06
			c9.3-4.15,18.79-7.74,28.39-11c33.31-11.36,67.89-18.81,99.89-32.22c3.04-1.26,6.07-2.6,9.06-3.98"/>
	</g>
</g>
</svg>
