<?xml version="1.0" encoding="utf-8"?>
<!-- Generator: Adobe Illustrator 28.0.0, SVG Export Plug-In . SVG Version: 6.00 Build 0)  -->
<svg version="1.1" id="Layer_1" xmlns="http://www.w3.org/2000/svg" xmlns:xlink="http://www.w3.org/1999/xlink" x="0px" y="0px"
	 viewBox="0 0 1417.32 3461.1" style="enable-background:new 0 0 1417.32 3461.1;" xml:space="preserve">
<style type="text/css">
	.st0{fill:#A9203F;}
	.st1{fill:none;stroke:#A9203F;stroke-miterlimit:10;}
</style>
<g id="XMLID_00000023960792664010394750000007352939145099584189_">
	<g>
		<path class="st0" d="M830.11,2479.73c49.38-1.91,106.9,2.29,138.32,38.09c-32.27-30.83-86.35-34.51-133.16-32.68
			c-45.53,1.79-91.01,5.3-136.28,10.54l0-6.02C742.59,2484.78,786.31,2481.48,830.11,2479.73z"/>
		<path class="st0" d="M1102.62,1989.54c25.65-61.32,1.97-128.74-44.09-178.4c49.41,50.11,75.84,120.22,49.26,183.78
			c-37.77,90.35-151.49,115.38-248.4,129.33c-53.41,7.68-107.31,15.9-160.36,26.99l0-6.49c51.4-10.58,103.52-18.48,155.2-25.92
			C951.12,2104.92,1064.85,2079.86,1102.62,1989.54z"/>
		<path class="st0" d="M1008.14,1769.53c18.52,11.5,35.63,25.64,50.38,41.62c-14.85-15.14-31.86-28.4-50.1-39.16
			C1008.32,1771.18,1008.25,1770.34,1008.14,1769.53z"/>
		<path class="st0" d="M785.7,1283.11c71.02-26.19,129.88-83.66,157.78-154.02c13.01-32.79,17.46-74.6-4.54-100.71
			c27.78,25.45,23.66,70.97,9.71,106.13c-27.9,70.36-86.72,127.79-157.75,153.98c-29.62,10.9-60.49,16.47-91.88,19.88l0-5.95
			C728.62,1298.96,757.73,1293.43,785.7,1283.11z"/>
		<path class="st0" d="M332.65,2342.72c22.95-46.94,65.87-81.07,111-107.4c78.6-45.84,165.84-72.22,255.36-90.56l0,6.49
			c-87.73,18.3-173.12,44.54-250.16,89.49c-45.13,26.33-88.09,60.46-111.03,107.4c-22.38,45.79-21.26,105.75,12.57,143.47
			c-0.85-0.84-1.7-1.68-2.55-2.56C311.44,2451.55,309.7,2389.69,332.65,2342.72z"/>
		<path class="st0" d="M962.5,1747.65c14.05,4.83,27.74,11.21,40.76,18.89c0.04,0.84,0.11,1.72,0.18,2.57
			c-11.53-6.4-23.52-11.81-35.78-16.04c-69.15-23.78-166.18-6.71-183.6,64.3c-6.92,28.13,3.27,56.44,22.38,77.87
			c-22.39-21.92-35.06-52.69-27.58-83.29C796.28,1740.94,893.35,1723.91,962.5,1747.65z"/>
		<path class="st0" d="M590.04,975.42c35.78,8.5,72.24,12.34,108.96,14.55l0.03,5.1c-35-2.29-69.7-6.13-103.82-14.24
			c-44.54-10.59-90.46-32.8-120.62-65.77C504.69,945.07,547.97,965.43,590.04,975.42z"/>
		<path class="st0" d="M806.44,1895.24c21.1,20.71,50.85,33.51,80.45,30.85c60.95-5.49,108.83-63.03,115.95-123.82
			c1.29-11.09,1.47-22.18,0.61-33.17c1.66,0.94,3.32,1.88,4.98,2.88c1.04,11.83,0.97,23.76-0.42,35.67
			c-7.12,60.78-55,118.36-115.95,123.85C859.95,1934.41,827.66,1919.06,806.44,1895.24z"/>
		<path class="st0" d="M642.17,636.57c-47.42,21.31-96.71,40.63-136.87,73.59c-40.16,33-70.42,83.29-64.28,134.87
			c3.22,26.93,15.51,50.25,33.32,69.8c-20.59-20.58-34.99-45.76-38.49-75.22c-6.15-51.59,24.12-101.88,64.28-134.87
			c40.16-32.96,89.45-52.28,136.83-73.56c20.67-9.3,41.61-19.82,62.04-31.59l0.01,8.35C680.24,618.52,661.09,628.05,642.17,636.57z"
			/>
		<path class="st0" d="M309.66,1681.49c4.21,4,9,7.42,14.35,10.27c18.41,9.74,40.38,9.97,61.09,7.83
			c106.36-10.93,198.35-75.7,297.94-114.58c5.26-2.06,10.59-4.04,15.96-5.93l0,7.27c-3.64,1.34-7.22,2.67-10.8,4.08
			c-99.59,38.88-191.58,103.65-297.9,114.58c-20.74,2.14-42.69,1.91-61.13-7.83C321.52,1693.12,315.03,1687.78,309.66,1681.49z"/>
		<path class="st0" d="M851.57,1568.72c32.37,10.75,60.37,31.94,83.66,57c-22.23-22.7-48.49-41.63-78.49-51.59
			c-51.06-16.94-106.89-6.34-157.74,12.21l0-7.27C748.47,1561.72,802.23,1552.35,851.57,1568.72z"/>
		<path class="st0" d="M556.06,2517.86c-69.9,13.71-153.4,27.7-203.02-23.39c-0.85-0.87-1.7-1.78-2.48-2.69
			c49.94,47.88,131.68,34.14,200.33,20.67c49.03-9.62,98.45-17.21,148.12-22.77l0,6.02C651.1,2501.14,603.4,2508.55,556.06,2517.86z
			"/>
		<path class="st0" d="M1003.26,1766.54c-4.44-48.42-28.24-95.01-60.35-132.27c-2.48-2.89-5.07-5.75-7.68-8.55
			c4.45,4.51,8.74,9.18,12.85,13.96c31.56,36.62,55.12,82.3,60.07,129.84C1006.52,1768.52,1004.89,1767.51,1003.26,1766.54z"/>
		<path class="st0" d="M699,989.97c59.51,3.68,119.75,3.17,178.79,11.82c19.76,2.91,40.4,7.33,55.34,20.61
			c2.11,1.88,4.08,3.87,5.81,5.99c-0.2-0.2-0.41-0.4-0.65-0.61c-14.94-13.24-35.59-17.66-55.34-20.57
			c-60.73-8.91-122.72-8.12-183.93-12.13L699,989.97z"/>
		<path class="st0" d="M706.66,3251.21c-0.98-190.35,72.47-373.64,200.32-523.99c48.92-57.55,109.68-134.74,69.42-198.69
			c-2.39-3.77-5.01-7.31-7.83-10.54c4.89,4.67,9.25,9.96,13.03,15.96c40.22,63.95-20.53,141.1-69.46,198.66
			c-157.75,185.52-235.62,425.43-190.31,662.98C711.85,3347.29,706.9,3299.01,706.66,3251.21z"/>
		<path class="st0" d="M1003.44,1769.11c-0.07-0.84-0.14-1.72-0.18-2.57c1.63,0.97,3.26,1.98,4.88,2.98
			c0.11,0.81,0.18,1.66,0.28,2.47C1006.77,1770.99,1005.1,1770.05,1003.44,1769.11z"/>
		<path class="st0" d="M762.04,118.64c56.68,63.7,114.05,162.96,116.78,246.37c3.49,106.8-83.17,188.52-179.8,242.94l-0.01-8.35
			c94.54-54.41,178.06-135.09,174.64-240c-2.73-83.45-55.31-177.49-111.72-240.89L762.04,118.64z"/>
		<path class="st0" d="M287.64,1586.44c-3.48,33.04,1.38,70.98,22.02,95.05c-25-23.43-30.96-64.81-27.19-100.46
			c12.05-114.73,97.04-218.44,207.17-252.81c67.13-20.97,139.62-17.66,209.39-25.79l0,5.95c-68.15,7.45-138.74,4.81-204.22,25.26
			C384.71,1368.01,299.72,1471.72,287.64,1586.44z"/>
	</g>
	<g>
		<path class="st1" d="M474.35,914.83c-20.59-20.58-34.99-45.76-38.49-75.22c-6.15-51.59,24.12-101.88,64.28-134.87
			c40.16-32.96,89.45-52.28,136.83-73.56c20.67-9.3,41.61-19.82,62.04-31.59c94.54-54.41,178.06-135.09,174.64-240
			c-2.73-83.45-55.31-177.49-111.72-240.89c-1.84-2.02-3.64-4.04-5.47-6.02"/>
		<path class="st1" d="M350.39,2491.61c-0.85-0.84-1.7-1.68-2.55-2.56c-36.4-37.5-38.14-99.36-15.19-146.33
			c22.95-46.94,65.87-81.07,111-107.4c78.6-45.84,165.84-72.22,255.36-90.56c51.4-10.58,103.52-18.48,155.2-25.92
			c96.91-13.92,210.64-38.98,248.4-129.3c25.65-61.32,1.97-128.74-44.09-178.4c-14.75-15.98-31.86-30.12-50.38-41.62
			c-1.63-1.01-3.26-2.01-4.88-2.98c-13.02-7.67-26.71-14.06-40.76-18.89c-69.15-23.75-166.22-6.71-183.63,64.3
			c-7.48,30.6,5.18,61.36,27.58,83.29c21.1,20.71,50.85,33.51,80.45,30.85c60.95-5.49,108.83-63.03,115.95-123.82
			c1.29-11.09,1.47-22.18,0.61-33.17c-0.07-0.84-0.14-1.72-0.18-2.57c-4.44-48.42-28.24-95.01-60.35-132.27
			c-2.48-2.89-5.07-5.75-7.68-8.55c-23.29-25.06-51.28-46.25-83.66-57c-49.34-16.38-103.11-7.01-152.57,10.35
			c-5.37,1.89-10.7,3.88-15.96,5.93c-99.59,38.88-191.58,103.65-297.94,114.58c-20.71,2.14-42.69,1.91-61.09-7.83
			c-5.36-2.85-10.14-6.27-14.35-10.27c-25-23.43-30.96-64.81-27.19-100.46c12.05-114.73,97.04-218.44,207.17-252.81
			c67.13-20.97,139.62-17.66,209.39-25.79c29.59-3.47,58.71-8.99,86.68-19.31c71.02-26.19,129.88-83.66,157.78-154.02
			c13.01-32.79,17.46-74.6-4.54-100.71c-1.73-2.12-3.71-4.1-5.81-5.99c-14.94-13.28-35.59-17.7-55.34-20.61
			c-59.03-8.65-119.27-8.14-178.79-11.82c-36.72-2.21-73.18-6.04-108.96-14.55c-42.07-9.99-85.34-30.35-115.45-60.35"/>
		<path class="st1" d="M968.44,2517.82c-31.42-35.81-88.94-40-138.32-38.09c-43.8,1.75-87.53,5.05-131.11,9.94
			c-49.66,5.56-99.08,13.15-148.12,22.77c-68.65,13.47-150.39,27.21-200.33-20.67"/>
		<path class="st1" d="M725.51,3412.5c-1.31-5.64-2.53-11.28-3.67-16.92c-9.99-48.29-14.93-96.57-15.18-144.37
			c-0.98-190.35,72.47-373.64,200.32-523.99c48.92-57.55,109.68-134.74,69.42-198.69c-2.39-3.77-5.01-7.31-7.83-10.54"/>
		<path class="st1" d="M727.49,3422.49c-2.07-8.95-3.95-17.93-5.65-26.91c-45.31-237.55,32.55-477.45,190.31-662.98
			c48.92-57.55,109.68-134.7,69.46-198.66c-3.78-6-8.14-11.28-13.03-15.96c-0.07-0.07-0.1-0.1-0.14-0.17
			c-32.27-30.83-86.35-34.51-133.16-32.68c-45.53,1.79-91.01,5.3-136.28,10.54c-47.91,5.45-95.6,12.87-142.95,22.17
			c-69.9,13.71-153.4,27.7-203.02-23.39c-0.85-0.87-1.7-1.78-2.48-2.69c-0.03-0.07-0.1-0.13-0.17-0.17
			c-33.83-37.72-34.95-97.68-12.57-143.47c22.95-46.94,65.91-81.07,111.03-107.4c77.04-44.95,162.43-71.19,250.16-89.49
			c53.05-11.09,106.96-19.31,160.36-26.99c96.91-13.95,210.64-38.98,248.4-129.33c26.58-63.55,0.15-133.66-49.26-183.78
			c-14.85-15.14-31.86-28.4-50.1-39.16c-1.66-1.01-3.32-1.94-4.98-2.88c-11.53-6.4-23.52-11.81-35.78-16.04
			c-69.15-23.78-166.18-6.71-183.6,64.3c-6.92,28.13,3.27,56.44,22.38,77.87c21.22,23.82,53.51,39.17,85.61,36.27
			c60.95-5.49,108.83-63.07,115.95-123.85c1.39-11.91,1.47-23.84,0.42-35.67c-0.11-0.81-0.18-1.66-0.28-2.47
			c-4.94-47.54-28.51-93.22-60.07-129.84c-4.11-4.78-8.4-9.46-12.85-13.96c-22.23-22.7-48.49-41.63-78.49-51.59
			c-51.06-16.94-106.89-6.34-157.74,12.21c-3.64,1.34-7.22,2.67-10.8,4.08c-99.59,38.88-191.58,103.65-297.9,114.58
			c-20.74,2.14-42.69,1.91-61.13-7.83c-7.66-4.05-14.15-9.39-19.52-15.69c-20.64-24.06-25.5-62-22.02-95.05
			c12.08-114.73,97.07-218.44,207.17-252.81c65.48-20.45,136.07-17.81,204.22-25.26c31.39-3.41,62.26-8.98,91.88-19.88
			c71.02-26.19,129.85-83.63,157.75-153.98c13.95-35.16,18.07-80.68-9.71-106.13c-0.2-0.2-0.41-0.4-0.65-0.61
			c-14.94-13.24-35.59-17.66-55.34-20.57c-60.73-8.91-122.72-8.12-183.93-12.13c-35-2.29-69.7-6.13-103.82-14.24
			c-44.54-10.59-90.46-32.8-120.62-65.77c-0.1-0.07-0.17-0.13-0.24-0.24c-17.81-19.55-30.1-42.88-33.32-69.8
			c-6.15-51.59,24.12-101.88,64.28-134.87c40.16-32.96,89.45-52.28,136.87-73.59c18.92-8.52,38.07-18.05,56.85-28.62
			c96.64-54.42,183.29-136.13,179.8-242.94c-2.73-83.42-60.1-182.67-116.78-246.37c-1.84-2.09-3.71-4.14-5.54-6.12"/>
	</g>
</g>
</svg>
