<?xml version="1.0" encoding="utf-8"?>
<!-- Generator: Adobe Illustrator 28.0.0, SVG Export Plug-In . SVG Version: 6.00 Build 0)  -->
<svg version="1.1" id="Layer_1" xmlns="http://www.w3.org/2000/svg" xmlns:xlink="http://www.w3.org/1999/xlink" x="0px" y="0px"
	 viewBox="0 0 1417.32 3461.1" style="enable-background:new 0 0 1417.32 3461.1;" xml:space="preserve">
<style type="text/css">
	.st0{fill:#FFFFFF;}
	.st1{fill:#A9203F;}
	.st2{fill:none;stroke:#A9203F;stroke-miterlimit:10;}
	.st3{fill:none;stroke:#AD354C;stroke-miterlimit:10;}
</style>
<g id="XMLID_00000023960792664010394750000007352939145099584189_">
	<g>
		<g>
			<path class="st0" d="M1120.04,1874.38c6.49,20.32,7.57,43.54,5.24,64.73c-12.68,114.66-98.2,217.93-208.47,251.74
				c-95.77,29.38-202.18,9.43-296.33,43.61c-71.16,25.83-130.28,82.96-158.57,153.17c-7.54,18.73-12.27,40.4-10.88,60.41
				c-9.87-25.25-4.77-57.47,5.85-83.83c28.26-70.21,87.42-127.34,158.54-153.2c94.18-34.18,200.56-14.2,296.33-43.57
				c110.27-33.8,195.83-137.08,208.47-251.74C1121.7,1902.3,1121.8,1888.14,1120.04,1874.38z"/>
			<path class="st0" d="M1073.97,1153.74c12.44-25.12,17.78-54.53,14.47-82.21c10.85,33.77,6.59,73.29-9.4,105.64
				c-23.19,46.82-66.32,80.72-111.59,106.82c-124.06,71.5-269.32,94.69-411.16,114.36c-96.98,13.45-210.84,37.89-249.03,128.05
				c-10.21,24.07-12.78,49.08-9.4,73.66c-9.33-31.84-9.16-65.31,4.33-97.12c38.23-90.12,152.08-114.6,249.07-128.02
				c141.81-19.67,287.1-42.86,411.12-114.36C1007.68,1234.47,1050.78,1200.56,1073.97,1153.74z"/>
			<path class="st0" d="M1120.04,1874.38c-6.25-19.61-17.58-36.51-35.73-46.21c-18.39-9.84-40.33-10.18-61.08-8.15
				c-106.42,10.38-198.73,74.67-298.52,113.04c-53.75,20.69-114.02,33.84-168.58,15.41c-35.97-12.14-66.42-37.12-91.03-66.02
				c-29.17-34.24-51.38-76.26-58.11-120.27c9.84,35.39,29.11,68.76,53.07,96.85c24.61,28.87,55.07,53.88,91,66.02
				c54.59,18.42,114.83,5.27,168.61-15.41c99.79-38.37,192.11-102.66,298.49-113.04c20.76-2.03,42.69-1.69,61.08,8.15
				C1104.33,1818.16,1116.36,1845.31,1120.04,1874.38z"/>
			<path class="st0" d="M1088.44,1071.53c-4.8-15.14-12.68-29.11-23.87-40.73c-49.39-51.38-132.92-37.83-202.93-24.47
				c-92.15,17.61-185.65,28.06-279.39,31.27c-53.95,1.86-117.54-3.72-146.03-49.56c-7.81-12.58-11.76-25.62-12.68-38.91
				c1.93,5.24,4.46,10.38,7.64,15.48c28.5,45.84,92.08,51.38,146.03,49.56c93.74-3.21,187.24-13.66,279.39-31.27
				c69.97-13.35,153.54-26.91,202.89,24.44C1076.3,1024.85,1085.63,1047.53,1088.44,1071.53z"/>
			<path class="st0" d="M968.06,2679.73c5.88,51.62-24.64,101.75-64.97,134.54c-40.33,32.76-89.72,51.82-137.24,72.88
				c-116.73,51.65-241.56,142.75-238.05,270.36c0.3,11.49,1.59,23.19,3.65,34.99c-5.14-20.45-8.21-40.23-8.72-58.45
				c-3.52-127.61,121.36-218.68,238.08-270.36c47.49-21.03,96.88-40.09,137.21-72.85c40.19-32.69,70.65-82.58,65.04-134
				C965.46,2664.18,967.15,2671.78,968.06,2679.73z"/>
			<path class="st0" d="M962.99,2656.3c0.03,0.17,0.03,0.3,0.03,0.47c-19.5-59.5-85.29-98.27-148.47-113.65
				c-93.7-22.78-192.24-13.35-287.6-27.85c-19.74-2.97-40.36-7.5-55.2-20.86c-13.39-12-19.47-28.53-20.72-46.38
				c3.31,8.62,8.42,16.46,15.65,22.95c14.87,13.32,35.49,17.85,55.24,20.86c95.33,14.5,193.9,5.04,287.6,27.85
				C880.47,2536.94,954.74,2583.76,962.99,2656.3z"/>
			<path class="st0" d="M683.46,80.43c55.47,246.53-12.1,517.64-176.76,709.31c-39.62,46.07-86.88,104.79-83.16,159.39
				c-22.65-60.75,32.76-130.08,78.09-182.85C661.12,580.66,729.51,320.58,683.3,80.47L683.46,80.43z"/>
			<path class="st0" d="M627.11,1659.05c5.44,14.74,6.93,30.69,2.94,46.58c-17.78,70.92-114.93,87.48-183.96,63.35
				c-13.99-4.9-27.65-11.36-40.63-19.1c-0.57-6.9-0.78-13.86-0.54-20.82c11.63,6.59,23.73,12.17,36.14,16.5
				c69.03,24.1,166.15,7.57,183.93-63.35C626.94,1674.46,627.59,1666.69,627.11,1659.05z"/>
			<path class="st0" d="M639.99,3400.9c-49.02-54.97-95.33-133.66-108.54-208.4C550.04,3266.8,595.34,3350.23,639.99,3400.9z"/>
			<path class="st0" d="M627.11,1659.05c-14.98-40.43-59.8-71.9-104.49-68.12c-60.95,5.17-109.15,62.5-116.56,123.25
				c-0.61,4.94-0.98,9.9-1.15,14.87c-1.52-0.85-3.04-1.72-4.53-2.6c-0.98-11.83-0.85-23.8,0.61-35.73
				c7.44-60.71,55.61-118.04,116.59-123.22C570.63,1563.01,623.9,1608.17,627.11,1659.05z"/>
			<path class="st0" d="M405.46,1749.88c-0.57-0.34-1.15-0.68-1.72-1.05c-1.55-7.37-2.67-14.84-3.35-22.38
				c1.49,0.88,3.01,1.76,4.53,2.6C404.68,1736.02,404.89,1742.98,405.46,1749.88z"/>
			<path class="st0" d="M400.39,1726.45c0.68,7.54,1.79,15.01,3.35,22.38c-54.83-33.33-97.69-89.65-105.87-148.77
				C312.8,1650.93,352.08,1697.62,400.39,1726.45z"/>
		</g>
		<g>
			<path class="st0" d="M963.06,2656.84c2.4,7.34,4.09,14.94,5,22.89c5.88,51.62-24.64,101.75-64.97,134.54
				c-40.33,32.76-89.72,51.82-137.24,72.88c-116.73,51.65-241.56,142.75-238.05,270.36c0.3,11.49,1.59,23.19,3.65,34.99
				c13.22,74.74,59.53,153.44,108.54,208.4"/>
			<path class="st0" d="M683.46,80.43c55.47,246.53-12.1,517.64-176.76,709.31c-39.62,46.07-86.88,104.79-83.16,159.39
				c0.91,13.29,4.87,26.33,12.68,38.91c28.5,45.84,92.08,51.42,146.03,49.56c93.74-3.21,187.24-13.66,279.39-31.27
				c70.01-13.35,153.54-26.91,202.93,24.47c11.19,11.63,19.07,25.59,23.87,40.73c10.85,33.77,6.59,73.29-9.4,105.64
				c-23.19,46.82-66.32,80.72-111.59,106.82c-124.06,71.5-269.32,94.69-411.16,114.36c-96.98,13.45-210.84,37.89-249.03,128.05
				c-10.21,24.07-12.78,49.08-9.4,73.66c8.18,59.12,51.04,115.44,105.87,148.77c0.57,0.37,1.15,0.71,1.72,1.05
				c12.98,7.74,26.64,14.2,40.63,19.1c69.03,24.14,166.18,7.57,183.96-63.35c3.99-15.89,2.5-31.84-2.94-46.58
				c-14.98-40.43-59.8-71.9-104.49-68.12c-60.95,5.17-109.15,62.5-116.56,123.25c-0.61,4.94-0.98,9.9-1.15,14.87
				c-0.24,6.96-0.03,13.93,0.54,20.82c0.37,4.12,0.88,8.25,1.52,12.3c6.73,44.01,28.94,86.03,58.11,120.27
				c24.61,28.9,55.07,53.88,91.03,66.02c54.56,18.42,114.83,5.27,168.58-15.41c99.79-38.37,192.11-102.66,298.52-113.04
				c20.76-2.03,42.69-1.69,61.08,8.15c18.15,9.7,29.48,26.6,35.73,46.21c6.49,20.32,7.57,43.54,5.24,64.73
				c-12.68,114.66-98.2,217.93-208.47,251.74c-95.77,29.38-202.18,9.43-296.33,43.61c-71.16,25.83-130.28,82.96-158.57,153.17
				c-7.54,18.73-12.27,40.4-10.88,60.41c1.25,17.85,7.34,34.38,20.72,46.38c14.84,13.35,35.46,17.88,55.2,20.86
				c95.36,14.5,193.9,5.07,287.6,27.85c63.18,15.38,128.96,54.15,148.47,113.65"/>
			<path class="st0" d="M678.43,57.01c1.76,7.77,3.38,15.62,4.87,23.46c46.21,240.11-22.18,500.2-181.66,685.82
				c-45.33,52.77-100.74,122.1-78.09,182.85c1.93,5.24,4.46,10.38,7.64,15.48c28.5,45.84,92.08,51.38,146.03,49.56
				c93.74-3.21,187.24-13.66,279.39-31.27c69.97-13.35,153.54-26.91,202.89,24.44c16.8,17.51,26.13,40.19,28.94,64.19
				c3.31,27.69-2.03,57.09-14.47,82.21c-23.19,46.82-66.29,80.72-111.59,106.82c-124.03,71.5-269.32,94.69-411.12,114.36
				c-96.98,13.42-210.84,37.89-249.07,128.02c-13.49,31.81-13.66,65.28-4.33,97.12c14.94,50.88,54.22,97.56,102.53,126.39
				c1.49,0.88,3.01,1.76,4.53,2.6c11.63,6.59,23.73,12.17,36.14,16.5c69.03,24.1,166.15,7.57,183.93-63.35
				c1.96-7.74,2.6-15.52,2.13-23.16c-3.21-50.88-56.49-96.04-109.53-91.54c-60.98,5.17-109.15,62.5-116.59,123.22
				c-1.45,11.93-1.59,23.9-0.61,35.73c0.68,7.54,1.79,15.01,3.35,22.38c0.91,4.5,1.99,8.92,3.25,13.35
				c9.84,35.39,29.11,68.76,53.07,96.85c24.61,28.87,55.07,53.88,91,66.02c54.59,18.42,114.83,5.27,168.61-15.41
				c99.79-38.37,192.11-102.66,298.49-113.04c20.76-2.03,42.69-1.69,61.08,8.15c25.08,13.42,37.12,40.56,40.8,69.64
				c1.76,13.76,1.66,27.92,0.17,41.31c-12.64,114.66-98.2,217.93-208.47,251.74c-95.77,29.38-202.15,9.4-296.33,43.57
				c-71.12,25.86-130.28,82.99-158.54,153.2c-10.61,26.37-15.72,58.58-5.85,83.83c3.31,8.62,8.42,16.46,15.65,22.95
				c14.87,13.32,35.49,17.85,55.24,20.86c95.33,14.5,193.9,5.04,287.6,27.85c70.95,17.24,145.22,64.06,153.47,136.6
				c0.03,0.17,0.03,0.3,0.03,0.47c0.03,0.03,0.03,0.03,0.03,0.07c5.61,51.42-24.85,101.31-65.04,134
				c-40.33,32.76-89.72,51.82-137.21,72.85c-116.73,51.69-241.6,142.75-238.08,270.36c0.51,18.22,3.58,38,8.72,58.45
				c18.59,74.3,63.89,157.73,108.54,208.4c1.25,1.39,2.47,2.74,3.68,4.09"/>
		</g>
	</g>
	<g>
		<g>
			<path class="st1" d="M1120.04,1874.38c6.49,20.32,7.57,43.54,5.24,64.73c-12.68,114.66-98.2,217.93-208.47,251.74
				c-95.77,29.38-202.18,9.43-296.33,43.61c-71.16,25.83-130.28,82.96-158.57,153.17c-7.54,18.73-12.27,40.4-10.88,60.41
				c-9.87-25.25-4.77-57.47,5.85-83.83c28.26-70.21,87.42-127.34,158.54-153.2c94.18-34.18,200.56-14.2,296.33-43.57
				c110.27-33.8,195.83-137.08,208.47-251.74C1121.7,1902.3,1121.8,1888.14,1120.04,1874.38z"/>
			<path class="st1" d="M1073.97,1153.74c12.44-25.12,17.78-54.53,14.47-82.21c10.85,33.77,6.59,73.29-9.4,105.64
				c-23.19,46.82-66.32,80.72-111.59,106.82c-124.06,71.5-269.32,94.69-411.16,114.36c-96.98,13.45-210.84,37.89-249.03,128.05
				c-10.21,24.07-12.78,49.08-9.4,73.66c-9.33-31.84-9.16-65.31,4.33-97.12c38.23-90.12,152.08-114.6,249.07-128.02
				c141.81-19.67,287.1-42.86,411.12-114.36C1007.68,1234.47,1050.78,1200.56,1073.97,1153.74z"/>
			<path class="st1" d="M1120.04,1874.38c-6.25-19.61-17.58-36.51-35.73-46.21c-18.39-9.84-40.33-10.18-61.08-8.15
				c-106.42,10.38-198.73,74.67-298.52,113.04c-53.75,20.69-114.02,33.84-168.58,15.41c-35.97-12.14-66.42-37.12-91.03-66.02
				c-29.17-34.24-51.38-76.26-58.11-120.27c9.84,35.39,29.11,68.76,53.07,96.85c24.61,28.87,55.07,53.88,91,66.02
				c54.59,18.42,114.83,5.27,168.61-15.41c99.79-38.37,192.11-102.66,298.49-113.04c20.76-2.03,42.69-1.69,61.08,8.15
				C1104.33,1818.16,1116.36,1845.31,1120.04,1874.38z"/>
			<path class="st1" d="M1088.44,1071.53c-4.8-15.14-12.68-29.11-23.87-40.73c-49.39-51.38-132.92-37.83-202.93-24.47
				c-92.15,17.61-185.65,28.06-279.39,31.27c-53.95,1.86-117.54-3.72-146.03-49.56c-7.81-12.58-11.76-25.62-12.68-38.91
				c1.93,5.24,4.46,10.38,7.64,15.48c28.5,45.84,92.08,51.38,146.03,49.56c93.74-3.21,187.24-13.66,279.39-31.27
				c69.97-13.35,153.54-26.91,202.89,24.44C1076.3,1024.85,1085.63,1047.53,1088.44,1071.53z"/>
			<path class="st1" d="M968.06,2679.73c5.88,51.62-24.64,101.75-64.97,134.54c-40.33,32.76-89.72,51.82-137.24,72.88
				c-116.73,51.65-241.56,142.75-238.05,270.36c0.3,11.49,1.59,23.19,3.65,34.99c-5.14-20.45-8.21-40.23-8.72-58.45
				c-3.52-127.61,121.36-218.68,238.08-270.36c47.49-21.03,96.88-40.09,137.21-72.85c40.19-32.69,70.65-82.58,65.04-134
				C965.46,2664.18,967.15,2671.78,968.06,2679.73z"/>
			<path class="st1" d="M962.99,2656.3c0.03,0.17,0.03,0.3,0.03,0.47c-19.5-59.5-85.29-98.27-148.47-113.65
				c-93.7-22.78-192.24-13.35-287.6-27.85c-19.74-2.97-40.36-7.5-55.2-20.86c-13.39-12-19.47-28.53-20.72-46.38
				c3.31,8.62,8.42,16.46,15.65,22.95c14.87,13.32,35.49,17.85,55.24,20.86c95.33,14.5,193.9,5.04,287.6,27.85
				C880.47,2536.94,954.74,2583.76,962.99,2656.3z"/>
			<path class="st1" d="M683.46,80.43c55.47,246.53-12.1,517.64-176.76,709.31c-39.62,46.07-86.88,104.79-83.16,159.39
				c-22.65-60.75,32.76-130.08,78.09-182.85C661.12,580.66,729.51,320.58,683.3,80.47L683.46,80.43z"/>
			<path class="st1" d="M627.11,1659.05c5.44,14.74,6.93,30.69,2.94,46.58c-17.78,70.92-114.93,87.48-183.96,63.35
				c-13.99-4.9-27.65-11.36-40.63-19.1c-0.57-6.9-0.78-13.86-0.54-20.82c11.63,6.59,23.73,12.17,36.14,16.5
				c69.03,24.1,166.15,7.57,183.93-63.35C626.94,1674.46,627.59,1666.69,627.11,1659.05z"/>
			<path class="st1" d="M639.99,3400.9c-49.02-54.97-95.33-133.66-108.54-208.4C550.04,3266.8,595.34,3350.23,639.99,3400.9z"/>
			<path class="st1" d="M627.11,1659.05c-14.98-40.43-59.8-71.9-104.49-68.12c-60.95,5.17-109.15,62.5-116.56,123.25
				c-0.61,4.94-0.98,9.9-1.15,14.87c-1.52-0.85-3.04-1.72-4.53-2.6c-0.98-11.83-0.85-23.8,0.61-35.73
				c7.44-60.71,55.61-118.04,116.59-123.22C570.63,1563.01,623.9,1608.17,627.11,1659.05z"/>
			<path class="st1" d="M405.46,1749.88c-0.57-0.34-1.15-0.68-1.72-1.05c-1.55-7.37-2.67-14.84-3.35-22.38
				c1.49,0.88,3.01,1.76,4.53,2.6C404.68,1736.02,404.89,1742.98,405.46,1749.88z"/>
			<path class="st1" d="M400.39,1726.45c0.68,7.54,1.79,15.01,3.35,22.38c-54.83-33.33-97.69-89.65-105.87-148.77
				C312.8,1650.93,352.08,1697.62,400.39,1726.45z"/>
		</g>
		<g>
			<path class="st2" d="M963.06,2656.84c2.4,7.34,4.09,14.94,5,22.89c5.88,51.62-24.64,101.75-64.97,134.54
				c-40.33,32.76-89.72,51.82-137.24,72.88c-116.73,51.65-241.56,142.75-238.05,270.36c0.3,11.49,1.59,23.19,3.65,34.99
				c13.22,74.74,59.53,153.44,108.54,208.4"/>
			<path class="st2" d="M683.46,80.43c55.47,246.53-12.1,517.64-176.76,709.31c-39.62,46.07-86.88,104.79-83.16,159.39
				c0.91,13.29,4.87,26.33,12.68,38.91c28.5,45.84,92.08,51.42,146.03,49.56c93.74-3.21,187.24-13.66,279.39-31.27
				c70.01-13.35,153.54-26.91,202.93,24.47c11.19,11.63,19.07,25.59,23.87,40.73c10.85,33.77,6.59,73.29-9.4,105.64
				c-23.19,46.82-66.32,80.72-111.59,106.82c-124.06,71.5-269.32,94.69-411.16,114.36c-96.98,13.45-210.84,37.89-249.03,128.05
				c-10.21,24.07-12.78,49.08-9.4,73.66c8.18,59.12,51.04,115.44,105.87,148.77c0.57,0.37,1.15,0.71,1.72,1.05
				c12.98,7.74,26.64,14.2,40.63,19.1c69.03,24.14,166.18,7.57,183.96-63.35c3.99-15.89,2.5-31.84-2.94-46.58
				c-14.98-40.43-59.8-71.9-104.49-68.12c-60.95,5.17-109.15,62.5-116.56,123.25c-0.61,4.94-0.98,9.9-1.15,14.87
				c-0.24,6.96-0.03,13.93,0.54,20.82c0.37,4.12,0.88,8.25,1.52,12.3c6.73,44.01,28.94,86.03,58.11,120.27
				c24.61,28.9,55.07,53.88,91.03,66.02c54.56,18.42,114.83,5.27,168.58-15.41c99.79-38.37,192.11-102.66,298.52-113.04
				c20.76-2.03,42.69-1.69,61.08,8.15c18.15,9.7,29.48,26.6,35.73,46.21c6.49,20.32,7.57,43.54,5.24,64.73
				c-12.68,114.66-98.2,217.93-208.47,251.74c-95.77,29.38-202.18,9.43-296.33,43.61c-71.16,25.83-130.28,82.96-158.57,153.17
				c-7.54,18.73-12.27,40.4-10.88,60.41c1.25,17.85,7.34,34.38,20.72,46.38c14.84,13.35,35.46,17.88,55.2,20.86
				c95.36,14.5,193.9,5.07,287.6,27.85c63.18,15.38,128.96,54.15,148.47,113.65"/>
			<path class="st2" d="M678.43,57.01c1.76,7.77,3.38,15.62,4.87,23.46c46.21,240.11-22.18,500.2-181.66,685.82
				c-45.33,52.77-100.74,122.1-78.09,182.85c1.93,5.24,4.46,10.38,7.64,15.48c28.5,45.84,92.08,51.38,146.03,49.56
				c93.74-3.21,187.24-13.66,279.39-31.27c69.97-13.35,153.54-26.91,202.89,24.44c16.8,17.51,26.13,40.19,28.94,64.19
				c3.31,27.69-2.03,57.09-14.47,82.21c-23.19,46.82-66.29,80.72-111.59,106.82c-124.03,71.5-269.32,94.69-411.12,114.36
				c-96.98,13.42-210.84,37.89-249.07,128.02c-13.49,31.81-13.66,65.28-4.33,97.12c14.94,50.88,54.22,97.56,102.53,126.39
				c1.49,0.88,3.01,1.76,4.53,2.6c11.63,6.59,23.73,12.17,36.14,16.5c69.03,24.1,166.15,7.57,183.93-63.35
				c1.96-7.74,2.6-15.52,2.13-23.16c-3.21-50.88-56.49-96.04-109.53-91.54c-60.98,5.17-109.15,62.5-116.59,123.22
				c-1.45,11.93-1.59,23.9-0.61,35.73c0.68,7.54,1.79,15.01,3.35,22.38c0.91,4.5,1.99,8.92,3.25,13.35
				c9.84,35.39,29.11,68.76,53.07,96.85c24.61,28.87,55.07,53.88,91,66.02c54.59,18.42,114.83,5.27,168.61-15.41
				c99.79-38.37,192.11-102.66,298.49-113.04c20.76-2.03,42.69-1.69,61.08,8.15c25.08,13.42,37.12,40.56,40.8,69.64
				c1.76,13.76,1.66,27.92,0.17,41.31c-12.64,114.66-98.2,217.93-208.47,251.74c-95.77,29.38-202.15,9.4-296.33,43.57
				c-71.12,25.86-130.28,82.99-158.54,153.2c-10.61,26.37-15.72,58.58-5.85,83.83c3.31,8.62,8.42,16.46,15.65,22.95
				c14.87,13.32,35.49,17.85,55.24,20.86c95.33,14.5,193.9,5.04,287.6,27.85c70.95,17.24,145.22,64.06,153.47,136.6
				c0.03,0.17,0.03,0.3,0.03,0.47c0.03,0.03,0.03,0.03,0.03,0.07c5.61,51.42-24.85,101.31-65.04,134
				c-40.33,32.76-89.72,51.82-137.21,72.85c-116.73,51.69-241.6,142.75-238.08,270.36c0.51,18.22,3.58,38,8.72,58.45
				c18.59,74.3,63.89,157.73,108.54,208.4c1.25,1.39,2.47,2.74,3.68,4.09"/>
		</g>
	</g>
	<g>
		<g>
			<path class="st3" d="M1120.04,1874.38c6.49,20.32,7.57,43.54,5.24,64.73c-12.68,114.66-98.2,217.93-208.47,251.74
				c-95.77,29.38-202.18,9.43-296.33,43.61c-71.16,25.83-130.28,82.96-158.57,153.17c-7.54,18.73-12.27,40.4-10.88,60.41
				c-9.87-25.25-4.77-57.47,5.85-83.83c28.26-70.21,87.42-127.34,158.54-153.2c94.18-34.18,200.56-14.2,296.33-43.57
				c110.27-33.8,195.83-137.08,208.47-251.74C1121.7,1902.3,1121.8,1888.14,1120.04,1874.38z"/>
			<path class="st3" d="M1073.97,1153.74c12.44-25.12,17.78-54.53,14.47-82.21c10.85,33.77,6.59,73.29-9.4,105.64
				c-23.19,46.82-66.32,80.72-111.59,106.82c-124.06,71.5-269.32,94.69-411.16,114.36c-96.98,13.45-210.84,37.89-249.03,128.05
				c-10.21,24.07-12.78,49.08-9.4,73.66c-9.33-31.84-9.16-65.31,4.33-97.12c38.23-90.12,152.08-114.6,249.07-128.02
				c141.81-19.67,287.1-42.86,411.12-114.36C1007.68,1234.47,1050.78,1200.56,1073.97,1153.74z"/>
			<path class="st3" d="M1120.04,1874.38c-6.25-19.61-17.58-36.51-35.73-46.21c-18.39-9.84-40.33-10.18-61.08-8.15
				c-106.42,10.38-198.73,74.67-298.52,113.04c-53.75,20.69-114.02,33.84-168.58,15.41c-35.97-12.14-66.42-37.12-91.03-66.02
				c-29.17-34.24-51.38-76.26-58.11-120.27c9.84,35.39,29.11,68.76,53.07,96.85c24.61,28.87,55.07,53.88,91,66.02
				c54.59,18.42,114.83,5.27,168.61-15.41c99.79-38.37,192.11-102.66,298.49-113.04c20.76-2.03,42.69-1.69,61.08,8.15
				C1104.33,1818.16,1116.36,1845.31,1120.04,1874.38z"/>
			<path class="st3" d="M1088.44,1071.53c-4.8-15.14-12.68-29.11-23.87-40.73c-49.39-51.38-132.92-37.83-202.93-24.47
				c-92.15,17.61-185.65,28.06-279.39,31.27c-53.95,1.86-117.54-3.72-146.03-49.56c-7.81-12.58-11.76-25.62-12.68-38.91
				c1.93,5.24,4.46,10.38,7.64,15.48c28.5,45.84,92.08,51.38,146.03,49.56c93.74-3.21,187.24-13.66,279.39-31.27
				c69.97-13.35,153.54-26.91,202.89,24.44C1076.3,1024.85,1085.63,1047.53,1088.44,1071.53z"/>
			<path class="st3" d="M968.06,2679.73c5.88,51.62-24.64,101.75-64.97,134.54c-40.33,32.76-89.72,51.82-137.24,72.88
				c-116.73,51.65-241.56,142.75-238.05,270.36c0.3,11.49,1.59,23.19,3.65,34.99c-5.14-20.45-8.21-40.23-8.72-58.45
				c-3.52-127.61,121.36-218.68,238.08-270.36c47.49-21.03,96.88-40.09,137.21-72.85c40.19-32.69,70.65-82.58,65.04-134
				C965.46,2664.18,967.15,2671.78,968.06,2679.73z"/>
			<path class="st3" d="M962.99,2656.3c0.03,0.17,0.03,0.3,0.03,0.47c-19.5-59.5-85.29-98.27-148.47-113.65
				c-93.7-22.78-192.24-13.35-287.6-27.85c-19.74-2.97-40.36-7.5-55.2-20.86c-13.39-12-19.47-28.53-20.72-46.38
				c3.31,8.62,8.42,16.46,15.65,22.95c14.87,13.32,35.49,17.85,55.24,20.86c95.33,14.5,193.9,5.04,287.6,27.85
				C880.47,2536.94,954.74,2583.76,962.99,2656.3z"/>
			<path class="st3" d="M683.46,80.43c55.47,246.53-12.1,517.64-176.76,709.31c-39.62,46.07-86.88,104.79-83.16,159.39
				c-22.65-60.75,32.76-130.08,78.09-182.85C661.12,580.66,729.51,320.58,683.3,80.47L683.46,80.43z"/>
			<path class="st3" d="M627.11,1659.05c5.44,14.74,6.93,30.69,2.94,46.58c-17.78,70.92-114.93,87.48-183.96,63.35
				c-13.99-4.9-27.65-11.36-40.63-19.1c-0.57-6.9-0.78-13.86-0.54-20.82c11.63,6.59,23.73,12.17,36.14,16.5
				c69.03,24.1,166.15,7.57,183.93-63.35C626.94,1674.46,627.59,1666.69,627.11,1659.05z"/>
			<path class="st3" d="M639.99,3400.9c-49.02-54.97-95.33-133.66-108.54-208.4C550.04,3266.8,595.34,3350.23,639.99,3400.9z"/>
			<path class="st3" d="M627.11,1659.05c-14.98-40.43-59.8-71.9-104.49-68.12c-60.95,5.17-109.15,62.5-116.56,123.25
				c-0.61,4.94-0.98,9.9-1.15,14.87c-1.52-0.85-3.04-1.72-4.53-2.6c-0.98-11.83-0.85-23.8,0.61-35.73
				c7.44-60.71,55.61-118.04,116.59-123.22C570.63,1563.01,623.9,1608.17,627.11,1659.05z"/>
			<path class="st3" d="M405.46,1749.88c-0.57-0.34-1.15-0.68-1.72-1.05c-1.55-7.37-2.67-14.84-3.35-22.38
				c1.49,0.88,3.01,1.76,4.53,2.6C404.68,1736.02,404.89,1742.98,405.46,1749.88z"/>
			<path class="st3" d="M400.39,1726.45c0.68,7.54,1.79,15.01,3.35,22.38c-54.83-33.33-97.69-89.65-105.87-148.77
				C312.8,1650.93,352.08,1697.62,400.39,1726.45z"/>
		</g>
		<g>
			<path class="st3" d="M963.06,2656.84c2.4,7.34,4.09,14.94,5,22.89c5.88,51.62-24.64,101.75-64.97,134.54
				c-40.33,32.76-89.72,51.82-137.24,72.88c-116.73,51.65-241.56,142.75-238.05,270.36c0.3,11.49,1.59,23.19,3.65,34.99
				c13.22,74.74,59.53,153.44,108.54,208.4"/>
			<path class="st3" d="M683.46,80.43c55.47,246.53-12.1,517.64-176.76,709.31c-39.62,46.07-86.88,104.79-83.16,159.39
				c0.91,13.29,4.87,26.33,12.68,38.91c28.5,45.84,92.08,51.42,146.03,49.56c93.74-3.21,187.24-13.66,279.39-31.27
				c70.01-13.35,153.54-26.91,202.93,24.47c11.19,11.63,19.07,25.59,23.87,40.73c10.85,33.77,6.59,73.29-9.4,105.64
				c-23.19,46.82-66.32,80.72-111.59,106.82c-124.06,71.5-269.32,94.69-411.16,114.36c-96.98,13.45-210.84,37.89-249.03,128.05
				c-10.21,24.07-12.78,49.08-9.4,73.66c8.18,59.12,51.04,115.44,105.87,148.77c0.57,0.37,1.15,0.71,1.72,1.05
				c12.98,7.74,26.64,14.2,40.63,19.1c69.03,24.14,166.18,7.57,183.96-63.35c3.99-15.89,2.5-31.84-2.94-46.58
				c-14.98-40.43-59.8-71.9-104.49-68.12c-60.95,5.17-109.15,62.5-116.56,123.25c-0.61,4.94-0.98,9.9-1.15,14.87
				c-0.24,6.96-0.03,13.93,0.54,20.82c0.37,4.12,0.88,8.25,1.52,12.3c6.73,44.01,28.94,86.03,58.11,120.27
				c24.61,28.9,55.07,53.88,91.03,66.02c54.56,18.42,114.83,5.27,168.58-15.41c99.79-38.37,192.11-102.66,298.52-113.04
				c20.76-2.03,42.69-1.69,61.08,8.15c18.15,9.7,29.48,26.6,35.73,46.21c6.49,20.32,7.57,43.54,5.24,64.73
				c-12.68,114.66-98.2,217.93-208.47,251.74c-95.77,29.38-202.18,9.43-296.33,43.61c-71.16,25.83-130.28,82.96-158.57,153.17
				c-7.54,18.73-12.27,40.4-10.88,60.41c1.25,17.85,7.34,34.38,20.72,46.38c14.84,13.35,35.46,17.88,55.2,20.86
				c95.36,14.5,193.9,5.07,287.6,27.85c63.18,15.38,128.96,54.15,148.47,113.65"/>
			<path class="st3" d="M678.43,57.01c1.76,7.77,3.38,15.62,4.87,23.46c46.21,240.11-22.18,500.2-181.66,685.82
				c-45.33,52.77-100.74,122.1-78.09,182.85c1.93,5.24,4.46,10.38,7.64,15.48c28.5,45.84,92.08,51.38,146.03,49.56
				c93.74-3.21,187.24-13.66,279.39-31.27c69.97-13.35,153.54-26.91,202.89,24.44c16.8,17.51,26.13,40.19,28.94,64.19
				c3.31,27.69-2.03,57.09-14.47,82.21c-23.19,46.82-66.29,80.72-111.59,106.82c-124.03,71.5-269.32,94.69-411.12,114.36
				c-96.98,13.42-210.84,37.89-249.07,128.02c-13.49,31.81-13.66,65.28-4.33,97.12c14.94,50.88,54.22,97.56,102.53,126.39
				c1.49,0.88,3.01,1.76,4.53,2.6c11.63,6.59,23.73,12.17,36.14,16.5c69.03,24.1,166.15,7.57,183.93-63.35
				c1.96-7.74,2.6-15.52,2.13-23.16c-3.21-50.88-56.49-96.04-109.53-91.54c-60.98,5.17-109.15,62.5-116.59,123.22
				c-1.45,11.93-1.59,23.9-0.61,35.73c0.68,7.54,1.79,15.01,3.35,22.38c0.91,4.5,1.99,8.92,3.25,13.35
				c9.84,35.39,29.11,68.76,53.07,96.85c24.61,28.87,55.07,53.88,91,66.02c54.59,18.42,114.83,5.27,168.61-15.41
				c99.79-38.37,192.11-102.66,298.49-113.04c20.76-2.03,42.69-1.69,61.08,8.15c25.08,13.42,37.12,40.56,40.8,69.64
				c1.76,13.76,1.66,27.92,0.17,41.31c-12.64,114.66-98.2,217.93-208.47,251.74c-95.77,29.38-202.15,9.4-296.33,43.57
				c-71.12,25.86-130.28,82.99-158.54,153.2c-10.61,26.37-15.72,58.58-5.85,83.83c3.31,8.62,8.42,16.46,15.65,22.95
				c14.87,13.32,35.49,17.85,55.24,20.86c95.33,14.5,193.9,5.04,287.6,27.85c70.95,17.24,145.22,64.06,153.47,136.6
				c0.03,0.17,0.03,0.3,0.03,0.47c0.03,0.03,0.03,0.03,0.03,0.07c5.61,51.42-24.85,101.31-65.04,134
				c-40.33,32.76-89.72,51.82-137.21,72.85c-116.73,51.69-241.6,142.75-238.08,270.36c0.51,18.22,3.58,38,8.72,58.45
				c18.59,74.3,63.89,157.73,108.54,208.4c1.25,1.39,2.47,2.74,3.68,4.09"/>
		</g>
	</g>
</g>
</svg>
