<?xml version="1.0" encoding="utf-8"?>
<!-- Generator: Adobe Illustrator 28.0.0, SVG Export Plug-In . SVG Version: 6.00 Build 0)  -->
<svg version="1.1" id="Layer_1" xmlns="http://www.w3.org/2000/svg" xmlns:xlink="http://www.w3.org/1999/xlink" x="0px" y="0px"
	 viewBox="0 0 1417.32 3461.1" style="enable-background:new 0 0 1417.32 3461.1;" xml:space="preserve">
<style type="text/css">
	.st0{fill:#FFFFFF;}
	.st1{fill:#A9203F;}
	.st2{fill:none;stroke:#A9203F;stroke-miterlimit:10;}
	.st3{fill:none;stroke:#AD354C;stroke-miterlimit:10;}
</style>
<g id="XMLID_00000023960792664010394750000007352939145099584189_">
	<g>
		<g>
			<path class="st0" d="M298.27,1586.17c-6.42-20.34-7.42-43.57-5.01-64.75c13.08-114.62,98.97-217.59,209.36-251
				c95.87-29.04,202.21-8.71,296.48-42.56c71.25-25.57,130.57-82.49,159.12-152.6c7.6-18.7,12.41-40.35,11.1-60.37
				c9.78,25.29,4.56,57.48-6.15,83.81c-28.51,70.11-87.87,127.03-159.08,152.64c-94.3,33.84-200.61,13.49-296.48,42.52
				c-110.39,33.41-196.31,136.38-209.36,251C296.71,1558.24,296.56,1572.4,298.27,1586.17z"/>
			<path class="st0" d="M341.79,2306.96c-12.53,25.07-17.97,54.46-14.76,82.16c-10.73-33.81-6.33-73.31,9.77-105.6
				c23.36-46.74,66.61-80.49,111.96-106.42c124.31-71.06,269.65-93.73,411.56-112.9c97.03-13.11,210.97-37.15,249.49-127.17
				c10.29-24.03,12.95-49.04,9.66-73.63c9.22,31.88,8.93,65.34-4.67,97.1c-38.55,89.99-152.49,114.06-249.52,127.13
				c-141.88,19.17-287.25,41.85-411.53,112.9C408.36,2226.47,365.14,2260.22,341.79,2306.96z"/>
			<path class="st0" d="M298.27,1586.17c6.18,19.63,17.45,36.57,35.57,46.34c18.35,9.9,40.29,10.32,61.05,8.36
				c106.45-10,199-73.97,298.92-111.98c53.82-20.5,114.14-33.43,168.63-14.82c35.92,12.26,66.29,37.35,90.8,66.34
				c29.05,34.35,51.11,76.44,57.68,120.48c-9.71-35.43-28.86-68.86-52.73-97.04c-24.51-28.96-54.88-54.08-90.77-66.34
				c-54.53-18.62-114.81-5.68-168.67,14.82c-99.92,38.01-192.47,101.98-298.89,111.98c-20.76,1.95-42.7,1.54-61.05-8.36
				C313.79,1642.44,301.85,1615.25,298.27,1586.17z"/>
			<path class="st0" d="M327.03,2389.12c4.75,15.16,12.57,29.15,23.72,40.82c49.21,51.56,132.78,38.3,202.84,25.19
				c92.21-17.29,185.75-27.4,279.5-30.28c53.96-1.67,117.52,4.14,145.86,50.07c7.76,12.6,11.67,25.66,12.54,38.95
				c-1.91-5.25-4.43-10.39-7.58-15.51c-28.33-45.94-91.9-51.71-145.86-50.07c-93.75,2.88-187.29,12.99-279.5,30.28
				c-70.02,13.1-153.63,26.36-202.8-25.16C339,2435.84,329.75,2413.13,327.03,2389.12z"/>
			<path class="st0" d="M453.1,781.36c-5.7-51.64,25-101.66,65.45-134.31c40.44-32.61,89.9-51.5,137.5-72.39
				c116.91-51.24,242.07-141.9,239-269.52c-0.26-11.49-1.51-23.2-3.53-35c5.07,20.47,8.07,40.26,8.51,58.48
				C903.11,456.24,777.91,546.86,661,598.14c-47.57,20.86-97.02,39.75-137.47,72.36c-40.31,32.55-70.94,82.33-65.51,133.77
				C455.65,796.92,453.99,789.31,453.1,781.36z"/>
			<path class="st0" d="M458.09,804.81c-0.03-0.17-0.03-0.3-0.03-0.47C477.35,863.9,543,902.9,606.12,918.51
				c93.62,23.12,192.2,14.03,287.5,28.87c19.73,3.04,40.34,7.65,55.13,21.05c13.34,12.05,19.37,28.6,20.56,46.45
				c-3.28-8.63-8.36-16.49-15.57-23.01c-14.83-13.37-35.43-17.97-55.16-21.05c-95.28-14.84-193.88-5.72-287.5-28.87
				C540.18,924.46,466.08,877.38,458.09,804.81z"/>
			<path class="st0" d="M728.49,3381.65c-54.6-246.73,13.94-517.59,179.27-708.68c39.78-45.93,87.25-104.48,83.72-159.09
				c22.43,60.83-33.22,129.96-78.73,182.57c-160.14,185.05-229.45,444.9-184.09,685.17L728.49,3381.65z"/>
			<path class="st0" d="M790.43,1803.24c-5.39-14.76-6.82-30.72-2.78-46.59c18.03-70.86,115.24-87.08,184.18-62.7
				c13.98,4.95,27.61,11.46,40.56,19.24c0.55,6.9,0.73,13.86,0.47,20.83c-11.61-6.63-23.69-12.25-36.08-16.62
				c-68.94-24.35-166.12-8.16-184.15,62.7C790.65,1787.83,789.98,1795.6,790.43,1803.24z"/>
			<path class="st0" d="M783.72,61.35c48.82,55.14,94.85,134,107.81,208.79C873.2,195.77,828.2,112.18,783.72,61.35z"/>
			<path class="st0" d="M790.43,1803.24c14.83,40.48,59.54,72.11,104.25,68.48c60.97-4.96,109.37-62.12,116.99-122.84
				c0.63-4.93,1.02-9.9,1.2-14.87c1.52,0.85,3.04,1.73,4.52,2.62c0.94,11.83,0.76,23.8-0.74,35.73
				c-7.65,60.69-56.03,117.85-117.03,122.8C846.58,1899.48,793.46,1854.13,790.43,1803.24z"/>
			<path class="st0" d="M1012.4,1713.2c0.57,0.34,1.15,0.68,1.72,1.05c1.53,7.37,2.62,14.85,3.27,22.39c-1.48-0.88-3-1.77-4.52-2.62
				C1013.13,1727.06,1012.95,1720.1,1012.4,1713.2z"/>
			<path class="st0" d="M1017.39,1736.64c-0.65-7.54-1.74-15.02-3.27-22.39c54.71,33.52,97.38,89.99,105.35,149.15
				C1104.71,1812.47,1065.6,1765.65,1017.39,1736.64z"/>
		</g>
		<g>
			<path class="st0" d="M458.02,804.27c-2.37-7.34-4.04-14.96-4.92-22.9c-5.7-51.64,25-101.66,65.45-134.31
				c40.44-32.61,89.9-51.5,137.5-72.39c116.91-51.24,242.07-141.9,239-269.52c-0.26-11.49-1.51-23.2-3.53-35
				c-12.95-74.79-58.98-153.65-107.81-208.79"/>
			<path class="st0" d="M728.49,3381.65c-54.6-246.73,13.94-517.59,179.27-708.68c39.78-45.93,87.25-104.48,83.72-159.09
				c-0.87-13.29-4.77-26.35-12.54-38.95c-28.33-45.94-91.9-51.74-145.86-50.07c-93.75,2.88-187.29,12.99-279.5,30.28
				c-70.06,13.1-153.63,26.36-202.84-25.19c-11.15-11.67-18.97-25.66-23.72-40.82c-10.73-33.81-6.33-73.31,9.77-105.6
				c23.36-46.74,66.61-80.49,111.96-106.42c124.31-71.06,269.65-93.73,411.56-112.9c97.03-13.11,210.97-37.15,249.49-127.17
				c10.29-24.03,12.95-49.04,9.66-73.63c-7.97-59.15-50.63-115.62-105.35-149.15c-0.57-0.37-1.15-0.71-1.72-1.05
				c-12.95-7.79-26.59-14.29-40.56-19.24c-68.94-24.38-166.15-8.16-184.18,62.7c-4.05,15.87-2.61,31.83,2.78,46.59
				c14.83,40.48,59.54,72.11,104.25,68.48c60.97-4.96,109.37-62.12,116.99-122.84c0.63-4.93,1.02-9.9,1.2-14.87
				c0.26-6.96,0.08-13.93-0.47-20.83c-0.36-4.13-0.85-8.25-1.48-12.31c-6.57-44.04-28.63-86.13-57.68-120.48
				c-24.51-28.99-54.88-54.08-90.8-66.34c-54.49-18.62-114.81-5.68-168.63,14.82c-99.92,38.01-192.47,101.98-298.92,111.98
				c-20.76,1.95-42.7,1.54-61.05-8.36c-18.12-9.77-29.38-26.71-35.57-46.34c-6.42-20.34-7.42-43.57-5.01-64.75
				c13.08-114.62,98.97-217.59,209.36-251c95.87-29.04,202.21-8.71,296.48-42.56c71.25-25.57,130.57-82.49,159.12-152.6
				c7.6-18.7,12.41-40.35,11.1-60.37c-1.19-17.85-7.21-34.4-20.56-46.45c-14.79-13.41-35.4-18.01-55.13-21.05
				c-95.31-14.84-193.88-5.76-287.5-28.87C543,902.9,477.35,863.9,458.06,804.33"/>
			<path class="st0" d="M733.44,3405.09c-1.73-7.78-3.33-15.63-4.78-23.48c-45.36-240.27,23.95-500.12,184.09-685.17
				c45.52-52.61,101.17-121.74,78.73-182.57c-1.91-5.25-4.43-10.39-7.58-15.51c-28.33-45.94-91.9-51.71-145.86-50.07
				c-93.75,2.88-187.29,12.99-279.5,30.28c-70.02,13.1-153.63,26.36-202.8-25.16c-16.74-17.57-25.99-40.29-28.71-64.3
				c-3.21-27.7,2.23-57.09,14.76-82.16c23.36-46.74,66.58-80.49,111.96-106.42c124.28-71.06,269.65-93.73,411.53-112.9
				c97.03-13.08,210.97-37.15,249.52-127.13c13.6-31.76,13.89-65.23,4.67-97.1c-14.76-50.93-53.88-97.75-102.08-126.76
				c-1.48-0.88-3-1.77-4.52-2.62c-11.61-6.63-23.69-12.25-36.08-16.62c-68.94-24.35-166.12-8.16-184.15,62.7
				c-1.99,7.73-2.66,15.51-2.21,23.15c3.03,50.89,56.15,96.24,109.2,91.93c61-4.96,109.37-62.12,117.03-122.8
				c1.5-11.93,1.67-23.89,0.74-35.73c-0.65-7.54-1.74-15.02-3.27-22.39c-0.9-4.5-1.96-8.93-3.2-13.36
				c-9.71-35.43-28.86-68.86-52.73-97.04c-24.51-28.96-54.88-54.08-90.77-66.34c-54.53-18.62-114.81-5.68-168.67,14.82
				c-99.92,38.01-192.47,101.98-298.89,111.98c-20.76,1.95-42.7,1.54-61.05-8.36c-25.03-13.51-36.97-40.7-40.55-69.78
				c-1.71-13.76-1.56-27.93-0.02-41.31c13.05-114.62,98.97-217.59,209.36-251c95.87-29.04,202.18-8.68,296.48-42.52
				c71.21-25.61,130.57-82.53,159.08-152.64c10.71-26.33,15.93-58.53,6.15-83.81c-3.28-8.63-8.36-16.49-15.57-23.01
				c-14.83-13.37-35.43-17.97-55.16-21.05c-95.28-14.84-193.88-5.72-287.5-28.87c-70.89-17.49-144.99-64.57-152.99-137.15
				c-0.03-0.17-0.03-0.3-0.03-0.47c-0.03-0.03-0.03-0.03-0.03-0.07c-5.43-51.44,25.2-101.22,65.51-133.77
				c40.44-32.61,89.9-51.5,137.47-72.36c116.91-51.27,242.1-141.9,239.04-269.52c-0.44-18.22-3.45-38.01-8.51-58.48
				C873.2,195.77,828.2,112.18,783.72,61.35c-1.25-1.39-2.46-2.75-3.67-4.1"/>
		</g>
	</g>
	<g>
		<g>
			<path class="st1" d="M298.27,1586.17c-6.42-20.34-7.42-43.57-5.01-64.75c13.08-114.62,98.97-217.59,209.36-251
				c95.87-29.04,202.21-8.71,296.48-42.56c71.25-25.57,130.57-82.49,159.12-152.6c7.6-18.7,12.41-40.35,11.1-60.37
				c9.78,25.29,4.56,57.48-6.15,83.81c-28.51,70.11-87.87,127.03-159.08,152.64c-94.3,33.84-200.61,13.49-296.48,42.52
				c-110.39,33.41-196.31,136.38-209.36,251C296.71,1558.24,296.56,1572.4,298.27,1586.17z"/>
			<path class="st1" d="M341.79,2306.96c-12.53,25.07-17.97,54.46-14.76,82.16c-10.73-33.81-6.33-73.31,9.77-105.6
				c23.36-46.74,66.61-80.49,111.96-106.42c124.31-71.06,269.65-93.73,411.56-112.9c97.03-13.11,210.97-37.15,249.49-127.17
				c10.29-24.03,12.95-49.04,9.66-73.63c9.22,31.88,8.93,65.34-4.67,97.1c-38.55,89.99-152.49,114.06-249.52,127.13
				c-141.88,19.17-287.25,41.85-411.53,112.9C408.36,2226.47,365.14,2260.22,341.79,2306.96z"/>
			<path class="st1" d="M298.27,1586.17c6.18,19.63,17.45,36.57,35.57,46.34c18.35,9.9,40.29,10.32,61.05,8.36
				c106.45-10,199-73.97,298.92-111.98c53.82-20.5,114.14-33.43,168.63-14.82c35.92,12.26,66.29,37.35,90.8,66.34
				c29.05,34.35,51.11,76.44,57.68,120.48c-9.71-35.43-28.86-68.86-52.73-97.04c-24.51-28.96-54.88-54.08-90.77-66.34
				c-54.53-18.62-114.81-5.68-168.67,14.82c-99.92,38.01-192.47,101.98-298.89,111.98c-20.76,1.95-42.7,1.54-61.05-8.36
				C313.79,1642.44,301.85,1615.25,298.27,1586.17z"/>
			<path class="st1" d="M327.03,2389.12c4.75,15.16,12.57,29.15,23.72,40.82c49.21,51.56,132.78,38.3,202.84,25.19
				c92.21-17.29,185.75-27.4,279.5-30.28c53.96-1.67,117.52,4.14,145.86,50.07c7.76,12.6,11.67,25.66,12.54,38.95
				c-1.91-5.25-4.43-10.39-7.58-15.51c-28.33-45.94-91.9-51.71-145.86-50.07c-93.75,2.88-187.29,12.99-279.5,30.28
				c-70.02,13.1-153.63,26.36-202.8-25.16C339,2435.84,329.75,2413.13,327.03,2389.12z"/>
			<path class="st1" d="M453.1,781.36c-5.7-51.64,25-101.66,65.45-134.31c40.44-32.61,89.9-51.5,137.5-72.39
				c116.91-51.24,242.07-141.9,239-269.52c-0.26-11.49-1.51-23.2-3.53-35c5.07,20.47,8.07,40.26,8.51,58.48
				C903.11,456.24,777.91,546.86,661,598.14c-47.57,20.86-97.02,39.75-137.47,72.36c-40.31,32.55-70.94,82.33-65.51,133.77
				C455.65,796.92,453.99,789.31,453.1,781.36z"/>
			<path class="st1" d="M458.09,804.81c-0.03-0.17-0.03-0.3-0.03-0.47C477.35,863.9,543,902.9,606.12,918.51
				c93.62,23.12,192.2,14.03,287.5,28.87c19.73,3.04,40.34,7.65,55.13,21.05c13.34,12.05,19.37,28.6,20.56,46.45
				c-3.28-8.63-8.36-16.49-15.57-23.01c-14.83-13.37-35.43-17.97-55.16-21.05c-95.28-14.84-193.88-5.72-287.5-28.87
				C540.18,924.46,466.08,877.38,458.09,804.81z"/>
			<path class="st1" d="M728.49,3381.65c-54.6-246.73,13.94-517.59,179.27-708.68c39.78-45.93,87.25-104.48,83.72-159.09
				c22.43,60.83-33.22,129.96-78.73,182.57c-160.14,185.05-229.45,444.9-184.09,685.17L728.49,3381.65z"/>
			<path class="st1" d="M790.43,1803.24c-5.39-14.76-6.82-30.72-2.78-46.59c18.03-70.86,115.24-87.08,184.18-62.7
				c13.98,4.95,27.61,11.46,40.56,19.24c0.55,6.9,0.73,13.86,0.47,20.83c-11.61-6.63-23.69-12.25-36.08-16.62
				c-68.94-24.35-166.12-8.16-184.15,62.7C790.65,1787.83,789.98,1795.6,790.43,1803.24z"/>
			<path class="st1" d="M783.72,61.35c48.82,55.14,94.85,134,107.81,208.79C873.2,195.77,828.2,112.18,783.72,61.35z"/>
			<path class="st1" d="M790.43,1803.24c14.83,40.48,59.54,72.11,104.25,68.48c60.97-4.96,109.37-62.12,116.99-122.84
				c0.63-4.93,1.02-9.9,1.2-14.87c1.52,0.85,3.04,1.73,4.52,2.62c0.94,11.83,0.76,23.8-0.74,35.73
				c-7.65,60.69-56.03,117.85-117.03,122.8C846.58,1899.48,793.46,1854.13,790.43,1803.24z"/>
			<path class="st1" d="M1012.4,1713.2c0.57,0.34,1.15,0.68,1.72,1.05c1.53,7.37,2.62,14.85,3.27,22.39c-1.48-0.88-3-1.77-4.52-2.62
				C1013.13,1727.06,1012.95,1720.1,1012.4,1713.2z"/>
			<path class="st1" d="M1017.39,1736.64c-0.65-7.54-1.74-15.02-3.27-22.39c54.71,33.52,97.38,89.99,105.35,149.15
				C1104.71,1812.47,1065.6,1765.65,1017.39,1736.64z"/>
		</g>
		<g>
			<path class="st2" d="M458.02,804.27c-2.37-7.34-4.04-14.96-4.92-22.9c-5.7-51.64,25-101.66,65.45-134.31
				c40.44-32.61,89.9-51.5,137.5-72.39c116.91-51.24,242.07-141.9,239-269.52c-0.26-11.49-1.51-23.2-3.53-35
				c-12.95-74.79-58.98-153.65-107.81-208.79"/>
			<path class="st2" d="M728.49,3381.65c-54.6-246.73,13.94-517.59,179.27-708.68c39.78-45.93,87.25-104.48,83.72-159.09
				c-0.87-13.29-4.77-26.35-12.54-38.95c-28.33-45.94-91.9-51.74-145.86-50.07c-93.75,2.88-187.29,12.99-279.5,30.28
				c-70.06,13.1-153.63,26.36-202.84-25.19c-11.15-11.67-18.97-25.66-23.72-40.82c-10.73-33.81-6.33-73.31,9.77-105.6
				c23.36-46.74,66.61-80.49,111.96-106.42c124.31-71.06,269.65-93.73,411.56-112.9c97.03-13.11,210.97-37.15,249.49-127.17
				c10.29-24.03,12.95-49.04,9.66-73.63c-7.97-59.15-50.63-115.62-105.35-149.15c-0.57-0.37-1.15-0.71-1.72-1.05
				c-12.95-7.79-26.59-14.29-40.56-19.24c-68.94-24.38-166.15-8.16-184.18,62.7c-4.05,15.87-2.61,31.83,2.78,46.59
				c14.83,40.48,59.54,72.11,104.25,68.48c60.97-4.96,109.37-62.12,116.99-122.84c0.63-4.93,1.02-9.9,1.2-14.87
				c0.26-6.96,0.08-13.93-0.47-20.83c-0.36-4.13-0.85-8.25-1.48-12.31c-6.57-44.04-28.63-86.13-57.68-120.48
				c-24.51-28.99-54.88-54.08-90.8-66.34c-54.49-18.62-114.81-5.68-168.63,14.82c-99.92,38.01-192.47,101.98-298.92,111.98
				c-20.76,1.95-42.7,1.54-61.05-8.36c-18.12-9.77-29.38-26.71-35.57-46.34c-6.42-20.34-7.42-43.57-5.01-64.75
				c13.08-114.62,98.97-217.59,209.36-251c95.87-29.04,202.21-8.71,296.48-42.56c71.25-25.57,130.57-82.49,159.12-152.6
				c7.6-18.7,12.41-40.35,11.1-60.37c-1.19-17.85-7.21-34.4-20.56-46.45c-14.79-13.41-35.4-18.01-55.13-21.05
				c-95.31-14.84-193.88-5.76-287.5-28.87C543,902.9,477.35,863.9,458.06,804.33"/>
			<path class="st2" d="M733.44,3405.09c-1.73-7.78-3.33-15.63-4.78-23.48c-45.36-240.27,23.95-500.12,184.09-685.17
				c45.52-52.61,101.17-121.74,78.73-182.57c-1.91-5.25-4.43-10.39-7.58-15.51c-28.33-45.94-91.9-51.71-145.86-50.07
				c-93.75,2.88-187.29,12.99-279.5,30.28c-70.02,13.1-153.63,26.36-202.8-25.16c-16.74-17.57-25.99-40.29-28.71-64.3
				c-3.21-27.7,2.23-57.09,14.76-82.16c23.36-46.74,66.58-80.49,111.96-106.42c124.28-71.06,269.65-93.73,411.53-112.9
				c97.03-13.08,210.97-37.15,249.52-127.13c13.6-31.76,13.89-65.23,4.67-97.1c-14.76-50.93-53.88-97.75-102.08-126.76
				c-1.48-0.88-3-1.77-4.52-2.62c-11.61-6.63-23.69-12.25-36.08-16.62c-68.94-24.35-166.12-8.16-184.15,62.7
				c-1.99,7.73-2.66,15.51-2.21,23.15c3.03,50.89,56.15,96.24,109.2,91.93c61-4.96,109.37-62.12,117.03-122.8
				c1.5-11.93,1.67-23.89,0.74-35.73c-0.65-7.54-1.74-15.02-3.27-22.39c-0.9-4.5-1.96-8.93-3.2-13.36
				c-9.71-35.43-28.86-68.86-52.73-97.04c-24.51-28.96-54.88-54.08-90.77-66.34c-54.53-18.62-114.81-5.68-168.67,14.82
				c-99.92,38.01-192.47,101.98-298.89,111.98c-20.76,1.95-42.7,1.54-61.05-8.36c-25.03-13.51-36.97-40.7-40.55-69.78
				c-1.71-13.76-1.56-27.93-0.02-41.31c13.05-114.62,98.97-217.59,209.36-251c95.87-29.04,202.18-8.68,296.48-42.52
				c71.21-25.61,130.57-82.53,159.08-152.64c10.71-26.33,15.93-58.53,6.15-83.81c-3.28-8.63-8.36-16.49-15.57-23.01
				c-14.83-13.37-35.43-17.97-55.16-21.05c-95.28-14.84-193.88-5.72-287.5-28.87c-70.89-17.49-144.99-64.57-152.99-137.15
				c-0.03-0.17-0.03-0.3-0.03-0.47c-0.03-0.03-0.03-0.03-0.03-0.07c-5.43-51.44,25.2-101.22,65.51-133.77
				c40.44-32.61,89.9-51.5,137.47-72.36c116.91-51.27,242.1-141.9,239.04-269.52c-0.44-18.22-3.45-38.01-8.51-58.48
				C873.2,195.77,828.2,112.18,783.72,61.35c-1.25-1.39-2.46-2.75-3.67-4.1"/>
		</g>
	</g>
	<g>
		<g>
			<path class="st3" d="M298.27,1586.17c-6.42-20.34-7.42-43.57-5.01-64.75c13.08-114.62,98.97-217.59,209.36-251
				c95.87-29.04,202.21-8.71,296.48-42.56c71.25-25.57,130.57-82.49,159.12-152.6c7.6-18.7,12.41-40.35,11.1-60.37
				c9.78,25.29,4.56,57.48-6.15,83.81c-28.51,70.11-87.87,127.03-159.08,152.64c-94.3,33.84-200.61,13.49-296.48,42.52
				c-110.39,33.41-196.31,136.38-209.36,251C296.71,1558.24,296.56,1572.4,298.27,1586.17z"/>
			<path class="st3" d="M341.79,2306.96c-12.53,25.07-17.97,54.46-14.76,82.16c-10.73-33.81-6.33-73.31,9.77-105.6
				c23.36-46.74,66.61-80.49,111.96-106.42c124.31-71.06,269.65-93.73,411.56-112.9c97.03-13.11,210.97-37.15,249.49-127.17
				c10.29-24.03,12.95-49.04,9.66-73.63c9.22,31.88,8.93,65.34-4.67,97.1c-38.55,89.99-152.49,114.06-249.52,127.13
				c-141.88,19.17-287.25,41.85-411.53,112.9C408.36,2226.47,365.14,2260.22,341.79,2306.96z"/>
			<path class="st3" d="M298.27,1586.17c6.18,19.63,17.45,36.57,35.57,46.34c18.35,9.9,40.29,10.32,61.05,8.36
				c106.45-10,199-73.97,298.92-111.98c53.82-20.5,114.14-33.43,168.63-14.82c35.92,12.26,66.29,37.35,90.8,66.34
				c29.05,34.35,51.11,76.44,57.68,120.48c-9.71-35.43-28.86-68.86-52.73-97.04c-24.51-28.96-54.88-54.08-90.77-66.34
				c-54.53-18.62-114.81-5.68-168.67,14.82c-99.92,38.01-192.47,101.98-298.89,111.98c-20.76,1.95-42.7,1.54-61.05-8.36
				C313.79,1642.44,301.85,1615.25,298.27,1586.17z"/>
			<path class="st3" d="M327.03,2389.12c4.75,15.16,12.57,29.15,23.72,40.82c49.21,51.56,132.78,38.3,202.84,25.19
				c92.21-17.29,185.75-27.4,279.5-30.28c53.96-1.67,117.52,4.14,145.86,50.07c7.76,12.6,11.67,25.66,12.54,38.95
				c-1.91-5.25-4.43-10.39-7.58-15.51c-28.33-45.94-91.9-51.71-145.86-50.07c-93.75,2.88-187.29,12.99-279.5,30.28
				c-70.02,13.1-153.63,26.36-202.8-25.16C339,2435.84,329.75,2413.13,327.03,2389.12z"/>
			<path class="st3" d="M453.1,781.36c-5.7-51.64,25-101.66,65.45-134.31c40.44-32.61,89.9-51.5,137.5-72.39
				c116.91-51.24,242.07-141.9,239-269.52c-0.26-11.49-1.51-23.2-3.53-35c5.07,20.47,8.07,40.26,8.51,58.48
				C903.11,456.24,777.91,546.86,661,598.14c-47.57,20.86-97.02,39.75-137.47,72.36c-40.31,32.55-70.94,82.33-65.51,133.77
				C455.65,796.92,453.99,789.31,453.1,781.36z"/>
			<path class="st3" d="M458.09,804.81c-0.03-0.17-0.03-0.3-0.03-0.47C477.35,863.9,543,902.9,606.12,918.51
				c93.62,23.12,192.2,14.03,287.5,28.87c19.73,3.04,40.34,7.65,55.13,21.05c13.34,12.05,19.37,28.6,20.56,46.45
				c-3.28-8.63-8.36-16.49-15.57-23.01c-14.83-13.37-35.43-17.97-55.16-21.05c-95.28-14.84-193.88-5.72-287.5-28.87
				C540.18,924.46,466.08,877.38,458.09,804.81z"/>
			<path class="st3" d="M728.49,3381.65c-54.6-246.73,13.94-517.59,179.27-708.68c39.78-45.93,87.25-104.48,83.72-159.09
				c22.43,60.83-33.22,129.96-78.73,182.57c-160.14,185.05-229.45,444.9-184.09,685.17L728.49,3381.65z"/>
			<path class="st3" d="M790.43,1803.24c-5.39-14.76-6.82-30.72-2.78-46.59c18.03-70.86,115.24-87.08,184.18-62.7
				c13.98,4.95,27.61,11.46,40.56,19.24c0.55,6.9,0.73,13.86,0.47,20.83c-11.61-6.63-23.69-12.25-36.08-16.62
				c-68.94-24.35-166.12-8.16-184.15,62.7C790.65,1787.83,789.98,1795.6,790.43,1803.24z"/>
			<path class="st3" d="M783.72,61.35c48.82,55.14,94.85,134,107.81,208.79C873.2,195.77,828.2,112.18,783.72,61.35z"/>
			<path class="st3" d="M790.43,1803.24c14.83,40.48,59.54,72.11,104.25,68.48c60.97-4.96,109.37-62.12,116.99-122.84
				c0.63-4.93,1.02-9.9,1.2-14.87c1.52,0.85,3.04,1.73,4.52,2.62c0.94,11.83,0.76,23.8-0.74,35.73
				c-7.65,60.69-56.03,117.85-117.03,122.8C846.58,1899.48,793.46,1854.13,790.43,1803.24z"/>
			<path class="st3" d="M1012.4,1713.2c0.57,0.34,1.15,0.68,1.72,1.05c1.53,7.37,2.62,14.85,3.27,22.39c-1.48-0.88-3-1.77-4.52-2.62
				C1013.13,1727.06,1012.95,1720.1,1012.4,1713.2z"/>
			<path class="st3" d="M1017.39,1736.64c-0.65-7.54-1.74-15.02-3.27-22.39c54.71,33.52,97.38,89.99,105.35,149.15
				C1104.71,1812.47,1065.6,1765.65,1017.39,1736.64z"/>
		</g>
		<g>
			<path class="st3" d="M458.02,804.27c-2.37-7.34-4.04-14.96-4.92-22.9c-5.7-51.64,25-101.66,65.45-134.31
				c40.44-32.61,89.9-51.5,137.5-72.39c116.91-51.24,242.07-141.9,239-269.52c-0.26-11.49-1.51-23.2-3.53-35
				c-12.95-74.79-58.98-153.65-107.81-208.79"/>
			<path class="st3" d="M728.49,3381.65c-54.6-246.73,13.94-517.59,179.27-708.68c39.78-45.93,87.25-104.48,83.72-159.09
				c-0.87-13.29-4.77-26.35-12.54-38.95c-28.33-45.94-91.9-51.74-145.86-50.07c-93.75,2.88-187.29,12.99-279.5,30.28
				c-70.06,13.1-153.63,26.36-202.84-25.19c-11.15-11.67-18.97-25.66-23.72-40.82c-10.73-33.81-6.33-73.31,9.77-105.6
				c23.36-46.74,66.61-80.49,111.96-106.42c124.31-71.06,269.65-93.73,411.56-112.9c97.03-13.11,210.97-37.15,249.49-127.17
				c10.29-24.03,12.95-49.04,9.66-73.63c-7.97-59.15-50.63-115.62-105.35-149.15c-0.57-0.37-1.15-0.71-1.72-1.05
				c-12.95-7.79-26.59-14.29-40.56-19.24c-68.94-24.38-166.15-8.16-184.18,62.7c-4.05,15.87-2.61,31.83,2.78,46.59
				c14.83,40.48,59.54,72.11,104.25,68.48c60.97-4.96,109.37-62.12,116.99-122.84c0.63-4.93,1.02-9.9,1.2-14.87
				c0.26-6.96,0.08-13.93-0.47-20.83c-0.36-4.13-0.85-8.25-1.48-12.31c-6.57-44.04-28.63-86.13-57.68-120.48
				c-24.51-28.99-54.88-54.08-90.8-66.34c-54.49-18.62-114.81-5.68-168.63,14.82c-99.92,38.01-192.47,101.98-298.92,111.98
				c-20.76,1.95-42.7,1.54-61.05-8.36c-18.12-9.77-29.38-26.71-35.57-46.34c-6.42-20.34-7.42-43.57-5.01-64.75
				c13.08-114.62,98.97-217.59,209.36-251c95.87-29.04,202.21-8.71,296.48-42.56c71.25-25.57,130.57-82.49,159.12-152.6
				c7.6-18.7,12.41-40.35,11.1-60.37c-1.19-17.85-7.21-34.4-20.56-46.45c-14.79-13.41-35.4-18.01-55.13-21.05
				c-95.31-14.84-193.88-5.76-287.5-28.87C543,902.9,477.35,863.9,458.06,804.33"/>
			<path class="st3" d="M733.44,3405.09c-1.73-7.78-3.33-15.63-4.78-23.48c-45.36-240.27,23.95-500.12,184.09-685.17
				c45.52-52.61,101.17-121.74,78.73-182.57c-1.91-5.25-4.43-10.39-7.58-15.51c-28.33-45.94-91.9-51.71-145.86-50.07
				c-93.75,2.88-187.29,12.99-279.5,30.28c-70.02,13.1-153.63,26.36-202.8-25.16c-16.74-17.57-25.99-40.29-28.71-64.3
				c-3.21-27.7,2.23-57.09,14.76-82.16c23.36-46.74,66.58-80.49,111.96-106.42c124.28-71.06,269.65-93.73,411.53-112.9
				c97.03-13.08,210.97-37.15,249.52-127.13c13.6-31.76,13.89-65.23,4.67-97.1c-14.76-50.93-53.88-97.75-102.08-126.76
				c-1.48-0.88-3-1.77-4.52-2.62c-11.61-6.63-23.69-12.25-36.08-16.62c-68.94-24.35-166.12-8.16-184.15,62.7
				c-1.99,7.73-2.66,15.51-2.21,23.15c3.03,50.89,56.15,96.24,109.2,91.93c61-4.96,109.37-62.12,117.03-122.8
				c1.5-11.93,1.67-23.89,0.74-35.73c-0.65-7.54-1.74-15.02-3.27-22.39c-0.9-4.5-1.96-8.93-3.2-13.36
				c-9.71-35.43-28.86-68.86-52.73-97.04c-24.51-28.96-54.88-54.08-90.77-66.34c-54.53-18.62-114.81-5.68-168.67,14.82
				c-99.92,38.01-192.47,101.98-298.89,111.98c-20.76,1.95-42.7,1.54-61.05-8.36c-25.03-13.51-36.97-40.7-40.55-69.78
				c-1.71-13.76-1.56-27.93-0.02-41.31c13.05-114.62,98.97-217.59,209.36-251c95.87-29.04,202.18-8.68,296.48-42.52
				c71.21-25.61,130.57-82.53,159.08-152.64c10.71-26.33,15.93-58.53,6.15-83.81c-3.28-8.63-8.36-16.49-15.57-23.01
				c-14.83-13.37-35.43-17.97-55.16-21.05c-95.28-14.84-193.88-5.72-287.5-28.87c-70.89-17.49-144.99-64.57-152.99-137.15
				c-0.03-0.17-0.03-0.3-0.03-0.47c-0.03-0.03-0.03-0.03-0.03-0.07c-5.43-51.44,25.2-101.22,65.51-133.77
				c40.44-32.61,89.9-51.5,137.47-72.36c116.91-51.27,242.1-141.9,239.04-269.52c-0.44-18.22-3.45-38.01-8.51-58.48
				C873.2,195.77,828.2,112.18,783.72,61.35c-1.25-1.39-2.46-2.75-3.67-4.1"/>
		</g>
	</g>
</g>
</svg>
